<svg xmlns="http://www.w3.org/2000/svg" width="80" height="80" viewBox="0 0 80 80"><defs><style>.a{fill:#c63527;}</style></defs><g transform="translate(-116 -3633)"><g transform="translate(-170 -63)"><g transform="translate(276 3686)"><path class="a" d="M11,90H33.551a1,1,0,0,0,1-1V11a1,1,0,0,0-1-1H11a1,1,0,0,0-1,1V89A1,1,0,0,0,11,90Zm1-78H32.551V88H12Z"/><path class="a" d="M22.275,72.205a5.987,5.987,0,1,0-5.986-5.987A5.994,5.994,0,0,0,22.275,72.205Zm0-9.973a3.987,3.987,0,1,1-3.986,3.986A3.991,3.991,0,0,1,22.275,62.232Z"/><path class="a" d="M27.282,80.192H17.269a1,1,0,1,0,0,2H27.282a1,1,0,0,0,0-2Z"/><path class="a" d="M27.282,75.077H17.269a1,1,0,1,0,0,2H27.282a1,1,0,0,0,0-2Z"/><path class="a" d="M38.725,10a1,1,0,0,0-1,1V89a1,1,0,0,0,1,1H61.276a1,1,0,0,0,1-1V11a1,1,0,0,0-1-1ZM60.276,88H39.725V12H60.276Z"/><path class="a" d="M50,72.205a5.987,5.987,0,1,0-5.986-5.987A5.994,5.994,0,0,0,50,72.205Zm0-9.973a3.987,3.987,0,1,1-3.986,3.986A3.991,3.991,0,0,1,50,62.232Z"/><path class="a" d="M44.994,82.192H55.007a1,1,0,0,0,0-2H44.994a1,1,0,0,0,0,2Z"/><path class="a" d="M44.994,77.077H55.007a1,1,0,0,0,0-2H44.994a1,1,0,0,0,0,2Z"/><path class="a" d="M89,10H66.449a1,1,0,0,0-1,1V89a1,1,0,0,0,1,1H89a1,1,0,0,0,1-1V11A1,1,0,0,0,89,10ZM88,88H67.449V12H88Z"/><path class="a" d="M77.725,72.205a5.987,5.987,0,1,0-5.987-5.987A5.994,5.994,0,0,0,77.725,72.205Zm0-9.973a3.987,3.987,0,1,1-3.987,3.986A3.99,3.99,0,0,1,77.725,62.232Z"/><path class="a" d="M72.718,82.192H82.731a1,1,0,0,0,0-2H72.718a1,1,0,0,0,0,2Z"/><path class="a" d="M72.718,77.077H82.731a1,1,0,0,0,0-2H72.718a1,1,0,0,0,0,2Z"/><path class="a" d="M17.832,46.369h8.887a1,1,0,0,0,1-1V21.625a1,1,0,0,0-1-1H17.832a1,1,0,0,0-1,1V45.369A1,1,0,0,0,17.832,46.369Zm1-23.744h6.887V44.369H18.832Z"/><path class="a" d="M45.557,46.369h8.887a1,1,0,0,0,1-1V21.625a1,1,0,0,0-1-1H45.557a1,1,0,0,0-1,1V45.369A1,1,0,0,0,45.557,46.369Zm1-23.744h6.887V44.369H46.557Z"/><path class="a" d="M73.282,46.369h8.886a1,1,0,0,0,1-1V21.625a1,1,0,0,0-1-1H73.282a1,1,0,0,0-1,1V45.369A1,1,0,0,0,73.282,46.369Zm1-23.744h6.886V44.369H74.282Z"/></g></g></g></svg>