<svg xmlns="http://www.w3.org/2000/svg" width="80" height="83.411" viewBox="0 0 80 83.411"><defs><style>.a{fill:#ca3625;}</style></defs><g transform="translate(0 196.827)"><g transform="translate(0 -196.827)"><path class="a" d="M76.768,88.929l-28.483,14.9a8.586,8.586,0,0,1-6.869.5L24.954,98.84H19.369V80.914h6.856a11.48,11.48,0,0,1,5.1,1.157l9.285,4.321H52.836A2.5,2.5,0,0,1,55.266,88.8a2.413,2.413,0,0,1-2.429,2.481H38.316c-1.271.251-3.812,1.394-3.812,3.945h1.9c0-1.533,1.787-1.91,2.164-2.035H52.836a5.11,5.11,0,0,0,2.025-.516l19.868-8.768a2.668,2.668,0,0,1,3.56,1.533A2.856,2.856,0,0,1,76.768,89m3.309-4.321a4.75,4.75,0,0,0-6.115-2.537L57.025,89.556c0-.251.14-.5.14-.753a4.269,4.269,0,0,0-4.189-4.321H41.122L32.2,80.3a13.98,13.98,0,0,0-5.976-1.268H19.355V75.84H.38v1.9H17.442v24.157H3.815v1.938h15.54v-3.206h5.082l16.294,5.464a10.61,10.61,0,0,0,3.365.53,11.28,11.28,0,0,0,4.971-1.143l28.33-14.9a4.625,4.625,0,0,0,2.681-5.966" transform="translate(-0.38 -23.207)"/><rect class="a" width="1.91" height="1.91" transform="translate(11.946 73.347)"/><rect class="a" width="1.91" height="1.91" transform="translate(7.876 73.347)"/><path class="a" d="M44.77,46.91V7.643h4.182V42.714h34.43V46.9ZM50.875,2.555H79.2v9.911H89.11V40.8H50.875ZM81.123,3.824l6.733,6.733H81.123ZM85.3,42.714H91.02V11.072L80.482.52H48.965V5.608H42.86V48.694H85.319Z" transform="translate(-13.121 -0.52)"/><rect class="a" width="19.32" height="1.91" transform="translate(42.538 16.295)"/><rect class="a" width="28.729" height="1.91" transform="translate(42.577 24.058)"/><rect class="a" width="28.729" height="1.91" transform="translate(42.577 31.821)"/></g></g></svg>