<svg xmlns="http://www.w3.org/2000/svg" width="80" height="80" viewBox="0 0 80 80"><defs><style>.a{fill:#c63527;}</style></defs><g transform="translate(-116 -4024.249)"><circle class="a" cx="1.333" cy="1.333" r="1.333" transform="translate(182.667 4029.582)"/><circle class="a" cx="1.333" cy="1.333" r="1.333" transform="translate(177.333 4029.582)"/><circle class="a" cx="1.333" cy="1.333" r="1.333" transform="translate(172 4029.582)"/><path class="a" d="M49.658,84.75a6.54,6.54,0,0,0-5.2-5.2V68.75H41.792v10.8a6.541,6.541,0,0,0-5.2,5.2H3.125v2.667H36.592a6.668,6.668,0,0,0,13.066,0H83.125V84.75Zm-6.533,5.333a4,4,0,1,1,4-4A3.928,3.928,0,0,1,43.125,90.083Z" transform="translate(112.875 4011.499)"/><path class="a" d="M40.042,64.458h-28v-48h64v48h-28v2.667H78.708v-64H9.375v64H40.042Zm36-58.667v8h-64v-8Z" transform="translate(111.958 4021.124)"/><path class="a" d="M47.708,21.875a8.024,8.024,0,0,0-8,8v8H38.375a3.929,3.929,0,0,0-4,4V55.209a3.928,3.928,0,0,0,4,4H57.042a3.928,3.928,0,0,0,4-4V41.875a3.928,3.928,0,0,0-4-4H55.708v-8A8.024,8.024,0,0,0,47.708,21.875Zm-5.333,8a5.333,5.333,0,1,1,10.667,0v8H42.375Zm16,12V55.209a1.259,1.259,0,0,1-1.333,1.333H38.375a1.26,1.26,0,0,1-1.334-1.333V41.875a1.26,1.26,0,0,1,1.334-1.334H57.042A1.26,1.26,0,0,1,58.375,41.875Z" transform="translate(108.292 4018.374)"/></g></svg>