<svg xmlns="http://www.w3.org/2000/svg" width="80" height="84.993" viewBox="0 0 80 84.993"><defs><style>.a{fill:#ca3625;}</style></defs><g transform="translate(0 22.993)"><g transform="translate(0 -22.993)"><path class="a" d="M50.992,60.419a1.168,1.168,0,0,0,1.621.146l5.839-4.774a1.152,1.152,0,0,0,.175-1.635,1.169,1.169,0,0,0-1.635-.175L52,58.04l-1.766-2.088a1.168,1.168,0,1,0-1.781,1.46Z" transform="translate(-13.562 -15.733)"/><path class="a" d="M51.432,60.679A10.891,10.891,0,0,0,62.308,49.8a10.761,10.761,0,0,0-3.036-7.533V34.737a7.737,7.737,0,0,0-15.46,0v7.3a10.861,10.861,0,0,0,7.62,18.613Zm-5.3-25.942a5.4,5.4,0,0,1,10.8,0v5.694a10.846,10.846,0,0,0-10.8-.117Zm5.3,6.555a8.5,8.5,0,1,1-6.058,2.5A8.5,8.5,0,0,1,51.432,41.292Z" transform="translate(-11.447 -8.285)"/><path class="a" d="M77.591,33.917l-12.7-7.824h-.117l-.306-.146V20.5a1.137,1.137,0,0,0-.306-.774L47.562,1.216h0a1.124,1.124,0,0,0-.846-.423H22.861a7.3,7.3,0,0,0-7.3,7.3V25.961L2.423,33.917A5.066,5.066,0,0,0,0,38.18V75.99a9.8,9.8,0,0,0,9.8,9.8H70.2a9.811,9.811,0,0,0,9.8-9.8V38.18A5.111,5.111,0,0,0,77.591,33.917ZM76.365,35.9a2.729,2.729,0,0,1,1.3,2.277v2.176L64.525,48.413V28.56ZM47.825,5,58.978,17.436H52.817a5.007,5.007,0,0,1-4.992-4.993ZM22.861,3.144H45.489v9.328a7.3,7.3,0,0,0,7.3,7.3h8.248l1.066,1.2V49.859L40,63.406,17.869,49.859V8.107A4.992,4.992,0,0,1,22.861,3.144ZM3.62,35.9l11.913-7.211V48.4L2.394,40.341V38.18A2.714,2.714,0,0,1,3.62,35.9ZM70.2,83.435H9.8a7.46,7.46,0,0,1-7.46-7.445V43.129l13.548,8.277a1.033,1.033,0,0,0,.452.278l23.08,14.087a1.139,1.139,0,0,0,1.212,0L63.693,51.684a1.12,1.12,0,0,0,.452-.278l13.548-8.277V75.99A7.46,7.46,0,0,1,70.2,83.435Z" transform="translate(0 -0.793)"/></g></g></svg>