<svg xmlns="http://www.w3.org/2000/svg" viewBox="0 0 503.26 297.17" width="160px"><defs><style>.cls-1{fill:#1d1d1b;}</style></defs><g id="Capa_2" data-name="Capa 2"><g id="Capa_1-2" data-name="Capa 1"><path class="cls-1" d="M212.48,123.09c5.74-3,7.59-9.58,7.59-14.47,0-9.58-7.22-15.57-17.49-15.57H179.35v64.49h23c12.5,0,21.66-7.36,21.66-18.14A17.09,17.09,0,0,0,212.48,123.09ZM189.07,101.9H200c6.11,0,10,2.95,10,8.66s-4.16,9.12-10.46,9.12H189.07Zm12.4,46.8h-12.4V128.25H202.3c7,0,11.57,3.59,11.66,9.67C214.15,144.37,209.15,148.7,201.47,148.7Z"/><path class="cls-1" d="M302.57,110.56a19.93,19.93,0,0,0-14.62,5.8v-5h-8.79v46.15h9.25V126a15.88,15.88,0,0,1,13-6.91c6.48,0,10.56,4.24,10.56,11.05v27.36h9.34V129C321.36,117.38,313.68,110.56,302.57,110.56Z"/><polygon class="cls-1" points="372.57 111.39 360.35 111.39 341.56 131.38 341.56 93.11 332.31 93.11 332.31 157.54 341.56 157.54 341.56 136.54 361.19 157.54 373.59 157.54 350.63 133.96 372.57 111.39"/><path class="cls-1" d="M250.58,110.56a28.26,28.26,0,0,0-17.31,5.71v9.4c5.36-4,10.27-6.54,17-6.54,5.47,0,9.08,1.66,9.08,5.8,0,3.32-2.32,4-7.78,5.34-12.21,3.14-21.29,5.07-21.29,15.58,0,8.38,5.74,12.53,13.89,12.53,7.4,0,12.68-3.41,15.36-7v6.17h8.79V124.93C268.34,115.81,261.21,110.56,250.58,110.56Zm8.51,28.74c0,8.3-7,11.34-12.78,11.34-4.9,0-6.93-2.21-6.93-5.53,0-5.62,5.83-6.27,12.4-8.2,4.53-1.29,6.75-2.12,7.31-2.49Z"/><path class="cls-1" d="M301.84,77.21c0,9.21,9.53,12.53,20.92,12.53,12.59,0,23.87-4,23.87-14.65,0-8.84-7.86-11.42-18.88-12.35-6.94-.64-13-.27-13-3.4,0-2.86,5.18-3.05,11-4.24,7-1.48,17-5,17-16.13a11.73,11.73,0,0,0-4.35-9.49H348v-8.1H324.33c-12.22,0-19.8,7-19.8,17.32,0,6.63,3.05,11.51,8.42,14.28-3.79.82-6.85,3-6.85,6.63,0,3.41,2.4,5.81,5.83,6.91C305.82,67.81,301.84,71.41,301.84,77.21Zm21.84-47.45c6,0,10.36,4.05,10.36,9.3s-4.34,9.13-10.36,9.13-10.27-4-10.27-9.13S317.67,29.76,323.68,29.76Zm.93,40.45c6.75,0,13.14,1,13.23,5.62s-6.75,6-14.53,6c-9,0-12.68-1.84-12.68-5.52C310.63,71.22,317.76,70.21,324.61,70.21Z"/><path class="cls-1" d="M201,60.44c-7.58,0-15.82-4.51-20.72-9.12V61.91a32.62,32.62,0,0,0,20.63,7.38c12.86,0,22.4-8.2,22.4-19.82,0-13-11.75-15.75-20.55-18.42-7-2.12-13.6-4.24-13.6-10.6,0-5.71,5.18-10,13-10,6.94,0,13.32,3.41,16.84,6.18V6.72a29.3,29.3,0,0,0-17.21-5.15c-13.24,0-22.4,7-22.4,19,0,13,10.64,16.59,20.64,19.72,8.42,2.67,13.14,4.34,13.14,10.05S208.41,60.44,201,60.44Z"/><path class="cls-1" d="M388.35,52.89a16.11,16.11,0,0,1-13,6.91c-6.38,0-10.54-4.24-10.54-11.06V21.38H355.5V49.93c0,11.61,7.87,18.43,18.69,18.43a20.57,20.57,0,0,0,14.72-5.8v5h8.79V21.38h-9.35Z"/><rect class="cls-1" x="408.96" y="2.03" width="9.26" height="65.51"/><path class="cls-1" d="M447,20.54a28.27,28.27,0,0,0-17.31,5.72v9.4c5.37-4,10.28-6.54,17-6.54,5.46,0,9.07,1.65,9.07,5.8,0,3.32-2.31,4-7.78,5.34-12.21,3.14-21.28,5.07-21.28,15.57,0,8.39,5.74,12.53,13.88,12.53,7.4,0,12.68-3.4,15.37-7v6.18h8.79V34.92C464.77,25.8,457.64,20.54,447,20.54Zm8.51,28.75c0,8.29-7,11.33-12.77,11.33-4.9,0-6.94-2.21-6.94-5.52,0-5.63,5.83-6.27,12.4-8.2,4.54-1.29,6.76-2.12,7.31-2.49Z"/><path class="cls-1" d="M497.61,20.92c-6,0-10.27,2.39-13.23,6.17V21.38h-8.79V67.54h9.25v-31a14.62,14.62,0,0,1,12.77-7,15.78,15.78,0,0,1,5.65,1V21.65A21.28,21.28,0,0,0,497.61,20.92Z"/><rect class="cls-1" x="232.42" y="21.38" width="9.25" height="46.15"/><path class="cls-1" d="M243.62,6.36C243.62,2.49,241,0,237,0s-6.66,2.49-6.66,6.36,2.59,6.26,6.66,6.26S243.62,10.14,243.62,6.36Z"/><path class="cls-1" d="M286.23,40.17V67.54h9.35V39c0-11.6-7.68-18.43-18.79-18.43a19.88,19.88,0,0,0-14.62,5.81v-5h-8.79V67.54h9.25V36a15.88,15.88,0,0,1,13.05-6.9C282.16,29.12,286.23,33.35,286.23,40.17Z"/><path class="cls-1" d="M106.18.41c-18.16,0-34,12.19-37.5,32.15l-3.5,20.18s-19.1.07-28.32.86C20.05,55,10.65,63.22,9.78,67.49H62.62c-.09.52-4.36,25.11-4.43,25.56H46.36c-12.52,0-23.4,2.73-31.6,8.74A35.14,35.14,0,0,0,.4,125.2c-1.4,9.76.93,18.63,6.58,25S21.11,160,31.3,160c18.17,0,33.84-12.58,37.25-32.14L72,107.79s22.75,0,31-.61c16.82-1.26,23.57-9.88,24.44-14.13H74.59L79,67.49H91.1c12.52,0,23.42-2.84,31.63-8.85a35.16,35.16,0,0,0,14.36-23.42c1.4-9.76-.94-18.63-6.58-25S116.38.41,106.18.41ZM52.68,124.76A26.15,26.15,0,0,1,49.89,133c-4,7.65-11.33,12.61-19.32,12.61-8.72,0-13.88-5.48-14.36-13.51a22.43,22.43,0,0,1,.2-4.71,17.82,17.82,0,0,1,.46-2.22c.07-.3.16-.58.25-.87,0,0,0,0,0-.07,3.12-9.74,14.19-16.45,29-16.45h9.49ZM121.08,33a20.45,20.45,0,0,1-9,13.86c-.15.09-.29.2-.44.3l-.16.1c-5.15,3.41-12.11,5.46-20.4,5.46H81.58l3-17.08c2.18-12.55,11.59-20.88,22.09-20.88S122.74,22.16,121.08,33Z"/><path class="cls-1" d="M196.88,243.27c0,4-3.38,6.89-8,6.89h-9.18V226.52h8.95c3.81,0,6.51,2.3,6.51,6a5.43,5.43,0,0,1-2.43,4.87A5.91,5.91,0,0,1,196.88,243.27ZM184,235.87h3.55c1.86,0,3.14-1,3.14-2.66s-1.15-2.54-3-2.54H184Zm8.48,6.89c0-1.79-1.49-2.87-3.61-2.87H184V246h4.56C191,246,192.52,244.69,192.52,242.76Z"/><path class="cls-1" d="M200.26,227.63a2.77,2.77,0,1,1,2.8,2.67A2.59,2.59,0,0,1,200.26,227.63Zm.71,22.53V232.94h4.15v17.22Z"/><path class="cls-1" d="M224.94,243.1H213.16c.13,2.26,2.43,3.78,5.23,3.78a11.13,11.13,0,0,0,6.08-2.09v3.71a11.33,11.33,0,0,1-6.58,2c-5.37,0-8.89-3.58-8.89-9s3.48-8.88,8.38-8.88c4.73,0,7.56,3.24,7.56,8.48ZM213.19,240h7.7a3.39,3.39,0,0,0-3.54-3.68A4,4,0,0,0,213.19,240Z"/><path class="cls-1" d="M244.74,239.69v10.47h-4.16v-10.1c0-2.26-1.69-3.54-3.91-3.54a4.46,4.46,0,0,0-3.69,1.72v11.92h-4.15V232.94h3.95v1.58a6.68,6.68,0,0,1,5-1.92C241.63,232.6,244.74,235,244.74,239.69Z"/><path class="cls-1" d="M265.14,232.94l-6.93,17.22h-4.15l-7-17.22h4.6l4.42,12.93,4.46-12.93Z"/><path class="cls-1" d="M282.43,243.1H270.64c.14,2.26,2.44,3.78,5.24,3.78a11.16,11.16,0,0,0,6.08-2.09v3.71a11.38,11.38,0,0,1-6.59,2c-5.37,0-8.88-3.58-8.88-9s3.48-8.88,8.38-8.88c4.72,0,7.56,3.24,7.56,8.48ZM270.68,240h7.7a3.39,3.39,0,0,0-3.55-3.68A4,4,0,0,0,270.68,240Z"/><path class="cls-1" d="M302.22,239.69v10.47h-4.15v-10.1c0-2.26-1.69-3.54-3.92-3.54a4.44,4.44,0,0,0-3.68,1.72v11.92h-4.15V232.94h3.95v1.58a6.66,6.66,0,0,1,5-1.92C299.12,232.6,302.22,235,302.22,239.69Z"/><path class="cls-1" d="M306.45,227.63a2.77,2.77,0,1,1,2.8,2.67A2.59,2.59,0,0,1,306.45,227.63Zm.71,22.53V232.94h4.15v17.22Z"/><path class="cls-1" d="M332.59,226.15v24h-3.92V248.3a6.4,6.4,0,0,1-5.13,2.16c-4.66,0-8.35-3.58-8.35-9,0-5.2,3.58-8.88,8.45-8.88a6.31,6.31,0,0,1,4.79,1.82v-8.27Zm-4.16,12.12a6.07,6.07,0,0,0-4.25-1.75,4.64,4.64,0,0,0-4.9,4.89,4.83,4.83,0,0,0,5,5.17,5.78,5.78,0,0,0,4.18-1.79Z"/><path class="cls-1" d="M354.27,241.55a8.9,8.9,0,1,1-8.91-9A8.64,8.64,0,0,1,354.27,241.55Zm-4.09,0a4.81,4.81,0,1,0-9.62,0c0,3,1.89,5.07,4.8,5.07S350.18,244.55,350.18,241.51Z"/><path class="cls-1" d="M379,250.16h-3.95v-2.33a6.3,6.3,0,0,1-5.37,2.63c-3.38,0-5.1-2-5.1-4.76,0-4.39,4.39-5,8-5.91,1.25-.3,2.33-.64,2.33-1.82,0-1.39-1.49-1.76-3-1.76a9.83,9.83,0,0,0-6.18,2.23v-3.75a11,11,0,0,1,6.52-2.09c4.22,0,6.82,2.09,6.82,5.6Zm-4.16-8a15.77,15.77,0,0,1-2,.68c-2.5.67-4.16,1-4.16,2.73,0,1,.58,1.56,2.06,1.56a3.81,3.81,0,0,0,4.12-3.79Z"/><path class="cls-1" d="M392.17,250.16v-24h4.15v24Z"/><path class="cls-1" d="M414.63,250.16h-3.95v-2.33a6.3,6.3,0,0,1-5.37,2.63c-3.38,0-5.1-2-5.1-4.76,0-4.39,4.39-5,8-5.91,1.25-.3,2.33-.64,2.33-1.82,0-1.39-1.49-1.76-3-1.76a9.85,9.85,0,0,0-6.18,2.23v-3.75a11,11,0,0,1,6.52-2.09c4.22,0,6.82,2.09,6.82,5.6Zm-4.15-8a15.5,15.5,0,0,1-2,.68c-2.5.67-4.15,1-4.15,2.73,0,1,.57,1.56,2.06,1.56a3.81,3.81,0,0,0,4.12-3.79Z"/><path class="cls-1" d="M195.26,280.22v10.47H191.1v-10.1c0-2.26-1.69-3.54-3.92-3.54a4.46,4.46,0,0,0-3.68,1.72v11.92h-4.15V273.47h4v1.58a6.68,6.68,0,0,1,5-1.92C192.15,273.13,195.26,275.53,195.26,280.22Z"/><path class="cls-1" d="M215.89,273.47v17.22H212V289.1a7.09,7.09,0,0,1-5,1.89,6.68,6.68,0,0,1-7-7.09V273.47h4.15v10.09a3.65,3.65,0,0,0,3.88,3.55,4.75,4.75,0,0,0,3.72-1.76V273.47Z"/><path class="cls-1" d="M235.72,283.63H223.93c.14,2.26,2.43,3.78,5.24,3.78a11.16,11.16,0,0,0,6.08-2.09V289a11.44,11.44,0,0,1-6.59,1.95c-5.37,0-8.88-3.58-8.88-9s3.48-8.88,8.37-8.88c4.73,0,7.57,3.24,7.57,8.48ZM224,280.53h7.7a3.4,3.4,0,0,0-3.55-3.69A4,4,0,0,0,224,280.53Z"/><path class="cls-1" d="M255.44,273.47l-6.92,17.22h-4.15l-7-17.22H242l4.43,12.93,4.45-12.93Z"/><path class="cls-1" d="M271.22,290.69h-4v-2.33A6.3,6.3,0,0,1,261.9,291c-3.38,0-5.1-1.95-5.1-4.76,0-4.39,4.39-5,8-5.91,1.25-.3,2.33-.64,2.33-1.82,0-1.39-1.49-1.76-3-1.76a9.88,9.88,0,0,0-6.18,2.23v-3.75a11,11,0,0,1,6.52-2.09c4.22,0,6.82,2.09,6.82,5.61Zm-4.16-8a14.33,14.33,0,0,1-2,.68c-2.5.67-4.16,1.05-4.16,2.73,0,1,.58,1.56,2.06,1.56a3.81,3.81,0,0,0,4.12-3.78Z"/><path class="cls-1" d="M301.82,281.94c0,4.46-2.81,9.05-8.28,9.05-1.92,0-4.05-.57-5.2-2.16v1.86h-3.95v-24h4.16V275a6.57,6.57,0,0,1,4.93-1.82C299,273.13,301.82,277.52,301.82,281.94Zm-4.09,0a4.69,4.69,0,0,0-4.9-4.89,6.21,6.21,0,0,0-4.28,1.75v6.52a6,6,0,0,0,4.22,1.79A4.9,4.9,0,0,0,297.73,281.94Z"/><path class="cls-1" d="M318.91,290.69h-4v-2.33a6.3,6.3,0,0,1-5.37,2.63c-3.38,0-5.1-1.95-5.1-4.76,0-4.39,4.39-5,8-5.91,1.25-.3,2.33-.64,2.33-1.82,0-1.39-1.49-1.76-3-1.76a9.88,9.88,0,0,0-6.18,2.23v-3.75a11,11,0,0,1,6.52-2.09c4.22,0,6.82,2.09,6.82,5.61Zm-4.15-8a14.11,14.11,0,0,1-2,.68c-2.5.67-4.15,1.05-4.15,2.73,0,1,.57,1.56,2.06,1.56a3.81,3.81,0,0,0,4.12-3.78Z"/><path class="cls-1" d="M339.71,280.22v10.47h-4.15v-10.1c0-2.26-1.69-3.54-3.92-3.54a4.46,4.46,0,0,0-3.68,1.72v11.92h-4.15V273.47h3.95v1.58a6.68,6.68,0,0,1,5-1.92C336.61,273.13,339.71,275.53,339.71,280.22Z"/><path class="cls-1" d="M347.52,282c0,3.38,2.5,5.1,5.33,5.1a7.85,7.85,0,0,0,4.83-1.76v4.06a8.7,8.7,0,0,1-5.13,1.58c-4.69,0-9.12-3.17-9.12-9s4.29-8.88,9-8.88a8.62,8.62,0,0,1,5.26,1.65v4a8.41,8.41,0,0,0-4.93-1.72C349.92,277.05,347.52,278.74,347.52,282Z"/><path class="cls-1" d="M374.81,290.69h-3.95v-2.33a6.3,6.3,0,0,1-5.37,2.63c-3.38,0-5.1-1.95-5.1-4.76,0-4.39,4.39-5,8-5.91,1.25-.3,2.33-.64,2.33-1.82,0-1.39-1.49-1.76-3-1.76a9.88,9.88,0,0,0-6.18,2.23v-3.75a11,11,0,0,1,6.52-2.09c4.22,0,6.82,2.09,6.82,5.61Zm-4.15-8a14.56,14.56,0,0,1-2,.68c-2.5.67-4.16,1.05-4.16,2.73,0,1,.58,1.56,2.06,1.56a3.82,3.82,0,0,0,4.13-3.78Z"/><path class="cls-1" d="M405.41,281.81c0,4.42-2.87,8.88-8.21,8.88a6.72,6.72,0,0,1-5.06-1.89v8.37H388v-23.7h3.95v1.69a6.36,6.36,0,0,1,5.07-2C402.64,273.13,405.41,277.45,405.41,281.81Zm-4.12,0a4.62,4.62,0,0,0-4.9-4.79,6.14,6.14,0,0,0-4.25,1.75V285a5.93,5.93,0,0,0,4.22,1.75A4.78,4.78,0,0,0,401.29,281.84Z"/><path class="cls-1" d="M419.87,273.54v3.95a8.15,8.15,0,0,0-2.17-.27,4.93,4.93,0,0,0-4.25,2.09v11.38h-4.19V273.47h3.95v2.09a5.38,5.38,0,0,1,4.7-2.26A8.91,8.91,0,0,1,419.87,273.54Z"/><path class="cls-1" d="M422.3,268.17a2.77,2.77,0,1,1,2.8,2.66A2.6,2.6,0,0,1,422.3,268.17Zm.71,22.52V273.47h4.15v17.22Z"/><path class="cls-1" d="M448.07,273.47l-6.93,17.22H437l-7-17.22h4.6l4.42,12.93,4.46-12.93Z"/><path class="cls-1" d="M463.84,290.69h-3.95v-2.33a6.29,6.29,0,0,1-5.37,2.63c-3.38,0-5.1-1.95-5.1-4.76,0-4.39,4.39-5,8-5.91,1.25-.3,2.33-.64,2.33-1.82,0-1.39-1.49-1.76-3-1.76A9.91,9.91,0,0,0,450.5,279v-3.75a11,11,0,0,1,6.52-2.09c4.22,0,6.82,2.09,6.82,5.61Zm-4.15-8a14.11,14.11,0,0,1-2,.68c-2.5.67-4.15,1.05-4.15,2.73,0,1,.57,1.56,2.06,1.56a3.81,3.81,0,0,0,4.12-3.78Z"/><path class="cls-1" d="M485,266.68v24H481v-1.86A6.39,6.39,0,0,1,475.9,291c-4.66,0-8.34-3.58-8.34-9,0-5.2,3.58-8.88,8.44-8.88a6.35,6.35,0,0,1,4.8,1.82v-8.27ZM480.8,278.8a6.1,6.1,0,0,0-4.26-1.75,4.64,4.64,0,0,0-4.9,4.89,4.83,4.83,0,0,0,5,5.17,5.8,5.8,0,0,0,4.19-1.79Z"/><path class="cls-1" d="M503.26,290.69h-3.95v-2.33a6.3,6.3,0,0,1-5.37,2.63c-3.38,0-5.1-1.95-5.1-4.76,0-4.39,4.39-5,8-5.91,1.25-.3,2.33-.64,2.33-1.82,0-1.39-1.49-1.76-3-1.76a9.88,9.88,0,0,0-6.18,2.23v-3.75a11,11,0,0,1,6.52-2.09c4.22,0,6.82,2.09,6.82,5.61Zm-4.16-8a14.33,14.33,0,0,1-2,.68c-2.5.67-4.16,1.05-4.16,2.73,0,1,.58,1.56,2.06,1.56a3.81,3.81,0,0,0,4.12-3.78Z"/></g></g></svg>