<svg xmlns="http://www.w3.org/2000/svg" viewBox="0 0 503.26 272.47" height="89"><defs><style>.cls-1{fill:#1d1d1b;}</style></defs><g id="Capa_2" data-name="Capa 2"><g id="Capa_1-2" data-name="Capa 1"><path class="cls-1" d="M212.48,124.71c5.74-2.95,7.59-9.58,7.59-14.46,0-9.58-7.22-15.57-17.49-15.57H179.35v64.49h23c12.5,0,21.66-7.37,21.66-18.15A17.11,17.11,0,0,0,212.48,124.71Zm-23.41-21.19H200c6.11,0,10,3,10,8.66s-4.16,9.13-10.46,9.13H189.07Zm12.4,46.81h-12.4V129.88H202.3c7,0,11.57,3.58,11.66,9.67C214.15,146,209.15,150.33,201.47,150.33Z"/><path class="cls-1" d="M302.57,112.18A19.9,19.9,0,0,0,288,118v-5h-8.79v46.16h9.25V127.66a15.9,15.9,0,0,1,13-6.91c6.48,0,10.56,4.24,10.56,11.06v27.36h9.34V130.61C321.36,119,313.68,112.18,302.57,112.18Z"/><polygon class="cls-1" points="372.57 113.01 360.35 113.01 341.56 133.01 341.56 94.73 332.31 94.73 332.31 159.17 341.56 159.17 341.56 138.17 361.19 159.17 373.59 159.17 350.63 135.59 372.57 113.01"/><path class="cls-1" d="M250.58,112.18a28.27,28.27,0,0,0-17.31,5.72v9.4c5.36-4,10.27-6.55,17-6.55,5.47,0,9.08,1.66,9.08,5.81,0,3.32-2.32,4-7.78,5.34C239.38,135,230.3,137,230.3,147.47c0,8.39,5.74,12.53,13.89,12.53,7.4,0,12.68-3.4,15.36-7v6.17h8.79V126.56C268.34,117.43,261.21,112.18,250.58,112.18Zm8.51,28.75c0,8.29-7,11.33-12.78,11.33-4.9,0-6.93-2.21-6.93-5.53,0-5.62,5.83-6.26,12.4-8.2a42.59,42.59,0,0,0,7.31-2.48Z"/><path class="cls-1" d="M301.84,77.21c0,9.21,9.53,12.53,20.92,12.53,12.59,0,23.87-4,23.87-14.65,0-8.84-7.86-11.42-18.88-12.35-6.94-.64-13-.27-13-3.4,0-2.86,5.18-3.05,11-4.24,7-1.48,17-5,17-16.13a11.73,11.73,0,0,0-4.35-9.49H348v-8.1H324.33c-12.22,0-19.8,7-19.8,17.32,0,6.63,3.05,11.51,8.42,14.28-3.79.82-6.85,3-6.85,6.63,0,3.41,2.4,5.81,5.83,6.91C305.82,67.81,301.84,71.41,301.84,77.21Zm21.84-47.45c6,0,10.36,4.05,10.36,9.3s-4.34,9.13-10.36,9.13-10.27-4-10.27-9.13S317.67,29.76,323.68,29.76Zm.93,40.45c6.75,0,13.14,1,13.23,5.62s-6.75,6-14.53,6c-9,0-12.68-1.84-12.68-5.52C310.63,71.22,317.76,70.21,324.61,70.21Z"/><path class="cls-1" d="M201,60.44c-7.58,0-15.82-4.51-20.72-9.12V61.91a32.62,32.62,0,0,0,20.63,7.38c12.86,0,22.4-8.2,22.4-19.82,0-13-11.75-15.75-20.55-18.42-7-2.12-13.6-4.24-13.6-10.6,0-5.71,5.18-10,13-10,6.94,0,13.32,3.41,16.84,6.18V6.72a29.3,29.3,0,0,0-17.21-5.15c-13.24,0-22.4,7-22.4,19,0,13,10.64,16.59,20.64,19.72,8.42,2.67,13.14,4.34,13.14,10.05S208.41,60.44,201,60.44Z"/><path class="cls-1" d="M388.35,52.89a16.11,16.11,0,0,1-13,6.91c-6.38,0-10.54-4.24-10.54-11.06V21.38H355.5V49.93c0,11.61,7.87,18.43,18.69,18.43a20.57,20.57,0,0,0,14.72-5.8v5h8.79V21.38h-9.35Z"/><rect class="cls-1" x="408.96" y="2.03" width="9.26" height="65.51"/><path class="cls-1" d="M447,20.54a28.27,28.27,0,0,0-17.31,5.72v9.4c5.37-4,10.28-6.54,17-6.54,5.46,0,9.07,1.65,9.07,5.8,0,3.32-2.31,4-7.78,5.34-12.21,3.14-21.28,5.07-21.28,15.57,0,8.39,5.74,12.53,13.88,12.53,7.4,0,12.68-3.4,15.37-7v6.18h8.79V34.92C464.77,25.8,457.64,20.54,447,20.54Zm8.51,28.75c0,8.29-7,11.33-12.77,11.33-4.9,0-6.94-2.21-6.94-5.52,0-5.63,5.83-6.27,12.4-8.2,4.54-1.29,6.76-2.12,7.31-2.49Z"/><path class="cls-1" d="M497.61,20.92c-6,0-10.27,2.39-13.23,6.17V21.38h-8.79V67.54h9.25v-31a14.62,14.62,0,0,1,12.77-7,15.78,15.78,0,0,1,5.65,1V21.65A21.28,21.28,0,0,0,497.61,20.92Z"/><rect class="cls-1" x="232.42" y="21.38" width="9.25" height="46.15"/><path class="cls-1" d="M243.62,6.36C243.62,2.49,241,0,237,0s-6.66,2.49-6.66,6.36,2.59,6.26,6.66,6.26S243.62,10.14,243.62,6.36Z"/><path class="cls-1" d="M286.23,40.17V67.54h9.35V39c0-11.6-7.68-18.43-18.79-18.43a19.88,19.88,0,0,0-14.62,5.81v-5h-8.79V67.54h9.25V36a15.88,15.88,0,0,1,13.05-6.9C282.16,29.12,286.23,33.35,286.23,40.17Z"/><path class="cls-1" d="M106.18.41c-18.16,0-34,12.19-37.5,32.15l-3.5,20.18s-19.1.07-28.32.86C20.05,55,10.65,63.22,9.78,67.49H62.62c-.09.52-4.36,25.11-4.43,25.56H46.36c-12.52,0-23.4,2.73-31.6,8.74A35.14,35.14,0,0,0,.4,125.2c-1.4,9.76.93,18.63,6.58,25S21.11,160,31.3,160c18.17,0,33.84-12.58,37.25-32.14L72,107.79s22.75,0,31-.61c16.82-1.26,23.57-9.88,24.44-14.13H74.59L79,67.49H91.1c12.52,0,23.42-2.84,31.63-8.85a35.16,35.16,0,0,0,14.36-23.42c1.4-9.76-.94-18.63-6.58-25S116.38.41,106.18.41ZM52.68,124.76A26.15,26.15,0,0,1,49.89,133c-4,7.65-11.33,12.61-19.32,12.61-8.72,0-13.88-5.48-14.36-13.51a22.43,22.43,0,0,1,.2-4.71,17.82,17.82,0,0,1,.46-2.22c.07-.3.16-.58.25-.87,0,0,0,0,0-.07,3.12-9.74,14.19-16.45,29-16.45h9.49ZM121.08,33a20.45,20.45,0,0,1-9,13.86c-.15.09-.29.2-.44.3l-.16.1c-5.15,3.41-12.11,5.46-20.4,5.46H81.58l3-17.08c2.18-12.55,11.59-20.88,22.09-20.88S122.74,22.16,121.08,33Z"/><path class="cls-1" d="M196.88,218.56c0,4-3.38,6.89-8,6.89h-9.18V201.81h8.95c3.81,0,6.51,2.3,6.51,6.05a5.42,5.42,0,0,1-2.43,4.86A5.91,5.91,0,0,1,196.88,218.56ZM184,211.17h3.55c1.86,0,3.14-1,3.14-2.67s-1.15-2.53-3-2.53H184Zm8.48,6.89c0-1.79-1.49-2.88-3.61-2.88H184v6.12h4.56C191,221.3,192.52,220,192.52,218.06Z"/><path class="cls-1" d="M200.26,202.93a2.77,2.77,0,1,1,2.8,2.66A2.6,2.6,0,0,1,200.26,202.93Zm.71,22.52V208.23h4.15v17.22Z"/><path class="cls-1" d="M224.94,218.39H213.16c.13,2.27,2.43,3.79,5.23,3.79a11.15,11.15,0,0,0,6.08-2.1v3.72a11.4,11.4,0,0,1-6.58,2c-5.37,0-8.89-3.58-8.89-9s3.48-8.88,8.38-8.88c4.73,0,7.56,3.24,7.56,8.48Zm-11.75-3.1h7.7a3.39,3.39,0,0,0-3.54-3.69A4,4,0,0,0,213.19,215.29Z"/><path class="cls-1" d="M244.74,215v10.47h-4.16v-10.1c0-2.26-1.69-3.54-3.91-3.54a4.46,4.46,0,0,0-3.69,1.72v11.92h-4.15V208.23h3.95v1.59a6.65,6.65,0,0,1,5-1.93C241.63,207.89,244.74,210.29,244.74,215Z"/><path class="cls-1" d="M265.14,208.23l-6.93,17.22h-4.15l-7-17.22h4.6l4.42,12.93,4.46-12.93Z"/><path class="cls-1" d="M282.43,218.39H270.64c.14,2.27,2.44,3.79,5.24,3.79a11.17,11.17,0,0,0,6.08-2.1v3.72a11.45,11.45,0,0,1-6.59,2c-5.37,0-8.88-3.58-8.88-9s3.48-8.88,8.38-8.88c4.72,0,7.56,3.24,7.56,8.48Zm-11.75-3.1h7.7a3.39,3.39,0,0,0-3.55-3.69A4,4,0,0,0,270.68,215.29Z"/><path class="cls-1" d="M302.22,215v10.47h-4.15v-10.1c0-2.26-1.69-3.54-3.92-3.54a4.44,4.44,0,0,0-3.68,1.72v11.92h-4.15V208.23h3.95v1.59a6.63,6.63,0,0,1,5-1.93C299.12,207.89,302.22,210.29,302.22,215Z"/><path class="cls-1" d="M306.45,202.93a2.77,2.77,0,1,1,2.8,2.66A2.6,2.6,0,0,1,306.45,202.93Zm.71,22.52V208.23h4.15v17.22Z"/><path class="cls-1" d="M332.59,201.44v24h-3.92v-1.86a6.41,6.41,0,0,1-5.13,2.17c-4.66,0-8.35-3.58-8.35-9,0-5.2,3.58-8.88,8.45-8.88a6.31,6.31,0,0,1,4.79,1.82v-8.27Zm-4.16,12.12a6.12,6.12,0,0,0-4.25-1.75,4.64,4.64,0,0,0-4.9,4.89,4.83,4.83,0,0,0,5,5.17,5.78,5.78,0,0,0,4.18-1.79Z"/><path class="cls-1" d="M354.27,216.84a8.9,8.9,0,1,1-8.91-9A8.65,8.65,0,0,1,354.27,216.84Zm-4.09,0a4.81,4.81,0,1,0-9.62,0c0,3,1.89,5.06,4.8,5.06S350.18,219.85,350.18,216.81Z"/><path class="cls-1" d="M379,225.45h-3.95v-2.33a6.31,6.31,0,0,1-5.37,2.64c-3.38,0-5.1-2-5.1-4.77,0-4.39,4.39-5,8-5.91,1.25-.3,2.33-.64,2.33-1.82,0-1.38-1.49-1.76-3-1.76a9.88,9.88,0,0,0-6.18,2.23V210a11,11,0,0,1,6.52-2.09c4.22,0,6.82,2.09,6.82,5.61Zm-4.16-8a14.33,14.33,0,0,1-2,.68c-2.5.67-4.16,1-4.16,2.73,0,1,.58,1.56,2.06,1.56a3.81,3.81,0,0,0,4.12-3.78Z"/><path class="cls-1" d="M392.17,225.45v-24h4.15v24Z"/><path class="cls-1" d="M414.63,225.45h-3.95v-2.33a6.31,6.31,0,0,1-5.37,2.64c-3.38,0-5.1-2-5.1-4.77,0-4.39,4.39-5,8-5.91,1.25-.3,2.33-.64,2.33-1.82,0-1.38-1.49-1.76-3-1.76a9.91,9.91,0,0,0-6.18,2.23V210a11,11,0,0,1,6.52-2.09c4.22,0,6.82,2.09,6.82,5.61Zm-4.15-8a14.11,14.11,0,0,1-2,.68c-2.5.67-4.15,1-4.15,2.73,0,1,.57,1.56,2.06,1.56a3.81,3.81,0,0,0,4.12-3.78Z"/><path class="cls-1" d="M195.26,255.51V266H191.1V255.89c0-2.27-1.69-3.55-3.92-3.55a4.46,4.46,0,0,0-3.68,1.72V266h-4.15V248.76h4v1.59a6.65,6.65,0,0,1,5-1.93C192.15,248.42,195.26,250.82,195.26,255.51Z"/><path class="cls-1" d="M215.89,248.76V266H212V264.4a7.14,7.14,0,0,1-5,1.89,6.69,6.69,0,0,1-7-7.1V248.76h4.15v10.1A3.64,3.64,0,0,0,208,262.4a4.77,4.77,0,0,0,3.72-1.75V248.76Z"/><path class="cls-1" d="M235.72,258.92H223.93c.14,2.27,2.43,3.79,5.24,3.79a11.17,11.17,0,0,0,6.08-2.1v3.72a11.45,11.45,0,0,1-6.59,2c-5.37,0-8.88-3.58-8.88-9s3.48-8.88,8.37-8.88c4.73,0,7.57,3.24,7.57,8.48ZM224,255.82h7.7a3.39,3.39,0,0,0-3.55-3.68A4,4,0,0,0,224,255.82Z"/><path class="cls-1" d="M255.44,248.76,248.52,266h-4.15l-7-17.22H242l4.43,12.93,4.45-12.93Z"/><path class="cls-1" d="M271.22,266h-4v-2.33a6.31,6.31,0,0,1-5.37,2.64c-3.38,0-5.1-2-5.1-4.77,0-4.39,4.39-5,8-5.91,1.25-.3,2.33-.64,2.33-1.82,0-1.38-1.49-1.76-3-1.76a9.88,9.88,0,0,0-6.18,2.23v-3.74a11.05,11.05,0,0,1,6.52-2.1c4.22,0,6.82,2.1,6.82,5.61Zm-4.16-8a14.33,14.33,0,0,1-2,.68c-2.5.68-4.16,1.05-4.16,2.74,0,1,.58,1.55,2.06,1.55a3.81,3.81,0,0,0,4.12-3.78Z"/><path class="cls-1" d="M301.82,257.24c0,4.45-2.81,9.05-8.28,9.05-1.92,0-4.05-.58-5.2-2.16V266h-3.95V242h4.16v8.28a6.54,6.54,0,0,1,4.93-1.83C299,248.42,301.82,252.81,301.82,257.24Zm-4.09,0a4.69,4.69,0,0,0-4.9-4.9,6.22,6.22,0,0,0-4.28,1.76v6.51a6,6,0,0,0,4.22,1.79A4.9,4.9,0,0,0,297.73,257.24Z"/><path class="cls-1" d="M318.91,266h-4v-2.33a6.31,6.31,0,0,1-5.37,2.64c-3.38,0-5.1-2-5.1-4.77,0-4.39,4.39-5,8-5.91,1.25-.3,2.33-.64,2.33-1.82,0-1.38-1.49-1.76-3-1.76a9.88,9.88,0,0,0-6.18,2.23v-3.74a11.05,11.05,0,0,1,6.52-2.1c4.22,0,6.82,2.1,6.82,5.61Zm-4.15-8a14.11,14.11,0,0,1-2,.68c-2.5.68-4.15,1.05-4.15,2.74,0,1,.57,1.55,2.06,1.55a3.81,3.81,0,0,0,4.12-3.78Z"/><path class="cls-1" d="M339.71,255.51V266h-4.15V255.89c0-2.27-1.69-3.55-3.92-3.55a4.46,4.46,0,0,0-3.68,1.72V266h-4.15V248.76h3.95v1.59a6.64,6.64,0,0,1,5-1.93C336.61,248.42,339.71,250.82,339.71,255.51Z"/><path class="cls-1" d="M347.52,257.3c0,3.38,2.5,5.1,5.33,5.1a7.9,7.9,0,0,0,4.83-1.75v4.05a8.64,8.64,0,0,1-5.13,1.59c-4.69,0-9.12-3.18-9.12-9s4.29-8.88,9-8.88a8.57,8.57,0,0,1,5.26,1.66v4a8.41,8.41,0,0,0-4.93-1.72C349.92,252.34,347.52,254,347.52,257.3Z"/><path class="cls-1" d="M374.81,266h-3.95v-2.33a6.31,6.31,0,0,1-5.37,2.64c-3.38,0-5.1-2-5.1-4.77,0-4.39,4.39-5,8-5.91,1.25-.3,2.33-.64,2.33-1.82,0-1.38-1.49-1.76-3-1.76a9.88,9.88,0,0,0-6.18,2.23v-3.74a11.05,11.05,0,0,1,6.52-2.1c4.22,0,6.82,2.1,6.82,5.61Zm-4.16-8a13.88,13.88,0,0,1-2,.68c-2.5.68-4.16,1.05-4.16,2.74,0,1,.58,1.55,2.06,1.55a3.81,3.81,0,0,0,4.12-3.78Z"/><path class="cls-1" d="M405.41,257.1c0,4.42-2.87,8.88-8.21,8.88a6.72,6.72,0,0,1-5.06-1.89v8.38H388V248.76h3.95v1.69a6.39,6.39,0,0,1,5.07-2C402.64,248.42,405.41,252.74,405.41,257.1Zm-4.12,0a4.63,4.63,0,0,0-4.9-4.79,6.15,6.15,0,0,0-4.25,1.76v6.21a5.93,5.93,0,0,0,4.22,1.75A4.78,4.78,0,0,0,401.29,257.13Z"/><path class="cls-1" d="M419.87,248.83v3.95a8.58,8.58,0,0,0-2.17-.27,4.93,4.93,0,0,0-4.25,2.09V266h-4.19V248.76h3.95v2.09a5.38,5.38,0,0,1,4.7-2.26A8.91,8.91,0,0,1,419.87,248.83Z"/><path class="cls-1" d="M422.3,243.46a2.77,2.77,0,1,1,2.8,2.67A2.61,2.61,0,0,1,422.3,243.46ZM423,266V248.76h4.15V266Z"/><path class="cls-1" d="M448.07,248.76,441.14,266H437l-7-17.22h4.6l4.42,12.93,4.46-12.93Z"/><path class="cls-1" d="M463.84,266h-3.95v-2.33a6.3,6.3,0,0,1-5.37,2.64c-3.38,0-5.1-2-5.1-4.77,0-4.39,4.39-5,8-5.91,1.25-.3,2.33-.64,2.33-1.82,0-1.38-1.49-1.76-3-1.76a9.91,9.91,0,0,0-6.18,2.23v-3.74a11.05,11.05,0,0,1,6.52-2.1c4.22,0,6.82,2.1,6.82,5.61Zm-4.15-8a14.11,14.11,0,0,1-2,.68c-2.5.68-4.15,1.05-4.15,2.74,0,1,.57,1.55,2.06,1.55a3.81,3.81,0,0,0,4.12-3.78Z"/><path class="cls-1" d="M485,242v24H481v-1.85a6.42,6.42,0,0,1-5.13,2.16c-4.66,0-8.34-3.58-8.34-9,0-5.2,3.58-8.88,8.44-8.88a6.31,6.31,0,0,1,4.8,1.83V242ZM480.8,254.1a6.11,6.11,0,0,0-4.26-1.76,4.64,4.64,0,0,0-4.9,4.9,4.82,4.82,0,0,0,5,5.16,5.8,5.8,0,0,0,4.19-1.79Z"/><path class="cls-1" d="M503.26,266h-3.95v-2.33a6.31,6.31,0,0,1-5.37,2.64c-3.38,0-5.1-2-5.1-4.77,0-4.39,4.39-5,8-5.91,1.25-.3,2.33-.64,2.33-1.82,0-1.38-1.49-1.76-3-1.76a9.88,9.88,0,0,0-6.18,2.23v-3.74a11.05,11.05,0,0,1,6.52-2.1c4.22,0,6.82,2.1,6.82,5.61Zm-4.16-8a14.33,14.33,0,0,1-2,.68c-2.5.68-4.16,1.05-4.16,2.74,0,1,.58,1.55,2.06,1.55a3.81,3.81,0,0,0,4.12-3.78Z"/></g></g></svg>