<svg xmlns="http://www.w3.org/2000/svg" width="80.3" height="81.705" viewBox="0 0 80.3 81.705"><defs><style>.a,.b{fill:#c63527;stroke:#c63527;}.a{stroke-width:0.3px;}.b{stroke-width:0.5px;}</style></defs><g transform="translate(0.15 -163.124)"><g transform="translate(0 163.321)"><path class="a" d="M78.2,18.391H57.325a14.259,14.259,0,0,0-.28-1.966l2.042-1.212a1.741,1.741,0,0,0,.695-2.229l-.924-2.025a1.744,1.744,0,0,0-2.144-.932l-2.254.754a14.64,14.64,0,0,0-3.78-3.517l.585-2.305a1.752,1.752,0,0,0-1.085-2.076L48.1,2.111a1.733,1.733,0,0,0-2.169.856L44.859,5.094a14.484,14.484,0,0,0-5.161.195L38.486,3.238a1.741,1.741,0,0,0-2.229-.695l-2.025.924A1.742,1.742,0,0,0,33.3,5.6l.754,2.263a14.162,14.162,0,0,0-3.525,3.788l-2.3-.593a1.752,1.752,0,0,0-2.076,1.085l-.771,2.076a1.749,1.749,0,0,0,.856,2.178l2.127,1.059c-.051.314-.068.627-.093.932H7.4A4.608,4.608,0,0,0,2.8,23V66.9a4.614,4.614,0,0,0,4.136,4.585,4.178,4.178,0,0,0,.466.025H33.766L30.859,81.662h-5.72a.847.847,0,1,0,0,1.695H60.453a.847.847,0,0,0,0-1.695H54.741L51.825,71.509H78.2a4.6,4.6,0,0,0,4.6-4.61V23A4.613,4.613,0,0,0,78.2,18.391Zm-51.22-3.576.831-2.11,2.907.746a.855.855,0,0,0,.949-.4,12.6,12.6,0,0,1,3.864-4.161.848.848,0,0,0,.331-.966l-.924-2.915L37.029,4.1l1.534,2.585a.843.843,0,0,0,.949.39,12.81,12.81,0,0,1,5.669-.212.831.831,0,0,0,.915-.449L47.5,3.7l2.119.839L48.876,7.45a.855.855,0,0,0,.4.941,12.76,12.76,0,0,1,4.153,3.864.833.833,0,0,0,.975.331l2.915-.924.907,2.093-2.585,1.534a.855.855,0,0,0-.39.949c1.22,4.542-.568,5.975.661,6.593l2.712,1.407-.839,2.11c-2.237-.415-3.314-1.271-3.847-.347a12.691,12.691,0,0,1-3.864,4.161.848.848,0,0,0-.331.966l.915,2.915-2.085.907-1.534-2.585a.843.843,0,0,0-.949-.39c-4.483,1.212-5.983-.568-6.593.661l-1.4,2.712-2.119-.839.737-2.907a.843.843,0,0,0-.4-.941A12.732,12.732,0,0,1,32.173,26.8a.858.858,0,0,0-.7-.373.756.756,0,0,0-.271.042l-2.915.924L27.376,25.3l2.585-1.534a.85.85,0,0,0,.381-.949,12.605,12.605,0,0,1-.2-5.678.853.853,0,0,0-.458-.915Zm26,66.847H32.622l2.907-10.153H50.063ZM81.105,66.9A2.923,2.923,0,0,1,78.2,69.814H7.4A2.913,2.913,0,0,1,4.495,66.9V61.272h76.61Zm0-7.322H4.495V23A2.913,2.913,0,0,1,7.4,20.085H28.224a14.307,14.307,0,0,0,.331,2.542l-2.042,1.22a1.733,1.733,0,0,0-.695,2.22l.924,2.025a1.74,1.74,0,0,0,2.144.932l2.254-.754a14.363,14.363,0,0,0,3.78,3.517l-.585,2.305a1.746,1.746,0,0,0,1.085,2.068l2.085.78a1.933,1.933,0,0,0,.61.11,1.738,1.738,0,0,0,1.559-.975l1.059-2.119a14.476,14.476,0,0,0,5.161-.195l1.22,2.051a1.741,1.741,0,0,0,2.229.695l2.017-.924A1.738,1.738,0,0,0,52.3,33.45l-.754-2.263a14.256,14.256,0,0,0,3.525-3.78l2.3.585a1.746,1.746,0,0,0,2.068-1.085l.78-2.076C61,22.7,58.054,22.2,57.232,21.594a14.883,14.883,0,0,0,.136-1.508H78.2A2.913,2.913,0,0,1,81.105,23Z" transform="translate(-2.8 -1.999)"/><path class="b" d="M56.4,17.438a8.779,8.779,0,1,0-4.331,11.644A8.779,8.779,0,0,0,56.4,17.438ZM51.546,27.921a7.512,7.512,0,1,1,3.7-9.949A7.512,7.512,0,0,1,51.546,27.921Z" transform="translate(-8.419 -3.572)"/><path class="b" d="M49.855,74.3a2.271,2.271,0,1,0,2.265,2.276A2.277,2.277,0,0,0,49.855,74.3Z" transform="translate(-9.631 -13.028)"/><path class="b" d="M72.838,58.371H65.966a.118.118,0,0,1-.1-.059l-1.822-3.136a.144.144,0,0,1,0-.119l1.822-3.136a.118.118,0,0,1,.1-.059h6.873a.839.839,0,0,0,.737-.441.82.82,0,0,0-.025-.856,8.525,8.525,0,0,0-13.415-1.288.447.447,0,0,1-.3.144H30.389a.459.459,0,0,1-.305-.153,8.516,8.516,0,0,0-13.4,1.3.82.82,0,0,0-.025.856.839.839,0,0,0,.737.441h6.873a.118.118,0,0,1,.1.059l1.822,3.136a.144.144,0,0,1,0,.119l-1.822,3.136a.118.118,0,0,1-.1.059H18.347a1.329,1.329,0,0,0-1.017,2.186,8.511,8.511,0,0,0,12.754.407.459.459,0,0,1,.305-.153H59.838a.458.458,0,0,1,.305.153A8.526,8.526,0,0,0,73.55,59.676a.851.851,0,0,0-.712-1.305ZM61.381,59.812a2.126,2.126,0,0,0-1.542-.695H30.389a2.127,2.127,0,0,0-1.534.686,6.822,6.822,0,0,1-9.669.263h5.085a1.815,1.815,0,0,0,1.568-.907l1.822-3.136a1.839,1.839,0,0,0,0-1.822l-1.822-3.127a1.815,1.815,0,0,0-1.568-.907H19.177a6.824,6.824,0,0,1,9.678.271,2.118,2.118,0,0,0,1.534.678H59.838a2.085,2.085,0,0,0,1.534-.686,6.844,6.844,0,0,1,9.678-.263H65.966a1.815,1.815,0,0,0-1.568.907L62.576,54.2a1.839,1.839,0,0,0,0,1.822L64.4,59.159a1.815,1.815,0,0,0,1.568.907H71.05A6.839,6.839,0,0,1,61.381,59.812Z" transform="translate(-4.898 -8.802)"/></g></g></svg>