<svg id="Capa_1" data-name="Capa 1" xmlns="http://www.w3.org/2000/svg" viewBox="0 0 269.4 85.65"><defs><style>.cls-1{fill:#1d1d1b;}</style></defs><path class="cls-1" d="M161.58,41.33c0,4.93,5.1,6.71,11.19,6.71,6.74,0,12.79-2.12,12.79-7.84,0-4.74-4.22-6.12-10.11-6.61-3.72-.35-7-.15-7-1.83s2.78-1.63,5.9-2.27c3.76-.79,9.11-2.66,9.11-8.63a6.27,6.27,0,0,0-2.32-5.08h5.11V11.44H173.62c-6.54,0-10.6,3.75-10.6,9.27a8.1,8.1,0,0,0,4.5,7.65c-2,.44-3.66,1.58-3.66,3.55s1.28,3.11,3.12,3.7C163.71,36.3,161.58,38.22,161.58,41.33Zm11.69-25.4c3.22,0,5.55,2.17,5.55,5s-2.33,4.88-5.55,4.88-5.5-2.12-5.5-4.88S170.05,15.93,173.27,15.93Zm.49,21.65c3.62,0,7,.54,7.09,3s-3.62,3.21-7.78,3.21c-4.8,0-6.79-1-6.79-3C166.28,38.12,170.1,37.58,173.76,37.58Z"/><path class="cls-1" d="M107.6,32.35c-4.06,0-8.47-2.41-11.1-4.88v5.67a17.47,17.47,0,0,0,11,4c6.88,0,12-4.39,12-10.61,0-6.95-6.29-8.43-11-9.86-3.77-1.13-7.28-2.27-7.28-5.67,0-3.06,2.77-5.38,6.93-5.38a15.46,15.46,0,0,1,9,3.31V3.6A15.69,15.69,0,0,0,108,.84C100.91.84,96,4.59,96,11c0,7,5.69,8.88,11,10.55,4.51,1.43,7,2.32,7,5.38S111.56,32.35,107.6,32.35Z"/><path class="cls-1" d="M115.67,65.89c3.07-1.58,4.06-5.13,4.06-7.74,0-5.13-3.86-8.34-9.36-8.34H97.93V84.33h12.34c6.69,0,11.59-3.94,11.59-9.71A9.16,9.16,0,0,0,115.67,65.89ZM103.14,54.55H109c3.27,0,5.35,1.57,5.35,4.63s-2.23,4.89-5.6,4.89h-5.59Zm6.63,25h-6.63V68.65h7.08c3.77,0,6.19,1.92,6.24,5.18C116.56,77.28,113.89,79.6,109.77,79.6Z"/><path class="cls-1" d="M163.9,59.18a10.66,10.66,0,0,0-7.83,3.11V59.63h-4.71v24.7h5V67.47a8.48,8.48,0,0,1,7-3.7c3.47,0,5.65,2.27,5.65,5.92V84.33h5V69.05C174,62.83,169.84,59.18,163.9,59.18Z"/><polygon class="cls-1" points="201.36 59.63 194.82 59.63 184.77 70.33 184.77 49.84 179.81 49.84 179.81 84.33 184.77 84.33 184.77 73.09 195.27 84.33 201.91 84.33 189.62 71.71 201.36 59.63"/><path class="cls-1" d="M207.89,28.31A8.61,8.61,0,0,1,201,32c-3.42,0-5.65-2.27-5.65-5.92V11.44h-5V26.73c0,6.22,4.21,9.86,10,9.86a11,11,0,0,0,7.87-3.1v2.66h4.71V11.44h-5Z"/><rect class="cls-1" x="218.92" y="1.09" width="4.95" height="35.07"/><path class="cls-1" d="M239.28,11A15.06,15.06,0,0,0,230,14.06v5c2.87-2.12,5.5-3.5,9.11-3.5,2.93,0,4.86.88,4.86,3.1,0,1.78-1.24,2.12-4.17,2.86-6.53,1.68-11.39,2.72-11.39,8.34,0,4.49,3.07,6.7,7.43,6.7a10.15,10.15,0,0,0,8.23-3.74v3.3h4.7V18.69C248.79,13.81,245,11,239.28,11Zm4.56,15.39c0,4.44-3.77,6.06-6.84,6.06-2.62,0-3.71-1.18-3.71-3,0-3,3.12-3.35,6.63-4.39a22,22,0,0,0,3.92-1.33Z"/><path class="cls-1" d="M266.37,11.2a8.52,8.52,0,0,0-7.08,3.3V11.44h-4.71V36.15h5V19.58a7.82,7.82,0,0,1,6.83-3.75,8.28,8.28,0,0,1,3,.55V11.59A11.67,11.67,0,0,0,266.37,11.2Z"/><rect class="cls-1" x="124.41" y="11.44" width="4.95" height="24.71"/><path class="cls-1" d="M136.06,59.18a15.12,15.12,0,0,0-9.26,3.06v5c2.87-2.12,5.49-3.5,9.11-3.5,2.92,0,4.86.89,4.86,3.11,0,1.77-1.24,2.12-4.16,2.86-6.54,1.67-11.4,2.71-11.4,8.33,0,4.49,3.07,6.71,7.43,6.71A10.07,10.07,0,0,0,140.86,81v3.3h4.71V66.88C145.57,62,141.76,59.18,136.06,59.18Zm4.56,15.39c0,4.44-3.77,6.07-6.84,6.07-2.63,0-3.71-1.19-3.71-3,0-3,3.12-3.36,6.63-4.39A22.92,22.92,0,0,0,140.62,72Z"/><path class="cls-1" d="M130.41,3.4a3.57,3.57,0,0,0-7.14,0,3.58,3.58,0,0,0,7.14,0Z"/><path class="cls-1" d="M153.22,21.5V36.15h5V20.86c0-6.21-4.11-9.86-10.05-9.86a10.63,10.63,0,0,0-7.83,3.11V11.44h-4.71V36.15h5V19.28a8.5,8.5,0,0,1,7-3.69C151,15.59,153.22,17.85,153.22,21.5Z"/><path class="cls-1" d="M56.84.22c-9.72,0-18.22,6.53-20.07,17.21l-1.88,10.8s-10.22,0-15.16.46c-9,.77-14,5.15-14.49,7.44H33.52c-.05.27-2.33,13.44-2.37,13.68H24.82c-6.7,0-12.53,1.46-16.92,4.68A18.84,18.84,0,0,0,.21,67c-.75,5.23.5,10,3.53,13.37s7.56,5.26,13,5.26c9.72,0,18.11-6.74,19.94-17.21L38.56,57.7s12.17,0,16.59-.33c9-.67,12.62-5.28,13.08-7.56H39.93L42.3,36.13h6.46c6.71,0,12.55-1.52,16.94-4.74a18.78,18.78,0,0,0,7.68-12.53c.76-5.22-.5-10-3.52-13.37S62.3.22,56.84.22ZM28.2,66.78a14,14,0,0,1-1.49,4.42A11.93,11.93,0,0,1,16.37,78C11.69,78,8.94,75,8.68,70.72a12.1,12.1,0,0,1,.1-2.52A11.4,11.4,0,0,1,9,67c0-.16.09-.31.14-.47v0c1.67-5.22,7.6-8.81,15.53-8.81h5.08ZM64.81,17.67A10.88,10.88,0,0,1,60,25.09l-.23.16-.09.06a19.62,19.62,0,0,1-10.92,2.92H43.67l1.59-9.14c1.17-6.72,6.2-11.18,11.83-11.18S65.7,11.86,64.81,17.67Z"/></svg>