<?xml version="1.0" encoding="UTF-8"?>
<svg version="1.1" viewBox="0 0 106 35" xmlns="http://www.w3.org/2000/svg">
<g fill="none" fill-rule="evenodd">
<g transform="translate(-65 -19)" fill="#000">
<path d="m86.625 20 0.30873 0.0054216c1.9378 0.06861 3.5392 0.78723 4.6445 2.0878l0.16747 0.20673c1.0284 1.3343 1.4443 3.1394 1.1731 5.1134l-0.046347 0.29569c-0.32971 1.8621-1.3438 3.5186-2.876 4.6943l-0.26858 0.19671c-1.6385 1.1471-3.76 1.6983-6.1755 1.6983h-2.4529l-0.90684 5.4378h10.766l-0.012488 0.064251c-0.20171 0.94896-1.3983 3.0778-5.9096 3.0778h-5.3564l-0.71864 4.2751-0.05051 0.27913c-0.77769 3.9679-3.8512 6.5131-7.4187 6.5676h-0.2434l-0.31603-0.010256c-1.8783-0.096032-3.4313-0.81181-4.5126-2.0808l-0.17942-0.22256c-0.80998-1.0598-1.2367-2.4124-1.2416-3.9124v-0.055286l0.0095211-0.37218c0.012033-0.24989 0.035514-0.50327 0.070912-0.75982l0.04649-0.29539c0.33052-1.8604 1.3438-3.5182 2.878-4.693l0.2683-0.19645c1.6366-1.144 3.753-1.6658 6.1695-1.6658h2.4109l0.90158-5.4378h-10.763l0.018334-0.081803c0.26259-1.0364 1.8837-3.0624 5.8906-3.0624l5.3795-0.0049265 0.72022-4.3003c0.67763-4.2466 3.9249-6.8489 7.6243-6.8489zm31.314 22.735 0.22408 0.0037488c2.1414 0.07237 3.559 1.1894 3.559 3.0812v7.0022h-1.8723v-1.3249l-0.10023 0.12828c-0.59681 0.72336-1.6821 1.3748-3.172 1.3748l-0.19056-0.0036645c-1.6326-0.063526-2.7666-0.95321-2.7666-2.6858l0.005291-0.19988c0.11249-2.0794 2.0069-2.4917 4.5295-3.1426l0.19814-0.050943c1.0201-0.26438 1.4575-0.42464 1.4575-1.0974l-0.006333-0.13598c-0.075678-0.78961-0.82362-1.1089-1.9259-1.1089l-0.28287 0.0073007c-1.2968 0.067787-2.2766 0.60266-3.344 1.397v-2.0182c1.1041-0.82956 2.3463-1.2261 3.6874-1.2261zm11.077 0 0.21302 0.0040205c2.2502 0.085643 3.7895 1.5354 3.7895 3.9513v6.1318h-1.9905v-5.8742l-0.004499-0.17988c-0.068788-1.3566-0.9218-2.193-2.2445-2.193l-0.20864 0.0065965c-0.97273 0.061566-1.9258 0.55406-2.5704 1.4766v6.7639h-1.9713v-9.909h1.8712v1.0695c0.75002-0.79261 1.8547-1.2477 3.1161-1.2477zm8.3063-3.7468v8.2179l4.0014-4.2929h2.6036l-4.6739 4.8467 4.8905 5.0623h-2.6427l-4.179-4.5091v4.5091h-1.9713v-13.834h1.9713zm-29.608-0.012135 0.21665 0.0042739c2.0727 0.082441 3.5103 1.3522 3.5103 3.3399l-0.00334 0.1685c-0.040456 1.0276-0.45528 2.3359-1.6138 2.9369l0.20177 0.081805c1.4507 0.63123 2.2622 1.9439 2.2622 3.4185l-0.005034 0.20229c-0.1104 2.2038-2.0253 3.694-4.6083 3.694h-4.9087v-13.846h4.9482zm12.038 8.8825-0.031039 0.018217c-0.15843 0.085656-0.63069 0.25851-1.5273 0.5146l-0.1739 0.050641c-1.3258 0.37868-2.4666 0.5545-2.4666 1.7105 0 0.71153 0.43329 1.187 1.4764 1.187l0.13698-0.0027116c1.1954-0.047209 2.5854-0.71627 2.5854-2.4303v-1.048zm-12.097-1.3238h-2.8197v4.3889h2.6421l0.19353-0.0044283c1.5257-0.07061 2.5053-0.97984 2.4678-2.31l-0.007434-0.16045c-0.094255-1.2084-1.0404-1.914-2.4763-1.914zm-31.325-3.6563h-1.9335l-0.28947 0.004432c-2.8704 0.08838-5.0028 1.4907-5.6184 3.4994l-0.0031542 0.015874-0.02714 0.091961-0.02438 0.091962-0.05349 0.23421-0.040085 0.24037-0.029965 0.26354c-0.023262 0.25939-0.026417 0.50622-0.0094627 0.73982 0.097781 1.71 1.1471 2.7769 2.9234 2.7769l0.21151-0.0053969c1.5444-0.078983 2.937-1.0211 3.7244-2.5788l0.1288-0.26322c0.20447-0.449 0.35721-0.94925 0.4479-1.4966l0.52097-3.1864 0.072022-0.42806zm30.832-2.0028h-2.3265v3.8163h2.2275l0.17225-0.0041253c1.2438-0.060362 2.0553-0.78002 2.0553-1.9529l-0.005096-0.16359c-0.071114-1.1193-0.88159-1.6958-2.1234-1.6958zm30.753-17.287v1.7402h-2.0351l0.14371 0.13685c0.54839 0.54845 0.78172 1.115 0.78172 1.9001l-0.006553 0.22662c-0.13012 2.2157-2.1703 2.9281-3.6193 3.235l-0.18517 0.037095c-1.1646 0.22579-2.1611 0.28988-2.1611 0.87465l0.007289 0.083376c0.10622 0.58135 1.3585 0.51398 2.7723 0.64746l0.22488 0.020356c2.2271 0.2153 3.7952 0.79268 3.7952 2.6299l-0.005837 0.19311c-0.13173 2.1488-2.4742 2.952-5.0788 2.952l-0.22618-0.0021031c-2.3242-0.043638-4.2299-0.77179-4.2299-2.6879l0.006318-0.18335c0.079711-1.1387 0.90772-1.8492 2.1437-2.1117l-0.14305-0.051212c-0.65322-0.25602-1.0996-0.7493-1.0996-1.4314l0.007509-0.14476c0.074482-0.70413 0.69398-1.114 1.4507-1.2805l-0.18593-0.10302c-1.0274-0.60752-1.6066-1.617-1.6066-2.9621l0.004434-0.19953c0.094414-2.1069 1.6905-3.5192 4.2136-3.5192h5.0318zm-4.9724 10.484-0.1753 0.0010849c-1.4031 0.017693-2.8028 0.25974-2.8028 1.3039 0 0.79206 0.78851 1.1864 2.7026 1.1864l0.19766-0.0014471c1.5724-0.023356 2.9171-0.33428 2.8975-1.2832l-0.009431-0.11971c-0.12442-0.88754-1.4312-1.0871-2.8103-1.0871zm-26.173-14.737 0.32357 0.0066776c1.2792 0.053382 2.3781 0.42635 3.3435 1.102v2.1169l-0.13841-0.10608c-0.77096-0.57148-2.0579-1.2193-3.45-1.2193l-0.196 0.0044206c-1.5462 0.070406-2.5638 0.97402-2.5638 2.1511l0.006634 0.15957c0.10548 1.2425 1.4527 1.6793 2.8901 2.1151l0.16695 0.050719c1.8526 0.55966 4.2105 1.1973 4.2105 3.9046l-0.004941 0.21183c-0.11165 2.3799-2.1035 4.0419-4.7668 4.0419l-0.29311-0.0067009c-1.4709-0.066837-3.0112-0.63109-4.102-1.5769v-2.2736l0.17082 0.15561c1.0588 0.93109 2.7141 1.8014 4.2446 1.8014l0.19412-0.0047907c1.465-0.073121 2.3892-0.97547 2.3892-2.1706l-0.005225-0.14881c-0.079995-1.1074-1.0757-1.457-2.7941-2.0067l-0.38379-0.12233c-1.9853-0.64188-3.9664-1.4692-4.0124-4.0205v-0.18367c0.046189-2.5135 1.985-3.9818 4.7706-3.9818zm52.244 4.0745 0.22418 0.0037489c2.1424 0.07237 3.5611 1.1895 3.5611 3.0817v7.0033h-1.8734v-1.3254l-0.10024 0.12812c-0.59686 0.72254-1.6826 1.3749-3.1715 1.3749l-0.19055-0.0036623c-1.6326-0.063489-2.7661-0.95268-2.7661-2.6858l0.005288-0.19998c0.11243-2.0803 2.0058-2.4906 4.5278-3.1431l0.1985-0.050862c1.0219-0.26404 1.4588-0.42524 1.4588-1.0975l-0.006333-0.13598c-0.07568-0.78961-0.82368-1.1089-1.927-1.1089l-0.28267 0.0073146c-1.2959 0.067912-2.2758 0.60372-3.3443 1.3975v-2.0182c1.1041-0.83012 2.3463-1.2272 3.6863-1.2272zm-17.5 0.17926v5.8742l0.004582 0.1802c0.070019 1.3589 0.93743 2.1938 2.2422 2.1938l0.20145-0.0065966c0.94152-0.061568 1.8959-0.55409 2.5594-1.4771v-6.7645h1.9905v9.9095h-1.8728v-1.0684l-0.16176 0.15387c-0.77409 0.6967-1.8136 1.0921-2.9719 1.0921l-0.20808-0.0040191c-2.2002-0.085613-3.7752-1.5349-3.7752-3.953v-6.1302h1.9916zm28.282-0.098731 0.22146 0.005123c0.30578 0.01405 0.64942 0.058528 0.9811 0.15208v1.9189l-0.24642-0.083177c-0.32568-0.096018-0.64073-0.13414-0.95613-0.13414l-0.21299 0.0066571c-1.0582 0.06631-2.0077 0.62407-2.5077 1.4969v6.6459h-1.9713v-9.9095h1.8723v1.2261c0.63235-0.81026 1.5391-1.3249 2.8197-1.3249zm-47.041-0.08053 0.21306 0.0040236c2.2507 0.085705 3.7894 1.5365 3.7894 3.9524v6.1324h-1.9905v-5.8731l-0.004496-0.18021c-0.068745-1.359-0.92123-2.1949-2.2434-2.1949l-0.20885 0.0065967c-0.97369 0.061568-1.9272 0.55409-2.5713 1.4771v6.7645h-1.9724v-9.9095h1.8734v1.0684c0.74837-0.79206 1.8547-1.2477 3.115-1.2477zm30.128-3.9746v14.063h-1.9724v-14.063h1.9724zm-37.608 4.1539v9.9079h-1.9713v-9.9079h1.9713zm45.553 4.9443-0.030718 0.018727c-0.15717 0.087532-0.62987 0.25812-1.526 0.51575l-0.17416 0.050759c-1.3276 0.37944-2.4674 0.55275-2.4674 1.7093 0 0.71208 0.4344 1.1864 1.4775 1.1864l0.13686-0.0027094c1.1944-0.047172 2.5839-0.71574 2.5839-2.4303v-1.048zm-74.11-5.3908-0.19998 0.0049571c-2.0582 0.10222-3.8494 1.7781-4.3011 4.3638l-0.60351 3.639h1.9325l0.33417-0.0057874c1.5423-0.05381 2.8421-0.47997 3.8205-1.1574l0.016757-0.011837 0.016363-0.010606 0.044554-0.032706 0.043765-0.031886 0.19831-0.15154c0.90271-0.72452 1.4849-1.6894 1.6375-2.8011l0.027411-0.21454c0.23819-2.1915-0.91528-3.5904-2.9672-3.5904zm46.027 2.2452-0.16494 0.0048886c-1.1934 0.07133-2.023 0.91509-2.023 1.994 0 1.1076 0.90673 1.9586 2.1879 1.9586l0.16512-0.0047776c1.1954-0.069714 2.0426-0.89445 2.0426-1.9539l-0.005204-0.14562c-0.075988-1.0564-0.9765-1.8533-2.2025-1.8533zm-18.419-6.3867 0.15277 0.01021c0.74537 0.080114 1.2098 0.59211 1.2098 1.3533l-0.005689 0.14026c-0.060417 0.73219-0.598 1.2061-1.4152 1.2061l-0.1497-0.0055012c-0.78042-0.058399-1.269-0.57725-1.269-1.3409l0.006119-0.14886c0.060922-0.72713 0.57268-1.1929 1.3532-1.2146h0.11767z"/>
</g>
</g>
</svg>
