<svg xmlns="http://www.w3.org/2000/svg" width="80" height="80"><defs><style>.a{fill:#c63527}</style></defs><path class="a" d="M1 80h22.551a1 1 0 001-1V1a1 1 0 00-1-1H1a1 1 0 00-1 1v78a1 1 0 001 1zM2 2h20.551v76H2z"/><path class="a" d="M12.275 62.205a5.987 5.987 0 10-5.986-5.987 5.994 5.994 0 005.986 5.987zm0-9.973a3.987 3.987 0 11-3.986 3.986 3.991 3.991 0 013.986-3.986zm5.007 17.96H7.269a1 1 0 100 2h10.013a1 1 0 000-2zm0-5.115H7.269a1 1 0 100 2h10.013a1 1 0 000-2zM28.725 0a1 1 0 00-1 1v78a1 1 0 001 1h22.551a1 1 0 001-1V1a1 1 0 00-1-1zm21.551 78H29.725V2h20.551z"/><path class="a" d="M40 62.205a5.987 5.987 0 10-5.986-5.987A5.994 5.994 0 0040 62.205zm0-9.973a3.987 3.987 0 11-3.986 3.986A3.991 3.991 0 0140 52.232zm-5.006 19.96h10.013a1 1 0 000-2H34.994a1 1 0 000 2zm0-5.115h10.013a1 1 0 000-2H34.994a1 1 0 000 2zM79 0H56.449a1 1 0 00-1 1v78a1 1 0 001 1H79a1 1 0 001-1V1a1 1 0 00-1-1zm-1 78H57.449V2H78z"/><path class="a" d="M67.725 62.205a5.987 5.987 0 10-5.987-5.987 5.994 5.994 0 005.987 5.987zm0-9.973a3.987 3.987 0 11-3.987 3.986 3.99 3.99 0 013.987-3.986zm-5.007 19.96h10.013a1 1 0 000-2H62.718a1 1 0 000 2zm0-5.115h10.013a1 1 0 000-2H62.718a1 1 0 000 2zM7.832 36.369h8.887a1 1 0 001-1V11.625a1 1 0 00-1-1H7.832a1 1 0 00-1 1v23.744a1 1 0 001 1zm1-23.744h6.887v21.744H8.832zm26.725 23.744h8.887a1 1 0 001-1V11.625a1 1 0 00-1-1h-8.887a1 1 0 00-1 1v23.744a1 1 0 001 1zm1-23.744h6.887v21.744h-6.887zm26.725 23.744h8.886a1 1 0 001-1V11.625a1 1 0 00-1-1h-8.886a1 1 0 00-1 1v23.744a1 1 0 001 1zm1-23.744h6.886v21.744h-6.886z"/></svg>