<svg xmlns="http://www.w3.org/2000/svg" width="80" height="83.411"><defs><style>.a{fill:#ca3625}</style></defs><path class="a" d="M76.388 65.722l-28.483 14.9a8.586 8.586 0 01-6.869.5l-16.462-5.489h-5.585V57.707h6.856a11.48 11.48 0 015.1 1.157l9.285 4.321h12.226a2.5 2.5 0 012.43 2.408 2.413 2.413 0 01-2.429 2.481H37.936c-1.271.251-3.812 1.394-3.812 3.945h1.9c0-1.533 1.787-1.91 2.164-2.035h14.268a5.11 5.11 0 002.025-.516L74.349 60.7a2.668 2.668 0 013.56 1.533 2.856 2.856 0 01-1.521 3.56m3.309-4.321a4.75 4.75 0 00-6.115-2.537l-16.937 7.414c0-.251.14-.5.14-.753a4.269 4.269 0 00-4.189-4.321H40.742l-8.922-4.182a13.98 13.98 0 00-5.976-1.268h-6.869v-3.192H0v1.9h17.062V78.69H3.435v1.938h15.54v-3.206h5.082l16.294 5.464a10.61 10.61 0 003.365.53 11.28 11.28 0 004.971-1.143l28.33-14.9a4.625 4.625 0 002.681-5.966"/><path class="a" d="M11.946 73.347h1.91v1.91h-1.91zm-4.07 0h1.91v1.91h-1.91zM31.649 46.39V7.123h4.182v35.071h34.43v4.186zm6.105-44.355h28.325v9.911h9.91V40.28H37.754zm30.248 1.269l6.733 6.733h-6.733zm4.177 38.89h5.72V10.552L67.361 0H35.844v5.088h-6.105v43.086h42.459z"/><path class="a" d="M42.538 16.295h19.32v1.91h-19.32zm.039 7.763h28.729v1.91H42.577zm0 7.763h28.729v1.91H42.577z"/></svg>