<svg version="1.1" id="Capa_1" xmlns="http://www.w3.org/2000/svg" x="0" y="0" viewBox="0 0 80 80" xml:space="preserve"><style>.st0{fill:#c63527}</style><path class="st0" d="M61.1 51.8h-22c-.6 0-1 .4-1 1v6.7c0 .6.4 1 1 1h22c.6 0 1-.4 1-1v-6.7c0-.5-.4-1-1-1zm-1 6.7h-20v-4.7h20v4.7zm-34.3-8.2c-3.2 0-5.9 2.6-5.9 5.9 0 3.2 2.6 5.9 5.9 5.9s5.9-2.6 5.9-5.9c-.1-3.2-2.7-5.9-5.9-5.9zm0 9.7c-2.1 0-3.9-1.7-3.9-3.9 0-2.1 1.7-3.9 3.9-3.9 2.1 0 3.9 1.7 3.9 3.9-.1 2.2-1.8 3.9-3.9 3.9zm48.7-9.7c-3.2 0-5.9 2.6-5.9 5.9s2.6 5.9 5.9 5.9c3.2 0 5.9-2.6 5.9-5.9-.1-3.3-2.7-5.9-5.9-5.9zm0 9.7c-2.1 0-3.9-1.7-3.9-3.9s1.7-3.9 3.9-3.9c2.1 0 3.9 1.7 3.9 3.9-.1 2.2-1.8 3.9-3.9 3.9z" transform="translate(-10.126 -10.001)"/><path class="st0" d="M10.1 70.1v5.7c0 .6.4 1 1 1h5.2v7.7c0 3 2.4 5.5 5.5 5.5 3 0 5.5-2.4 5.5-5.5v-7.7H73v7.7c0 3 2.4 5.5 5.5 5.5 3 0 5.5-2.4 5.5-5.5v-7.7h5.2c.6 0 1-.4 1-1v-5.7c0-.6-.4-1-1-1h-1.5V49.6c0-4.8-3.4-8.9-8.1-9.7L75.4 17c-.6-3.8-3.8-6.7-7.7-6.9H32.6c-3.9.2-7.1 3.1-7.7 6.9l-4.2 22.9c-4.7.9-8.1 5-8.1 9.7v19.5h-1.5c-.5 0-1 .5-1 1zm67.4-30.4h-5.9c-.2-4.5-3.9-8.2-8.4-8.4-4.9-.2-9.1 3.5-9.3 8.4H22.7l4.1-22.4c.4-2.9 2.8-5.1 5.7-5.3h35.1c2.9.2 5.3 2.4 5.7 5.3l4.2 22.4zm-21.6 0c.2-3.4 3-6.2 6.4-6.4 3.8-.2 7.1 2.6 7.3 6.4H55.9zm29.7 29.4h-71V49.6c0-4.4 3.5-7.9 7.9-7.9h55.2c4.4 0 7.9 3.5 7.9 7.9v19.5zM75 76.8h6.9v7.7c0 1.9-1.5 3.5-3.5 3.5-1.9 0-3.5-1.5-3.5-3.5v-7.7zm-56.7 0h6.9v7.7c0 1.9-1.5 3.5-3.5 3.5-1.9 0-3.5-1.5-3.5-3.5v-7.7zm-6.2-5.7h76v3.7h-76v-3.7z" transform="translate(-10.126 -10.001)"/></svg>