<svg xmlns="http://www.w3.org/2000/svg" width="80" height="80"><defs><style>.a{fill:#c63527}</style></defs><g transform="translate(-116 -4024.249)"><circle class="a" cx="1.333" cy="1.333" r="1.333" transform="translate(182.667 4029.582)"/><circle class="a" cx="1.333" cy="1.333" r="1.333" transform="translate(177.333 4029.582)"/><circle class="a" cx="1.333" cy="1.333" r="1.333" transform="translate(172 4029.582)"/><path class="a" d="M162.533 4096.249a6.54 6.54 0 00-5.2-5.2v-10.8h-2.666v10.8a6.541 6.541 0 00-5.2 5.2H116v2.667h33.467a6.668 6.668 0 0013.066 0H196v-2.667zm-6.533 5.333a4 4 0 114-4 3.928 3.928 0 01-4 4z"/><path class="a" d="M152 4085.582h-28v-48h64v48h-28v2.667h30.666v-64h-69.333v64H152zm36-58.667v8h-64v-8z"/><path class="a" d="M156 4040.249a8.024 8.024 0 00-8 8v8h-1.333a3.929 3.929 0 00-4 4v13.334a3.928 3.928 0 004 4h18.667a3.928 3.928 0 004-4v-13.334a3.928 3.928 0 00-4-4H164v-8a8.024 8.024 0 00-8-8zm-5.333 8a5.333 5.333 0 1110.667 0v8h-10.667zm16 12v13.334a1.259 1.259 0 01-1.333 1.333h-18.667a1.26 1.26 0 01-1.334-1.333v-13.334a1.26 1.26 0 011.334-1.334h18.667a1.26 1.26 0 011.333 1.334z"/></g></svg>