<svg xmlns="http://www.w3.org/2000/svg" width="80" height="84.993"><defs><style>.a{fill:#ca3625}</style></defs><path class="a" d="M37.43 44.686a1.168 1.168 0 001.621.146l5.839-4.774a1.152 1.152 0 00.175-1.635 1.169 1.169 0 00-1.635-.175l-4.992 4.059-1.766-2.088a1.168 1.168 0 10-1.781 1.46z"/><path class="a" d="M39.985 52.394a10.891 10.891 0 0010.876-10.879 10.761 10.761 0 00-3.036-7.533v-7.53a7.737 7.737 0 00-15.46 0v7.3a10.861 10.861 0 007.62 18.613zm-5.3-25.942a5.4 5.4 0 0110.8 0v5.694a10.846 10.846 0 00-10.8-.117zm5.3 6.555a8.5 8.5 0 11-6.058 2.5 8.5 8.5 0 016.058-2.5z"/><path class="a" d="M77.591 33.124l-12.7-7.824h-.117l-.306-.146v-5.447a1.137 1.137 0 00-.306-.774L47.562.423A1.124 1.124 0 0046.716 0H22.861a7.3 7.3 0 00-7.3 7.3v17.868L2.423 33.124A5.066 5.066 0 000 37.387v37.81a9.8 9.8 0 009.8 9.8h60.4a9.811 9.811 0 009.8-9.8v-37.81a5.111 5.111 0 00-2.409-4.263zm-1.226 1.983a2.729 2.729 0 011.3 2.277v2.176l-13.14 8.06V27.767zm-28.54-30.9l11.153 12.436h-6.161a5.007 5.007 0 01-4.992-4.993zM22.861 2.351h22.628v9.328a7.3 7.3 0 007.3 7.3h8.248l1.066 1.2v28.887L40 62.613 17.869 49.066V7.314a4.992 4.992 0 014.992-4.963zM3.62 35.107l11.913-7.211v19.711L2.394 39.548v-2.161a2.714 2.714 0 011.226-2.28zM70.2 82.642H9.8a7.46 7.46 0 01-7.46-7.445V42.336l13.548 8.277a1.033 1.033 0 00.452.278l23.08 14.087a1.139 1.139 0 001.212 0l23.061-14.087a1.12 1.12 0 00.452-.278l13.548-8.277v32.861a7.46 7.46 0 01-7.493 7.445z"/></svg>