<svg xmlns="http://www.w3.org/2000/svg" viewBox="0 0 503.26 297.17" width="160"><g id="Capa_2" data-name="Capa 2"><path d="M212.48 123.09c5.74-3 7.59-9.58 7.59-14.47 0-9.58-7.22-15.57-17.49-15.57h-23.23v64.49h23c12.5 0 21.66-7.36 21.66-18.14a17.09 17.09 0 00-11.53-16.31zm-23.41-21.19H200c6.11 0 10 2.95 10 8.66s-4.16 9.12-10.46 9.12h-10.47zm12.4 46.8h-12.4v-20.45h13.23c7 0 11.57 3.59 11.66 9.67.19 6.45-4.81 10.78-12.49 10.78zm101.1-38.14a19.93 19.93 0 00-14.62 5.8v-5h-8.79v46.15h9.25V126a15.88 15.88 0 0113-6.91c6.48 0 10.56 4.24 10.56 11.05v27.36h9.34V129c.05-11.62-7.63-18.44-18.74-18.44zm70 .83h-12.22l-18.79 19.99V93.11h-9.25v64.43h9.25v-21l19.63 21h12.4l-22.96-23.58 21.94-22.57zm-121.99-.83a28.26 28.26 0 00-17.31 5.71v9.4c5.36-4 10.27-6.54 17-6.54 5.47 0 9.08 1.66 9.08 5.8 0 3.32-2.32 4-7.78 5.34-12.21 3.14-21.29 5.07-21.29 15.58 0 8.38 5.74 12.53 13.89 12.53 7.4 0 12.68-3.41 15.36-7v6.17h8.79v-32.62c.02-9.12-7.11-14.37-17.74-14.37zm8.51 28.74c0 8.3-7 11.34-12.78 11.34-4.9 0-6.93-2.21-6.93-5.53 0-5.62 5.83-6.27 12.4-8.2 4.53-1.29 6.75-2.12 7.31-2.49zm42.75-62.09c0 9.21 9.53 12.53 20.92 12.53 12.59 0 23.87-4 23.87-14.65 0-8.84-7.86-11.42-18.88-12.35-6.94-.64-13-.27-13-3.4 0-2.86 5.18-3.05 11-4.24 7-1.48 17-5 17-16.13a11.73 11.73 0 00-4.35-9.49h9.6v-8.1h-23.67c-12.22 0-19.8 7-19.8 17.32 0 6.63 3.05 11.51 8.42 14.28-3.79.82-6.85 3-6.85 6.63 0 3.41 2.4 5.81 5.83 6.91-6.11 1.29-10.09 4.89-10.09 10.69zm21.84-47.45c6 0 10.36 4.05 10.36 9.3s-4.34 9.13-10.36 9.13-10.27-4-10.27-9.13 4.26-9.3 10.27-9.3zm.93 40.45c6.75 0 13.14 1 13.23 5.62s-6.75 6-14.53 6c-9 0-12.68-1.84-12.68-5.52 0-5.09 7.13-6.1 13.98-6.1zM201 60.44c-7.58 0-15.82-4.51-20.72-9.12v10.59a32.62 32.62 0 0020.63 7.38c12.86 0 22.4-8.2 22.4-19.82 0-13-11.75-15.75-20.55-18.42-7-2.12-13.6-4.24-13.6-10.6 0-5.71 5.18-10 13-10 6.94 0 13.32 3.41 16.84 6.18V6.72a29.3 29.3 0 00-17.21-5.15c-13.24 0-22.4 7-22.4 19 0 13 10.64 16.59 20.64 19.72 8.42 2.67 13.14 4.34 13.14 10.05s-4.76 10.1-12.17 10.1zm187.35-7.55a16.11 16.11 0 01-13 6.91c-6.38 0-10.54-4.24-10.54-11.06V21.38h-9.31v28.55c0 11.61 7.87 18.43 18.69 18.43a20.57 20.57 0 0014.72-5.8v5h8.79V21.38h-9.35zm20.61-50.86h9.26v65.51h-9.26zM447 20.54a28.27 28.27 0 00-17.31 5.72v9.4c5.37-4 10.28-6.54 17-6.54 5.46 0 9.07 1.65 9.07 5.8 0 3.32-2.31 4-7.78 5.34-12.21 3.14-21.28 5.07-21.28 15.57 0 8.39 5.74 12.53 13.88 12.53 7.4 0 12.68-3.4 15.37-7v6.18h8.79V34.92c.03-9.12-7.1-14.38-17.74-14.38zm8.51 28.75c0 8.29-7 11.33-12.77 11.33-4.9 0-6.94-2.21-6.94-5.52 0-5.63 5.83-6.27 12.4-8.2 4.54-1.29 6.76-2.12 7.31-2.49zm42.1-28.37c-6 0-10.27 2.39-13.23 6.17v-5.71h-8.79v46.16h9.25v-31a14.62 14.62 0 0112.77-7 15.78 15.78 0 015.65 1v-8.89a21.28 21.28 0 00-5.65-.73zm-265.19.46h9.25v46.15h-9.25zm11.2-15.02C243.62 2.49 241 0 237 0s-6.66 2.49-6.66 6.36 2.59 6.26 6.66 6.26 6.62-2.48 6.62-6.26zm42.61 33.81v27.37h9.35V39c0-11.6-7.68-18.43-18.79-18.43a19.88 19.88 0 00-14.62 5.81v-5h-8.79v46.16h9.25V36a15.88 15.88 0 0113.05-6.9c6.48.02 10.55 4.25 10.55 11.07zM106.18.41c-18.16 0-34 12.19-37.5 32.15l-3.5 20.18s-19.1.07-28.32.86C20.05 55 10.65 63.22 9.78 67.49h52.84c-.09.52-4.36 25.11-4.43 25.56H46.36c-12.52 0-23.4 2.73-31.6 8.74A35.14 35.14 0 00.4 125.2c-1.4 9.76.93 18.63 6.58 25S21.11 160 31.3 160c18.17 0 33.84-12.58 37.25-32.14L72 107.79s22.75 0 31-.61c16.82-1.26 23.57-9.88 24.44-14.13H74.59L79 67.49h12.1c12.52 0 23.42-2.84 31.63-8.85a35.16 35.16 0 0014.36-23.42c1.4-9.76-.94-18.63-6.58-25S116.38.41 106.18.41zm-53.5 124.35a26.15 26.15 0 01-2.79 8.24c-4 7.65-11.33 12.61-19.32 12.61-8.72 0-13.88-5.48-14.36-13.51a22.43 22.43 0 01.2-4.71 17.82 17.82 0 01.46-2.22c.07-.3.16-.58.25-.87v-.07c3.12-9.74 14.19-16.45 29-16.45h9.49zM121.08 33a20.45 20.45 0 01-9 13.86c-.15.09-.29.2-.44.3l-.16.1c-5.15 3.41-12.11 5.46-20.4 5.46h-9.5l3-17.08c2.18-12.55 11.59-20.88 22.09-20.88s16.07 7.4 14.41 18.24zm75.8 210.27c0 4-3.38 6.89-8 6.89h-9.18v-23.64h8.95c3.81 0 6.51 2.3 6.51 6a5.43 5.43 0 01-2.43 4.87 5.91 5.91 0 014.15 5.88zm-12.88-7.4h3.55c1.86 0 3.14-1 3.14-2.66s-1.15-2.54-3-2.54H184zm8.48 6.89c0-1.79-1.49-2.87-3.61-2.87H184V246h4.56c2.44 0 3.96-1.31 3.96-3.24zm7.78-15.13a2.77 2.77 0 112.8 2.67 2.59 2.59 0 01-2.8-2.67zm.71 22.53v-17.22h4.15v17.22zm23.97-7.06h-11.78c.13 2.26 2.43 3.78 5.23 3.78a11.13 11.13 0 006.08-2.09v3.71a11.33 11.33 0 01-6.58 2c-5.37 0-8.89-3.58-8.89-9s3.48-8.88 8.38-8.88c4.73 0 7.56 3.24 7.56 8.48zm-11.75-3.1h7.7a3.39 3.39 0 00-3.54-3.68 4 4 0 00-4.16 3.68zm31.55-.31v10.47h-4.16v-10.1c0-2.26-1.69-3.54-3.91-3.54a4.46 4.46 0 00-3.69 1.72v11.92h-4.15v-17.22h3.95v1.58a6.68 6.68 0 015-1.92c3.85 0 6.96 2.4 6.96 7.09zm20.4-6.75l-6.93 17.22h-4.15l-7-17.22h4.6l4.42 12.93 4.46-12.93zm17.29 10.16h-11.79c.14 2.26 2.44 3.78 5.24 3.78a11.16 11.16 0 006.08-2.09v3.71a11.38 11.38 0 01-6.59 2c-5.37 0-8.88-3.58-8.88-9s3.48-8.88 8.38-8.88c4.72 0 7.56 3.24 7.56 8.48zm-11.75-3.1h7.7a3.39 3.39 0 00-3.55-3.68 4 4 0 00-4.15 3.68zm31.54-.31v10.47h-4.15v-10.1c0-2.26-1.69-3.54-3.92-3.54a4.44 4.44 0 00-3.68 1.72v11.92h-4.15v-17.22h3.95v1.58a6.66 6.66 0 015-1.92c3.85 0 6.95 2.4 6.95 7.09zm4.23-12.06a2.77 2.77 0 112.8 2.67 2.59 2.59 0 01-2.8-2.67zm.71 22.53v-17.22h4.15v17.22zm25.43-24.01v24h-3.92v-1.85a6.4 6.4 0 01-5.13 2.16c-4.66 0-8.35-3.58-8.35-9 0-5.2 3.58-8.88 8.45-8.88a6.31 6.31 0 014.79 1.82v-8.27zm-4.16 12.12a6.07 6.07 0 00-4.25-1.75 4.64 4.64 0 00-4.9 4.89 4.83 4.83 0 005 5.17 5.78 5.78 0 004.18-1.79zm25.84 3.28a8.9 8.9 0 11-8.91-9 8.64 8.64 0 018.91 9zm-4.09 0a4.81 4.81 0 10-9.62 0c0 3 1.89 5.07 4.8 5.07s4.82-2.07 4.82-5.11zm28.82 8.61h-3.95v-2.33a6.3 6.3 0 01-5.37 2.63c-3.38 0-5.1-2-5.1-4.76 0-4.39 4.39-5 8-5.91 1.25-.3 2.33-.64 2.33-1.82 0-1.39-1.49-1.76-3-1.76a9.83 9.83 0 00-6.18 2.23v-3.75a11 11 0 016.52-2.09c4.22 0 6.82 2.09 6.82 5.6zm-4.16-8a15.77 15.77 0 01-2 .68c-2.5.67-4.16 1-4.16 2.73 0 1 .58 1.56 2.06 1.56a3.81 3.81 0 004.12-3.79zm17.33 8v-24h4.15v24zm22.46 0h-3.95v-2.33a6.3 6.3 0 01-5.37 2.63c-3.38 0-5.1-2-5.1-4.76 0-4.39 4.39-5 8-5.91 1.25-.3 2.33-.64 2.33-1.82 0-1.39-1.49-1.76-3-1.76a9.85 9.85 0 00-6.18 2.23v-3.75a11 11 0 016.52-2.09c4.22 0 6.82 2.09 6.82 5.6zm-4.15-8a15.5 15.5 0 01-2 .68c-2.5.67-4.15 1-4.15 2.73 0 1 .57 1.56 2.06 1.56a3.81 3.81 0 004.12-3.79zm-215.22 38.06v10.47h-4.16v-10.1c0-2.26-1.69-3.54-3.92-3.54a4.46 4.46 0 00-3.68 1.72v11.92h-4.15v-17.22h4v1.58a6.68 6.68 0 015-1.92c3.8 0 6.91 2.4 6.91 7.09zm20.63-6.75v17.22H212v-1.59a7.09 7.09 0 01-5 1.89 6.68 6.68 0 01-7-7.09v-10.43h4.15v10.09a3.65 3.65 0 003.88 3.55 4.75 4.75 0 003.72-1.76v-11.88zm19.83 10.16h-11.79c.14 2.26 2.43 3.78 5.24 3.78a11.16 11.16 0 006.08-2.09V289a11.44 11.44 0 01-6.59 1.95c-5.37 0-8.88-3.58-8.88-9s3.48-8.88 8.37-8.88c4.73 0 7.57 3.24 7.57 8.48zm-11.72-3.1h7.7a3.4 3.4 0 00-3.55-3.69 4 4 0 00-4.15 3.69zm31.44-7.06l-6.92 17.22h-4.15l-7-17.22H242l4.43 12.93 4.45-12.93zm15.78 17.22h-4v-2.33a6.3 6.3 0 01-5.32 2.64c-3.38 0-5.1-1.95-5.1-4.76 0-4.39 4.39-5 8-5.91 1.25-.3 2.33-.64 2.33-1.82 0-1.39-1.49-1.76-3-1.76a9.88 9.88 0 00-6.18 2.23v-3.75a11 11 0 016.52-2.09c4.22 0 6.82 2.09 6.82 5.61zm-4.16-8a14.33 14.33 0 01-2 .68c-2.5.67-4.16 1.05-4.16 2.73 0 1 .58 1.56 2.06 1.56a3.81 3.81 0 004.12-3.78zm34.76-.75c0 4.46-2.81 9.05-8.28 9.05-1.92 0-4.05-.57-5.2-2.16v1.86h-3.95v-24h4.16V275a6.57 6.57 0 014.93-1.82c5.52-.05 8.34 4.34 8.34 8.76zm-4.09 0a4.69 4.69 0 00-4.9-4.89 6.21 6.21 0 00-4.28 1.75v6.52a6 6 0 004.22 1.79 4.9 4.9 0 004.96-5.17zm21.18 8.75h-4v-2.33a6.3 6.3 0 01-5.37 2.63c-3.38 0-5.1-1.95-5.1-4.76 0-4.39 4.39-5 8-5.91 1.25-.3 2.33-.64 2.33-1.82 0-1.39-1.49-1.76-3-1.76a9.88 9.88 0 00-6.18 2.23v-3.75a11 11 0 016.52-2.09c4.22 0 6.82 2.09 6.82 5.61zm-4.15-8a14.11 14.11 0 01-2 .68c-2.5.67-4.15 1.05-4.15 2.73 0 1 .57 1.56 2.06 1.56a3.81 3.81 0 004.12-3.78zm24.95-2.47v10.47h-4.15v-10.1c0-2.26-1.69-3.54-3.92-3.54a4.46 4.46 0 00-3.68 1.72v11.92h-4.15v-17.22h3.95v1.58a6.68 6.68 0 015-1.92c3.85 0 6.95 2.4 6.95 7.09zm7.81 1.78c0 3.38 2.5 5.1 5.33 5.1a7.85 7.85 0 004.83-1.76v4.06a8.7 8.7 0 01-5.13 1.58c-4.69 0-9.12-3.17-9.12-9s4.29-8.88 9-8.88a8.62 8.62 0 015.26 1.65v4a8.41 8.41 0 00-4.93-1.72c-2.84.02-5.24 1.71-5.24 4.97zm27.29 8.69h-3.95v-2.33a6.3 6.3 0 01-5.37 2.63c-3.38 0-5.1-1.95-5.1-4.76 0-4.39 4.39-5 8-5.91 1.25-.3 2.33-.64 2.33-1.82 0-1.39-1.49-1.76-3-1.76a9.88 9.88 0 00-6.18 2.23v-3.75a11 11 0 016.52-2.09c4.22 0 6.82 2.09 6.82 5.61zm-4.15-8a14.56 14.56 0 01-2 .68c-2.5.67-4.16 1.05-4.16 2.73 0 1 .58 1.56 2.06 1.56a3.82 3.82 0 004.13-3.78zm34.75-.88c0 4.42-2.87 8.88-8.21 8.88a6.72 6.72 0 01-5.06-1.89v8.37H388v-23.7h3.95v1.69a6.36 6.36 0 015.07-2c5.62-.03 8.39 4.29 8.39 8.65zm-4.12 0a4.62 4.62 0 00-4.9-4.79 6.14 6.14 0 00-4.25 1.75V285a5.93 5.93 0 004.22 1.75 4.78 4.78 0 004.93-4.91zm18.58-8.27v3.95a8.15 8.15 0 00-2.17-.27 4.93 4.93 0 00-4.25 2.09v11.38h-4.19v-17.22h3.95v2.09a5.38 5.38 0 014.7-2.26 8.91 8.91 0 011.96.24zm2.43-5.37a2.77 2.77 0 112.8 2.66 2.6 2.6 0 01-2.8-2.66zm.71 22.52v-17.22h4.15v17.22zm25.06-17.22l-6.93 17.22H437l-7-17.22h4.6l4.42 12.93 4.46-12.93zm15.77 17.22h-3.95v-2.33a6.29 6.29 0 01-5.37 2.63c-3.38 0-5.1-1.95-5.1-4.76 0-4.39 4.39-5 8-5.91 1.25-.3 2.33-.64 2.33-1.82 0-1.39-1.49-1.76-3-1.76a9.91 9.91 0 00-6.25 2.26v-3.75a11 11 0 016.52-2.09c4.22 0 6.82 2.09 6.82 5.61zm-4.15-8a14.11 14.11 0 01-2 .68c-2.5.67-4.15 1.05-4.15 2.73 0 1 .57 1.56 2.06 1.56a3.81 3.81 0 004.12-3.78zM485 266.68v24h-4v-1.86a6.39 6.39 0 01-5.1 2.18c-4.66 0-8.34-3.58-8.34-9 0-5.2 3.58-8.88 8.44-8.88a6.35 6.35 0 014.8 1.82v-8.27zm-4.2 12.12a6.1 6.1 0 00-4.26-1.75 4.64 4.64 0 00-4.9 4.89 4.83 4.83 0 005 5.17 5.8 5.8 0 004.19-1.79zm22.46 11.89h-3.95v-2.33a6.3 6.3 0 01-5.37 2.63c-3.38 0-5.1-1.95-5.1-4.76 0-4.39 4.39-5 8-5.91 1.25-.3 2.33-.64 2.33-1.82 0-1.39-1.49-1.76-3-1.76a9.88 9.88 0 00-6.18 2.23v-3.75a11 11 0 016.52-2.09c4.22 0 6.82 2.09 6.82 5.61zm-4.16-8a14.33 14.33 0 01-2 .68c-2.5.67-4.16 1.05-4.16 2.73 0 1 .58 1.56 2.06 1.56a3.81 3.81 0 004.12-3.78z" fill="#1d1d1b" id="Capa_1-2" data-name="Capa 1"/></g></svg>