<svg xmlns="http://www.w3.org/2000/svg" viewBox="0 0 834.63 260.63" width="240"><g id="Capa_2" data-name="Capa 2"><path d="M567.47 63.47V52.78a24.54 24.54 0 00-6.64-.88c-7.06 0-12.07 2.86-15.55 7.38v-6.83H535v55.22h10.88v-37a17.11 17.11 0 0115-8.38 18.11 18.11 0 016.64 1.22m-55.56 44.2h10.33v-39c0-10.92-8.37-17.2-20.88-17.2A32.83 32.83 0 00481 58.29v11.24c6.3-4.74 12.07-7.82 20-7.82 6.41 0 10.66 2 10.66 6.94 0 4-2.72 4.74-9.14 6.39-14.35 3.75-25 6.06-25 18.63 0 10 6.74 15 16.31 15 8.7 0 14.9-4.07 18.05-8.37zm-.54-21.83c0 9.92-8.27 13.55-15 13.55-5.76 0-8.15-2.64-8.15-6.61 0-6.72 6.84-7.49 14.57-9.81 5.33-1.54 7.94-2.53 8.59-3zm-54.71 21.83h10.88V29.3h-10.93zm-23.56 0h10.34V52.45h-11v37.69a18.81 18.81 0 01-15.22 8.27c-7.51 0-12.4-5.07-12.4-13.23V52.45h-11v34.16c0 13.89 9.24 22 22 22a23.92 23.92 0 0017.28-6.94zm-59.4-45.57H385v-9.69h-27.77c-14.36 0-23.27 8.37-23.27 20.71 0 7.94 3.58 13.78 9.89 17.09-4.46 1-8.05 3.53-8.05 7.94 0 4.07 2.83 6.94 6.86 8.26-7.18 1.54-11.86 5.85-11.86 12.78 0 11 11.2 15 24.57 15 14.8 0 28.06-4.74 28.06-17.52 0-10.58-9.24-13.66-22.18-14.77-8.16-.77-15.33-.33-15.33-4.07 0-3.42 6.08-3.64 12.94-5.08 8.26-1.76 20-5.94 20-19.28 0-4.74-1.52-8-5.12-11.36m-16.2 48.72c7.94 0 15.44 1.21 15.55 6.72s-7.93 7.16-17.07 7.16c-10.55 0-14.9-2.2-14.9-6.61 0-6.06 8.37-7.27 16.42-7.27m11.09-37.25c0 6.17-5.1 10.91-12.17 10.91s-12.06-4.75-12.06-10.92 5-11.13 12.07-11.13 12.17 4.84 12.17 11.13m-56.18 34.06h11V73.5c0-13.89-9-22-22.07-22-7 0-13.06 2.54-17.19 6.95v-6h-10.35v55.22h10.88V70a18.55 18.55 0 0115.33-8.26c7.61 0 12.4 5.07 12.4 13.22zm-50.08-73.19c0-4.63-3-7.6-7.83-7.6s-7.83 3-7.83 7.6 3.05 7.5 7.83 7.5 7.83-3 7.83-7.5m379.35 32c6.74-3.53 8.92-11.46 8.92-17.31 0-11.46-8.49-18.63-20.56-18.63H602.8v77.15h27.07c14.68 0 25.45-8.81 25.45-21.71a20.44 20.44 0 00-13.59-19.5m-2.94-15c0 6.84-4.89 10.92-12.29 10.92h-12.28V41.12h12.83c7.18 0 11.74 3.52 11.74 10.35m4.68 32.74c.21 7.72-5.65 12.89-14.68 12.89h-14.57V72.64h15.55c8.26 0 13.59 4.29 13.7 11.57m-405 1.85c0-15.54-13.81-18.85-24.14-22-8.26-2.54-16-5.07-16-12.68 0-6.83 6.09-12 15.22-12 8.16 0 15.66 4.08 19.79 7.39V34.92a34 34 0 00-20.23-6.17c-15.55 0-26.31 8.38-26.31 22.7 0 15.54 12.5 19.84 24.25 23.59 9.89 3.2 15.44 5.18 15.44 12S221 99.17 212.32 99.17c-8.92 0-18.6-5.39-24.36-10.9v12.67a38 38 0 0024.24 8.82c15.12 0 26.32-9.81 26.32-23.7m21.58-33.61h-10.88v55.21h10.88zm402.57 41.24c0 10 6.74 15 16.31 15 8.71 0 14.9-4.07 18-8.37v7.38h10.33v-39c0-10.91-8.37-17.2-20.87-17.2a32.84 32.84 0 00-20.34 6.84v11.21c6.31-4.74 12.07-7.82 20-7.82 6.41 0 10.66 2 10.66 6.94 0 4-2.72 4.74-9.13 6.39-14.36 3.74-25 6.06-25 18.63m10.66-.89c0-6.72 6.85-7.49 14.57-9.8 5.33-1.55 7.94-2.54 8.59-3v5.84c0 9.92-8.27 13.55-15 13.55-5.76 0-8.15-2.63-8.15-6.61m57.1-40.31h-10.33v55.21H731V70a18.56 18.56 0 0115.33-8.26c7.61 0 12.4 5.07 12.4 13.22v32.73h11V73.52c0-13.88-9-22-22.08-22a23.2 23.2 0 00-17.18 7zm63-21.87h-10.87v77.08h10.87V82.56l23.06 25.12H831l-27-28.21 25.77-27h-14.3L793.4 76.38zM51.93 124.67a27.14 27.14 0 01-2.79 8.27c-4 7.68-11.16 12.17-19 12.17-8.59 0-13.67-5-14.14-13.07a21.81 21.81 0 01.19-4.72 18.34 18.34 0 01.45-2.23c.07-.29.16-.58.25-.87v-.07c3.07-9.77 14-16.49 28.56-16.49h9.35l-.34 2zm31.33-89.33C85.52 22.78 94.68 14.79 105 14.79s15.85 7 14.21 17.9a20.46 20.46 0 01-8.87 13.89l-.43.31-.16.1c-5.07 3.42-11.93 5.48-20.09 5.48h-9.31zm6.45 32c12.34 0 23.08-2.9 31.16-8.93A35.3 35.3 0 00135 34.89c1.38-9.78-.92-18.68-6.48-25S114.62 0 104.57 0C86.68 0 71 12.25 67.7 32.23l-3.48 20.24h-26c-19.9 0-27.63 10-28.58 14.8h52.04l-4.36 25.6H45.66c-12.33 0-23 2.74-31.13 8.77A35.36 35.36 0 00.39 125.11c-1.38 9.79.92 18.68 6.48 25s13.91 9.85 24 9.85c17.89 0 33.33-12.59 36.69-32.23L71 107.66h25.9c22.32 0 27.86-10.49 28.64-14.79H73.47l4.39-25.58zm120.12 178.23c0 4.53-3.8 7.76-9 7.76h-10.36v-26.62h10.08c4.3 0 7.34 2.59 7.34 6.81a6.11 6.11 0 01-2.74 5.48 6.65 6.65 0 014.68 6.57zm-14.45-8.32h4c2.09 0 3.54-1.15 3.54-3s-1.29-2.85-3.35-2.85h-4.18zm9.54 7.75c0-2-1.67-3.23-4.07-3.23h-5.47v6.88h5.13c2.66 0 4.41-1.48 4.41-3.65zm8.72-17a3.12 3.12 0 113.15 3 2.92 2.92 0 01-3.15-3zm.79 25.36v-19.42h4.68v19.39zm27.01-7.98h-13.28c.16 2.55 2.74 4.26 5.9 4.26a12.56 12.56 0 006.84-2.36v4.19a12.78 12.78 0 01-7.41 2.2c-6.05 0-10-4-10-10.11s3.91-10 9.43-10c5.32 0 8.52 3.65 8.52 9.54zm-13.24-3.49h8.67a3.81 3.81 0 00-4-4.15 4.46 4.46 0 00-4.67 4.15zm35.52-.35v11.79h-4.67V242c0-2.55-1.9-4-4.41-4a5 5 0 00-4.15 1.94v13.42h-4.68v-19.42h4.45v1.78a7.53 7.53 0 015.59-2.16c4.38 0 7.87 2.7 7.87 7.98zm22.98-7.6l-7.8 19.39h-4.68l-7.83-19.39h5.17l5 14.56 5-14.56zm19.47 11.44H292.9c.15 2.55 2.74 4.26 5.89 4.26a12.57 12.57 0 006.85-2.36v4.19a12.84 12.84 0 01-7.42 2.2c-6 0-10-4-10-10.11s3.92-10 9.43-10c5.33 0 8.52 3.65 8.52 9.54zm-13.23-3.49h8.67a3.82 3.82 0 00-4-4.15 4.46 4.46 0 00-4.67 4.15zm35.52-.35v11.79h-4.68V242c0-2.55-1.9-4-4.41-4a5 5 0 00-4.14 1.94v13.42h-4.68v-19.42H315v1.78a7.51 7.51 0 015.59-2.16c4.41 0 7.87 2.7 7.87 7.98zm4.76-13.54a3.12 3.12 0 113.15 3 2.93 2.93 0 01-3.15-3zm.8 25.36v-19.42h4.67v19.39zm28.63-27.07v27h-4.41v-2.09a7.23 7.23 0 01-5.78 2.43c-5.25 0-9.39-4-9.39-10.11 0-5.86 4-10 9.51-10a7.14 7.14 0 015.4 2.05v-9.32zM358 240a6.85 6.85 0 00-4.8-2 5.23 5.23 0 00-5.51 5.51c0 3.5 2.32 5.82 5.59 5.82a6.5 6.5 0 004.72-2zm29.07 3.63a10 10 0 11-10-10.07 9.72 9.72 0 0110 10.07zm-4.6 0c0-3.31-2.13-5.63-5.44-5.63s-5.4 2.32-5.4 5.63 2.13 5.7 5.4 5.7 5.44-2.33 5.44-5.73zm32.45 9.7h-4.45v-2.62a7.1 7.1 0 01-6.05 3c-3.8 0-5.74-2.2-5.74-5.36 0-4.94 4.94-5.63 9-6.65 1.41-.34 2.63-.73 2.63-2.06 0-1.56-1.68-2-3.43-2a11.07 11.07 0 00-7 2.51v-4.23a12.43 12.43 0 017.34-2.35c4.76 0 7.69 2.35 7.69 6.31zm-4.68-9.05a16.9 16.9 0 01-2.24.72c-2.82.76-4.68 1.18-4.68 3.08 0 1.1.64 1.75 2.32 1.75 2.81 0 4.64-1.86 4.64-4.26zm19.51 9.05v-27h4.68v27zm25.25 0h-4.45v-2.62a7.08 7.08 0 01-6 3c-3.81 0-5.75-2.2-5.75-5.36 0-4.94 4.95-5.63 9-6.65 1.41-.34 2.62-.73 2.62-2.06 0-1.56-1.67-2-3.42-2a11.07 11.07 0 00-7 2.51v-4.23a12.43 12.43 0 017.34-2.35c4.75 0 7.68 2.35 7.68 6.31zm-4.68-9.05a16 16 0 01-2.28.76c-2.81.76-4.68 1.18-4.68 3.08 0 1.1.65 1.75 2.32 1.75 2.82 0 4.64-1.86 4.64-4.26zm37.47-2.74v11.79h-4.68V242c0-2.55-1.9-4-4.41-4a5 5 0 00-4.14 1.94v13.42h-4.68v-19.42h4.45v1.78a7.51 7.51 0 015.59-2.16c4.37 0 7.87 2.7 7.87 7.98zm23.21-7.6v19.39h-4.41v-1.79a8 8 0 01-5.63 2.13c-4.15 0-7.87-2.7-7.87-8v-11.73h4.68v11.37a4.09 4.09 0 004.37 4 5.35 5.35 0 004.18-2v-13.37zm22.36 11.44h-13.28c.16 2.55 2.74 4.26 5.9 4.26a12.56 12.56 0 006.84-2.36v4.19a12.78 12.78 0 01-7.41 2.2c-6 0-10-4-10-10.11s3.91-10 9.43-10c5.32 0 8.52 3.65 8.52 9.54zm-13.24-3.49h8.67a3.81 3.81 0 00-4-4.15 4.46 4.46 0 00-4.67 4.15zm35.45-7.95l-7.8 19.39h-4.68l-7.83-19.39h5.17l5 14.56 5-14.56zm17.76 19.39h-4.45v-2.62a7.08 7.08 0 01-6 3c-3.81 0-5.75-2.2-5.75-5.36 0-4.94 4.95-5.63 9-6.65 1.4-.34 2.62-.73 2.62-2.06 0-1.56-1.67-2-3.42-2a11.07 11.07 0 00-7 2.51v-4.23a12.43 12.43 0 017.34-2.35c4.75 0 7.68 2.35 7.68 6.31zm-4.68-9.05a16 16 0 01-2.28.76c-2.81.76-4.68 1.18-4.68 3.08 0 1.1.65 1.75 2.32 1.75 2.82 0 4.64-1.86 4.64-4.26zm39.14-.8c0 5-3.16 10.19-9.32 10.19-2.16 0-4.56-.64-5.85-2.43v2.09h-4.45v-27h4.67v9.32a7.43 7.43 0 015.56-2.05c6.23-.04 9.39 4.9 9.39 9.88zm-4.6 0a5.28 5.28 0 00-5.52-5.51 7 7 0 00-4.83 2v7.33a6.72 6.72 0 004.76 2 5.52 5.52 0 005.59-5.82zm23.81 9.85h-4.45v-2.62a7.1 7.1 0 01-6.05 3c-3.8 0-5.74-2.2-5.74-5.36 0-4.94 4.94-5.63 9-6.65 1.41-.34 2.63-.73 2.63-2.06 0-1.56-1.68-2-3.42-2a11 11 0 00-7 2.51v-4.23a12.43 12.43 0 017.34-2.35c4.75 0 7.68 2.35 7.68 6.31zm-4.68-9.05a16.9 16.9 0 01-2.28.76c-2.82.76-4.68 1.18-4.68 3.08 0 1.1.65 1.75 2.32 1.75 2.81 0 4.64-1.86 4.64-4.26zm28.15-2.74v11.79h-4.68V242c0-2.55-1.9-4-4.41-4a5 5 0 00-4.15 1.94v13.42h-4.68v-19.42H637v1.78a7.53 7.53 0 015.59-2.16c4.41 0 7.88 2.7 7.88 7.98zm8.78 2.02c0 3.8 2.82 5.74 6 5.74a8.87 8.87 0 005.44-2v4.57a9.76 9.76 0 01-5.78 1.78c-5.29 0-10.27-3.57-10.27-10.11s4.83-10 10.12-10a9.69 9.69 0 015.93 1.86v4.49a9.45 9.45 0 00-5.55-1.94c-3.14.05-5.89 1.92-5.89 5.61zm30.75 9.77h-4.45v-2.62a7.11 7.11 0 01-6 3c-3.8 0-5.74-2.2-5.74-5.36 0-4.94 4.94-5.63 9-6.65 1.41-.34 2.63-.73 2.63-2.06 0-1.56-1.68-2-3.43-2a11.07 11.07 0 00-7 2.51v-4.23a12.43 12.43 0 017.34-2.35c4.76 0 7.69 2.35 7.69 6.31zm-4.68-9.05a16.9 16.9 0 01-2.32.72c-2.82.76-4.68 1.18-4.68 3.08 0 1.1.64 1.75 2.32 1.75 2.81 0 4.64-1.86 4.64-4.26zm39.12-.95c0 5-3.23 10-9.24 10a7.54 7.54 0 01-5.7-2.13v9.43h-4.68v-26.69h4.45v1.9a7.15 7.15 0 015.7-2.28c6.36 0 9.47 4.86 9.47 9.77zm-4.64 0a5.21 5.21 0 00-5.51-5.4 6.88 6.88 0 00-4.79 2v7a6.68 6.68 0 004.75 2 5.39 5.39 0 005.55-5.56zm20.92-9.33v4.45a9.33 9.33 0 00-2.43-.3 5.56 5.56 0 00-4.79 2.36v12.81h-4.72v-19.38h4.45v2.35a6.07 6.07 0 015.29-2.54 10.36 10.36 0 012.2.25zm2.74-6a3.12 3.12 0 113.16 3 2.93 2.93 0 01-3.16-3zm.8 25.36v-19.42h4.68v19.39zm28.22-19.42l-7.79 19.39H760l-7.84-19.39h5.18l5 14.56 5-14.56zm17.77 19.39h-4.45v-2.62a7.11 7.11 0 01-6 3c-3.8 0-5.74-2.2-5.74-5.36 0-4.94 4.94-5.63 9-6.65 1.41-.34 2.63-.73 2.63-2.06 0-1.56-1.68-2-3.43-2a11.07 11.07 0 00-7 2.51v-4.23a12.43 12.43 0 017.34-2.35c4.76 0 7.69 2.35 7.69 6.31zm-4.68-9.05a16.9 16.9 0 01-2.28.76c-2.82.76-4.68 1.18-4.68 3.08 0 1.1.64 1.75 2.32 1.75 2.81 0 4.64-1.86 4.64-4.26zM814 226.29v27h-4.4v-2.09a7.21 7.21 0 01-5.78 2.43c-5.24 0-9.39-4-9.39-10.11 0-5.86 4-10 9.51-10a7.12 7.12 0 015.4 2.05v-9.32zM809.34 240a6.85 6.85 0 00-4.79-2 5.23 5.23 0 00-5.52 5.51c0 3.5 2.32 5.82 5.59 5.82a6.48 6.48 0 004.72-2zm25.29 13.33h-4.45v-2.62a7.08 7.08 0 01-6 3c-3.81 0-5.75-2.2-5.75-5.36 0-4.94 5-5.63 9-6.65 1.4-.34 2.62-.73 2.62-2.06 0-1.56-1.67-2-3.42-2a11.07 11.07 0 00-7 2.51v-4.23a12.43 12.43 0 017.34-2.35c4.75 0 7.68 2.35 7.68 6.31zm-4.63-9.05a16 16 0 01-2.28.76c-2.81.76-4.68 1.18-4.68 3.08 0 1.1.65 1.75 2.32 1.75 2.82 0 4.64-1.86 4.64-4.26z" fill="#1d1d1b" id="Capa_1-2" data-name="Capa 1"/></g></svg>