<svg width="165" height="53" xmlns="http://www.w3.org/2000/svg"><g id="Diseño" stroke="none" stroke-width="1" fill="none" fill-rule="evenodd"><g id="0-Home_desktop" transform="translate(-32 -32)" fill="#fff"><g id="bloque-1"><path d="M54.17 42.807c1.073-6.519 6.215-10.514 12.073-10.514 3.288 0 6.001 1.112 7.843 3.213 1.822 2.075 2.575 4.978 2.123 8.168-.429 3.043-2.074 5.76-4.628 7.66-2.648 1.967-6.166 2.91-10.204 2.91h-3.884l-1.436 8.347h17.049c-.254 1.402-2.068 4.824-9.378 4.824h-8.481l-1.138 6.563c-1.086 6.336-6.047 10.425-11.828 10.51h-.385c-3.2-.043-5.839-1.153-7.646-3.21-1.467-1.672-2.242-3.88-2.25-6.347v-.085a12.59 12.59 0 01.127-1.738c.43-3.04 2.074-5.76 4.631-7.658 2.646-1.966 6.155-2.859 10.194-2.859h3.818l1.427-8.348H35.155c.309-1.546 2.84-4.826 9.357-4.826l8.518-.008 1.14-6.602zm5.095 1.015l-.956 5.587h3.06c2.675 0 4.919-.671 6.579-1.786A.795.795 0 0168 47.59l.14-.1c1.608-1.134 2.648-2.704 2.907-4.532.537-3.553-1.301-5.841-4.655-5.841-3.39 0-6.389 2.609-7.127 6.706zM37.229 75.37c.154 2.625 1.816 4.263 4.629 4.263 2.578 0 4.929-1.468 6.232-3.968a8.75 8.75 0 00.913-2.701l.825-4.892.114-.657h-3.061c-4.776 0-8.348 2.192-9.355 5.379l-.005.024a6.097 6.097 0 00-.23 1.01 7.194 7.194 0 00-.062 1.542zm71.6-43.37h.182c1.289.035 2.105.84 2.105 2.077 0 1.236-.854 2.052-2.195 2.052-1.34 0-2.191-.816-2.191-2.052 0-1.237.813-2.042 2.1-2.077zm-18.863 6.576c.071-3.83 3.067-6.067 7.37-6.067 2.192 0 4.05.574 5.665 1.69v3.225c-1.157-.906-3.258-2.02-5.544-2.02-2.557 0-4.263 1.416-4.263 3.284 0 2.08 2.162 2.774 4.475 3.466 2.896.874 6.763 1.776 6.763 6.026 0 3.797-3.137 6.48-7.372 6.48-2.405 0-4.992-.875-6.79-2.412v-3.464c1.615 1.504 4.326 2.982 6.821 2.982 2.437 0 3.991-1.415 3.991-3.315 0-1.868-1.554-2.41-4.324-3.284-3.253-1.012-6.716-2.174-6.792-6.312v-.28zm75.563 15.511V32.661h3.047v21.426h-3.047zm6.823-13.5c1.706-1.265 3.625-1.87 5.695-1.87 3.503 0 5.848 1.718 5.848 4.7v10.67h-2.894v-2.019c-.882 1.176-2.619 2.29-5.054 2.29-2.68 0-4.568-1.355-4.568-4.097 0-3.436 2.985-4.069 7.003-5.094 1.798-.452 2.56-.661 2.56-1.75 0-1.354-1.187-1.896-2.986-1.896-2.223 0-3.835.845-5.604 2.14v-3.074zm2.012 9.432c0 1.084.671 1.807 2.283 1.807 1.888 0 4.203-.994 4.203-3.707v-1.596c-.182.122-.914.391-2.405.814-2.164.635-4.08.843-4.08 2.682zm-57.144-9.401c1.156-1.207 2.865-1.901 4.812-1.901 3.655 0 6.183 2.232 6.183 6.028v9.342h-3.075V45.14c0-2.232-1.341-3.619-3.472-3.619-1.614 0-3.23.754-4.295 2.26v10.306h-3.047V38.99h2.894v1.628zm73.129.24c.977-1.234 2.377-2.018 4.356-2.018.548 0 1.217.06 1.858.239v2.924a5.176 5.176 0 00-1.858-.332c-1.765 0-3.38.873-4.203 2.291v10.125h-3.046V38.99h2.893v1.868zm-31.6-1.868h3.075v15.097h-2.893V52.46c-1.218 1.206-2.924 1.898-4.841 1.898-3.567 0-6.154-2.23-6.154-6.029v-9.34h3.077v8.95c0 2.232 1.367 3.617 3.47 3.617 1.554 0 3.168-.753 4.266-2.26V38.99zm-21.07 0h7.773v2.651h-3.144c1.007.903 1.43 1.808 1.43 3.104 0 3.647-3.288 4.79-5.602 5.274-1.919.392-3.624.45-3.624 1.389 0 1.022 2.01.9 4.294 1.113 3.624.303 6.21 1.145 6.21 4.038 0 3.495-3.713 4.791-7.855 4.791-3.747 0-6.884-1.084-6.884-4.098 0-1.898 1.312-3.075 3.321-3.496-1.128-.363-1.92-1.146-1.92-2.26 0-1.208 1.006-1.9 2.253-2.17-1.766-.904-2.769-2.5-2.769-4.67 0-3.378 2.497-5.666 6.517-5.666zm-3.593 5.786c0 1.687 1.4 2.984 3.38 2.984s3.41-1.297 3.41-2.984c0-1.719-1.43-3.046-3.41-3.046-1.98 0-3.38 1.327-3.38 3.046zm-.916 12.174c0 1.207 1.218 1.808 4.175 1.808 2.557 0 4.813-.451 4.781-1.957-.031-1.508-2.133-1.839-4.356-1.839-2.254 0-4.6.331-4.6 1.988zm-25.74-2.865V38.99h3.046v15.095h-3.046zm-16.28 8.349h7.645c3.38 0 5.757 1.962 5.757 5.095 0 1.597-.609 3.764-2.498 4.73 2.436.906 3.807 2.985 3.807 5.334 0 3.526-3.016 5.936-7.128 5.936H91.15V62.434zm3.198 2.894v5.814h3.442c2.07 0 3.44-1.113 3.44-2.981 0-1.87-1.278-2.833-3.287-2.833h-3.595zm0 8.622v6.686h4.082c2.527 0 4.172-1.415 4.112-3.526-.032-1.99-1.523-3.16-3.837-3.16h-4.357zm47.141-11.498h3.046v12.52l6.181-6.54h4.023l-7.221 7.384 7.555 7.713h-4.082l-6.456-6.87v6.87h-3.046V62.452zm-14.6 7.61c1.158-1.208 2.865-1.901 4.813-1.901 3.655 0 6.184 2.23 6.184 6.026v9.342h-3.075v-8.95c0-2.228-1.342-3.615-3.475-3.615-1.612 0-3.226.754-4.293 2.26v10.305h-3.045V68.432h2.89v1.63zm-17.995-.033c1.706-1.264 3.625-1.868 5.697-1.868 3.5 0 5.844 1.718 5.844 4.7v10.668h-2.892V81.51c-.882 1.178-2.619 2.29-5.056 2.29-2.679 0-4.568-1.356-4.568-4.097 0-3.434 2.987-4.07 7.005-5.093 1.795-.453 2.558-.66 2.558-1.75 0-1.354-1.187-1.896-2.985-1.896-2.225 0-3.836.843-5.603 2.14v-3.075zm2.012 9.432c0 1.084.669 1.809 2.28 1.809 1.89 0 4.206-.995 4.206-3.707v-1.597c-.184.119-.916.392-2.407.812-2.16.634-4.08.846-4.08 2.683z" id="logo"/></g></g></g></svg>