<svg xmlns="http://www.w3.org/2000/svg" width="80.3" height="81.705"><path d="M75.55 16.589H54.675a14.259 14.259 0 00-.28-1.966l2.042-1.212a1.741 1.741 0 00.695-2.229l-.924-2.025a1.744 1.744 0 00-2.144-.932l-2.254.754a14.64 14.64 0 00-3.78-3.517l.585-2.305a1.752 1.752 0 00-1.085-2.076L45.45.309a1.733 1.733 0 00-2.169.856l-1.072 2.127a14.484 14.484 0 00-5.161.195l-1.212-2.051a1.741 1.741 0 00-2.229-.695l-2.025.924a1.742 1.742 0 00-.932 2.133l.754 2.263a14.162 14.162 0 00-3.525 3.788l-2.3-.593a1.752 1.752 0 00-2.076 1.085l-.771 2.076a1.749 1.749 0 00.856 2.178l2.127 1.059c-.051.314-.068.627-.093.932H4.75a4.608 4.608 0 00-4.6 4.612v43.9a4.614 4.614 0 004.136 4.585 4.178 4.178 0 00.466.025h26.364L28.209 79.86h-5.72a.848.848 0 100 1.695h35.314a.848.848 0 000-1.695h-5.712l-2.916-10.153H75.55a4.6 4.6 0 004.6-4.61V21.198a4.613 4.613 0 00-4.6-4.609zm-51.22-3.576l.831-2.11 2.907.746a.855.855 0 00.949-.4 12.6 12.6 0 013.864-4.161.848.848 0 00.331-.966l-.924-2.915 2.091-.909 1.534 2.585a.843.843 0 00.949.39 12.81 12.81 0 015.669-.212.831.831 0 00.915-.449l1.404-2.714 2.119.839-.743 2.911a.855.855 0 00.4.941 12.76 12.76 0 014.153 3.864.833.833 0 00.975.331l2.915-.924.907 2.093-2.585 1.534a.855.855 0 00-.39.949c1.22 4.542-.568 5.975.661 6.593l2.712 1.407-.839 2.11c-2.237-.415-3.314-1.271-3.847-.347a12.691 12.691 0 01-3.864 4.161.848.848 0 00-.331.966l.915 2.915-2.085.907-1.534-2.585a.843.843 0 00-.949-.39c-4.483 1.212-5.983-.568-6.593.661l-1.4 2.712-2.119-.839.737-2.907a.843.843 0 00-.4-.941 12.732 12.732 0 01-4.142-3.861.858.858 0 00-.7-.373.756.756 0 00-.271.042l-2.915.924-.911-2.093 2.585-1.534a.85.85 0 00.381-.949 12.605 12.605 0 01-.2-5.678.853.853 0 00-.458-.915zm26 66.847H29.972l2.907-10.153h14.534zm28.125-14.762a2.923 2.923 0 01-2.905 2.914H4.75a2.913 2.913 0 01-2.905-2.914V59.47h76.61zm0-7.322H1.845V21.198a2.913 2.913 0 012.905-2.915h20.824a14.307 14.307 0 00.331 2.542l-2.042 1.22a1.733 1.733 0 00-.695 2.22l.924 2.025a1.74 1.74 0 002.144.932l2.254-.754a14.363 14.363 0 003.78 3.517l-.585 2.305a1.746 1.746 0 001.085 2.068l2.085.78a1.933 1.933 0 00.61.11 1.738 1.738 0 001.559-.975l1.059-2.119a14.476 14.476 0 005.161-.195l1.22 2.051a1.741 1.741 0 002.229.695l2.017-.924a1.738 1.738 0 00.94-2.133l-.754-2.263a14.256 14.256 0 003.525-3.78l2.3.585a1.746 1.746 0 002.068-1.085l.78-2.076c.781-2.131-2.165-2.631-2.987-3.237a14.883 14.883 0 00.136-1.508H75.55a2.913 2.913 0 012.905 2.914z" stroke-width=".3" fill="#c63527" stroke="#c63527"/><path d="M48.131 14.063A8.779 8.779 0 1043.8 25.707a8.779 8.779 0 004.331-11.644zm-4.854 10.483a7.512 7.512 0 113.7-9.949 7.512 7.512 0 01-3.7 9.949zm-2.903 36.923a2.271 2.271 0 102.265 2.276 2.277 2.277 0 00-2.265-2.276zM68.09 49.766h-6.872a.118.118 0 01-.1-.059l-1.822-3.136a.144.144 0 010-.119l1.822-3.136a.118.118 0 01.1-.059h6.873a.839.839 0 00.737-.441.82.82 0 00-.025-.856 8.525 8.525 0 00-13.415-1.288.447.447 0 01-.3.144H25.641a.459.459 0 01-.305-.153 8.516 8.516 0 00-13.4 1.3.82.82 0 00-.025.856.839.839 0 00.737.441h6.873a.118.118 0 01.1.059l1.822 3.136a.144.144 0 010 .119l-1.822 3.136a.118.118 0 01-.1.059h-5.922a1.329 1.329 0 00-1.017 2.186 8.511 8.511 0 0012.754.407.459.459 0 01.305-.153H55.09a.458.458 0 01.305.153 8.526 8.526 0 0013.407-1.291.851.851 0 00-.712-1.305zm-11.457 1.441a2.126 2.126 0 00-1.542-.695h-29.45a2.127 2.127 0 00-1.534.686 6.822 6.822 0 01-9.669.263h5.085a1.815 1.815 0 001.568-.907l1.822-3.136a1.839 1.839 0 000-1.822l-1.822-3.127a1.815 1.815 0 00-1.568-.907h-5.094a6.824 6.824 0 019.678.271 2.118 2.118 0 001.534.678H55.09a2.085 2.085 0 001.534-.686 6.844 6.844 0 019.678-.263h-5.084a1.815 1.815 0 00-1.568.907l-1.822 3.126a1.839 1.839 0 000 1.822l1.824 3.137a1.815 1.815 0 001.568.907h5.082a6.839 6.839 0 01-9.669-.254z" fill="#c63527" stroke="#c63527" stroke-width=".5"/></svg>