<svg id="Capa_1" data-name="Capa 1" xmlns="http://www.w3.org/2000/svg" viewBox="0 0 269.4 85.65"><path d="M161.58 41.33c0 4.93 5.1 6.71 11.19 6.71 6.74 0 12.79-2.12 12.79-7.84 0-4.74-4.22-6.12-10.11-6.61-3.72-.35-7-.15-7-1.83s2.78-1.63 5.9-2.27c3.76-.79 9.11-2.66 9.11-8.63a6.27 6.27 0 00-2.32-5.08h5.11v-4.34h-12.63c-6.54 0-10.6 3.75-10.6 9.27a8.1 8.1 0 004.5 7.65c-2 .44-3.66 1.58-3.66 3.55s1.28 3.11 3.12 3.7c-3.27.69-5.4 2.61-5.4 5.72zm11.69-25.4c3.22 0 5.55 2.17 5.55 5s-2.33 4.88-5.55 4.88-5.5-2.12-5.5-4.88 2.28-5 5.5-5zm.49 21.65c3.62 0 7 .54 7.09 3s-3.62 3.21-7.78 3.21c-4.8 0-6.79-1-6.79-3 0-2.67 3.82-3.21 7.48-3.21zm-66.16-5.23c-4.06 0-8.47-2.41-11.1-4.88v5.67a17.47 17.47 0 0011 4c6.88 0 12-4.39 12-10.61 0-6.95-6.29-8.43-11-9.86-3.77-1.13-7.28-2.27-7.28-5.67 0-3.06 2.77-5.38 6.93-5.38a15.46 15.46 0 019 3.31V3.6A15.69 15.69 0 00108 .84C100.91.84 96 4.59 96 11c0 7 5.69 8.88 11 10.55 4.51 1.43 7 2.32 7 5.38s-2.44 5.42-6.4 5.42zm8.07 33.54c3.07-1.58 4.06-5.13 4.06-7.74 0-5.13-3.86-8.34-9.36-8.34H97.93v34.52h12.34c6.69 0 11.59-3.94 11.59-9.71a9.16 9.16 0 00-6.19-8.73zm-12.53-11.34H109c3.27 0 5.35 1.57 5.35 4.63s-2.23 4.89-5.6 4.89h-5.59zm6.63 25h-6.63v-10.9h7.08c3.77 0 6.19 1.92 6.24 5.18.1 3.45-2.57 5.77-6.69 5.77zm54.13-20.37a10.66 10.66 0 00-7.83 3.11v-2.66h-4.71v24.7h5V67.47a8.48 8.48 0 017-3.7c3.47 0 5.65 2.27 5.65 5.92v14.64h5V69.05c-.01-6.22-4.17-9.87-10.11-9.87zm37.46.45h-6.54l-10.05 10.7V49.84h-4.96v34.49h4.96V73.09l10.5 11.24h6.64l-12.29-12.62 11.74-12.08zm6.53-31.32A8.61 8.61 0 01201 32c-3.42 0-5.65-2.27-5.65-5.92V11.44h-5v15.29c0 6.22 4.21 9.86 10 9.86a11 11 0 007.87-3.1v2.66h4.71V11.44h-5zm11.03-27.22h4.95v35.07h-4.95zM239.28 11a15.06 15.06 0 00-9.28 3.06v5c2.87-2.12 5.5-3.5 9.11-3.5 2.93 0 4.86.88 4.86 3.1 0 1.78-1.24 2.12-4.17 2.86-6.53 1.68-11.39 2.72-11.39 8.34 0 4.49 3.07 6.7 7.43 6.7a10.15 10.15 0 008.23-3.74v3.3h4.7V18.69c.02-4.88-3.77-7.69-9.49-7.69zm4.56 15.39c0 4.44-3.77 6.06-6.84 6.06-2.62 0-3.71-1.18-3.71-3 0-3 3.12-3.35 6.63-4.39a22 22 0 003.92-1.33zm22.53-15.19a8.52 8.52 0 00-7.08 3.3v-3.06h-4.71v24.71h5V19.58a7.82 7.82 0 016.83-3.75 8.28 8.28 0 013 .55v-4.79a11.67 11.67 0 00-3.04-.39zm-141.96.24h4.95v24.71h-4.95zm11.65 47.74a15.12 15.12 0 00-9.26 3.06v5c2.87-2.12 5.49-3.5 9.11-3.5 2.92 0 4.86.89 4.86 3.11 0 1.77-1.24 2.12-4.16 2.86-6.54 1.67-11.4 2.71-11.4 8.33 0 4.49 3.07 6.71 7.43 6.71a10.07 10.07 0 008.22-3.75v3.3h4.71V66.88c0-4.88-3.81-7.7-9.51-7.7zm4.56 15.39c0 4.44-3.77 6.07-6.84 6.07-2.63 0-3.71-1.19-3.71-3 0-3 3.12-3.36 6.63-4.39a22.92 22.92 0 003.92-1.25zM130.41 3.4a3.57 3.57 0 00-7.14 0 3.58 3.58 0 007.14 0zm22.81 18.1v14.65h5V20.86c0-6.21-4.11-9.86-10.05-9.86a10.63 10.63 0 00-7.83 3.11v-2.67h-4.71v24.71h5V19.28a8.5 8.5 0 017-3.69c3.37 0 5.59 2.26 5.59 5.91zM56.84.22c-9.72 0-18.22 6.53-20.07 17.21l-1.88 10.8s-10.22 0-15.16.46c-9 .77-14 5.15-14.49 7.44h28.28c-.05.27-2.33 13.44-2.37 13.68h-6.33c-6.7 0-12.53 1.46-16.92 4.68A18.84 18.84 0 00.21 67c-.75 5.23.5 10 3.53 13.37s7.56 5.26 13 5.26c9.72 0 18.11-6.74 19.94-17.21l1.88-10.72s12.17 0 16.59-.33c9-.67 12.62-5.28 13.08-7.56h-28.3l2.37-13.68h6.46c6.71 0 12.55-1.52 16.94-4.74a18.78 18.78 0 007.68-12.53c.76-5.22-.5-10-3.52-13.37S62.3.22 56.84.22zM28.2 66.78a14 14 0 01-1.49 4.42A11.93 11.93 0 0116.37 78c-4.68 0-7.43-3-7.69-7.28a12.1 12.1 0 01.1-2.52A11.4 11.4 0 019 67c0-.16.09-.31.14-.47 1.67-5.22 7.6-8.81 15.53-8.81h5.08zm36.61-49.11A10.88 10.88 0 0160 25.09l-.23.16-.09.06a19.62 19.62 0 01-10.92 2.92h-5.09l1.59-9.14c1.17-6.72 6.2-11.18 11.83-11.18s8.61 3.95 7.72 9.76z" fill="#1d1d1b"/></svg>