<svg viewBox="0 0 106 35" xmlns="http://www.w3.org/2000/svg"><path d="M21.625 1l.309.005c1.938.069 3.539.788 4.644 2.088l.168.207c1.028 1.334 1.444 3.14 1.173 5.113l-.047.296c-.33 1.862-1.343 3.519-2.876 4.694l-.268.197c-1.639 1.147-3.76 1.698-6.176 1.698H16.1l-.906 5.438H25.96l-.013.064c-.202.95-1.398 3.078-5.91 3.078H14.68l-.718 4.275-.051.28C13.133 32.4 10.06 34.945 6.492 35H6.25l-.316-.01c-1.878-.096-3.431-.812-4.513-2.081l-.18-.223C.43 31.626.005 30.274 0 28.774v-.055l.009-.372a8.69 8.69 0 01.07-.76l.047-.296a7.556 7.556 0 012.878-4.693l.268-.196c1.637-1.144 3.753-1.666 6.17-1.666h2.41l.902-5.438H1.991l.019-.082c.262-1.036 1.883-3.062 5.89-3.062l5.38-.005.72-4.3C14.678 3.602 17.925 1 21.624 1zm31.314 22.735l.224.004c2.141.072 3.56 1.19 3.56 3.08v7.003H54.85v-1.325l-.1.129c-.597.723-1.683 1.374-3.172 1.374l-.191-.003c-1.633-.064-2.767-.954-2.767-2.686l.006-.2c.112-2.08 2.007-2.492 4.53-3.143l.197-.05c1.02-.265 1.458-.425 1.458-1.098l-.007-.136c-.075-.79-.823-1.109-1.925-1.109l-.283.007c-1.297.068-2.277.603-3.344 1.397v-2.018a6 6 0 013.687-1.226zm11.077 0l.213.004c2.25.086 3.79 1.535 3.79 3.951v6.132h-1.991v-5.874l-.004-.18c-.07-1.357-.922-2.193-2.245-2.193l-.209.007c-.972.061-1.925.554-2.57 1.476v6.764h-1.971v-9.909h1.87v1.07c.75-.793 1.856-1.248 3.117-1.248zm8.306-3.747v8.218l4.002-4.293h2.603l-4.674 4.847 4.89 5.062h-2.642l-4.179-4.509v4.51h-1.971V19.987h1.971zm-29.608-.012l.217.004c2.073.083 3.51 1.353 3.51 3.34l-.003.169c-.04 1.027-.455 2.336-1.614 2.937l.202.081c1.45.632 2.262 1.944 2.262 3.419l-.005.202c-.11 2.204-2.025 3.694-4.608 3.694h-4.909V19.976h4.948zm12.038 8.883l-.03.018c-.16.085-.631.258-1.528.514l-.174.051c-1.326.379-2.467.555-2.467 1.71 0 .712.434 1.188 1.477 1.188l.137-.003c1.195-.047 2.585-.716 2.585-2.43v-1.048zm-12.097-1.324h-2.82v4.389h2.643l.193-.005c1.526-.07 2.506-.98 2.468-2.31l-.007-.16c-.095-1.209-1.04-1.914-2.477-1.914zM11.33 23.878H9.397l-.29.005c-2.87.088-5.002 1.49-5.618 3.5l-.003.015-.027.092-.025.092-.053.234-.04.24-.03.264a4.58 4.58 0 00-.01.74c.098 1.71 1.147 2.777 2.924 2.777l.211-.005c1.545-.08 2.937-1.022 3.725-2.58l.128-.262a5.95 5.95 0 00.448-1.497l.521-3.186.072-.429zm30.832-2.002h-2.326v3.816h2.227l.173-.004c1.243-.06 2.055-.78 2.055-1.953l-.005-.164c-.071-1.119-.882-1.695-2.124-1.695zM72.915 4.589v1.74H70.88l.144.137c.548.548.782 1.115.782 1.9l-.007.226c-.13 2.216-2.17 2.929-3.62 3.235l-.184.038c-1.165.225-2.161.29-2.161.874l.007.084c.106.58 1.358.514 2.772.647l.225.02c2.227.216 3.795.793 3.795 2.63l-.006.193c-.131 2.15-2.474 2.952-5.078 2.952l-.227-.002c-2.324-.043-4.23-.772-4.23-2.688l.007-.183c.08-1.139.907-1.85 2.143-2.112l-.143-.05c-.653-.257-1.1-.75-1.1-1.432l.008-.145c.075-.704.694-1.114 1.451-1.28l-.186-.104c-1.027-.607-1.606-1.617-1.606-2.962l.004-.2c.094-2.106 1.69-3.518 4.214-3.518h5.031zm-4.972 10.484h-.175c-1.403.018-2.803.26-2.803 1.305 0 .792.788 1.186 2.702 1.186l.198-.001c1.572-.024 2.917-.335 2.898-1.284l-.01-.12c-.124-.887-1.431-1.086-2.81-1.086zM41.77.336l.323.006c1.28.054 2.379.427 3.344 1.102v2.117l-.138-.106c-.771-.571-2.058-1.22-3.45-1.22l-.196.005c-1.547.07-2.564.974-2.564 2.151l.006.16c.106 1.242 1.453 1.68 2.89 2.115l.167.05c1.853.56 4.21 1.198 4.21 3.905l-.004.212c-.112 2.38-2.103 4.042-4.767 4.042l-.293-.007c-1.47-.066-3.011-.63-4.102-1.576v-2.274l.17.156c1.06.93 2.715 1.8 4.246 1.8l.194-.004c1.465-.073 2.389-.975 2.389-2.17l-.005-.15c-.08-1.107-1.076-1.456-2.794-2.006l-.384-.122c-1.986-.642-3.967-1.47-4.013-4.02v-.184c.047-2.514 1.985-3.982 4.77-3.982zM94.014 4.41l.224.004c2.142.072 3.561 1.19 3.561 3.082v7.003h-1.873v-1.325l-.1.128c-.597.722-1.683 1.375-3.172 1.375l-.19-.004c-1.633-.064-2.767-.953-2.767-2.686l.006-.2c.112-2.08 2.005-2.49 4.527-3.143l.199-.05c1.022-.265 1.459-.426 1.459-1.098l-.007-.136c-.075-.79-.823-1.11-1.927-1.11l-.282.008c-1.296.068-2.276.604-3.345 1.398V5.637a5.998 5.998 0 013.687-1.227zm-17.5.18v5.874l.004.18c.07 1.359.938 2.194 2.243 2.194l.201-.007c.942-.062 1.896-.554 2.56-1.477V4.589h1.99v9.91h-1.873V13.43l-.162.153c-.774.697-1.813 1.092-2.971 1.092l-.209-.004c-2.2-.085-3.775-1.534-3.775-3.953V4.59h1.992zm28.282-.1l.221.006c.306.014.65.058.981.152v1.919l-.246-.083a3.334 3.334 0 00-.956-.135l-.213.007c-1.058.066-2.008.624-2.508 1.497v6.646h-1.971v-9.91h1.872v1.227c.633-.81 1.54-1.325 2.82-1.325zm-47.041-.08l.213.004c2.25.086 3.79 1.537 3.79 3.953v6.132h-1.991V8.626l-.005-.18c-.068-1.36-.92-2.195-2.243-2.195l-.209.006c-.974.062-1.927.554-2.571 1.477V14.5h-1.973V4.59h1.874v1.069c.748-.792 1.855-1.248 3.115-1.248zM87.883.436v14.063H85.91V.436h1.972zM50.275 4.589v9.908h-1.971V4.59h1.97zm45.553 4.945l-.03.018c-.158.088-.63.259-1.527.516l-.174.051c-1.328.38-2.467.553-2.467 1.71 0 .711.434 1.186 1.477 1.186l.137-.003c1.194-.047 2.584-.716 2.584-2.43V9.534zm-74.11-5.391l-.2.005c-2.058.102-3.85 1.778-4.301 4.364l-.604 3.639h1.933l.334-.006c1.542-.054 2.842-.48 3.82-1.157l.017-.012.017-.01.044-.034.044-.032.198-.151c.903-.725 1.485-1.69 1.638-2.801l.027-.215c.238-2.191-.915-3.59-2.967-3.59zm46.027 2.245l-.165.005c-1.193.071-2.023.915-2.023 1.994 0 1.108.907 1.959 2.188 1.959l.165-.005c1.195-.07 2.043-.895 2.043-1.954l-.006-.146c-.076-1.056-.976-1.853-2.202-1.853zM49.325.001l.154.01c.745.08 1.21.593 1.21 1.354l-.006.14c-.06.732-.598 1.206-1.415 1.206l-.15-.005c-.78-.059-1.27-.577-1.27-1.341l.007-.149c.06-.727.573-1.193 1.353-1.215h.118z" fill-rule="evenodd"/></svg>