<?xml version="1.0" encoding="UTF-8"?>
<svg width="119px" height="119px" viewBox="0 0 119 119" version="1.1" xmlns="http://www.w3.org/2000/svg" xmlns:xlink="http://www.w3.org/1999/xlink">
    <!-- Generator: Sketch 55.1 (78136) - https://sketchapp.com -->
    <title>icon</title>
    <desc>Created with Sketch.</desc>
    <g id="Diseño" stroke="none" stroke-width="1" fill="none" fill-rule="evenodd">
        <g id="0-Home_desktop" transform="translate(-66.000000, -1375.000000)" fill="#D34A46">
            <g id="Group-6" transform="translate(65.000000, 1374.000000)">
                <g id="Group-2">
                    <g id="Icon">
                        <path d="M70.8886818,52.0303182 L70.8886818,25.0348636 L73.6068636,25.0348636 L73.6068636,52.0303182 L70.8886818,52.0303182 Z M70.8886818,119.6085 L70.8886818,92.6139545 L73.6068636,92.6139545 L73.6068636,119.6085 L70.8886818,119.6085 Z M24.8586818,73.7703182 L24.8586818,71.0512273 L51.8605,71.0512273 L51.8605,73.7703182 L24.8586818,73.7703182 Z M92.4550455,73.7703182 L92.4550455,71.0512273 L119.456864,71.0512273 L119.456864,73.7703182 L92.4550455,73.7703182 Z M46.2441364,40.6157727 C52.2241364,35.7239545 59.2923182,32.6439545 66.7205,31.7375909 L67.0850455,34.4557727 C60.1986818,35.3612273 53.4923182,38.2594091 47.8741364,42.7903182 L46.2441364,40.6157727 Z M31.3841364,66.8857727 C32.4705,59.4585 35.5523182,52.3921364 40.2641364,46.5939545 L42.4386818,48.2257727 C38.0886818,53.8430455 35.1886818,60.3630455 34.2841364,67.2475909 L31.3841364,66.8857727 Z M77.2332273,34.6357727 L77.5950455,31.9175909 C95.8968636,34.2757727 110.215045,48.5866818 112.751409,66.8857727 L110.033227,67.2475909 C107.677773,50.2166818 94.2668636,36.8121364 77.2332273,34.6357727 Z M31.5641364,77.5757727 L34.2841364,77.2121364 C36.4568636,94.4248636 50.0505,108.012136 67.0832273,110.186682 L66.7223182,112.903955 C48.4186818,110.5485 33.9205,95.8748636 31.5641364,77.5757727 Z M77.2314091,110.186682 C94.2668636,108.012136 107.857773,94.4239545 110.031409,77.2121364 L112.749591,77.5739545 C110.395045,96.0539545 95.8986818,110.5485 77.5950455,112.903955 L77.2314091,110.186682 Z M55.1223182,49.4939545 C58.9286818,46.5957727 63.6405,44.6021364 68.3523182,44.0566818 L68.7150455,46.7766818 C64.3668636,47.3185 60.1986818,49.1321364 56.7541364,51.6685 L55.1223182,49.4939545 Z M43.8868636,68.5157727 C44.4323182,63.8066818 46.2423182,59.2775909 49.1423182,55.4739545 L51.3186818,57.1012273 C48.7786818,60.5448636 47.1505,64.5312273 46.6050455,68.8794091 L43.8868636,68.5157727 Z M75.6005,46.7766818 L75.9650455,44.0594091 C88.6505,45.6903182 98.7968636,55.8348636 100.427773,68.5157727 L97.7095909,68.8794091 C96.2614091,57.2830455 87.0186818,48.2257727 75.6005,46.7766818 Z M43.8868636,75.9457727 L46.6050455,75.5821364 C48.0550455,87.1785 57.1150455,96.4175909 68.7150455,97.8675909 L68.3514091,100.584864 C55.6650455,98.9539545 45.5186818,88.8066818 43.8868636,75.9457727 Z M75.6005,97.8675909 C87.0186818,96.2357727 96.2614091,87.1785 97.7095909,75.5821364 L100.427773,75.9457727 C98.7968636,88.8085 88.6505,98.9539545 75.9650455,100.583955 L75.6005,97.8675909 Z M13.4420455,13.6202273 L15.9802273,0.9375 L35.3702273,20.3229545 L33.1947727,31.3756818 L73.2447727,71.2329545 L71.2511364,73.2265909 L31.3847727,33.3702273 L20.3284091,35.5411364 L0.9375,16.1575 L13.4420455,13.6202273 Z M6.37568182,17.7884091 L21.0520455,32.6438636 L30.6565909,30.8329545 L32.4702273,21.4111364 L17.6102273,6.55568182 L15.7975,15.9747727 L6.37568182,17.7884091 Z M68.3514091,62.1757727 C69.4405,61.6312273 70.7086818,61.4494091 71.9768636,61.4494091 C77.9550455,61.4494091 82.8495909,66.3430455 82.8495909,72.3203182 C82.8495909,78.3003182 77.9550455,83.1921364 71.9768636,83.1921364 C65.9968636,83.1921364 61.1041364,78.3003182 61.1041364,72.3203182 C61.1041364,71.0521364 61.4650455,69.7839545 61.8286818,68.6975909 L64.3650455,69.6021364 C64.0014091,70.5094091 63.8223182,71.4157727 63.8223182,72.3203182 C63.8223182,76.8503182 67.4468636,80.4739545 71.9768636,80.4739545 C76.5068636,80.4739545 80.1323182,76.8503182 80.1323182,72.3203182 C80.1323182,67.7930455 76.5068636,64.1675909 71.9768636,64.1675909 C71.0686818,64.1675909 70.1650455,64.3494091 69.2586818,64.7112273 L68.3514091,62.1757727 Z" id="icon"></path>
                    </g>
                </g>
            </g>
        </g>
    </g>
</svg>