<svg width="119px" height="119px" viewBox="0 0 119 119" data-name="Capa 1" xmlns="http://www.w3.org/2000/svg"><path id="asesoramiento-legal" fill="#CA3625" fill-rule="nonzero"  d="M1,80H23.55a1,1,0,0,0,1-1V1a1,1,0,0,0-1-1H1A1,1,0,0,0,0,1V79A1,1,0,0,0,1,80ZM2,2H22.55V78H2Z"/><path id="asesoramiento-legal" fill="#CA3625" fill-rule="nonzero"  d="M12.27,62.21a6,6,0,1,0-6-6h0A6,6,0,0,0,12.27,62.21Zm0-10a4,4,0,1,1-4,4h0A4,4,0,0,1,12.27,52.23Z"/><path id="asesoramiento-legal" fill="#CA3625" fill-rule="nonzero"  d="M17.28,70.19h-10a1,1,0,1,0,0,2h10a1,1,0,0,0,0-2Z"/><path id="asesoramiento-legal" fill="#CA3625" fill-rule="nonzero"  d="M17.28,65.08h-10a1,1,0,1,0,0,2h10a1,1,0,0,0,0-2Z"/><path id="asesoramiento-legal" fill="#CA3625" fill-rule="nonzero"  d="M28.72,0a1,1,0,0,0-1,1V79a1,1,0,0,0,1,1H51.28a1,1,0,0,0,1-1V1a1,1,0,0,0-1-1ZM50.28,78H29.72V2H50.28Z"/><path id="asesoramiento-legal" fill="#CA3625" fill-rule="nonzero"  d="M40,62.21a6,6,0,1,0-6-6h0A6,6,0,0,0,40,62.21Zm0-10a4,4,0,1,1-4,4h0A4,4,0,0,1,40,52.23Z"/><path id="asesoramiento-legal" fill="#CA3625" fill-rule="nonzero"  d="M35,72.19H45a1,1,0,0,0,0-2H35a1,1,0,0,0,0,2Z"/><path id="asesoramiento-legal" fill="#CA3625" fill-rule="nonzero"  d="M35,67.08H45a1,1,0,1,0,0-2H35a1,1,0,1,0,0,2Z"/><path id="asesoramiento-legal" fill="#CA3625" fill-rule="nonzero"  d="M79,0H56.45a1,1,0,0,0-1,1V79a1,1,0,0,0,1,1H79a1,1,0,0,0,1-1V1A1,1,0,0,0,79,0ZM78,78H57.45V2H78Z"/><path id="asesoramiento-legal" fill="#CA3625" fill-rule="nonzero"  d="M67.72,62.21a6,6,0,1,0-6-6h0A6,6,0,0,0,67.72,62.21Zm0-10a4,4,0,1,1-4,4h0A4,4,0,0,1,67.72,52.23Z"/><path id="asesoramiento-legal" fill="#CA3625" fill-rule="nonzero"  d="M62.72,72.19h10a1,1,0,1,0,0-2h-10a1,1,0,0,0,0,2Z"/><path id="asesoramiento-legal" fill="#CA3625" fill-rule="nonzero"  d="M62.72,67.08h10a1,1,0,0,0,0-2h-10a1,1,0,0,0,0,2Z"/><path id="asesoramiento-legal" fill="#CA3625" fill-rule="nonzero"  d="M7.83,36.37h8.89a1,1,0,0,0,1-1V11.62a1,1,0,0,0-1-1H7.83a1,1,0,0,0-1,1V35.37A1,1,0,0,0,7.83,36.37Zm1-23.75h6.89V34.37H8.83Z"/><path id="asesoramiento-legal" fill="#CA3625" fill-rule="nonzero"  d="M35.56,36.37h8.88a1,1,0,0,0,1-1V11.62a1,1,0,0,0-1-1H35.56a1,1,0,0,0-1,1V35.37A1,1,0,0,0,35.56,36.37Zm1-23.75h6.88V34.37H36.56Z"/><path id="asesoramiento-legal" fill="#CA3625" fill-rule="nonzero"  d="M63.28,36.37h8.89a1,1,0,0,0,1-1V11.62a1,1,0,0,0-1-1H63.28a1,1,0,0,0-1,1V35.37A1,1,0,0,0,63.28,36.37Zm1-23.75h6.89V34.37H64.28Z"/></svg>