<?xml version="1.0" encoding="UTF-8"?>
<svg width="117px" height="118px" viewBox="0 0 117 118" version="1.1" xmlns="http://www.w3.org/2000/svg" xmlns:xlink="http://www.w3.org/1999/xlink">
    <!-- Generator: Sketch 55.2 (78181) - https://sketchapp.com -->
    <title>asesor</title>
    <desc>Created with Sketch.</desc>
    <g id="Page-1" stroke="none" stroke-width="1" fill="none" fill-rule="evenodd">
        <g id="asesor" transform="translate(-1.000000, 0.000000)" fill="#CA3625" fill-rule="nonzero">
            <path d="M79.8736842,35.4105263 L88.7578947,35.4105263 L88.7578947,82.6105263 L79.8736842,82.6105263 L79.8736842,35.4105263 Z M77.1368421,85.1368421 L91.3052632,85.1368421 L91.3052632,32.5052632 L76.9684211,32.5052632 L76.9684211,85.1368421 L77.1368421,85.1368421 Z" id="Shape"></path>
            <path d="M61.5368421,50.6526316 L70.4210526,50.6526316 L70.4210526,82.6105263 L61.5368421,82.6105263 L61.5368421,50.6526316 Z M58.8,85.1368421 L73.1578947,85.1368421 L73.1578947,47.9368421 L58.8,47.9368421 L58.8,85.1368421 Z" id="Shape"></path>
            <path d="M43.2,56.8421053 L52.0842105,56.8421053 L52.0842105,82.6105263 L43.2,82.6105263 L43.2,56.8421053 Z M40.4842105,85.1368421 L54.7368421,85.1368421 L54.7368421,54.1052632 L40.4842105,54.1052632 L40.4842105,85.1368421 Z" id="Shape"></path>
            <path d="M24.8631579,64.0842105 L33.6842105,64.0842105 L33.6842105,82.6105263 L24.8631579,82.6105263 L24.8631579,64.0842105 Z M22.1473684,85.1368421 L36.4842105,85.1368421 L36.4842105,61.3684211 L22.1473684,61.3684211 L22.1473684,85.1368421 Z" id="Shape"></path>
            <path d="M74.9684211,20.1473684 L78.0631579,26.8631579 L80.5894737,25.7684211 L75.5157895,14.7368421 L64.4421053,20 L65.5368421,22.5473684 L72.6105263,19.2842105 C61.5368421,49.0105263 26.4842105,48.1052632 26.1263158,48.1052632 L25.9578947,50.6526316 L26.4842105,50.6526316 C31.0315789,50.6526316 64.0842105,49.5578947 74.9052632,20.1473684" id="Path"></path>
            <polygon id="Path" points="12.1473684 13.0736842 19.7684211 20.6947368 11.6 20.6947368 11.6 23.4105263 24.5052632 23.4105263 24.5052632 10.5263158 21.7684211 10.5263158 21.7684211 18.6947368 13.9578947 11.0736842"></polygon>
            <polygon id="Rectangle" transform="translate(6.689092, 5.679359) rotate(-45.000000) translate(-6.689092, -5.679359) " points="5.33119689 4.32146427 8.04698636 4.32146427 8.04698636 7.03725374 5.33119689 7.03725374"></polygon>
            <polygon id="Rectangle" transform="translate(2.952515, 2.033642) rotate(-45.000000) translate(-2.952515, -2.033642) " points="1.59462061 0.675746942 4.31041008 0.675746942 4.31041008 3.39153642 1.59462061 3.39153642"></polygon>
            <polygon id="Rectangle" transform="translate(10.234698, 9.267027) rotate(-45.000000) translate(-10.234698, -9.267027) " points="8.87680333 7.90913192 11.5925928 7.90913192 11.5925928 10.6249214 8.87680333 10.6249214"></polygon>
            <polygon id="Path" points="107.473684 20.6947368 99.3052632 20.6947368 106.926316 13.0736842 105.115789 11.0736842 97.3052632 18.6947368 97.3052632 10.5263158 94.5684211 10.5263158 94.5684211 23.4105263 107.473684 23.4105263"></polygon>
            <polygon id="Rectangle" transform="translate(116.026028, 2.102080) rotate(-45.000000) translate(-116.026028, -2.102080) " points="114.668133 0.744184807 117.383923 0.744184807 117.383923 3.45997428 114.668133 3.45997428"></polygon>
            <polygon id="Rectangle" transform="translate(112.522571, 5.570700) rotate(-45.000000) translate(-112.522571, -5.570700) " points="111.164676 4.21280484 113.880465 4.21280484 113.880465 6.92859431 111.164676 6.92859431"></polygon>
            <polygon id="Rectangle" transform="translate(108.871745, 9.154799) rotate(-45.000000) translate(-108.871745, -9.154799) " points="107.51385 7.79690447 110.22964 7.79690447 110.22964 10.5126939 107.51385 10.5126939"></polygon>
            <polygon id="Path" points="11.6 96.5894737 19.7684211 96.5894737 12.1473684 104.210526 13.9578947 106.210526 21.7684211 98.5894737 21.7684211 106.757895 24.5052632 106.757895 24.5052632 93.8526316 11.6 93.8526316"></polygon>
            <polygon id="Rectangle" transform="translate(6.677601, 111.604711) rotate(-45.000000) translate(-6.677601, -111.604711) " points="5.3197067 110.246816 8.03549618 110.246816 8.03549618 112.962606 5.3197067 112.962606"></polygon>
            <polygon id="Rectangle" transform="translate(10.241662, 108.010833) rotate(-45.000000) translate(-10.241662, -108.010833) " points="8.88376761 106.652938 11.5995571 106.652938 11.5995571 109.368728 8.88376761 109.368728"></polygon>
            <polygon id="Rectangle" transform="translate(3.016998, 115.314068) rotate(-45.000000) translate(-3.016998, -115.314068) " points="1.65910292 113.956174 4.3748924 113.956174 4.3748924 116.671963 1.65910292 116.671963"></polygon>
            <polygon id="Path" points="106.926316 104.210526 99.2842105 96.5894737 107.473684 96.5894737 107.473684 93.8526316 94.5684211 93.8526316 94.5684211 106.757895 97.3052632 106.757895 97.3052632 98.5894737 105.094737 106.210526"></polygon>
            <polygon id="Rectangle" transform="translate(115.939091, 115.271077) rotate(-45.000000) translate(-115.939091, -115.271077) " points="114.581197 113.913182 117.296986 113.913182 117.296986 116.628972 114.581197 116.628972"></polygon>
            <polygon id="Rectangle" transform="translate(108.880206, 108.110628) rotate(-45.000000) translate(-108.880206, -108.110628) " points="107.522311 106.752733 110.2381 106.752733 110.2381 109.468523 107.522311 109.468523"></polygon>
            <polygon id="Rectangle" transform="translate(112.512577, 111.708074) rotate(-45.000000) translate(-112.512577, -111.708074) " points="111.154682 110.350179 113.870471 110.350179 113.870471 113.065969 111.154682 113.065969"></polygon>
        </g>
    </g>
</svg>