<?xml version="1.0" encoding="UTF-8"?>
<svg width="120px" height="118px" viewBox="0 0 120 118" version="1.1" xmlns="http://www.w3.org/2000/svg" xmlns:xlink="http://www.w3.org/1999/xlink">
    <!-- Generator: Sketch 55.1 (78136) - https://sketchapp.com -->
    <title>Combined Shape</title>
    <desc>Created with Sketch.</desc>
    <g id="Diseño" stroke="none" stroke-width="1" fill="none" fill-rule="evenodd">
        <g id="0-Home_desktop" transform="translate(-735.000000, -1375.000000)" fill="#D34A46">
            <g id="Group-6" transform="translate(65.000000, 1374.000000)">
                <g id="Group-4" transform="translate(670.000000, 0.000000)">
                    <g id="Icon">
                        <path d="M89.0745492,98.5202459 L98.4847131,80.7838525 L109.161762,84.402541 C112.059467,85.487459 114.412254,87.4782787 115.860123,90.0120492 C117.309959,92.5468033 118.030943,95.0805738 118.030943,97.4333607 C118.030943,97.4333607 119.117828,107.207459 119.478811,116.616639 L119.478811,118.065492 L0.9375,118.065492 L0.9375,116.616639 C1.29848361,107.024508 2.38831967,97.4333607 2.38831967,97.2533607 C2.38831967,95.0805738 3.11028689,92.5468033 4.55717213,90.0120492 C6.0070082,87.4782787 8.35684426,85.487459 11.2555328,84.402541 L21.7476639,80.7838525 L31.1617623,98.5202459 L34.6004508,98.5202459 L44.1906148,80.7838525 L54.6886475,84.402541 C56.889959,85.2258197 58.7735656,86.4690984 60.1879918,88.1284426 C60.1643852,88.1540164 60.1407787,88.1795902 60.1181557,88.2051639 C60.3915984,88.4786066 60.6670082,88.7520492 60.8942213,89.050082 C60.6738934,88.7294262 60.4378279,88.422541 60.1879918,88.1284426 C61.6240574,86.530082 63.4083197,85.1146721 65.5466803,84.402541 L76.0427459,80.7838525 L85.6338934,98.5202459 L89.0745492,98.5202459 Z M90.7053689,101.053033 L84.0089754,101.053033 L74.7758607,84.0415574 L66.4506148,86.9353279 C64.4647131,87.6582787 62.8378279,88.9251639 61.7519262,90.550082 C61.6909426,90.430082 61.6289754,90.3120492 61.5660246,90.195 C61.5660246,90.3759836 61.5660246,90.5569672 61.7470082,90.5569672 C61.7489754,90.555 61.7509426,90.5520492 61.7519262,90.550082 C62.9027459,92.8015574 63.5558607,95.1995902 63.5558607,97.4333607 C63.5558607,97.4333607 64.6427459,106.122541 65.0027459,115.16877 L65.0027459,115.349754 L116.764057,115.349754 C116.219139,106.480574 115.317172,97.7972951 115.317172,97.6143443 C115.317172,95.4415574 114.775205,93.4527049 113.505369,91.279918 C112.419467,89.290082 110.609631,87.8431967 108.257828,86.9353279 L99.932582,84.0415574 L90.7053689,101.053033 Z M36.4093033,101.053033 L29.714877,101.053033 L20.4817623,84.0415574 L12.1594672,86.9353279 C9.98569672,87.8431967 7.99487705,89.290082 6.91094262,91.279918 C6.0070082,92.7277869 5.10307377,95.0805738 5.10307377,97.4333607 C5.10307377,97.7972951 4.0122541,106.480574 3.6532377,115.349754 L62.469959,115.349754 C61.9279918,106.480574 61.0220902,97.7972951 61.0220902,97.6143443 C61.0220902,95.4415574 60.4820902,93.4527049 59.2112705,91.279918 L59.2112705,91.0969672 C58.1253689,89.290082 56.1355328,87.6602459 53.9637295,86.9353279 L45.6384836,84.0415574 L36.4093033,101.053033 Z M60.8942213,89.050082 C60.9915984,89.1917213 61.0860246,89.3363115 61.1784836,89.4838525 C61.0958607,89.3333607 61.0004508,89.1877869 60.8942213,89.050082 Z M61.1784836,89.4838525 C61.2670082,89.650082 61.3388115,89.8251639 61.385041,90.0120492 L61.385041,89.8310656 C61.3181557,89.7140164 61.2483197,89.5979508 61.1784836,89.4838525 Z M72.4240574,62.5045082 C72.4240574,54.3612295 79.122418,47.6618852 87.2666803,47.6618852 C95.4089754,47.6618852 102.105369,54.3612295 102.105369,62.5045082 C102.105369,70.6487705 95.4089754,77.3451639 87.2666803,77.3451639 C79.122418,77.3451639 72.4240574,70.8297541 72.4240574,62.5045082 Z M75.1378279,62.6854918 C75.1378279,69.3828689 80.5663525,74.8104098 87.2666803,74.8104098 C93.9611066,74.8104098 99.3906148,69.3828689 99.3906148,62.6854918 C99.3906148,55.9881148 93.9611066,50.557623 87.2666803,50.557623 C80.5663525,50.557623 75.1378279,55.9881148 75.1378279,62.6854918 Z M18.129959,62.6845082 C18.129959,54.5422131 24.8283197,47.8438525 32.9715984,47.8438525 C41.1158607,47.8438525 47.8102869,54.3592623 47.8102869,62.6845082 C47.8102869,70.8268033 41.1158607,77.5261475 32.9715984,77.5261475 C24.8283197,77.5261475 18.129959,70.8268033 18.129959,62.6845082 Z M20.8437295,62.5015574 C20.8437295,69.2009016 26.2742213,74.6294262 32.9715984,74.6294262 C39.6670082,74.6294262 45.0965164,69.2009016 45.0965164,62.5015574 C45.0965164,55.8071311 39.6670082,50.3766393 32.9715984,50.3766393 C26.2742213,50.3766393 20.8437295,55.8071311 20.8437295,62.5015574 Z M61.0220902,13.4589344 C61.865041,13.3743443 62.7011066,13.3330328 63.5283197,13.3330328 C74.9617623,13.3330328 84.734877,21.3130328 87.2666803,32.2802459 L91.4283197,26.3087705 L93.5991393,27.937623 L86.7207787,37.7087705 L76.9496311,30.8313934 L78.5755328,28.6605738 L84.729959,32.8241803 C82.1971721,22.5071311 72.2430738,15.0877869 61.205041,16.1736885 C50.5279918,17.2586066 41.8407787,26.1268033 41.2938934,36.8038525 L38.580123,36.6228689 C39.3040574,24.4989344 48.8991393,14.5448361 61.0220902,13.4589344 Z M23.7414344,34.9959836 C27.1388115,15.9602459 43.9427459,1.875 63.2135656,1.875 C64.4647131,1.875 65.7256967,1.93401639 66.9955328,2.05598361 C86.5417623,3.86778689 102.103402,19.9733607 103.373238,39.5186066 L100.6575,39.6995902 C99.572582,21.6012295 85.0938934,6.40057377 66.8145492,4.7697541 C47.2673361,2.96188525 29.8958607,16.5356557 26.6361885,35.3569672 L32.4286475,30.8343443 L34.0575,33.0031967 L24.4653689,40.4264754 L17.2260246,30.8343443 L19.3997951,29.2035246 L23.7414344,34.9959836 Z" id="Combined-Shape"></path>
                    </g>
                </g>
            </g>
        </g>
    </g>
</svg>