<?xml version="1.0" encoding="UTF-8"?>
<svg width="120px" height="108px" viewBox="0 0 120 108" version="1.1" xmlns="http://www.w3.org/2000/svg" xmlns:xlink="http://www.w3.org/1999/xlink">
    <!-- Generator: Sketch 55.2 (78181) - https://sketchapp.com -->
    <title>cartera-reducida</title>
    <desc>Created with Sketch.</desc>
    <g id="Page-1" stroke="none" stroke-width="1" fill="none" fill-rule="evenodd">
        <g id="cartera-reducida">
            <rect id="Rectangle" x="56.7290323" y="72.9290323" width="6.54193548" height="14.5548387" rx="0.66"></rect>
            <path d="M114,22.916129 L6,22.916129 C5.29884917,22.9265182 4.73296977,23.4923976 4.72254374,24.1935484 L4.72254374,68.7096774 C4.71772779,69.3482529 5.19206536,69.8891642 5.82580645,69.9677419 L51.2709677,76.2387097 L51.2709677,74.1870968 C51.2760537,72.3939865 51.9959188,70.6769187 53.2710894,69.41628 C54.54626,68.1556412 56.2714654,67.4555026 58.0645161,67.4709677 L61.9354839,67.4709677 C65.6478435,67.4709524 68.6603,70.4747525 68.6709677,74.1870968 L68.6709677,76.2387097 L114.193548,69.9677419 C114.827289,69.8891642 115.301627,69.3482529 115.296811,68.7096774 L115.296811,24.1935484 C115.286197,23.4849297 114.708698,22.916129 114,22.916129 Z" id="Path"></path>
            <path d="M58.0645161,92.9032258 C54.3446111,92.9032258 51.3290323,89.887647 51.3290323,86.1677419 L51.3290323,81.7548387 L8.7483871,75.9483871 L8.7483871,102.193548 C8.7483871,102.899048 9.32030722,103.470968 10.0258065,103.470968 L109.993548,103.470968 C110.699048,103.470968 111.270968,102.899048 111.270968,102.193548 L111.270968,75.8709677 L68.6903226,81.6774194 L68.6903226,86.1096774 C68.705846,87.909438 68.0004126,89.6405485 66.7313838,90.9168497 C65.4623549,92.1931509 63.7353037,92.9084647 61.9354839,92.9032258 L58.0645161,92.9032258 Z" id="Path"></path>
            <rect id="Rectangle" x="44.7290323" y="12.9290323" width="30.5419355" height="4.5483871"></rect>
            <path d="M78,7.47096774 C79.5072029,7.47096774 80.7290323,8.6927971 80.7290323,10.2 L80.7290323,17.4193548 L83.2258421,17.4193548 L83.2258421,10.2 C83.230952,8.80041305 82.6785716,7.45638511 81.6907251,6.46490677 C80.7028785,5.47342844 79.3608867,4.91612903 77.9612903,4.91612903 L42,4.91612903 C39.1044995,4.94794964 36.7741935,7.30432467 36.7741935,10.2 L36.7741935,17.4193548 L39.3290323,17.4193548 L39.3290323,10.2 C39.3290323,8.6927971 40.5508616,7.47096774 42.0580645,7.47096774 L78,7.47096774 Z" id="Path"></path>
            <path d="M114,18.9096774 L87.2709677,18.9096774 L87.2709677,10.2 C87.2603209,5.08420246 83.1157975,0.939679114 78,0.929032258 L42,0.929032258 C36.8842025,0.939679114 32.7396791,5.08420246 32.7290323,10.2 L32.7290323,18.9096774 L6,18.9096774 C3.08936003,18.9203392 0.735483871,21.2828889 0.735483871,24.1935484 L0.735483871,68.7096774 C0.741462537,70.9393161 2.14142001,72.9271011 4.23870968,73.683871 L4.72258065,73.8387097 L4.72258065,102.193548 C4.72257119,103.593145 5.27988005,104.935137 6.27135839,105.922983 C7.26283673,106.91083 8.60686466,107.46321 10.0064516,107.4581 L109.993548,107.4581 C111.393135,107.46321 112.737163,106.91083 113.728642,105.922983 C114.72012,104.935137 115.277429,103.593145 115.277419,102.193548 L115.277419,73.8580645 L115.76129,73.683871 C117.859017,72.9241032 119.263633,70.9406625 119.283871,68.7096774 L119.283871,24.1935484 C119.273256,21.2797552 116.913793,18.9202924 114,18.9096774 L114,18.9096774 Z M35.2645161,10.2 C35.2645161,6.48009498 38.280095,3.46451613 42,3.46451613 L78,3.46451613 C79.7845867,3.46451613 81.4958001,4.1747551 82.7558765,5.43846281 C84.0159528,6.70217052 84.7212719,8.41542073 84.716157,10.2 L84.716157,18.9096774 L79.3548387,18.9096774 L79.3548387,10.2 C79.3548387,9.49450077 78.7829186,8.92258065 78.0774194,8.92258065 L42,8.92258065 C41.2945008,8.92258065 40.7225806,9.49450077 40.7225806,10.2 L40.7225806,18.9096774 L35.2645161,18.9096774 L35.2645161,10.2 Z M76.7225806,11.4774194 L76.7225806,18.9096774 L43.2774194,18.9096774 L43.2774194,11.4774194 L76.7225806,11.4774194 Z M112.722581,102.193548 C112.722581,103.700751 111.500751,104.922581 109.993548,104.922581 L10.0064516,104.922581 C8.49924871,104.922581 7.27741935,103.700751 7.27741935,102.193548 L7.27741935,74.2064516 L52.7225806,80.4774194 L52.7225806,86.283871 C52.7755788,89.1869528 55.1611312,91.5033588 58.0645161,91.4709677 L61.9354839,91.4709677 C64.8536852,91.4709677 67.2193548,89.1052981 67.2193548,86.1870968 L67.2193548,80.3806452 L67.8387097,80.3806452 L112.664516,74.1870968 L112.722581,102.193548 Z M55.2774193,86.1870968 L55.2774193,74.1870968 C55.2824352,73.4565011 55.5801922,72.7584246 56.1040379,72.2491302 C56.6278836,71.7398358 57.334069,71.4618572 58.0645161,71.4774194 L61.9354839,71.4774194 C63.4351605,71.4773816 64.6538801,72.6874579 64.6645161,74.1870968 L64.6645161,86.1870968 C64.6645161,87.6942997 63.4426868,88.916129 61.9354839,88.916129 L58.0645161,88.916129 C57.3307243,88.9317452 56.6215735,88.6511317 56.0971529,88.1376366 C55.5727323,87.6241414 55.2772532,86.9210547 55.2774193,86.1870968 Z M116.729032,68.7677419 C116.724838,70.1254401 115.729873,71.2766385 114.387097,71.4774194 L113.825806,71.4774194 L67.2774194,77.9032258 L67.2774194,74.1870968 C67.2775718,72.7773424 66.7123042,71.4264245 65.7082078,70.4368802 C64.7041114,69.447336 63.3450858,68.901849 61.9354839,68.9225806 L58.0645161,68.9225806 C56.6649292,68.9174351 55.3209012,69.4698155 54.3294229,70.457662 C53.3379446,71.4455086 52.7806357,72.7875004 52.7806452,74.1870968 L52.7806452,77.9032258 L51.9677419,77.7870968 L5.63225806,71.4193548 C4.28179772,71.2272458 3.27658405,70.0737219 3.27096774,68.7096774 L3.27096774,24.1935484 C3.27096774,22.6863455 4.4927971,21.4645161 6,21.4645161 L114,21.4645161 C115.507203,21.4645161 116.729032,22.6863455 116.729032,24.1935484 L116.729032,68.7677419 Z" id="Shape" fill="#CA3625" fill-rule="nonzero"></path>
        </g>
    </g>
</svg>