<?xml version="1.0" encoding="utf-8"?>
<!-- Generator: Adobe Illustrator 25.3.1, SVG Export Plug-In . SVG Version: 6.00 Build 0)  -->
<svg version="1.1" id="Capa_1" xmlns="http://www.w3.org/2000/svg" xmlns:xlink="http://www.w3.org/1999/xlink" x="0px" y="0px"
	 width="80px" height="80px" viewBox="0 0 80 80" style="enable-background:new 0 0 80 80;" xml:space="preserve">
<g transform="translate(-529 -3489)">
	<g transform="translate(518.874 3478.999)">
		<path fill="#CA3625" fill-rule="nonzero" d="M38.1,52.8v6.7c0,0.6,0.4,1,1,1h22c0.6,0,1-0.4,1-1v-6.7c0-0.6-0.4-1-1-1h-22C38.6,51.8,38.1,52.3,38.1,52.8z
			 M40.1,53.8h20v4.7h-20V53.8z"/>
		<path fill="#CA3625" fill-rule="nonzero" d="M68.6,56.2C68.6,56.2,68.6,56.2,68.6,56.2c0,3.2,2.6,5.9,5.9,5.9s5.9-2.6,5.9-5.9c0-3.2-2.6-5.9-5.9-5.9
			C71.2,50.3,68.6,53,68.6,56.2z M74.5,60c-2.1,0-3.8-1.7-3.9-3.9c0,0,0,0,0,0c0-2.1,1.7-3.9,3.9-3.9c2.1,0,3.9,1.7,3.9,3.9
			S76.6,60,74.5,60L74.5,60z"/>
		<path fill="#CA3625" fill-rule="nonzero" d="M19.9,56.2C19.9,56.2,19.9,56.2,19.9,56.2c0,3.2,2.6,5.9,5.9,5.9c3.2,0,5.9-2.6,5.9-5.9s-2.6-5.9-5.9-5.9
			C22.5,50.3,19.9,52.9,19.9,56.2z M25.8,60c-2.1,0-3.9-1.7-3.9-3.9c0,0,0,0,0,0c0-2.1,1.7-3.9,3.9-3.9c2.1,0,3.9,1.7,3.9,3.9
			S27.9,60,25.8,60L25.8,60z"/>
		<path fill="#CA3625" fill-rule="nonzero" d="M10.1,70.1v5.7c0,0.6,0.4,1,1,1h5.2v7.7c0,3,2.4,5.5,5.5,5.5c3,0,5.5-2.4,5.5-5.5v-7.7H73v7.7
			c0,3,2.4,5.5,5.5,5.5c3,0,5.5-2.4,5.5-5.5v-7.7h5.2c0.6,0,1-0.4,1-1v-5.7c0-0.6-0.4-1-1-1h-1.5V49.6c0-4.8-3.4-8.9-8.1-9.7
			l-4.2-22.9c-0.6-3.8-3.8-6.7-7.7-6.9H32.6c-3.9,0.2-7.1,3.1-7.7,6.9l-4.2,22.9c-4.7,0.9-8.1,5-8.1,9.7v19.5h-1.5
			C10.6,69.1,10.1,69.6,10.1,70.1z M77.5,39.7h-5.9c-0.2-4.5-3.9-8.2-8.4-8.4c-4.9-0.2-9.1,3.5-9.3,8.4H22.7l4.1-22.4
			c0.4-2.9,2.8-5.1,5.7-5.3h35.1c2.9,0.2,5.3,2.4,5.7,5.3L77.5,39.7z M55.9,39.7c0.2-3.4,3-6.2,6.4-6.4c3.8-0.2,7.1,2.6,7.3,6.4
			H55.9L55.9,39.7z M85.6,69.1h-71V49.6c0-4.4,3.5-7.9,7.9-7.9h55.2c4.4,0,7.9,3.5,7.9,7.9V69.1z M75,76.8h6.9v7.7
			c0,1.9-1.5,3.5-3.5,3.5c-1.9,0-3.5-1.5-3.5-3.5V76.8z M18.3,76.8h6.9v7.7c0,1.9-1.5,3.5-3.5,3.5c-1.9,0-3.5-1.5-3.5-3.5V76.8z
			 M12.1,71.1h76v3.7h-76V71.1z"/>
	</g>
</g>
</svg>
