<?xml version="1.0" encoding="UTF-8"?>
<svg width="120px" height="119px" viewBox="0 0 120 119" version="1.1" xmlns="http://www.w3.org/2000/svg" xmlns:xlink="http://www.w3.org/1999/xlink">
    <!-- Generator: Sketch 55.2 (78181) - https://sketchapp.com -->
    <title>conocimiento-cliente</title>
    <desc>Created with Sketch.</desc>
    <g id="Page-1" stroke="none" stroke-width="1" fill="none" fill-rule="evenodd">
        <g id="conocimiento-cliente" fill="#CA3625" fill-rule="nonzero">
            <rect id="Rectangle" x="70.9" y="24.24" width="2.72" height="27.04"></rect>
            <rect id="Rectangle" x="70.9" y="91.9" width="2.72" height="27.04"></rect>
            <rect id="Rectangle" x="24.82" y="70.32" width="27.04" height="2.72"></rect>
            <rect id="Rectangle" x="92.48" y="70.32" width="27.04" height="2.72"></rect>
            <path d="M67.08,33.66 L66.72,30.94 C59.1828092,31.9094077 52.074764,34.9953396 46.22,39.84 L47.86,42 C53.384342,37.5126251 60.0307989,34.6216584 67.08,33.64" id="Path"></path>
            <path d="M34.24,66.5 C35.2384998,59.5426317 38.0607375,52.9735112 42.42,47.46 L40.24,45.82 C35.5100673,51.6758655 32.4367017,58.6928079 31.34,66.14 L34.24,66.5 Z" id="Path"></path>
            <path d="M110,66.5 L112.74,66.14 C110.271399,47.8520807 95.8403348,33.4948119 77.54,31.12 L77.18,33.84 C94.2390481,36.0681751 107.688485,49.4520446 110,66.5" id="Path"></path>
            <path d="M34.24,76.48 L31.52,76.86 C33.8993787,95.2542917 48.3366883,109.757225 66.72,112.22 L67.08,109.5 C49.9009078,107.236337 36.4097264,93.671209 34.24,76.48" id="Path"></path>
            <path d="M77.24,109.5 L77.62,112.22 C96.0392471,109.814754 110.508734,95.2712756 112.82,76.84 L110,76.48 C107.878521,93.6650251 94.4077178,107.242739 77.24,109.5" id="Path"></path>
            <path d="M56.74,50.9 C60.2595963,48.2752028 64.3891131,46.5889835 68.74,46 L68.38,43.28 C63.5631021,43.8900216 58.9943169,45.7672264 55.14,48.72 L56.74,50.9 Z" id="Path"></path>
            <path d="M46.58,68.14 C47.1184967,63.8677873 48.7435923,59.8050483 51.3,56.34 L49.12,54.72 C46.2323407,58.5257733 44.4161425,63.0351931 43.86,67.78 L46.58,68.14 Z" id="Path"></path>
            <path d="M97.76,68.14 L100.48,67.78 C98.7805607,55.02638 88.7522279,44.9898541 76,43.28 L75.62,46 C87.1724387,47.4939094 96.2660906,56.5875613 97.76,68.14" id="Path"></path>
            <path d="M46.58,74.86 L43.86,75.22 C45.4443242,88.0888922 55.5099418,98.2695454 68.36,100 L68.72,97.28 C57.0768721,95.7579796 47.9555831,86.5213354 46.58,74.86" id="Path"></path>
            <path d="M100.48,75.22 L97.76,74.86 C96.2232642,86.4245329 87.1717108,95.5496762 75.62,97.18 L76,100 C88.8422632,98.2611856 98.8977309,88.082489 100.48,75.22" id="Path"></path>
            <path d="M21,31.86 L6.3,16.98 L15.74,15.16 L17.56,5.72 L32.44,20.6 L30.62,30 L21,31.86 Z M71.26,72.5 L73.26,70.5 L33.16,30.5 L35.34,19.44 L16,0.1 L13.38,12.8 L0.86,15.34 L20.28,34.76 L31.34,32.58 L71.26,72.5 Z" id="Shape"></path>
            <path d="M61.82,68 C61.3909579,69.1612479 61.1479658,70.382958 61.1,71.62 C61.1110409,77.6372879 65.9960153,82.5073491 72.0133089,82.5000002 C78.0306024,82.4926346 82.9036532,77.6106425 82.8999817,71.5933456 C82.8963061,65.5760486 78.0172981,60.7000101 72,60.7 C70.7541214,60.659657 69.5156203,60.9059887 68.38,61.42 L69.26,64 C70.1280873,63.6340167 71.0580738,63.4371582 72,63.42 C75.3121273,63.4119117 78.302247,65.4019341 79.5734824,68.4603999 C80.8447177,71.5188657 80.1461437,75.0420745 77.8041091,77.3841091 C75.4620745,79.7261437 71.9388657,80.4247177 68.8803999,79.1534824 C65.8219341,77.882247 63.8319117,74.8921273 63.84,71.58 C63.8469913,70.6474059 64.0302077,69.724538 64.38,68.86 L61.82,68 Z" id="Path"></path>
        </g>
    </g>
</svg>