<?xml version="1.0" encoding="UTF-8"?>
<svg width="115px" height="120px" viewBox="0 0 115 120" version="1.1" xmlns="http://www.w3.org/2000/svg" xmlns:xlink="http://www.w3.org/1999/xlink">
    <!-- Generator: Sketch 55.2 (78181) - https://sketchapp.com -->
    <title>cultura-de-servicio</title>
    <desc>Created with Sketch.</desc>
    <g id="Page-1" stroke="none" stroke-width="1" fill="none" fill-rule="evenodd">
        <g id="cultura-de-servicio" transform="translate(-1.000000, 0.000000)" fill="#CA3625" fill-rule="nonzero">
            <path d="M110.14,94 L69.66,115.04 C66.656785,116.655985 63.1078379,116.917793 59.9,115.76 L36.58,108 L28.58,108 L28.58,82.52 L38.34,82.52 C40.8453204,82.5005816 43.3218623,83.054725 45.58,84.14 L58.78,90.28 L76.12,90.28 C77.9977544,90.3323353 79.5076647,91.8422456 79.56,93.72 C79.5600156,94.6305163 79.196951,95.5034514 78.5512445,96.1454038 C77.9055379,96.7873563 77.0305007,97.1453247 76.12,97.14 L55.56,97.14 C53.74,97.52 50.14,99.14 50.14,102.76 L52.84,102.76 C52.84,100.58 55.38,100.04 55.92,99.86 L76.16,99.86 C77.1646342,99.8132161 78.150146,99.5685373 79.06,99.14 L107.26,86.66 C108.217615,86.2504172 109.301371,86.2518442 110.257904,86.6639474 C111.214437,87.0760505 111.959894,87.8627037 112.32,88.84 C113.119961,90.8666679 112.150736,93.1607969 110.14,94 M114.84,87.86 C113.413715,84.4924633 109.556346,82.883745 106.16,84.24 L82.16,94.9 C82.16,94.54 82.34,94.18 82.34,93.82 C82.3777033,92.2045847 81.7622463,90.6422463 80.6329156,89.4865646 C79.5035849,88.3308828 77.9558552,87.6795601 76.34,87.68 L59.54,87.68 L46.88,81.68 C44.2128013,80.4643782 41.3110029,79.8498798 38.38,79.88 L28.62,79.88 L28.62,75.28 L1.7,75.28 L1.7,78 L26,78 L26,112.34 L6.58,112.34 L6.58,115.04 L28.58,115.04 L28.58,110.52 L35.82,110.52 L59,118.3 C60.5178653,118.790716 62.1048429,119.033828 63.7,119.02 C66.1387671,119.017461 68.5454112,118.463659 70.74,117.4 L111.04,96.24 C114.419118,94.9350705 116.115028,91.1505141 114.84,87.76" id="Shape"></path>
            <rect id="Rectangle" x="18.68" y="104.74" width="2.72" height="2.72"></rect>
            <rect id="Rectangle" x="12.9" y="104.74" width="2.72" height="2.72"></rect>
            <path d="M46.52,66.6 L46.52,10.76 L52.52,10.76 L52.52,60.64 L101.46,60.64 L101.46,66.64 L46.52,66.6 Z M55.2,3.52 L95.5,3.52 L95.5,17.62 L109.5,17.62 L109.5,58 L55.2,58 L55.2,3.52 Z M98.22,5.34 L107.8,14.9 L98.22,14.9 L98.22,5.34 Z M104.22,60.64 L112.36,60.64 L112.36,15.64 L97.36,0.62 L52.48,0.62 L52.48,7.86 L43.8,7.86 L43.8,69.14 L104.18,69.14 L104.22,60.64 Z" id="Shape"></path>
            <rect id="Rectangle" x="62.06" y="23.76" width="27.48" height="2.72"></rect>
            <rect id="Rectangle" x="62.06" y="34.8" width="40.84" height="2.72"></rect>
            <rect id="Rectangle" x="62.06" y="45.82" width="40.84" height="2.72"></rect>
        </g>
    </g>
</svg>