<?xml version="1.0" encoding="UTF-8"?>
<svg width="112px" height="120px" viewBox="0 0 112 120" version="1.1" xmlns="http://www.w3.org/2000/svg" xmlns:xlink="http://www.w3.org/1999/xlink">
    <!-- Generator: Sketch 55.2 (78181) - https://sketchapp.com -->
    <title>discrecion</title>
    <desc>Created with Sketch.</desc>
    <g id="Page-1" stroke="none" stroke-width="1" fill="none" fill-rule="evenodd">
        <g id="discrecion" fill="#CA3625" fill-rule="nonzero">
            <path d="M52.1491525,63.0508475 C52.7229217,63.7179042 53.7230264,63.8080037 54.4067797,63.2542373 L62.5423729,56.6033898 C62.8798873,56.3357672 63.0958162,55.9438356 63.1417044,55.5155458 C63.1875926,55.087256 63.0595971,54.6584754 62.7864407,54.3254237 C62.2227728,53.6326998 61.2061041,53.523771 60.5084746,54.0813559 L53.5525424,59.7355932 L51.0915254,56.8271186 C50.7708632,56.2652391 50.1477938,55.9467045 49.5045535,56.0158039 C48.8613132,56.0849032 48.3201156,56.5285077 48.1261111,57.1456747 C47.9321065,57.7628417 48.1221553,58.4363112 48.6101695,58.8610169 L52.1491525,63.0508475 Z" id="Path"></path>
            <path d="M55.7084746,73.7898305 C64.0723474,73.7786264 70.8498128,67.0011609 70.8611283,58.6372881 C70.8761066,54.7206354 69.3576275,50.9536392 66.6305085,48.1423729 L66.6305085,37.6474576 C66.3798748,31.881521 61.6323983,27.3359247 55.8610169,27.3359247 C50.0896356,27.3359247 45.3421591,31.881521 45.0915254,37.6474576 L45.0915254,47.8169492 C40.7025734,52.1243011 39.356789,58.6593595 41.6867506,64.3503577 C44.0167122,70.0413558 49.5589926,73.7563595 55.7084746,73.7491525 L55.7084746,73.7898305 Z M48.3254237,37.6474576 C48.3254237,33.4912809 51.6946707,30.1220339 55.8508475,30.1220339 C60.0070242,30.1220339 63.3762712,33.4912809 63.3762712,37.6474576 L63.3762712,45.579661 C58.7451555,42.8530495 53.0144039,42.7910954 48.3254237,45.4169492 L48.3254237,37.6474576 Z M55.7084746,46.7796117 C61.348617,46.8079696 66.1854169,50.811761 67.2667631,56.3473458 C68.3481093,61.8829306 65.3736217,67.4126143 60.1587604,69.5613885 C54.9438991,71.7101626 48.9372669,69.8811331 45.8049749,65.1906368 C42.6726829,60.5001406 43.2848303,54.2511203 47.2677966,50.2576271 C49.5069908,48.0221135 52.5443904,46.7705586 55.7084746,46.7796117 Z" id="Shape"></path>
            <path d="M108.101695,46.9423729 L90.4067797,36.040678 L90.2440678,36.040678 L89.8169492,35.8372881 L89.8169492,28.2508475 C89.815691,27.8505043 89.6631181,27.4654393 89.3898305,27.1728814 L66.2644068,1.38305085 L66.2644068,1.38305085 C65.977182,1.02237738 65.5456194,0.806596067 65.0847458,0.793220339 L31.8508475,0.793220339 C26.2343924,0.793220339 21.6813559,5.34625678 21.6813559,10.9627119 L21.6813559,35.8576271 L3.37627119,46.9423729 C1.30386328,48.2091616 0.0284794221,50.4526079 3.55271368e-15,52.8813559 L3.55271368e-15,105.559322 C3.55271368e-15,113.096605 6.11017491,119.20678 13.6474576,119.20678 L97.8101695,119.20678 C105.342808,119.195579 111.446426,113.09196 111.457627,105.559322 L111.457627,52.8813559 C111.422097,50.4597114 110.157785,48.2222621 108.101695,46.9423729 Z M106.39322,49.7084746 C107.498254,50.3881605 108.180623,51.5842228 108.20339,52.8813559 L108.20339,55.9118644 L89.8983051,67.1389831 L89.8983051,39.4779661 L106.39322,49.7084746 Z M66.6305085,6.65084746 L82.1694915,23.979661 L73.5864407,23.979661 C69.7494219,23.9684906 66.6416789,20.8607476 66.6305085,17.0237288 L66.6305085,6.65084746 Z M31.8508475,4.06779661 L63.3762712,4.06779661 L63.3762712,17.0644068 C63.3762712,22.6808619 67.9293076,27.2338983 73.5457627,27.2338983 L85.0372881,27.2338983 L86.5220339,28.9016949 L86.5220339,69.1525424 L55.7288136,88.0271186 L24.8949153,69.1525424 L24.8949153,10.9830508 C24.9172885,7.15729082 28.025022,4.06779661 31.8508475,4.06779661 Z M5.0440678,49.7084746 L21.640678,39.6610169 L21.640678,67.1186441 L3.33558152,55.8915254 L3.33558152,52.8813559 C3.33241899,51.6029992 3.97506858,50.4095071 5.0440678,49.7084746 L5.0440678,49.7084746 Z M97.8101695,115.932283 L13.6474576,115.932283 C7.91537403,115.932283 3.26545467,111.291395 3.25423729,105.559322 L3.25423729,59.7762712 L22.1288136,71.3084746 C22.3018785,71.489831 22.5191731,71.6230116 22.759322,71.6949153 L54.9152542,91.3220339 C55.4312577,91.6462767 56.0873863,91.6462767 56.6033898,91.3220339 L88.7389831,71.6949153 C88.976988,71.618281 89.1931844,71.4857736 89.3694915,71.3084746 L108.244068,59.7762712 L108.244068,105.559322 C108.238688,108.319312 107.135726,110.96382 105.178401,112.909699 C103.221075,114.855579 100.570143,115.943011 97.8101695,115.932283 Z" id="Shape"></path>
        </g>
    </g>
</svg>