<?xml version="1.0" encoding="UTF-8"?>
<svg width="120px" height="72px" viewBox="0 0 120 72" version="1.1" xmlns="http://www.w3.org/2000/svg" xmlns:xlink="http://www.w3.org/1999/xlink">
    <!-- Generator: Sketch 55.2 (78181) - https://sketchapp.com -->
    <title>educacion-financiera</title>
    <desc>Created with Sketch.</desc>
    <g id="Page-1" stroke="none" stroke-width="1" fill="none" fill-rule="evenodd">
        <g id="educacion-financiera" transform="translate(0.000000, -1.000000)" fill="#CA3625" fill-rule="nonzero">
            <path d="M118.765217,27.4608696 L60.5391304,1.37391304 C60.196532,1.21839964 59.803468,1.21839964 59.4608696,1.37391304 L35.8434783,11.9826087 C35.5145347,12.1198054 35.2609168,12.3924447 35.1478261,12.7304348 C35.0096478,13.0585079 35.0096478,13.4284486 35.1478261,13.7565217 C35.4613693,14.4021804 36.2190744,14.6976853 36.8869565,14.4347826 L60,4.12173913 L60.173913,4.12173913 L81.373913,13.6 L81.373913,27.5130435 L80.8,27.3043478 C74.1302093,24.8373515 67.1333421,23.3664857 60.0347826,22.9391304 C52.038779,23.4116319 44.1760628,25.2039551 36.7652174,28.2434783 C32.1249625,30.1114491 27.7371392,32.5536729 23.7043478,35.5130435 C23.4819537,35.6707034 23.3170859,35.8966333 23.2347826,36.1565217 L23.0782609,36.6086957 L5.06086957,28.6782609 L29.4086957,17.826087 C29.7302685,17.6785023 29.9803642,17.4096494 30.1043478,17.0782609 C30.2425262,16.7501878 30.2425262,16.380247 30.1043478,16.0521739 C29.7970866,15.3997487 29.0330574,15.1017774 28.3652174,15.373913 L1.33913043,27.5478261 C0.855767117,27.7604045 0.542454445,28.2371846 0.539130435,28.7652174 C0.539130435,29.2982387 0.853029837,29.7813251 1.33913043,30 L23.2521739,39.7913043 L23.2521739,48.573913 C23.1932281,49.0920022 23.4364621,49.5980218 23.8778702,49.8756004 C24.3192783,50.1531789 24.8807217,50.1531789 25.3221298,49.8756004 C25.7635379,49.5980218 26.0067719,49.0920022 25.9478261,48.573913 L25.9478261,37.4086957 L26.1217391,37.2869565 C29.7842376,34.6984837 33.7354339,32.5448774 37.8956522,30.8695652 C44.9715227,27.9888156 52.4639231,26.2625102 60.0869565,25.7565217 C67.3204131,26.2295161 74.4396819,27.8011504 81.2,30.4173913 L81.4782609,30.5217391 L81.4782609,48.7826087 L81.1826087,48.8869565 C78.7060661,49.6288498 77.0049478,51.9017133 76.9913043,54.4869565 C76.9865021,56.8530861 78.4173851,58.9856522 80.6086957,59.8782609 L80.9913043,60.0347826 L79.5130435,63.9304348 L79.2695652,63.9304348 C72.7000609,64.8591347 66.3088865,66.7764871 60.3130435,69.6173913 L60.1043478,69.7217391 L59.8956522,69.6173913 C49.4608696,64.0869565 31.5652174,62.5391304 26.3478261,62.1913043 L25.9478261,62.1913043 L25.9478261,56.8 C25.9478261,56.0604187 25.348277,55.4608696 24.6086957,55.4608696 C23.8691143,55.4608696 23.2695652,56.0604187 23.2695652,56.8 L23.2695652,63.4782609 C23.2686022,64.1915056 23.826848,64.7803402 24.5391304,64.8173913 C24.7826087,64.8173913 47.9652174,65.9130435 59.4434783,72.4521739 C59.8551151,72.6780202 60.3535805,72.6780202 60.7652174,72.4521739 C66.0722032,69.7705345 71.7630497,67.9283429 77.6347826,66.9913043 L78.4,66.8521739 L77.0782609,70.3304348 C76.9221719,70.7461145 76.9738626,71.2113309 77.2173913,71.5826087 C77.4783037,71.9373734 77.8901089,72.1497105 78.3304348,72.1565217 L87.3217391,72.1565217 C87.7658743,72.1484057 88.1794364,71.9287009 88.4347826,71.5652174 C88.6808722,71.2013541 88.732863,70.7399363 88.573913,70.3304348 L86.8347826,65.5826087 L87.3913043,65.5826087 C92.2782609,65.026087 95.7043478,64.8695652 95.7391304,64.8695652 C96.4543484,64.8328866 97.0178453,64.2465452 97.026087,63.5304348 L97.026087,56.8173913 C96.9481019,56.1319619 96.3681124,55.6142191 95.6782609,55.6142191 C94.9884094,55.6142191 94.4084198,56.1319619 94.3304348,56.8173913 L94.3304348,62.2086957 L93.9304348,62.2086957 C92.1913043,62.3304348 89.4956522,62.5565217 86.1913043,62.9565217 L85.8608696,62.9565217 L84.7304348,59.9826087 L85.1304348,59.826087 C87.4089422,58.8721646 88.8415222,56.5885887 88.7088271,54.122021 C88.576132,51.6554533 86.9068282,49.5387509 84.5391304,48.8347826 L84.2434783,48.7304348 L84.2434783,31.6521739 L84.8521739,31.9304348 C88.0318426,33.4314636 91.0651693,35.2246779 93.9130435,37.2869565 L94.0869565,37.4086957 L94.0869565,48.4869565 C94.0280107,49.0050456 94.2712447,49.5110653 94.7126528,49.7886439 C95.1540609,50.0662224 95.7155043,50.0662224 96.1569124,49.7886439 C96.5983205,49.5110653 96.8415545,49.0050456 96.7826087,48.4869565 L96.7826087,39.7043478 L118.695652,29.9130435 C119.181753,29.6943685 119.495877,29.2112821 119.495877,28.6782609 C119.505016,28.1661699 119.221469,27.6935915 118.765217,27.4608696 Z M85.2173913,69.5652174 L80.173913,69.5652174 L82.7130435,62.8347826 L85.2173913,69.5652174 Z M85.826087,54.573913 C85.826087,56.3220143 84.4089709,57.7391304 82.6608696,57.7391304 C80.9127683,57.7391304 79.4956522,56.3220143 79.4956522,54.573913 C79.4956522,52.8258117 80.9127683,51.4086957 82.6608696,51.4086957 C83.4957829,51.3900405 84.303891,51.7039233 84.9073141,52.2812524 C85.5107372,52.8585815 85.8600135,53.6520341 85.8782609,54.4869565 L85.826087,54.573913 Z M96.8695652,36.8347826 L96.7130435,36.3826087 C96.6307402,36.1227203 96.4658724,35.8967904 96.2434783,35.7391304 C92.5357902,33.0106969 88.519736,30.7283173 84.2782609,28.9391304 L84,28.8173913 L84,14.9043478 L114.886957,28.7130435 L96.8695652,36.8347826 Z" id="Shape"></path>
        </g>
    </g>
</svg>