<?xml version="1.0" encoding="utf-8"?>
<!-- Generator: Adobe Illustrator 25.3.1, SVG Export Plug-In . SVG Version: 6.00 Build 0)  -->
<svg version="1.1" id="Capa_1" xmlns="http://www.w3.org/2000/svg" xmlns:xlink="http://www.w3.org/1999/xlink" x="0px" y="0px"
	 width="24px" height="20px" viewBox="0 0 24 20" style="enable-background:new 0 0 24 20;" xml:space="preserve">
  <desc>Created with Sketch.</desc>
      <path id="mail-rojo" d="M21.6,0.4H2.4C1.8,0.4,1.4,0.6,1,1C0.6,1.4,0.4,1.9,0.4,2.4v14.4c0,0.6,0.2,1,0.6,1.4c0.4,0.4,0.8,0.6,1.4,0.6
	h19.3c0.6,0,1-0.2,1.4-0.6c0.4-0.4,0.6-0.9,0.6-1.4V2.4c0-0.6-0.2-1-0.6-1.4C22.6,0.6,22.2,0.4,21.6,0.4z M2.4,2h19.3
	c0.2,0,0.3,0.1,0.4,0.3s0,0.3-0.2,0.4l-9.6,6c-0.1,0-0.1,0.1-0.2,0.1s-0.1,0-0.2-0.1l-9.6-6C2,2.7,2,2.5,2,2.3C2.1,2.2,2.2,2,2.4,2z
	 M22,16.8c0,0.2-0.2,0.4-0.4,0.4H2.4c-0.2,0-0.4-0.2-0.4-0.4v-12c0-0.1,0.1-0.3,0.2-0.3c0.1-0.1,0.3-0.1,0.4,0l9.4,5.8l9.4-5.8
	c0.1-0.1,0.3-0.1,0.4,0C21.9,4.6,22,4.7,22,4.8V16.8z"  fill="#CA3625" fill-rule="nonzero"/>
</svg>
	