<?xml version="1.0" encoding="UTF-8"?>
<svg width="118px" height="115px" viewBox="0 0 118 115" version="1.1" xmlns="http://www.w3.org/2000/svg" xmlns:xlink="http://www.w3.org/1999/xlink">
    <!-- Generator: Sketch 55.2 (78181) - https://sketchapp.com -->
    <title>empatia</title>
    <desc>Created with Sketch.</desc>
    <g id="Page-1" stroke="none" stroke-width="1" fill="none" fill-rule="evenodd">
        <g id="empatia" transform="translate(-1.000000, 0.000000)" fill="#CA3625" fill-rule="nonzero">
            <path d="M4.39354839,112.141935 C4.74193548,103.374194 5.82580645,94.7225806 5.82580645,94.4322581 C5.87647551,92.2854058 6.49053875,90.1895813 7.60645161,88.3548387 C8.80373482,86.3805731 10.6309449,84.8669886 12.7935484,84.0580645 L21.0193548,81.2903226 L30.1548387,98.1096774 L36.7741935,98.1096774 L45.8903226,81.2903226 L54.1935484,84.0580645 C56.3420904,84.8005747 58.1722916,86.2551749 59.3806452,88.1806452 L59.3806452,88.3548387 C60.5427108,90.2331454 61.1592503,92.3977351 61.1612903,94.6064516 C61.1612903,94.8 62.0516129,103.374194 62.5935484,112.141935 L4.39354839,112.141935 Z M61.8,87.6387097 C62.932142,85.9852604 64.5579833,84.7320077 66.4451613,84.0580645 L74.6903226,81.2903226 L83.8064516,98.1096774 L90.4258065,98.1096774 L99.5419355,81.2903226 L107.767742,84.1548387 C109.961605,84.90893 111.805612,86.4364282 112.954839,88.4516129 C114.122765,90.3283312 114.745967,92.4927858 114.754839,94.7032258 C114.754839,94.8967742 115.645161,103.470968 116.167742,112.23871 L65.0129032,112.23871 L65.0129032,112.064516 C64.6645161,103.122581 63.6,94.5290323 63.6,94.5290323 C63.5485107,92.0259419 62.8839394,89.5736739 61.6645161,87.3870968 C61.6645161,87.5612903 61.6645161,87.7354839 61.8387097,87.7354839 L61.8,87.6387097 Z M118.896774,114.832258 L118.896774,113.4 C118.548387,104.090323 117.464516,94.4322581 117.464516,94.4322581 C117.383905,91.8388136 116.630204,89.3109162 115.277419,87.0967742 C113.786119,84.5343671 111.443909,82.5756762 108.658065,81.5612903 L98.1096774,77.9806452 L88.8193548,95.516129 L85.4129032,95.516129 L75.9290323,77.9806452 L65.5548387,81.5612903 C63.4711356,82.3244468 61.6229998,83.6188091 60.1935484,85.316129 C60.7630158,85.787957 61.1971334,86.4024004 61.4516129,87.0967742 L61.4516129,86.9225806 C59.9483214,84.4091715 57.6031147,82.5096912 54.8322581,81.5612903 L44.516129,77.9806452 L35.0322581,95.516129 L31.5870968,95.516129 L22.2774194,77.9806452 L11.9032258,81.5612903 C9.11738179,82.5756762 6.77517092,84.5343671 5.28387097,87.0967742 C3.969298,89.261841 3.22977625,91.7269135 3.13548387,94.2580645 C3.13548387,94.4322581 2.07096774,103.935484 1.70322581,113.4 L1.70322581,114.832258 L118.896774,114.832258 Z" id="Shape"></path>
            <path d="M87.0967742,48.116129 C93.7135018,48.116129 99.0774194,53.4800466 99.0774194,60.0967742 C99.0774194,66.7135018 93.7135018,72.0774194 87.0967742,72.0774194 C80.4800466,72.0774194 75.116129,66.7135018 75.116129,60.0967742 C75.116129,53.4800466 80.4800466,48.116129 87.0967742,48.116129 M87.0967742,74.5742077 C93.0322571,74.5427427 98.3639896,70.9379364 100.60458,65.4415102 C102.845171,59.945084 101.553106,53.6401202 97.3311685,49.4680477 C93.1092307,45.2959753 86.7893611,44.07891 81.3199428,46.3846441 C75.8505244,48.6903783 72.3093176,54.0645623 72.3483871,60 C72.4333423,68.0816354 79.0146999,74.5852604 87.0967742,74.5742077" id="Shape"></path>
            <path d="M33.3677419,71.9032258 C28.5149999,71.9031245 24.1416037,68.9756863 22.2918553,64.489314 C20.442107,60.0029417 21.48139,54.8438352 24.9239016,51.4235693 C28.3664132,48.0033033 33.5321488,46.9974881 38.0064351,48.8762824 C42.4807214,50.7550767 45.3797457,55.1473593 45.3483871,60 C45.3483871,66.6167276 39.9844696,71.9806452 33.3677419,71.9806452 M33.3677419,45.5032258 C25.2651902,45.5032258 18.6967742,52.0716418 18.6967742,60.1741935 C18.6967742,68.2767453 25.2651902,74.8451613 33.3677419,74.8451613 C41.4702937,74.8451613 48.0387097,68.2767453 48.0387097,60.1741935 C48.0068824,52.0848618 41.4570737,45.5350531 33.3677419,45.5032258" id="Shape"></path>
            <path d="M84.5225806,30.5806452 L78.4451613,26.4774194 L76.8193548,28.6258065 L86.4967742,35.4193548 L93.2903226,25.7419355 L91.1419355,24.1354839 L87.0193548,29.9419355 C84.2998716,18.0899297 73.1819748,10.1165724 61.083871,11.3419355 C49.0345711,12.4938649 39.620899,22.2525407 38.9032258,34.3354839 L41.5935484,34.5096774 C42.2917571,23.7850965 50.6975637,15.1671953 61.4014208,14.2020143 C72.1052779,13.2368333 81.9171342,20.2120237 84.5225806,30.6387097" id="Path"></path>
            <path d="M34.4322581,30.7548387 L32.9032258,28.6258065 L27.0967742,33.0967742 C30.414926,14.7218966 46.9330063,1.71930145 65.5732468,2.80911445 C84.2134872,3.89892745 99.1037973,18.7378333 100.258065,37.3741935 L102.948387,37.2 C101.680993,17.1524039 85.6376275,1.21112863 65.5823493,0.0717362926 C45.5270711,-1.06765605 27.7814353,12.9539785 24.2516129,32.7290323 L19.9548387,26.9225806 L17.8064516,28.5483871 L24.9677419,38.0129032 L34.4322581,30.7548387 Z" id="Path"></path>
        </g>
    </g>
</svg>