<?xml version="1.0" encoding="UTF-8"?>
<svg width="173px" height="172px" viewBox="0 0 173 172" version="1.1" xmlns="http://www.w3.org/2000/svg" xmlns:xlink="http://www.w3.org/1999/xlink">
    <!-- Generator: Sketch 55.2 (78181) - https://sketchapp.com -->
    <title>Group</title>
    <desc>Created with Sketch.</desc>
    <g id="Page-1" stroke="none" stroke-width="1" fill="none" fill-rule="evenodd">
        <g id="Group" transform="translate(0.669449, 0.040000)" fill="#CB4E41" fill-rule="nonzero">
            <path d="M165.810408,144.334484 C164.710215,145.617097 163.067434,146.302667 161.381875,146.182612 L152.489937,146.182612 C151.966882,140.707968 151.443826,137.046582 151.443826,136.000471 L151.443826,135.477416 C151.09856,132.439144 150.124794,129.50597 148.584458,126.864441 L148.584458,126.585479 C147.475729,124.793646 146.059143,123.211792 144.400017,121.912852 L148.305495,114.59008 L157.964581,118.077115 C158.601847,118.292614 159.220032,118.560883 159.812709,118.879132 C161.562709,119.851027 163.010645,121.286897 163.99715,123.028703 L163.99715,123.307666 C165.253441,125.167778 165.965927,127.341465 166.054501,129.584328 L166.054501,130.107383 C166.333463,131.397586 166.577556,134.535917 167.100611,139.766469 C167.4557,141.441138 166.97449,143.183898 165.810408,144.439095 M147.259385,153.331033 C146.148986,154.596128 144.509633,155.26736 142.830851,155.14429 L134.740932,155.14429 C134.217876,150.192702 133.694821,147.054371 133.694821,145.764168 L133.694821,145.031891 C133.340667,141.488744 132.145137,138.081482 130.207787,135.093843 L130.207787,134.84975 C128.490801,131.987842 126.095626,129.592667 123.233718,127.875681 C123.025872,127.66057 122.728175,127.557023 122.4317,127.596719 L126.860234,118.983744 L138.088485,122.889222 C138.854289,123.079949 139.568641,123.437126 140.180705,123.935332 C142.249173,124.996263 143.96824,126.630588 145.132294,128.642829 L145.132294,128.921792 C146.461245,131.027133 147.273729,133.416791 147.503478,135.89586 L147.503478,136.418916 C147.74757,137.709118 148.270625,141.649467 148.79368,148.414314 C148.843371,150.11961 148.287445,151.787389 147.224515,153.12181 M129.789343,165.640264 C128.678271,166.928523 127.02249,167.61412 125.325939,167.488392 L45.7169429,167.488392 C44.0757084,167.384574 42.5165665,166.733909 41.2884092,165.640264 C40.1551178,164.457025 39.5837626,162.844534 39.7192437,161.21173 C40.0404034,156.529897 40.64594,151.871923 41.5325016,147.263593 L41.5325016,146.740537 C41.6692923,143.328629 42.664764,140.006392 44.4267401,137.081452 C46.3678404,133.908371 49.2951768,131.458717 52.7607524,130.107383 L65.8022611,125.399887 L80.1688429,152.319793 L90.6299462,152.319793 L105.24062,125.399887 L118.282129,130.107383 C119.328239,130.386346 120.130257,130.909401 120.897405,131.153494 C123.230037,132.485891 125.204422,134.364548 126.651012,136.628138 L126.651012,136.9071 C128.151931,139.465907 129.124239,142.29983 129.51038,145.241113 L129.51038,146.043131 C130.306407,151.055661 130.83023,156.107643 131.079545,161.17686 C131.565848,162.778277 131.059657,164.515747 129.789343,165.605394 M37.627023,146.566186 C36.977137,149.307064 36.5341981,152.092917 36.30195,154.900198 L28.2120301,154.900198 C26.5744429,154.808781 25.0149544,154.17025 23.7834964,153.08694 C22.7639796,151.836683 22.2094377,150.271643 22.2142988,148.658406 C22.7373861,142.137652 23.2604412,137.953211 23.539404,136.628138 L23.539404,136.105083 C23.8580197,133.516731 24.7387209,131.029345 26.1198095,128.817181 C27.3009704,126.806143 29.030635,125.173243 31.1062687,124.109684 C31.8734162,123.830721 32.3964714,123.307666 33.1984893,123.063574 L44.4267401,119.158095 L48.8552739,127.77107 C45.5059131,129.489809 42.7037991,132.110752 40.765354,135.337935 C38.9853413,138.835669 37.9185488,142.652415 37.627023,146.566186 M20.1918509,135.582027 L20.1918509,136.105083 C19.9477585,137.430156 19.6687958,140.812579 19.1457406,146.287223 L10.0097104,146.287223 C8.37212329,146.195806 6.81263477,145.557275 5.58117674,144.473965 C4.56165998,143.223708 4.00711807,141.658668 4.01197914,140.045431 C4.53506641,134.535917 5.05812157,131.432456 5.05812157,130.386346 L5.05812157,129.863291 C5.40800862,127.548158 6.20127633,125.322272 7.39443463,123.307666 C8.38093963,121.56586 9.8288755,120.12999 11.5788759,119.158095 C12.1019311,118.879132 12.903949,118.63504 13.4270042,118.356077 L23.3301819,114.869043 L27.2356605,122.191815 C25.5248258,123.424304 24.1077883,125.019959 23.0860895,126.864441 L22.8071268,127.387496 C21.2928305,129.832434 20.3953236,132.608722 20.1918509,135.477416 M170.134331,129.479717 L170.134331,129.235625 C169.854762,126.458858 168.96146,123.778953 167.519055,121.389797 L167.519055,121.145705 C166.091402,118.793351 164.117802,116.819752 161.765448,115.392098 C160.969195,114.878223 160.081166,114.523012 159.150172,114.345988 L146.108664,109.638491 L140.878112,119.820632 L139.308947,119.053484 L124.977235,113.822933 L118.700573,125.818331 L103.427362,120.62265 L88.5377255,148.309703 L82.7841187,148.309703 L67.8944818,120.62265 L52.7607524,126.097294 L46.4840905,114.101895 L32.152379,119.332447 L30.5832135,120.099595 L25.3526619,109.917454 L12.3111532,114.62495 C11.5091352,114.869043 10.4630249,115.392098 9.69587735,115.671061 C7.35119306,116.987201 5.37322068,118.869271 3.94227056,121.145705 L3.69817815,121.66876 C2.28605107,123.970628 1.3935098,126.553047 1.08290234,129.235625 L1.08290234,129.514587 C0.803939583,130.560698 0.559847174,133.943121 0.0367920109,139.417765 C-0.204169267,142.196825 0.746509259,144.947455 2.65206782,146.98463 C4.50037582,149.053346 7.16694991,150.201631 9.93996976,150.122961 L18.5180744,150.122961 C18.7379943,152.193256 19.6610737,154.125569 21.1333502,155.597605 C22.9952957,157.667857 25.672874,158.815391 28.4561225,158.735936 L35.9532465,158.735936 C35.9972498,159.364995 35.9020009,159.996019 35.6742838,160.584064 C35.5081962,163.353352 36.4489295,166.075207 38.2895596,168.150929 C40.1570994,170.213357 42.8308906,171.359268 45.6123319,171.28926 L125.221328,171.28926 C127.994826,171.31873 130.652683,170.179648 132.5441,168.150929 C134.430727,166.102394 135.378431,163.36037 135.159376,160.584064 C135.226251,159.954296 135.130192,159.317907 134.880413,158.735936 L142.72624,158.735936 C145.507682,158.805944 148.181473,157.660034 150.049013,155.597605 C151.417476,154.054455 152.323813,152.157188 152.664288,150.122961 L161.486486,150.122961 C164.259505,150.201631 166.926079,149.053346 168.774387,146.98463 C170.679946,144.947455 171.630625,142.196825 171.389663,139.417765 C170.622516,134.187214 170.343553,131.083753 170.099461,129.75868" id="Shape"></path>
            <path d="M38.9172258,76.9998491 C41.832704,76.9269833 44.6860401,77.8493979 47.0071456,79.6151249 C43.4388523,83.3762971 41.4752641,88.3790696 41.5325016,93.5632626 C41.5799022,97.5652092 42.7915648,101.466763 45.019536,104.791513 C43.132526,105.640435 41.0908574,106.091502 39.0218368,106.116629 C35.2087424,106.125875 31.5491465,104.615241 28.8528736,101.918968 C26.1566006,99.222695 24.6459661,95.5630992 24.6552124,91.7500047 C24.7095591,83.7979127 31.071788,77.3275877 39.0218368,77.1393305 M70.4051466,79.2315512 C65.5363729,83.6278416 62.7821436,89.8978385 62.8382819,96.4575012 C62.7707597,101.02662 64.136562,105.502062 66.7437604,109.254917 C65.3225642,109.762951 63.8244971,110.022459 62.3152267,110.022065 C56.2606546,110.300971 50.5427337,107.229692 47.4320557,102.027835 C44.3213776,96.8259781 44.3213776,90.3354175 47.4320557,85.1335607 C50.5427337,79.931704 56.2606546,76.8604246 62.3152267,77.1393305 C65.1362323,77.2099703 67.9036002,77.925669 70.4051466,79.2315512 M105.101139,96.4575012 C105.024089,107.012889 96.4319336,115.521825 85.8762962,115.496199 C75.3206587,115.470458 66.7700116,106.919811 66.7442701,96.3641733 C66.7186447,85.8085359 75.2275808,77.2163802 85.7829683,77.1393305 C96.389373,77.2892667 104.951203,85.8510965 105.101139,96.4575012 M109.564543,77.1393248 C118.350684,77.544067 125.265968,84.7852401 125.265968,93.5806978 C125.265968,102.376156 118.350684,109.617329 109.564543,110.022065 C108.042226,110.042997 106.529107,109.78293 105.101139,109.254917 C107.613205,105.454565 108.980876,101.012661 109.041488,96.4575012 C109.02359,89.91327 106.281947,83.6719253 101.474623,79.2315512 C103.949296,77.8571081 106.733803,77.1369769 109.564543,77.1393248 M146.87599,91.7500047 C146.885074,95.557049 145.379221,99.2113406 142.690499,101.906604 C140.001777,104.601868 136.351155,106.116587 132.5441,106.116587 C130.464323,106.087419 128.41208,105.636637 126.51153,104.791513 C131.764082,96.9858929 130.894525,86.5801906 124.41931,79.7546063 C126.817025,78.1141526 129.639666,77.205577 132.5441,77.1393305 C140.520245,77.2540113 146.914895,83.7731305 146.87599,91.7500047 M39.0567071,110.022065 C42.0532768,110.01992 45.0060648,109.302643 47.6696822,107.929844 C51.4880417,111.733746 56.6466517,113.88734 62.036264,113.927544 C64.418733,113.910895 66.779591,113.474136 69.0103328,112.637341 C73.3823088,117.159612 79.4235443,119.682048 85.7132277,119.61141 C92.0038637,119.634901 98.0381717,117.120606 102.450993,112.637341 C104.693274,113.431838 107.04695,113.867268 109.425062,113.927544 C114.823932,113.933167 119.999358,111.772553 123.791643,107.929844 C126.453832,109.306469 129.407563,110.023975 132.404619,110.022065 C140.354643,110.017003 147.389055,104.872088 149.802632,97.29729 C152.21621,89.7224925 149.454992,81.4563699 142.973389,76.852921 C136.491787,72.249472 127.777448,72.3652739 121.42046,77.1393305 C118.008998,74.6347111 113.900915,73.2572231 109.669154,73.1989816 C105.473541,73.2135609 101.379225,74.4892381 97.9178481,76.8603678 C90.5578462,72.3466159 81.2870532,72.3466159 73.9270513,76.8603678 C70.4656748,74.4892381 66.3713586,73.2135609 62.1757453,73.1989816 C57.9363325,73.211533 53.8144626,74.5936437 50.4244393,77.1393305 C44.8886101,72.975057 37.4739431,72.2993411 31.2765595,75.3943396 C25.0791759,78.4893381 21.1649061,84.8227709 21.1682206,91.7500047 C20.9355931,96.5723368 22.7129692,101.275245 26.0769114,104.738322 C29.4408536,108.201398 34.0901724,110.114576 38.9172258,110.022065" id="Shape"></path>
            <rect id="Rectangle" x="83.8302291" y="-5.68434189e-14" width="3.90547855" height="18.0279679"></rect>
            <polygon id="Rectangle" transform="translate(112.389792, 14.128899) rotate(-67.480000) translate(-112.389792, -14.128899) " points="103.375808 12.1761598 121.403776 12.1761598 121.403776 16.0816383 103.375808 16.0816383"></polygon>
            <polygon id="Rectangle" transform="translate(135.210965, 29.288270) rotate(-45.000000) translate(-135.210965, -29.288270) " points="126.196981 27.3355308 144.224949 27.3355308 144.224949 31.2410093 126.196981 31.2410093"></polygon>
            <polygon id="Rectangle" transform="translate(58.844307, 14.291047) rotate(-22.500000) translate(-58.844307, -14.291047) " points="56.8915679 5.27706285 60.7970465 5.27706285 60.7970465 23.3050308 56.8915679 23.3050308"></polygon>
            <polygon id="Rectangle" transform="translate(36.181259, 29.487686) rotate(-45.000000) translate(-36.181259, -29.487686) " points="34.2285193 20.4737023 38.1339978 20.4737023 38.1339978 38.5016703 34.2285193 38.5016703"></polygon>
        </g>
    </g>
</svg>