<?xml version="1.0" encoding="UTF-8"?>
<svg width="120px" height="120px" viewBox="0 0 120 120" version="1.1" xmlns="http://www.w3.org/2000/svg" xmlns:xlink="http://www.w3.org/1999/xlink">
    <!-- Generator: Sketch 55.2 (78181) - https://sketchapp.com -->
    <title>excelencia</title>
    <desc>Created with Sketch.</desc>
    <g id="Page-1" stroke="none" stroke-width="1" fill="none" fill-rule="evenodd">
        <g id="excelencia" fill="#CA3625" fill-rule="nonzero">
            <path d="M80.0065574,66.4917668 C75.2341169,66.4798202 70.9512563,69.4195882 69.2468336,73.8773091 C67.5424109,78.33503 68.7714136,83.3822751 72.3344262,86.557377 L72.4918033,86.7147541 L72.4918033,98.0065574 C72.4860496,98.5641113 72.7992752,99.0759677 73.2983607,99.3245902 C73.7669653,99.6207477 74.3641822,99.6207477 74.8327869,99.3245902 L80.0065574,95.8819672 L85.1606557,99.3245902 C85.6392161,99.6105831 86.2361937,99.6105831 86.7147541,99.3245902 C87.2029456,99.0670262 87.5065404,98.5585049 87.5016393,98.0065574 L87.5016393,86.7147541 L87.6786885,86.557377 C91.2417012,83.3822751 92.4707038,78.33503 90.7662811,73.8773091 C89.0618585,69.4195882 84.7789979,66.4798202 80.0065574,66.4917668 L80.0065574,66.4917668 Z M84.5901639,95.1737705 L80.9311475,92.7344262 C80.4242604,92.3989153 79.7659036,92.3989153 79.2590164,92.7344262 L75.6,95.1737705 L75.6,88.5245902 L76.2688525,88.7606557 C78.7495632,89.6462393 81.4602728,89.6462393 83.9409836,88.7606557 L84.5901639,88.5245902 L84.5901639,95.1737705 Z M80.0065574,86.557377 C75.323325,86.5464232 71.531619,82.7487121 71.5280739,78.0654682 C71.5245337,73.3822243 75.3104898,69.5787811 79.9937003,69.5606776 C84.6769108,69.542703 88.4920548,73.3168678 88.5246812,78 C88.5350565,80.265932 87.642246,82.4426482 86.0436692,84.0486088 C84.4450924,85.6545694 82.2725135,86.557377 80.0065574,86.557377 Z" id="Shape"></path>
            <rect id="Rectangle" x="46.4852459" y="20.4983607" width="25.0229508" height="3.00983607"></rect>
            <rect id="Rectangle" x="28.4852459" y="32.4983607" width="63.0098361" height="3.00983607"></rect>
            <rect id="Rectangle" x="28.4852459" y="44.4983607" width="43.0229508" height="3.00983607"></rect>
            <rect id="Rectangle" x="80.4983607" y="44.4983607" width="11.0163934" height="3.00983607"></rect>
            <rect id="Rectangle" x="28.4852459" y="56.4983607" width="63.0098361" height="3.00983607"></rect>
            <rect id="Rectangle" x="28.4852459" y="68.4983607" width="23.0163934" height="3.00983607"></rect>
            <rect id="Rectangle" x="28.4852459" y="78.4918033" width="9.00983607" height="3.00983607"></rect>
            <rect id="Rectangle" x="46.4852459" y="78.4918033" width="5.01639344" height="3.00983607"></rect>
            <path d="M110.006557,0.491782885 L26.0065574,0.491782885 C20.7557551,0.491782885 16.4960947,4.74265158 16.4852459,9.99344262 L16.4852459,104.419672 L1.96721311,104.419672 C1.56729528,104.41441 1.18194195,104.5696 0.897290503,104.850555 C0.612639059,105.13151 0.452459011,105.514802 0.452459011,105.914754 L0.452459011,109.84918 C0.463280767,115.092302 4.71097691,119.339998 9.95409836,119.35082 L93.9540984,119.35082 C99.2049006,119.35082 103.464561,115.099971 103.47541,109.84918 L103.47541,15.4229508 L118.032787,15.4229508 C118.432705,15.4282134 118.818058,15.2730225 119.102709,14.9920678 C119.387361,14.7111132 119.547541,14.3278213 119.547541,13.9278689 L119.547541,9.99344262 C119.542329,7.46823215 118.534192,5.04851878 116.744909,3.26661458 C114.955626,1.48471038 112.531768,0.486580512 110.006557,0.491782885 Z M9.99344262,116.557377 C6.40811867,116.557377 3.50163934,113.650898 3.50163934,110.065574 L3.50163934,107.508197 L84.5901639,107.508197 L84.5901639,110.006557 C84.60999,112.071194 85.3004186,114.073437 86.557377,115.711475 L87.147541,116.498361 L9.99344262,116.557377 Z M100.485246,9.83606557 L100.485246,110.006557 C100.485262,113.584213 97.5907539,116.487519 94.0131148,116.498361 L94.0131148,116.498361 C90.4277908,116.498361 87.5213115,113.591881 87.5213115,110.006557 L87.5213115,106.072131 C87.5213115,105.24642 86.8519405,104.577049 86.0262295,104.577049 L19.5147541,104.577049 L19.5147541,10.1508197 C19.5147541,6.56549572 22.4212334,3.65901639 26.0065574,3.65901639 L102.92459,3.65901639 C101.497643,5.4193817 100.646098,7.57571375 100.485246,9.83606557 L100.485246,9.83606557 Z M116.498361,12.4327869 L103.514754,12.4327869 L103.514754,9.99344262 C103.514754,6.40811867 106.421233,3.50163934 110.006557,3.50163934 C113.591881,3.50163934 116.498361,6.40811867 116.498361,9.99344262 L116.498361,12.4327869 Z" id="Shape"></path>
        </g>
    </g>
</svg>