<?xml version="1.0" encoding="UTF-8"?>
<svg width="96px" height="120px" viewBox="0 0 96 120" version="1.1" xmlns="http://www.w3.org/2000/svg" xmlns:xlink="http://www.w3.org/1999/xlink">
    <!-- Generator: Sketch 55.2 (78181) - https://sketchapp.com -->
    <title>experiencia</title>
    <desc>Created with Sketch.</desc>
    <g id="Page-1" stroke="none" stroke-width="1" fill="none" fill-rule="evenodd">
        <g id="experiencia">
            <rect id="Rectangle" x="33.6380952" y="95.6" width="28.7428571" height="4.60952381" rx="0.55"></rect>
            <path d="M50.1142857,31.5428571 L50.1142857,25.8285714 L45.8857143,25.8285714 L45.8857143,31.5428571 C45.8895191,32.3596266 45.3285508,33.0707132 44.5333333,33.2571429 C42.9337455,33.6385235 41.408351,34.2821499 40.0190476,35.1619048 C39.3261203,35.5961132 38.4249973,35.4933536 37.847619,34.9142857 L33.8666667,30.9333333 L30.8761905,33.9047619 L34.8761905,37.8857143 C35.4263789,38.4538519 35.5278323,39.3201079 35.1238095,40 C34.2360024,41.3850778 33.5917829,42.911878 33.2190476,44.5142857 C33.0339064,45.3130976 32.3247313,45.8804376 31.5047619,45.8857143 L25.7904762,45.8857143 L25.7904762,50.0952381 L31.5047619,50.0952381 C32.3215314,50.0914333 33.0326179,50.6524016 33.2190476,51.447619 C33.5917829,53.0500268 34.2360024,54.576827 35.1238095,55.9619048 C35.558018,56.6548321 35.4552584,57.555955 34.8761905,58.1333333 L30.8761905,62.1142857 L33.8666667,65.1047619 L37.847619,61.1238095 C38.4404857,60.5789489 39.3283628,60.508233 40,60.952381 C41.3896286,61.8315139 42.9149165,62.4750953 44.5142857,62.8571429 C45.317763,63.0304595 45.885147,63.7496787 45.8666667,64.5714286 L45.8666667,70.2857143 L50.0952381,70.2857143 L50.0952381,64.5714286 C50.0748867,63.7554447 50.6326852,63.0382752 51.4285714,62.8571429 C53.0253932,62.4673593 54.5494644,61.8242913 55.9428571,60.952381 C56.6340779,60.5107268 57.5402465,60.6140619 58.1142857,61.2 L62.0952381,65.1809524 L65.0857143,62.2095238 L61.0857143,58.2095238 C60.5198426,57.5916712 60.4642133,56.6618672 60.952381,55.9809524 C61.8353697,54.5796251 62.4790774,53.0411636 62.8571429,51.4285714 C63.0290812,50.6322256 63.7377381,50.0668926 64.552381,50.0761905 L70.2666667,50.0761905 L70.2666667,45.9047619 L64.552381,45.9047619 C63.7345181,45.9048124 63.0279054,45.3331707 62.8571429,44.5333333 C62.4770821,42.9273523 61.8334377,41.3954785 60.952381,40 C60.530296,39.3012146 60.6404234,38.4044627 61.2190476,37.8285714 L65.2,33.847619 L62.2095238,30.8761905 L58.2285714,34.8571429 C57.6511931,35.4362108 56.7500702,35.5389704 56.0571429,35.1047619 C54.6678395,34.225007 53.142445,33.5813807 51.5428571,33.2 C50.7379683,33.0492531 50.1447953,32.3611724 50.1142857,31.5428571 Z M57.4095238,48 C57.4095238,51.8057971 55.1169669,55.236851 51.6008689,56.6932665 C48.0847708,58.149682 44.0375669,57.344643 41.3464619,54.6535381 C38.655357,51.9624331 37.850318,47.9152292 39.3067335,44.3991311 C40.763149,40.8830331 44.1942029,38.5904762 48,38.5904762 C53.1923897,38.6009553 57.3990447,42.8076103 57.4095238,48 Z" id="Shape"></path>
            <path d="M48,53.9047619 C51.26111,53.9047619 53.9047619,51.26111 53.9047619,48 C53.9047619,44.73889 51.26111,42.0952381 48,42.0952381 C44.73889,42.0952381 42.0952381,44.73889 42.0952381,48 C42.0952381,51.26111 44.73889,53.9047619 48,53.9047619 Z" id="Path"></path>
            <rect id="Rectangle" x="33.6380952" y="103.733333" width="28.7428571" height="4.60952381" rx="0.55"></rect>
            <path d="M44.3619048,116.47619 L51.6380952,116.47619 C51.9852457,116.47619 52.2666667,116.194769 52.2666667,115.847619 L52.2666667,111.866667 L43.8095065,111.866667 L43.8095065,115.847619 C43.8071694,116.167069 44.0448008,116.437477 44.3619048,116.47619 L44.3619048,116.47619 Z" id="Path"></path>
            <path d="M53.1428571,30.4761905 L53.1428571,24.7619048 C53.1445757,23.6899639 52.308319,22.8035317 51.2380952,22.7428571 L44.8761905,22.7428571 C43.7611013,22.7428571 42.8571402,23.6468156 42.8571402,24.7619048 L42.8571402,30.4761905 L42.5142857,30.5714286 C41.5147633,30.8905694 40.5458169,31.2985468 39.6190476,31.7904762 L39.2952381,31.9428571 L35.2952381,27.9428571 C34.9190602,27.5589222 34.4041756,27.3425656 33.8666667,27.3425656 C33.3291577,27.3425656 32.8142731,27.5589222 32.4380952,27.9428571 L28.0190476,32.3809524 C27.6398585,32.7596693 27.4267925,33.2736032 27.4267925,33.8095238 C27.4267925,34.3454444 27.6398585,34.8593783 28.0190476,35.2380952 L32.0190476,39.2380952 L31.8666667,39.5619048 C31.3679145,40.4920466 30.9596895,41.4679595 30.647619,42.4761905 L30.4761905,42.8571429 L24.7619048,42.8571429 C23.691681,42.9178175 22.8554243,43.8042496 22.8571402,44.8761905 L22.8571402,51.1428571 C22.9178175,52.2130809 23.8042496,53.0493376 24.8761905,53.047619 L30.5904762,53.047619 L30.6857143,53.3904762 C31.004748,54.3961658 31.4127086,55.3714465 31.9047619,56.3047619 L32.0571429,56.6095238 L28.0571429,60.6285714 C27.679104,61.0040302 27.4665058,61.5148126 27.4665058,62.047619 C27.4665058,62.5804255 27.679104,63.0912079 28.0571429,63.4666667 L32.3809524,68 C32.7630569,68.3715629 33.2765771,68.576971 33.8095238,68.5714286 L33.8095238,68.5714286 C34.3424705,68.576971 34.8559907,68.3715629 35.2380952,68 L39.2380952,63.9809524 L39.5619048,64.152381 C40.4913329,64.6334924 41.4598816,65.0349303 42.4571429,65.352381 L42.8,65.4666667 L42.8,71.1809524 C42.7948605,71.7179962 43.0059301,72.2345404 43.3856949,72.6143051 C43.7654596,72.9940699 44.2820038,73.2051395 44.8190476,73.2000917 L51.0857143,73.2000917 C52.1603355,73.1488307 53.0019398,72.25673 52.9904762,71.1809524 L52.9904762,65.4666667 L53.3333333,65.352381 C54.3355128,65.0315702 55.310116,64.630263 56.247619,64.152381 L56.552381,63.9809524 L60.5714286,68 C60.9382555,68.3849385 61.4492884,68.5990199 61.9809524,68.5904762 L61.9809524,68.5904762 C62.5191957,68.6044061 63.0381918,68.3898878 63.4095238,68 L67.847619,63.5619048 C68.2256579,63.186446 68.4382561,62.6756636 68.4382561,62.1428571 C68.4382561,61.6100507 68.2256579,61.0992683 67.847619,60.7238095 L63.8285714,56.7047619 L64,56.4 C64.474623,55.4610017 64.8758222,54.4866607 65.2,53.4857143 L65.2,53.1428571 L70.9142857,53.1428571 C71.9900634,53.1543208 72.882164,52.3127164 72.9333333,51.2380952 L72.9333333,44.8761905 C72.9333333,44.3407058 72.7206129,43.8271531 72.341968,43.4485082 C71.9633231,43.0698633 71.4497704,42.8571429 70.9142857,42.8571429 L65.2,42.8571429 L65.2,42.5142857 C64.879169,41.5182638 64.4778455,40.5499912 64,39.6190476 L63.8285714,39.2952381 L63.9619048,39.1809524 L67.7714286,35.3714286 C68.1506177,34.9927116 68.3636836,34.4787778 68.3636836,33.9428571 C68.3636836,33.4069365 68.1506177,32.8930027 67.7714286,32.5142857 L63.3333333,28.0952381 C62.9571554,27.7113031 62.4422709,27.4949465 61.9047619,27.4949465 C61.3672529,27.4949465 60.8523684,27.7113031 60.4761905,28.0952381 L56.4761905,32.0952381 L56.1714286,31.9428571 C55.2381131,31.4508038 54.2628325,31.0428433 53.2571429,30.7238095 L53.1428571,30.4761905 Z M57.8095238,34.4571429 L62.1333333,30.1333333 L65.7904762,33.7904762 L61.4666667,38.1142857 C61.0411406,38.5335969 60.9694805,39.1944624 61.2952381,39.6952381 C62.177422,41.1380193 62.8206351,42.7138913 63.2,44.3619048 C63.3326696,44.9394807 63.8454839,45.3497322 64.4380952,45.352381 L70.552381,45.352381 L70.552381,50.5142857 L64.4571429,50.5142857 C63.8620223,50.5097633 63.3452718,50.9231638 63.2190476,51.5047619 C62.8396556,53.1467856 62.1963784,54.7163821 61.3142857,56.152381 C60.9885281,56.6531566 61.0601882,57.3140222 61.4857143,57.7333333 L65.8095238,62.0761905 L62.152381,65.7142857 L57.8285714,61.3904762 C57.4092603,60.9649501 56.7483947,60.89329 56.247619,61.2190476 C54.815575,62.108903 53.2446542,62.752723 51.6,63.1238095 C51.0154535,63.2580521 50.603259,63.7812221 50.6095238,64.3809524 L50.6095238,70.4952381 L45.4095238,70.4952381 L45.4095238,64.4761905 C45.4178319,63.8821035 45.0150644,63.3608749 44.4380952,63.2190476 C42.7875882,62.8475848 41.2104617,62.2038597 39.7714286,61.3142857 C39.2706529,60.9885281 38.6097874,61.0601882 38.1904762,61.4857143 L33.8666667,65.8095238 L30.2095238,62.1714286 L34.5333333,57.8285714 C34.9515246,57.4074603 35.030013,56.7560067 34.7238095,56.247619 C33.8423174,54.8113153 33.1990814,53.2418195 32.8190476,51.6 C32.6928235,51.0184019 32.1760729,50.6050014 31.5809524,50.6095238 L25.4285714,50.6095238 L25.4285714,45.4285714 L31.5428571,45.4285714 C32.1354685,45.4259227 32.6482828,45.0156712 32.7809524,44.4380952 C33.1609543,42.7902837 33.8041267,41.2145113 34.6857143,39.7714286 C34.9919177,39.263041 34.9134293,38.6115873 34.4952381,38.1904762 L30.1714286,33.8666667 L33.8285714,30.2095238 L38.152381,34.5333333 C38.5734921,34.9515246 39.2249457,35.030013 39.7333333,34.7238095 C41.1780459,33.8454511 42.7532837,33.2024969 44.4,32.8190476 C44.9740204,32.6851204 45.3779143,32.1703537 45.3714286,31.5809524 L45.3714286,25.4285714 L50.552381,25.4285714 L50.552381,31.5428571 C50.5478586,32.1379777 50.961259,32.6547282 51.5428571,32.7809524 C53.1846766,33.1609861 54.7541724,33.8042221 56.1904762,34.6857143 C56.6987721,35.0222564 57.3729468,34.9588047 57.8095238,34.5333333 L57.8095238,34.4571429 Z" id="Shape" fill="#CA3625" fill-rule="nonzero"></path>
            <path d="M39.0666667,48 C39.0666667,52.9337438 43.0662562,56.9333333 48,56.9333333 C52.9337438,56.9333333 56.9333333,52.9337438 56.9333333,48 C56.9333333,43.0662562 52.9337438,39.0666667 48,39.0666667 C43.0706025,39.0771436 39.0771436,43.0706025 39.0666667,48 Z M48,41.6190476 C51.5241027,41.6190476 54.3809524,44.4758973 54.3809524,48 C54.3809524,51.5241027 51.5241027,54.3809524 48,54.3809524 C44.4758973,54.3809524 41.6190476,51.5241027 41.6190476,48 C41.6295076,44.4802391 44.4802391,41.6295076 48,41.6190476 L48,41.6190476 Z" id="Shape" fill="#CA3625" fill-rule="nonzero"></path>
            <path d="M7.61904762,46.7238095 L1.75238095,46.7238095 C1.04756041,46.7238095 0.476190476,47.2951795 0.476190476,48 C0.476190476,48.7079672 1.04449027,49.2848268 1.75238095,49.2952381 L7.61904762,49.2952381 C8.3269383,49.2848268 8.8952381,48.7079672 8.8952381,48 C8.8952381,47.2951795 8.32386816,46.7238095 7.61904762,46.7238095 L7.61904762,46.7238095 Z" id="Path" fill="#CA3625" fill-rule="nonzero"></path>
            <path d="M94.247619,46.7238095 L88.4190476,46.7238095 C87.7110804,46.723733 87.1342208,47.2921093 87.1238095,48 C87.1340422,48.7110586 87.707989,49.2850055 88.4190476,49.2952381 L94.247619,49.2952381 C94.9555097,49.2848268 95.5238095,48.7079672 95.5238095,48 C95.5238095,47.6615332 95.3893541,47.3369292 95.150022,47.0975971 C94.9106898,46.8582649 94.5860858,46.7238095 94.247619,46.7238095 Z" id="Path" fill="#CA3625" fill-rule="nonzero"></path>
            <path d="M19.4285714,75.2952381 C19.084951,75.2939549 18.7553322,75.4312961 18.5142857,75.6761905 L14.4,79.7904762 C14.1551056,80.0315227 14.0177644,80.3611414 14.0190476,80.7047619 C14.0139387,81.0435764 14.1523138,81.3687579 14.4,81.6 C14.6452259,81.8660475 14.9905564,82.0173929 15.352381,82.0173929 C15.7142055,82.0173929 16.059536,81.8660475 16.3047619,81.6 L20.4190476,77.4857143 C20.663942,77.2446678 20.8012832,76.915049 20.8000089,76.5714286 C20.799269,76.2375227 20.6696147,75.9167989 20.4380952,75.6761905 C20.1744595,75.4061976 19.8048517,75.266723 19.4285714,75.2952381 L19.4285714,75.2952381 Z" id="Path" fill="#CA3625" fill-rule="nonzero"></path>
            <path d="M77.4857143,20.3428571 L81.6,16.2095238 C81.8361848,15.9443962 81.9471718,15.5906251 81.9047619,15.2380952 C81.9060451,14.8944748 81.7687039,14.564856 81.5238095,14.3238095 C81.2925674,14.0761234 80.9673859,13.9377482 80.6285714,13.9428571 C80.284951,13.941574 79.9553322,14.0789151 79.7142857,14.3238095 L75.6,18.4571429 C75.3523138,18.6883849 75.2139387,19.0135665 75.2190476,19.352381 C75.2276289,19.8670601 75.5401671,20.3278107 76.0151993,20.526085 C76.4902315,20.7243593 77.0375891,20.6225218 77.4095238,20.2666667 L77.4857143,20.3428571 Z" id="Path" fill="#CA3625" fill-rule="nonzero"></path>
            <path d="M48,8.87619048 C48.6974485,8.87619048 49.2657808,8.31641843 49.2761905,7.61904762 L49.2761905,1.77142857 C49.2761905,1.06660803 48.7048205,0.495238095 48,0.495238095 C47.2951795,0.495238095 46.7238095,1.06660803 46.7238095,1.77142857 L46.7238095,7.61904762 C46.7342192,8.31641843 47.3025515,8.87619048 48,8.87619048 Z" id="Path" fill="#CA3625" fill-rule="nonzero"></path>
            <path d="M77.4857143,75.6761905 C77.2446678,75.4312961 76.915049,75.2939549 76.5714286,75.2952381 C76.2326141,75.2901292 75.9074326,75.4285043 75.6761905,75.6761905 C75.4323647,75.910117 75.2947402,76.2335345 75.2952292,76.5714286 C75.2939549,76.915049 75.4312961,77.2446678 75.6761905,77.4857143 L79.7904762,81.6 C80.0315227,81.8448944 80.3611414,81.9822356 80.7047619,81.9809613 C81.4053019,81.9707239 81.9707239,81.4053019 81.9809613,80.7047619 C81.9822356,80.3611414 81.8448944,80.0315227 81.6,79.7904762 L77.4857143,75.6761905 Z" id="Path" fill="#CA3625" fill-rule="nonzero"></path>
            <path d="M18.5142857,20.3428571 C18.8862204,20.6987122 19.4335781,20.8005498 19.9086102,20.6022755 C20.3836424,20.4040012 20.6961806,19.9432506 20.7047751,19.4285714 C20.7062399,19.1035007 20.583612,18.7901184 20.3619048,18.552381 L20.3619048,18.552381 L16.247619,14.4190476 C16.0065726,14.1741532 15.6769538,14.0368121 15.3333333,14.0380863 C14.9954393,14.0375974 14.6720218,14.1752218 14.4380952,14.4190476 C14.1932008,14.6600941 14.0558597,14.9897129 14.0571339,15.3333333 C14.056645,15.6712274 14.1942695,15.9946449 14.4380952,16.2285714 L18.5142857,20.3428571 Z" id="Path" fill="#CA3625" fill-rule="nonzero"></path>
            <path d="M52.2666667,13.3333276 L52.0952381,13.3333276 C51.8091874,13.3324469 51.5322288,13.4337732 51.3142857,13.6190476 C50.9116203,13.9375334 50.7390036,14.4662999 50.8761957,14.9610229 C51.0133879,15.455746 51.4336749,15.8200939 51.9428571,15.8857143 C66.6731244,17.6815725 78.2640355,29.3196971 80,44.0571429 C80.059261,44.5695545 80.421164,44.9959064 80.917144,45.137615 C81.4131241,45.2793236 81.9456427,45.1085207 82.2666667,44.7047619 C82.4743617,44.4332267 82.5698244,44.0922883 82.5333333,43.752381 C80.6864092,27.8366256 68.1729462,15.2601622 52.2666667,13.3333276 L52.2666667,13.3333276 Z" id="Path" fill="#CA3625" fill-rule="nonzero"></path>
            <path d="M81.447619,50.8380952 C81.1099452,50.7921312 80.7677613,50.881099 80.4952381,51.0857143 C80.2270334,51.2951967 80.055217,51.6044662 80.0190476,51.9428571 C78.8103692,61.5379849 73.3469365,70.0794079 65.1428571,75.2 C61.8116725,77.2819716 59.7832152,80.9288788 59.7714286,84.8571429 L59.7714286,92.5714286 L36.1904762,92.5714286 L36.1904762,84.7047619 C36.1933006,80.8919145 34.2364834,77.3451833 31.0095238,75.3142857 C19.349449,68.1195038 13.5045474,54.3455103 16.4318069,40.9606911 C19.3590664,27.575872 30.4201062,17.4992073 44.0190476,15.8285714 C44.7237808,15.7298459 45.2219315,15.0881601 45.1428571,14.3809524 C45.0858188,14.0504264 44.909631,13.7522624 44.647619,13.5428571 C44.429676,13.3575827 44.1527174,13.2571371 43.8666667,13.2571371 L43.8095238,13.2571371 C29.135292,15.0657452 17.2009902,25.9399 14.038997,40.3830964 C10.8770039,54.8262928 17.1761287,69.6922211 29.752381,77.4666667 C32.2308185,79.0299019 33.7338338,81.7554657 33.7333333,84.6857143 L33.7333333,92.6666667 L33.4095238,92.7809524 C31.7749126,93.3375962 30.6684072,94.8638106 30.647619,96.5904762 L30.647619,99.0857143 C30.6472174,100.004541 30.955821,100.896807 31.5238095,101.619048 L31.752381,101.904762 L31.5238095,102.190476 C30.9271516,102.9153 30.5976468,103.823119 30.5904762,104.761905 L30.5904762,107.257137 C30.5904762,109.51888 32.4239767,111.352381 34.6857143,111.352381 L40.6857143,111.352381 L40.6857143,115.809524 C40.6961308,117.835497 42.3359312,119.475298 44.3619048,119.485714 L51.6380952,119.485714 C53.619639,119.434854 55.2080953,117.829588 55.2380952,115.847619 L55.2380952,111.390476 L61.2380952,111.390476 C63.4998328,111.390476 65.3333333,109.556976 65.3333333,107.295238 L65.3333333,104.761905 C65.333735,103.843079 65.0251314,102.950812 64.4571429,102.228571 L64.2285714,101.942857 L64.4571429,101.657143 C65.0251314,100.934903 65.333735,100.042636 65.3333333,99.1238095 L65.3333333,96.6666667 C65.3125452,94.9400011 64.2060398,93.4137867 62.5714286,92.8571429 L62.2666667,92.7428571 L62.2666667,84.8571429 C62.2621273,81.8114618 63.8327775,78.9799685 66.4190476,77.3714286 C75.2786851,71.8480303 81.1772089,62.6259017 82.4761905,52.2666667 C82.5287733,51.9286299 82.439144,51.5839021 82.2285714,51.3142857 C82.0372826,51.063125 81.7584952,50.8931327 81.447619,50.8380952 Z M52.7428571,115.847619 C52.7428571,116.457762 52.2482384,116.952381 51.6380952,116.952381 L44.3619048,116.952381 C43.7560305,116.942196 43.2673278,116.453493 43.2571429,115.847619 L43.2571429,111.390476 L52.7809524,111.390476 L52.7428571,115.847619 Z M62.8571429,107.295238 C62.8468653,108.143041 62.1620886,108.827818 61.3142857,108.838095 L34.647619,108.838095 C33.8029704,108.827667 33.1238095,108.139951 33.1238095,107.295238 L33.1238095,104.761905 C33.1238095,103.917192 33.8029704,103.229476 34.647619,103.219048 L61.3142857,103.219048 C62.1620886,103.229325 62.8468653,103.914102 62.8571429,104.761905 L62.8571429,107.295238 Z M62.8571429,96.6666667 L62.8571429,99.1619048 C62.8468653,100.009708 62.1620886,100.694484 61.3142857,100.704762 L34.647619,100.704762 C33.8029704,100.694333 33.1238095,100.006618 33.1238095,99.1619048 L33.1238095,96.6666667 C33.1238095,95.8219537 33.8029704,95.1342381 34.647619,95.1238095 L61.3142857,95.1238095 C62.1620886,95.1340871 62.8468653,95.8188638 62.8571429,96.6666667 L62.8571429,96.6666667 Z" id="Shape" fill="#CA3625" fill-rule="nonzero"></path>
        </g>
    </g>
</svg>