<?xml version="1.0" encoding="UTF-8"?>
<svg width="172px" height="144px" viewBox="0 0 172 144" version="1.1" xmlns="http://www.w3.org/2000/svg" xmlns:xlink="http://www.w3.org/1999/xlink">
    <!-- Generator: Sketch 55.2 (78181) - https://sketchapp.com -->
    <title>Combined Shape</title>
    <desc>Created with Sketch.</desc>
    <g id="Diseño" stroke="none" stroke-width="1" fill="none" fill-rule="evenodd">
        <g id="4-Su-Banquero_desktop" transform="translate(-990.000000, -2545.000000)" fill="#D34A46" fill-rule="nonzero">
            <g id="Group-2" transform="translate(958.000000, 2318.000000)">
                <g id="Icon" transform="translate(32.000000, 212.000000)">
                    <path d="M141.695897,154.58568 L153.596138,154.551086 L153.596138,74.0168946 L162.417538,74.0168946 L147.646018,59.2453741 L132.874497,74.0168946 L141.695897,74.0168946 L141.695897,154.58568 Z M100.771521,154.58568 L112.671762,154.620274 L112.671762,105.151247 L121.493162,105.151247 L106.721641,90.3797265 L91.9501207,105.151247 L100.771521,105.151247 L100.771521,154.58568 Z M59.847144,154.58568 L71.7473854,154.654867 L71.7473854,136.285599 L80.5687852,136.285599 L65.7972647,121.514079 L51.0603379,136.285599 L59.847144,136.285599 L59.847144,154.58568 Z M18.9227675,154.58568 L30.9959775,154.620274 L30.9959775,105.151247 L39.8173773,105.151247 L25.149638,90.3797265 L10.1359614,105.151247 L18.9227675,105.151247 L18.9227675,154.58568 Z M157.747385,77.9259855 L157.228479,154.58568 L165.254224,154.58568 L165.254224,158.460177 L6.1230893,158.460177 L6.1230893,154.58568 L14.6677393,154.58568 L14.6677393,108.99115 L0.449718423,108.99115 L24.6653258,84.775543 L49.2614642,108.99115 L35.0088496,108.99115 L35.0088496,154.58568 L56.0072405,154.58568 L56.0072405,140.090909 L41.7546259,140.090909 L65.9702333,115.875302 L90.1858407,140.090909 L75.9332261,140.090909 L75.9332261,154.58568 L96.8970233,154.58568 L96.8970233,108.99115 L82.6444087,108.99115 L106.860016,84.775543 L131.075623,108.99115 L116.823009,108.99115 L116.823009,154.58568 L137.8214,154.58568 L137.8214,77.9259855 L123.568785,77.9259855 L147.784393,53.7103781 L172,77.9259855 L157.747385,77.9259855 Z M27.7095736,63.4312148 L2.87127916,88.2695093 L0,85.4328238 L27.7095736,58 L67.0772325,97.3676589 L145.81255,18.8744972 L132.355591,18.8744972 L132.355591,15 L152.316171,15 L152.316171,34.9259855 L148.40708,34.9259855 L148.40708,21.4690265 L67.0772325,103.04103 L27.7095736,63.4312148 Z" id="Combined-Shape"></path>
                </g>
            </g>
        </g>
    </g>
</svg>