<?xml version="1.0" encoding="UTF-8"?>
<svg width="117px" height="172px" viewBox="0 0 117 172" version="1.1" xmlns="http://www.w3.org/2000/svg" xmlns:xlink="http://www.w3.org/1999/xlink">
    <!-- Generator: Sketch 55.2 (78181) - https://sketchapp.com -->
    <title>Shape</title>
    <desc>Created with Sketch.</desc>
    <g id="Diseño" stroke="none" stroke-width="1" fill="none" fill-rule="evenodd">
        <g id="4-Su-Banquero_desktop" transform="translate(-1018.000000, -2982.000000)" fill="#D34A46" fill-rule="nonzero">
            <g id="Group-2" transform="translate(958.000000, 2770.000000)">
                <g id="Icon" transform="translate(32.000000, 212.000000)">
                    <path d="M126.484284,7.89689891 L128.042883,16.2094241 L136.355408,17.7680226 L122.847555,31.2412404 L114.569665,29.682642 L113.011067,21.4047523 L126.484284,7.89689891 Z M72.7992261,74.2931937 L113.530599,33.4579138 L124.163705,35.5360451 L144.113765,15.5859847 L131.16008,12.9883206 L128.562416,0 L108.716262,19.8461538 L110.759758,30.479259 L100.369101,40.8699154 C86.3755131,28.0501377 65.6529173,25.8670638 49.2951085,35.4893973 C32.9372998,45.1117308 24.7772422,64.2847652 29.183404,82.74426 C33.5895659,101.203755 49.5294948,114.624278 68.4697859,115.821184 L68.4697859,128.255336 L38.4061532,167.947644 L33.210825,167.947644 L33.210825,171.826822 L46.6840428,171.826822 L46.6840428,167.947644 L43.2204907,167.947644 L68.8854121,134.48973 L68.8854121,167.947644 L63.9671681,167.947644 L63.9671681,171.826822 L77.5442925,171.826822 L77.5442925,167.947644 L72.6260485,167.947644 L72.6260485,134.766814 L98.2909699,168.190093 L95.4508572,168.190093 L95.4508572,172 L108.716262,172 L108.716262,168.086186 L103.001401,168.086186 L72.4182353,128.15143 L72.4182353,115.959726 C95.7749709,115.395846 114.419133,96.3059464 114.431123,72.9424084 C114.377032,65.4157244 112.410497,58.026321 108.716262,51.468385 L105.25271,53.5465163 C108.643362,59.5608854 110.42114,66.3498468 110.413402,73.2541281 C110.335014,91.7706147 97.3239308,107.712643 79.1988057,111.500289 C61.0736806,115.287934 42.7673304,105.890377 35.280453,88.9548202 C27.7935756,72.0192633 33.1637511,52.1547785 48.1639202,41.2983818 C63.1640893,30.4419851 83.7119029,31.5482833 97.4597174,43.9524768 L91.2253235,50.1868707 C80.4242849,40.7212199 64.480873,40.0799007 52.9544545,48.6474358 C41.428036,57.2149709 37.4463728,72.666509 43.3967943,85.7376017 C49.3472159,98.8086944 63.6150402,105.952423 77.645551,102.885544 C91.6760619,99.8186656 101.661997,87.3733946 101.61598,73.0116794 C101.635213,68.9147995 100.846655,64.8543111 99.2954001,61.0624245 L95.6586703,62.621023 C96.9884767,65.926113 97.6931267,69.4493631 97.7368016,73.0116794 C97.7368016,87.7790129 85.7655125,99.7503021 70.998179,99.7503021 C56.2308455,99.7503021 44.2595563,87.7790129 44.2595563,73.0116794 C44.2595563,58.2443459 56.2308455,46.2730568 70.998179,46.2730568 C77.3708015,46.2638831 83.5280451,48.5790067 88.3159397,52.7845348 L82.6010787,58.7418445 C79.3683458,56.1649236 75.3395484,54.7934181 71.2059921,54.8626661 C61.1825688,54.8626661 53.0569788,62.9882562 53.0569788,73.0116794 C53.0569788,83.0351027 61.1825688,91.1606927 71.2059921,91.1606927 C81.2294154,91.1606927 89.3550054,83.0351027 89.3550054,73.0116794 L89.3550054,71.9726138 L85.475827,72.2150624 L85.475827,73.0116794 C85.475827,80.8926916 79.0870043,87.2815143 71.2059921,87.2815143 C63.3249799,87.2815143 56.9361572,80.8926916 56.9361572,73.0116794 C56.9361572,65.1306672 63.3249799,58.7418445 71.2059921,58.7418445 C74.2833264,58.7775682 77.273254,59.7701757 79.7609659,61.5819573 L70.201562,71.5569875 L72.7992261,74.2931937 Z" id="Shape"></path>
                </g>
            </g>
        </g>
    </g>
</svg>