<?xml version="1.0" encoding="UTF-8"?>
<svg width="153px" height="172px" viewBox="0 0 153 172" version="1.1" xmlns="http://www.w3.org/2000/svg" xmlns:xlink="http://www.w3.org/1999/xlink">
    <!-- Generator: Sketch 55.2 (78181) - https://sketchapp.com -->
    <title>Shape</title>
    <desc>Created with Sketch.</desc>
    <g id="Diseño" stroke="none" stroke-width="1" fill="none" fill-rule="evenodd">
        <g id="4-Su-Banquero_desktop" transform="translate(-554.000000, -2982.000000)" fill="#D34A46" fill-rule="nonzero">
            <g id="Group-2" transform="translate(512.000000, 2770.000000)">
                <g id="Icon" transform="translate(32.000000, 212.000000)">
                    <path d="M145.707937,132.816699 C141.006495,132.780854 136.701957,130.174068 134.491841,126.024342 C133.454912,124.198508 132.914478,122.132848 132.92424,120.033135 C132.92424,112.972968 138.64777,107.249572 145.707937,107.249572 C152.768105,107.249572 158.491501,112.972968 158.491501,120.033135 C158.491501,127.093302 152.768105,132.816699 145.707937,132.816699 L145.707937,132.816699 Z M99.5547445,144.032795 L99.5547445,144.032795 C96.7771318,140.378716 92.6220412,138.024165 88.0599871,137.5191 L88.0599871,118.744329 C96.2307799,118.20919 103.946018,114.789796 109.830361,109.095699 C111.437115,107.536116 112.84143,105.780722 114.010273,103.87081 L130.172598,113.240779 C129.134128,115.35402 128.597702,117.678532 128.605132,120.033135 C128.633542,122.189379 129.083186,124.319274 129.92877,126.303003 L99.5547445,144.032795 Z M86.248692,166.987531 C79.1964671,166.96834 73.4842661,161.256139 73.4651284,154.203914 C73.3840487,151.974182 74.0187798,149.777036 75.2764235,147.934046 C77.5964782,144.084693 81.75429,141.722 86.248692,141.699011 C90.8286296,141.643275 95.0533667,144.159281 97.1861278,148.212707 C98.3103838,150.105211 98.9449064,152.248221 99.0322556,154.447742 C98.9179613,161.4205 93.2223576,167.007468 86.248692,166.987531 L86.248692,166.987531 Z M42.1854551,126.303003 C42.9796309,124.304862 43.4158891,122.182525 43.4742612,120.033135 C43.4816904,117.678532 42.9452645,115.35402 41.9067943,113.240779 L58.3477807,103.87081 C64.211775,112.701912 73.8595677,118.292222 84.4373969,118.988157 L84.4373969,137.762928 C79.6126158,138.28015 75.2889228,140.974439 72.6988112,145.077773 C72.7183982,144.880976 72.8043904,144.696707 72.9426394,144.555284 L42.1854551,126.303003 Z M38.0055433,126.303003 C35.7557281,130.37805 31.4438419,132.882158 26.7894466,132.816699 C19.7292794,132.816699 14.005883,127.093302 14.005883,120.033135 C14.005883,112.972968 19.7292794,107.249572 26.7894466,107.249572 C33.8496138,107.249572 39.5730102,112.972968 39.5730102,120.033135 C39.6089475,122.224335 39.0684055,124.386503 38.0055433,126.303003 L38.0055433,126.303003 Z M14.005883,50.9252602 C14.0250208,43.8730353 19.7372217,38.1608343 26.7894466,38.1416966 C31.4398054,38.0916046 35.744381,40.5914668 38.0055433,44.6553925 C39.0408069,46.5826704 39.5795237,48.7375379 39.5730686,50.9252602 C39.5730686,57.9854274 33.8496138,63.7088237 26.7894466,63.7088237 C19.7292794,63.7088237 14.005883,57.9854274 14.005883,50.9252602 L14.005883,50.9252602 Z M72.9426394,26.5424413 C72.6988112,26.2637805 72.6988112,26.0199524 72.4201504,25.7412916 C75.0764641,29.909522 79.5147861,32.6111093 84.4373969,33.0561372 L84.4373969,51.8309077 C76.2140618,52.318348 68.4391106,55.7422931 62.5276925,61.4795374 C60.9130013,63.0318926 59.5078291,64.7883578 58.3477807,66.7044272 L42.1854551,57.2996256 C43.9040679,53.1272052 43.9040679,48.4446544 42.1854551,44.2722339 L72.9426394,26.5424413 Z M86.248692,3.83158722 C93.3009169,3.85072498 99.0131178,9.56292592 99.0322556,16.6151508 C99.118242,18.8506521 98.4698277,21.0528138 97.1861278,22.8850185 C94.891012,26.747301 90.7413475,29.1260896 86.248692,29.1548862 C81.6530088,29.2009708 77.4174707,26.6730941 75.2764235,22.6063577 C74.1788418,20.7044236 73.5574194,18.5652965 73.4651284,16.3713226 C73.4833847,13.0088 74.8439301,9.79285095 77.2444103,7.43815645 C79.6448905,5.08346196 82.8864413,3.7850933 86.248692,3.83158722 L86.248692,3.83158722 Z M130.311929,44.2722339 C129.493662,46.3481626 129.057052,48.5548113 129.023123,50.7859298 C129.031028,53.0197212 129.46858,55.2311358 130.311929,57.2996256 L114.149603,66.7044272 C108.285609,57.8733249 98.6378163,52.2830151 88.0599871,51.5870795 L88.0599871,32.7774764 C92.6081516,32.2298283 96.747739,29.8840621 99.5547445,26.2637805 L130.311929,44.2722339 Z M134.735669,44.5160621 C137.021505,40.5944006 141.170554,38.1313145 145.707937,38.0023662 C152.768105,38.0023662 158.491501,43.7257625 158.491501,50.7859298 C158.491501,57.846097 152.768105,63.5694933 145.707937,63.5694933 C138.64777,63.5694933 132.924374,57.846097 132.924374,50.7859298 C132.843294,48.5561977 133.478025,46.3590518 134.735669,44.5160621 L134.735669,44.5160621 Z M97.9872776,108.57321 C99.3586125,105.112572 100.40803,101.532892 101.122211,97.8796027 L113.104625,97.8796027 C111.660335,100.952157 109.7184,103.76502 107.357247,106.204594 C103.890737,109.614254 99.6996757,112.197948 95.0961719,113.763268 C95.8973217,112.230633 96.9422997,110.663166 97.9872776,108.57321 L97.9872776,108.57321 Z M59.3927587,97.8796027 L71.5145029,97.8796027 C72.4490206,103.56037 74.5867088,108.975847 77.7843706,113.763268 C69.7267527,111.290064 63.0944333,105.518428 59.5320891,97.8796027 L59.3927587,97.8796027 Z M71.5145029,72.8349645 L59.5320891,72.8349645 C60.9848022,69.765288 62.9126807,66.9440025 65.2446352,64.4751409 C68.7693253,61.0011081 73.0664278,58.4109102 77.7843706,56.9164671 C74.4962101,61.668875 72.3504588,67.1166992 71.5145029,72.8349645 L71.5145029,72.8349645 Z M113.313621,72.8349645 L101.122211,72.8349645 C100.164944,67.1496988 98.0292732,61.7274676 94.8523438,56.9164671 C102.905799,59.4170659 109.53229,65.1962765 113.104625,72.8349645 L113.313621,72.8349645 Z M101.6447,76.7013829 L114.672092,76.7013829 C115.472187,79.5014139 115.905409,82.3934636 115.960898,85.3050347 C115.933246,88.2188791 115.499469,91.1146389 114.672092,93.9086865 L101.6447,93.9086865 C101.888529,91.0524134 102.167189,88.1961404 102.167189,85.3050347 C102.167189,82.413929 101.888529,79.3138278 101.6447,76.7013829 L101.6447,76.7013829 Z M86.248692,55.8018239 L86.248692,55.8018239 C90.4286038,55.8018239 94.8523438,62.3155198 96.9422997,72.7304667 L75.5550843,72.7304667 C77.6450402,62.5941806 82.0687802,55.8018239 86.248692,55.8018239 L86.248692,55.8018239 Z M56.501653,85.5140303 C56.5308535,82.5977428 56.97657,79.7005858 57.8252917,76.9103785 L70.8526835,76.9103785 C70.6088553,79.8014842 70.3301945,82.6577572 70.3301945,85.5140303 C70.3301945,88.3703034 70.6088553,91.5400698 70.8526835,94.1176821 L57.8252917,94.1176821 C56.9529077,91.3329165 56.5066497,88.4322401 56.501653,85.5140303 L56.501653,85.5140303 Z M74.7539345,94.1176821 C74.5101063,91.5400698 74.2662781,88.6489641 74.2662781,85.5140303 C74.2662781,82.3790964 74.5101063,79.5228234 74.7539345,76.9103785 L97.4647886,76.9103785 C97.7086168,79.5228234 97.9872776,82.413929 97.9872776,85.5140303 C97.9872776,88.6141315 97.7086168,91.5400698 97.4647886,94.1176821 L74.7539345,94.1176821 Z M86.248692,115.261069 L86.248692,115.261069 C82.0687802,115.261069 77.6450402,108.747373 75.5550843,98.2975939 L96.9422997,98.2975939 C96.389416,101.421796 95.513915,104.480213 94.3298548,107.423735 C91.9960707,112.126135 89.104965,115.261069 86.248692,115.261069 L86.248692,115.261069 Z M28.8794025,103.766312 L28.8794025,103.766312 L28.6007417,67.7842377 L28.8794025,67.7842377 C33.3172956,67.1380568 37.3348802,64.8048633 40.0954992,61.2705419 L56.2578248,70.6753434 C51.3787572,80.1630624 51.3787572,91.4223198 56.2578248,100.910039 L39.8168384,110.31484 C37.2664478,106.677782 33.2897573,104.296834 28.8794025,103.766312 L28.8794025,103.766312 Z M132.680546,110.03618 L116.239559,100.666211 C121.113251,91.1649022 121.113251,79.897991 116.239559,70.3966826 L132.401885,61.0267137 C135.078706,64.6558439 139.139271,67.0139977 143.617981,67.5404096 L143.617981,103.522484 C139.307497,104.307801 135.424436,106.620324 132.680546,110.03618 L132.680546,110.03618 Z M145.707937,103.522484 L147.797893,103.522484 L147.797893,67.3662466 C156.554037,66.3795754 163.017139,58.7289547 162.526825,49.9310477 C162.03651,41.1331407 154.763321,34.2480546 145.951765,34.2404456 C140.568214,34.2093699 135.509055,36.8104796 132.401885,41.2069652 L132.401885,40.963137 L101.6447,23.1985119 C102.469706,21.1245662 102.906563,18.9166671 102.933507,16.684816 C102.933507,10.7239055 99.7533995,5.21579691 94.5910997,2.23534153 C89.4287999,-0.745113844 83.0685841,-0.745113844 77.9062843,2.23534153 C72.7439845,5.21579691 69.5638769,10.7239055 69.5638774,16.684816 C69.5526527,19.0398435 70.0892764,21.3652127 71.1313443,23.4771727 L40.3393274,41.2069652 C40.3393274,41.485626 40.6179882,41.7294542 40.6179882,42.008115 C37.5046573,37.3759048 32.2657737,34.6254909 26.6849488,34.6932693 C17.4939064,34.7502992 10.0571641,42.1870415 10.0000669,51.3780839 C9.97608881,59.8613089 16.3975425,66.976159 24.8388211,67.8190703 L24.8388211,103.87081 C16.1289006,104.99075 9.76156932,112.645763 10.2466587,121.413982 C10.7317481,130.182202 17.9046424,137.088121 26.6849488,137.240439 C32.0685006,137.271515 37.127659,134.670405 40.2348296,130.273919 L71.0268465,148.003712 C70.181349,150.072813 69.7323393,152.282414 69.7032078,154.517408 C69.4223217,160.666504 72.5428905,166.472611 77.8262715,169.631119 C83.1096524,172.789627 89.7012249,172.789627 94.9846059,169.631119 C100.267987,166.472611 103.388556,160.666504 103.10767,154.517408 C103.078538,152.282414 102.629528,150.072813 101.784031,148.003712 L132.576048,130.273919 C135.679199,134.675029 140.740954,137.277474 146.125928,137.240439 C155.316971,137.183409 162.753713,129.746667 162.810743,120.555624 C162.555193,111.160181 154.998883,103.603871 145.60344,103.348321 L145.707937,103.522484 Z" id="Shape"></path>
                </g>
            </g>
        </g>
    </g>
</svg>