<svg id="Capa_1" data-name="Capa 1" xmlns="http://www.w3.org/2000/svg" viewBox="0 0 72 72"><defs><style>.cls-1{fill:#ca3625;}</style></defs><title>hablemos</title><path class="cls-1" d="M66.43,49.9h-6.1a.84.84,0,0,0-.79.69V57l-5.9-6.89a.6.6,0,0,0-.59-.3H25.59V43.9H56.78a.77.77,0,0,0,.79-.79V24.91h8.95v25ZM19.79,42.42a.84.84,0,0,0-.59.3l-6.79,7.67V43.21a.7.7,0,0,0-.79-.69H4.93V14.78H56V42.42Zm47.32-19H57.47V14.09a.78.78,0,0,0-.78-.79H4.15a.78.78,0,0,0-.79.79V43.21a.77.77,0,0,0,.79.79h6.69v8.36a.73.73,0,0,0,.49.69h.29a.85.85,0,0,0,.59-.29l7.87-8.86h4v6.79a.78.78,0,0,0,.79.79H52.75l7,8.06a.68.68,0,0,0,.59.3h.29a.73.73,0,0,0,.49-.69V51.48h6.1a.78.78,0,0,0,.79-.79V24.12a.94.94,0,0,0-.89-.68"/><rect class="cls-1" x="10.64" y="20.78" width="39.75" height="1.48"/><rect class="cls-1" x="10.64" y="27.67" width="34.83" height="1.48"/><rect class="cls-1" x="10.64" y="34.55" width="27.16" height="1.48"/></svg>