<?xml version="1.0" encoding="UTF-8"?>
<svg width="95px" height="119px" viewBox="0 0 95 119" version="1.1" xmlns="http://www.w3.org/2000/svg" xmlns:xlink="http://www.w3.org/1999/xlink">
    <!-- Generator: Sketch 55.2 (78181) - https://sketchapp.com -->
    <title>honestidad</title>
    <desc>Created with Sketch.</desc>
    <g id="Page-1" stroke="none" stroke-width="1" fill="none" fill-rule="evenodd">
        <g id="honestidad" fill="#CA3625" fill-rule="nonzero">
            <path d="M91.4507463,47.319403 C88.0131751,43.899481 82.4584667,43.899481 79.0208955,47.319403 L62.4537313,63.9044776 L62.4537313,21.4925373 C62.4462895,18.3295016 60.7441392,15.4130943 57.9937565,13.8509658 C55.2433739,12.2888373 51.8667283,12.3206526 49.1462687,13.9343284 L47.8029851,14.7402985 L47.8029851,8.54328358 C47.5905941,3.83581555 43.7122569,0.128515287 39,0.128515287 C34.2877431,0.128515287 30.4094059,3.83581555 30.1970149,8.54328358 L30.1970149,14.6865672 L28.8537313,13.880597 C26.1250074,12.262001 22.7368327,12.2352319 19.9828748,13.8105106 C17.2289169,15.3857894 15.5343796,18.3198971 15.5462687,21.4925373 L15.5462687,33.3134328 L14.2029851,32.4895522 C11.4825254,30.8758765 8.10587987,30.8440611 5.3554972,32.4061897 C2.60511454,33.9683182 0.902964254,36.8847255 0.895522388,40.0477612 L0.895522388,62.7940299 C0.895522388,63.6051466 1.5530624,64.2626866 2.3641791,64.2626866 C3.17529581,64.2626866 3.83283582,63.6051466 3.83283582,62.7940299 L3.83283582,40.0477612 C3.83283592,36.8131861 6.45497715,34.191045 9.68955224,34.191045 C12.9241273,34.191045 15.5462686,36.8131861 15.5462687,40.0477612 L15.5462687,60.7522388 C15.5462687,61.5633555 16.2038087,62.2208955 17.0149254,62.2208955 C17.8260421,62.2208955 18.4835821,61.5633555 18.4835821,60.7522388 L18.4835821,21.4925373 C18.4835821,18.2579622 21.1057233,15.6358209 24.3402985,15.6358209 C27.5748737,15.6358209 30.1970149,18.2579622 30.1970149,21.4925373 L30.1970149,60.8955224 C30.1765143,61.288861 30.3344265,61.6704821 30.6268657,61.9343284 C30.9319776,62.1632026 31.3021873,62.2886974 31.6835821,62.2925373 C32.0647227,62.312403 32.4370541,62.173433 32.7119701,61.9086991 C32.9868861,61.6439652 33.1398023,61.2771411 33.1343284,60.8955224 L33.1343284,8.54328358 C33.3064524,5.42954938 35.881512,2.99290508 39,2.99290508 C42.118488,2.99290508 44.6935476,5.42954938 44.8656716,8.54328358 L44.8656716,60.7522388 C44.845599,61.1419015 44.9959459,61.5210371 45.2776119,61.7910448 C45.5827239,62.019919 45.9529336,62.1454138 46.3343284,62.1492537 C46.7170892,62.1689087 47.0911154,62.0304471 47.3688133,61.7662955 C47.6465111,61.5021439 47.8034894,61.1355036 47.8029851,60.7522388 L47.8029851,21.4925373 C47.8029851,18.2579622 50.4251263,15.6358209 53.6597015,15.6358209 C56.8942767,15.6358209 59.5164179,18.2579622 59.5164179,21.4925373 L59.5164179,67.4507463 C59.5331342,68.0392828 59.8997123,68.5609517 60.4477612,68.7761194 C60.9824504,69.0106423 61.6059636,68.8972763 62.0238806,68.4895522 L81.0985075,49.3970149 C83.4155849,47.1909025 87.0560569,47.1909025 89.3731343,49.3970149 C90.4745098,50.4957619 91.0934775,51.987561 91.0934775,53.5432836 C91.0934775,55.0990062 90.4745098,56.5908053 89.3731343,57.6895522 L89.1940299,57.8686567 C79.8425345,67.2501343 72.5633518,78.4892412 67.8268657,90.8597015 C65.5820087,97.111532 61.9012317,102.749255 57.080597,107.319403 C51.0717465,112.651733 43.2607533,115.500825 35.2298507,115.289552 C26.9075944,115.294304 18.9243086,111.992856 13.0362258,106.111491 C7.14814307,100.230126 3.83758461,92.2506146 3.83283582,83.9283582 L3.83283582,81.761194 C3.83283582,80.9500773 3.17529581,80.2925373 2.3641791,80.2925373 C1.5530624,80.2925373 0.895522388,80.9500773 0.895522388,81.761194 L0.895522388,83.9283582 C0.925132435,102.855722 16.2666534,118.189232 35.1940299,118.208955 C43.9517463,118.432168 52.4647818,115.306238 58.9970149,109.468657 C64.1831,104.611494 68.1476055,98.5972291 70.5671642,91.9164179 C75.1732693,79.9203111 82.2519869,69.0276291 91.3432836,59.9462687 L91.5402985,59.7671642 C93.1929045,58.1175135 94.1215777,55.8783326 94.1215777,53.5432836 C94.1215777,51.2082346 93.1929045,48.9690537 91.5402985,47.319403 L91.4507463,47.319403 Z" id="Path"></path>
        </g>
    </g>
</svg>