<?xml version="1.0" encoding="UTF-8"?>
<svg width="119px" height="116px" viewBox="0 0 119 116" version="1.1" xmlns="http://www.w3.org/2000/svg" xmlns:xlink="http://www.w3.org/1999/xlink">
    <!-- Generator: Sketch 55.2 (78181) - https://sketchapp.com -->
    <title>independencia</title>
    <desc>Created with Sketch.</desc>
    <g id="Page-1" stroke="none" stroke-width="1" fill="none" fill-rule="evenodd">
        <g id="independencia" fill="#CA3625" fill-rule="nonzero">
            <path d="M59.5741935,2.80645161 C63.8499465,2.80645161 67.316129,6.27263419 67.316129,10.5483871 C67.316129,14.82414 63.8499465,18.2903226 59.5741935,18.2903226 C55.2984406,18.2903226 51.8322581,14.82414 51.8322581,10.5483871 C51.8322581,6.27263419 55.2984406,2.80645161 59.5741935,2.80645161 M58.0645161,20.9225806 L58.0645161,32.0322581 L60.7548387,32.0322581 L60.7548387,20.9225806 C66.3208218,20.2885318 70.3924123,15.37171 69.9777197,9.7850996 C69.5630272,4.19848916 64.8101115,-0.0632918679 59.2115153,0.131402923 C53.612919,0.326097714 49.1675396,4.90775538 49.1419355,10.5096774 C49.0361931,15.7443225 52.8754961,20.2248974 58.0645161,20.9225806" id="Shape"></path>
            <path d="M107.651613,65.8064516 C103.37586,65.8064516 99.9096774,62.340269 99.9096774,58.0645161 C99.9096774,53.7887632 103.37586,50.3225806 107.651613,50.3225806 C111.927366,50.3225806 115.393548,53.7887632 115.393548,58.0645161 C115.447324,60.1338223 114.648939,62.1344133 113.185225,63.5981278 C111.72151,65.0618422 109.720919,65.8602273 107.651613,65.8064516 M107.651613,47.6903226 C102.372134,47.6788598 97.9131001,51.6064634 97.2580645,56.8451613 L78.0580645,56.8451613 L78.0580645,59.5354839 L97.2580645,59.5354839 C97.998811,64.9597301 102.799714,68.8932339 108.263704,68.5526876 C113.727693,68.2121413 118.003025,63.7129559 118.064516,58.2387097 C118.127303,55.4423166 117.056118,52.7394666 115.094744,50.7452823 C113.133371,48.7510979 110.448663,47.6352235 107.651613,47.6514349" id="Shape"></path>
            <path d="M11.1290323,65.5935484 C6.85327936,65.5935484 3.38709677,62.1273658 3.38709677,57.8516129 C3.38709677,53.57586 6.85327936,50.1096774 11.1290323,50.1096774 C15.4047852,50.1096774 18.8709677,53.57586 18.8709677,57.8516129 C18.8709677,62.1273658 15.4047852,65.5935484 11.1290323,65.5935484 M11.1290323,47.2838366 C5.54320121,47.3211019 0.9818126,51.7591974 0.791572516,57.3419121 C0.601332432,62.9246268 4.85001999,67.6629401 10.4203589,68.0803356 C15.9906978,68.4977311 20.8980768,64.4454984 21.5419355,58.8967742 L40.7419355,58.8967742 L40.7419355,56.2645161 L21.2903226,56.2645161 C20.6272113,51.119065 16.2395997,47.2705739 11.0516129,47.2838366" id="Shape"></path>
            <path d="M18.6774194,20.7483871 C20.1365727,19.2493071 22.1402815,18.4045378 24.2322581,18.4064516 C26.3320216,18.3649713 28.3508345,19.2161084 29.7870968,20.7483871 C32.8016772,23.7702773 32.8016772,28.6619808 29.7870968,31.683871 C28.317274,33.1648458 26.3187933,34.0004475 24.2322581,34.0064516 C22.1363784,34.0480683 20.119909,33.2049452 18.6774194,31.683871 C17.2209484,30.2671318 16.3798117,28.3346028 16.3354839,26.3032258 C16.3487356,24.2143369 17.1911378,22.2162425 18.6774194,20.7483871 M24.0580645,36.7741935 C26.3337945,36.8039243 28.5496237,36.0447976 30.3290323,34.6258065 L44.6903226,48.9870968 L46.6258065,47.0516129 L32.2645161,32.6903226 C35.4622504,28.606741 35.0788201,22.7719333 31.3741935,19.1419355 C29.4211563,17.1935024 26.7780922,16.0945442 24.0193548,16.083826 C19.8036103,16.0715142 15.9979908,18.606922 14.3855866,22.5021509 C12.7731825,26.3973798 13.6734262,30.8807484 16.6645161,33.8516129 C18.6478255,35.7617087 21.3047838,36.8119723 24.0580645,36.7741935" id="Shape"></path>
            <path d="M89.3612903,20.7483871 C90.8016611,19.2684333 92.7736247,18.4252969 94.8387097,18.4064516 C96.9384732,18.3649713 98.9572861,19.2161084 100.393548,20.7483871 C103.408129,23.7702773 103.408129,28.6619808 100.393548,31.683871 C98.9237256,33.1648458 96.9252449,34.0004475 94.8387097,34.0064516 C92.74283,34.0480683 90.7263607,33.2049452 89.283871,31.683871 C86.2692906,28.6619808 86.2692906,23.7702773 89.283871,20.7483871 L89.3612903,20.7483871 Z M73.8,49.2580645 L88.5096774,34.5483871 C90.2939677,36.0079484 92.5335951,36.795585 94.8387097,36.7741935 C97.6014898,36.8033336 100.257017,35.7061816 102.193548,33.7354839 C104.170194,31.7987744 105.284082,29.1479493 105.284082,26.3806452 C105.284082,23.613341 104.170194,20.9625159 102.193548,19.0258065 C100.253178,17.0489551 97.6085484,15.9215078 94.8387097,15.8900054 C92.073522,15.868511 89.4184251,16.9724724 87.483871,18.9483871 C83.8626259,22.6162687 83.4834362,28.3865462 86.5935484,32.4967742 L71.883871,47.2064516 L73.8,49.2580645 Z" id="Shape"></path>
            <path d="M71.9612903,79.3548387 L69.7935484,79.3548387 L69.4451613,66.7935484 L66.7548387,66.7935484 L68.0129032,112.354839 L64.4129032,112.354839 L60.8322581,82.9354839 L59.4,83.1096774 L58.0645161,82.9935484 L54.4645161,112.412903 L50.7870968,112.412903 L52.0451613,66.8516129 L49.3548387,66.8516129 L48.9870968,79.3548387 L46.8386112,79.3548387 L46.8386112,58.4129032 C46.8197788,54.8172379 49.5328931,51.7942925 53.1096774,51.4258065 L57.2516129,59.1677419 L61.1225806,59.1677419 L65.2451613,51.4258065 C68.8602941,51.7474996 71.627188,54.7835138 71.6129032,58.4129032 L71.6129032,79.3548387 L71.9612903,79.3548387 Z M64.9548387,48.716129 L64.2387097,48.716129 L60.116129,56.4580645 L59.4,56.4580645 L54.9096774,48.716129 L54.1935484,48.716129 C48.8488573,48.716129 44.516129,53.0488573 44.516129,58.3935484 L44.516129,81.9096774 L49.1612903,81.9096774 L48.2709677,115.103226 L57.0580645,115.103226 L59.5741935,93.9290323 L62.0903226,115.219355 L70.8774194,115.219355 L69.9870968,82.0451613 L74.6516129,82.0451613 L74.6516129,58.4129032 C74.5387584,53.1156621 70.2714347,48.8483384 64.9741935,48.7354839 L64.9548387,48.716129 Z" id="Shape"></path>
            <path d="M63.5225806,41.3612903 C63.5225806,43.4991668 61.7894894,45.2322581 59.6516129,45.2322581 C57.5137365,45.2322581 55.7806452,43.4991668 55.7806452,41.3612903 C55.7806452,39.2234139 57.5137365,37.4903226 59.6516129,37.4903226 C61.7638464,37.550998 63.4619052,39.2490569 63.5225806,41.3612903 M52.9354555,41.3612903 C52.9354555,45.0277484 55.9077354,48 59.5741935,48 C63.2406517,48 66.2129032,45.0277484 66.2129032,41.3612903 C66.2129032,37.6948322 63.2406517,34.7225522 59.5741935,34.7225522 C57.8119213,34.7174202 56.1203396,35.4151964 54.8742196,36.6613164 C53.6280997,37.9074364 52.9303235,39.5990181 52.9354555,41.3612903" id="Shape"></path>
        </g>
    </g>
</svg>