<?xml version="1.0" encoding="UTF-8"?>
<svg width="24px" height="24px" viewBox="0 0 24 24" version="1.1" xmlns="http://www.w3.org/2000/svg" xmlns:xlink="http://www.w3.org/1999/xlink">
    <!-- Generator: Sketch 55.1 (78136) - https://sketchapp.com -->
    <title>Clip 2</title>
    <desc>Created with Sketch.</desc>
    <g id="Page-1" stroke="none" stroke-width="1" fill="none" fill-rule="evenodd">
        <g id="Artboard" fill="#FFFFFF">
            <path d="M7.05088277,0.0699963544 C5.77469923,0.12999323 4.90224467,0.328732878 4.13853445,0.623717515 L4.13853445,0.623717515 C3.35107546,0.92620176 2.68111036,1.3324306 2.01364512,1.99239623 L2.01364512,1.99239623 C1.34617989,2.65236186 0.93620124,3.31607729 0.629967189,4.09603666 L0.629967189,4.09603666 C0.333732618,4.85224728 0.131243164,5.71595229 0.0724962242,6.97838654 L0.0724962242,6.97838654 C0.0137492839,8.24582053 0,8.6495495 0,11.8743815 L0,11.8743815 C0,15.0992136 0.0137492839,15.5029426 0.0724962242,16.7703765 L0.0724962242,16.7703765 C0.131243164,18.0328108 0.333732618,18.8965158 0.629967189,19.6527264 L0.629967189,19.6527264 C0.93620124,20.4339357 1.34617989,21.0951513 2.01364512,21.7563669 L2.01364512,21.7563669 C2.68111036,22.4163325 3.35107546,22.8225613 4.13853445,23.1250456 L4.13853445,23.1250456 C4.90224467,23.4200302 5.77469923,23.6200198 7.05088277,23.6775168 L7.05088277,23.6775168 C8.33206604,23.7362637 8.74079475,23.7487631 11.9981251,23.7487631 L11.9981251,23.7487631 C15.2579553,23.7487631 15.666684,23.7362637 16.9466174,23.6775168 L16.9466174,23.6775168 C18.2240508,23.6200198 19.0965054,23.4200302 19.8602156,23.1250456 L19.8602156,23.1250456 C20.6489245,22.8225613 21.3176397,22.4163325 21.9851049,21.7563669 L21.9851049,21.7563669 C22.6513202,21.0951513 23.0612989,20.4339357 23.3700328,19.6527264 L23.3700328,19.6527264 C23.6650174,18.8965158 23.8675069,18.0328108 23.9250039,16.7703765 L23.9250039,16.7703765 C23.9850008,15.5029426 24,15.0992136 24,11.8743815 L24,11.8743815 C24,8.6495495 23.9850008,8.24582053 23.9250039,6.97838654 L23.9250039,6.97838654 C23.8675069,5.71595229 23.6650174,4.85224728 23.3700328,4.09603666 L23.3700328,4.09603666 C23.0612989,3.31607729 22.6513202,2.65236186 21.9851049,1.99239623 L21.9851049,1.99239623 C21.3176397,1.3324306 20.6489245,0.92620176 19.8602156,0.623717515 L19.8602156,0.623717515 C19.0965054,0.328732878 18.2240508,0.12999323 16.9466174,0.0699963544 L16.9466174,0.0699963544 C15.666684,0.012499349 15.2579553,0 11.9981251,0 L11.9981251,0 C8.74079475,0 8.33206604,0.012499349 7.05088277,0.0699963544 L7.05088277,0.0699963544 Z M7.14962762,21.5401281 C5.98093849,21.4876309 5.34597156,21.2951409 4.92349357,21.1301495 L4.92349357,21.1301495 C4.3622728,20.9151607 3.96229363,20.6576741 3.5423155,20.2426957 L3.5423155,20.2426957 C3.12233738,19.8264674 2.86360085,19.4314879 2.64486225,18.8777668 L2.64486225,18.8777668 C2.48112077,18.4602885 2.284881,17.8303213 2.23238373,16.6728816 L2.23238373,16.6728816 C2.17488672,15.4204469 2.16238738,15.0442164 2.16238738,11.8743815 L2.16238738,11.8743815 C2.16238738,8.7032967 2.17488672,8.32831623 2.23238373,7.07588146 L2.23238373,7.07588146 C2.284881,5.91844175 2.48112077,5.28847456 2.64486225,4.8709963 L2.64486225,4.8709963 C2.86360085,4.31727514 3.12233738,3.92229571 3.5423155,3.50606739 L3.5423155,3.50606739 C3.96229363,3.09108901 4.3622728,2.83360242 4.92349357,2.61736368 L4.92349357,2.61736368 C5.34597156,2.45487214 5.98093849,2.26238217 7.14962762,2.20738503 L7.14962762,2.20738503 C8.41706161,2.15113796 8.79454195,2.13988855 11.9981251,2.13988855 L11.9981251,2.13988855 C15.2042081,2.13988855 15.5829384,2.15113796 16.8478725,2.20738503 L16.8478725,2.20738503 C18.0178116,2.26238217 18.6540284,2.45487214 19.0752565,2.61736368 L19.0752565,2.61736368 C19.6377272,2.83360242 20.0352065,3.09108901 20.4564346,3.50606739 L20.4564346,3.50606739 C20.8751628,3.92229571 21.1351492,4.31727514 21.3538878,4.8709963 L21.3538878,4.8709963 C21.5176293,5.28847456 21.7126191,5.91844175 21.7663663,7.07588146 L21.7663663,7.07588146 C21.8238633,8.32831623 21.8363627,8.7032967 21.8363627,11.8743815 L21.8363627,11.8743815 C21.8363627,15.0442164 21.8238633,15.4204469 21.7663663,16.6728816 L21.7663663,16.6728816 C21.7126191,17.8303213 21.5176293,18.4602885 21.3538878,18.8777668 L21.3538878,18.8777668 C21.1351492,19.4314879 20.8751628,19.8264674 20.4564346,20.2426957 L20.4564346,20.2426957 C20.0352065,20.6576741 19.6377272,20.9151607 19.0752565,21.1301495 L19.0752565,21.1301495 C18.6540284,21.2951409 18.0178116,21.4876309 16.8478725,21.5401281 L16.8478725,21.5401281 C15.5829384,21.5976251 15.2042081,21.6088745 11.9981251,21.6088745 L11.9981251,21.6088745 C8.79454195,21.6088745 8.41456174,21.5976251 7.14962762,21.5401281 L7.14962762,21.5401281 Z M16.9641165,5.53471173 C16.9641165,6.32217072 17.6090829,6.96213739 18.4052914,6.96213739 L18.4052914,6.96213739 C19.1990001,6.96213739 19.8439665,6.32217072 19.8439665,5.53471173 L19.8439665,5.53471173 C19.8439665,4.74725275 19.1990001,4.11103588 18.4052914,4.11103588 L18.4052914,4.11103588 C17.6090829,4.11103588 16.9641165,4.74725275 16.9641165,5.53471173 L16.9641165,5.53471173 Z M5.83719598,11.8743815 C5.83719598,15.2429561 8.5958023,17.971564 11.9981251,17.971564 L11.9981251,17.971564 C15.4016978,17.971564 18.1615541,15.2429561 18.1615541,11.8743815 L18.1615541,11.8743815 C18.1615541,8.50580699 15.4016978,5.77594917 11.9981251,5.77594917 L11.9981251,5.77594917 C8.5958023,5.77594917 5.83719598,8.50580699 5.83719598,11.8743815 L5.83719598,11.8743815 Z M7.99833342,11.8743815 C7.99833342,9.6882454 9.79074007,7.91583772 11.9981251,7.91583772 L11.9981251,7.91583772 C14.20801,7.91583772 15.9991667,9.6882454 15.9991667,11.8743815 L15.9991667,11.8743815 C15.9991667,14.0605177 14.20801,15.8329254 11.9981251,15.8329254 L11.9981251,15.8329254 C9.79074007,15.8329254 7.99833342,14.0605177 7.99833342,11.8743815 L7.99833342,11.8743815 Z" id="Clip-2"></path>
        </g>
    </g>
</svg>