<?xml version="1.0" encoding="UTF-8"?>
<svg width="118px" height="116px" viewBox="0 0 118 116" version="1.1" xmlns="http://www.w3.org/2000/svg" xmlns:xlink="http://www.w3.org/1999/xlink">
    <!-- Generator: Sketch 55.2 (78181) - https://sketchapp.com -->
    <title>interlocutor unico</title>
    <desc>Created with Sketch.</desc>
    <g id="Page-1" stroke="none" stroke-width="1" fill="none" fill-rule="evenodd">
        <g id="interlocutor-unico" transform="translate(-1.000000, 0.000000)" fill="#CA3625" fill-rule="nonzero">
            <path d="M4.39354839,112.76129 C4.74193548,103.993548 5.82580645,95.3419355 5.82580645,95.0516129 C5.89007599,92.9251364 6.50350676,90.8514737 7.60645161,89.0322581 C8.81045874,87.0682107 10.63613,85.5627131 12.7935484,84.7548387 L21.0193548,81.8903226 L30.1548387,98.7096774 L36.7741935,98.7096774 L45.9096774,81.9096774 L54.1935484,84.6774194 C56.3369287,85.4190685 58.165508,86.8655566 59.3806452,88.7806452 L59.3806452,89.0322581 C60.5452245,90.9165751 61.1618231,93.0880745 61.1612903,95.3032258 C61.1612903,95.4774194 62.0516129,104.070968 62.5935484,112.83871 L4.39354839,112.76129 Z M61.8,88.2580645 C62.9262124,86.5990217 64.5540835,85.3442044 66.4451613,84.6774194 L74.6903226,81.8129032 L83.8064516,98.7096774 L90.4258065,98.7096774 L99.5419355,81.9096774 L107.767742,84.7741935 C109.949318,85.5294092 111.789046,87.0396341 112.954839,89.0322581 C114.125275,90.9149854 114.748537,93.0863487 114.754839,95.3032258 C114.754839,95.4774194 115.645161,104.070968 116.167742,112.83871 L65.0129032,112.83871 L65.0129032,112.645161 C64.6645161,103.703226 63.6,95.2258065 63.6,95.2258065 C63.5493059,92.7164741 62.8847851,90.2577472 61.6645161,88.0645161 C61.6645161,88.2387097 61.6645161,88.4322581 61.8387097,88.4322581 L61.8,88.2580645 Z M118.896774,115.529032 L118.896774,114 C118.548387,104.709677 117.464516,95.0516129 117.464516,95.0516129 C117.398268,92.4612621 116.657785,89.9329435 115.316129,87.716129 C113.82575,85.1485977 111.484003,83.1834475 108.696774,82.1612903 L98.1483871,78.6 L88.8580645,96.0193548 L85.4129032,96.0193548 L75.9290323,78.6 L65.5548387,82.1612903 C63.4711356,82.9244468 61.6229998,84.2188091 60.1935484,85.916129 C60.76375,86.3951904 61.1976685,87.0160277 61.4516129,87.716129 L61.4516129,87.5419355 C59.9505017,85.0223707 57.6053336,83.1160645 54.8322581,82.1612903 L44.516129,78.6 L35.0322581,96.0193548 L31.5870968,96.0193548 L22.2774194,78.6 L11.9032258,82.1612903 C9.11599732,83.1834475 6.77425035,85.1485977 5.28387097,87.716129 C3.97323253,89.8687876 3.23376179,92.3203663 3.13548387,94.8387097 C3.13548387,95.0322581 2.07096774,104.516129 1.70322581,113.980645 L1.70322581,115.412903 L118.896774,115.529032 Z" id="Shape"></path>
            <path d="M87.0967742,48.7161133 C91.9520748,48.7082979 96.3336469,51.6270337 98.1971187,56.1105008 C100.060591,60.593968 99.0387045,65.7585533 95.6082561,69.1945435 C92.1778078,72.6305338 87.0148787,73.6607553 82.5284094,71.8045231 C78.0419401,69.9482909 75.1161134,65.5714359 75.1161134,60.716129 C75.1109904,57.5353122 76.3709644,54.4830136 78.6183284,52.232019 C80.8656924,49.9810243 83.9159533,48.7161133 87.0967742,48.7161133 M87.0967742,75.1935484 C95.1993259,75.1935484 101.767742,68.6251324 101.767742,60.5225806 C101.767742,52.4200289 95.1993259,45.8516129 87.0967742,45.8516129 C78.9942224,45.8516129 72.4258065,52.4200289 72.4258065,60.5225806 C72.4576337,68.6119124 79.0074424,75.1617211 87.0967742,75.1935484" id="Shape"></path>
            <path d="M33.3677419,72.5032258 C26.7510143,72.5032258 21.3870968,67.1393083 21.3870968,60.5225806 C21.3870968,53.905853 26.7510143,48.5419355 33.3677419,48.5419355 C39.9844696,48.5419355 45.3483871,53.905853 45.3483871,60.5225806 C45.3483871,67.1393083 39.9844696,72.5032258 33.3677419,72.5032258 M33.3677419,46.0451613 C27.4321292,46.0451613 22.0813416,49.6217308 19.8116933,55.1062723 C17.5420449,60.5908138 18.8007822,66.9025743 23.0006637,71.096915 C27.2005452,75.2912558 33.5139619,76.5416596 38.9955023,74.2647729 C44.4770428,71.9878863 48.0465403,66.6323818 48.0387225,60.6967742 C47.9962917,52.6150019 41.4495632,46.0769102 33.3677419,46.0451613" id="Shape"></path>
            <path d="M84.5225806,31.2 L78.4451613,27.0967742 L76.8193548,29.2451613 L86.4967742,36.0387097 L93.2903226,26.3612903 L91.1419355,24.7548387 L87.0967742,30.6580645 C84.3849684,18.8009524 73.2617684,10.8237918 61.1612903,12.0580645 C49.1121374,13.1600958 39.6640168,22.8793364 38.9032258,34.9548387 L41.5935484,35.1290323 C42.2917571,24.4044514 50.6975637,15.7865501 61.4014208,14.8213691 C72.1052779,13.8561881 81.9171342,20.8313786 84.5225806,31.2580645" id="Path"></path>
            <path d="M34.4322581,31.3741935 L32.9032258,29.2258065 L27.0967742,33.6967742 C30.4177401,15.3205755 46.9403208,2.31978067 65.5820706,3.4146136 C84.2238203,4.50944652 99.110984,19.3549406 100.258065,37.9935484 L102.948387,37.8193548 C101.680993,17.7717587 85.6376275,1.83048347 65.5823493,0.691091131 C45.5270711,-0.448301211 27.7814353,13.5733333 24.2516129,33.3483871 L19.9548387,27.5419355 L17.8064516,29.1483871 L24.9677419,38.7096774 L34.4322581,31.3741935 Z" id="Path"></path>
        </g>
    </g>
</svg>