<?xml version="1.0" encoding="UTF-8"?><svg id="Capa_1" xmlns="http://www.w3.org/2000/svg" viewBox="0 0 24 22.94"><g id="Diseño"><g id="_1-Quienes-Somos_desplegable-bio_desktop"><g id="consejo-administrativo"><g id="desplegable-bio"><g id="icon-linkedin"><path id="_" d="M5.45,7.45v15.48H.3V7.45h5.16ZM5.78,2.67c.02,1.48-1.11,2.67-2.91,2.67h-.03c-1.73,0-2.84-1.19-2.84-2.67S1.16,0,2.91,0s2.86,1.16,2.88,2.67ZM13.44,9.65c.68-1.06,1.9-2.56,4.64-2.56,3.39,0,5.92,2.22,5.92,6.97v8.88h-5.14v-8.28c0-2.08-.75-3.5-2.61-3.5-1.42,0-2.27.95-2.64,1.88-.12.34-.17.8-.17,1.27v8.64h-5.14c.06-14.03,0-15.48,0-15.48h5.14v2.2Z" style="fill:#fff; stroke-width:0px;"/></g></g></g></g></g></svg>