<?xml version="1.0" encoding="UTF-8"?>
<svg width="24px" height="23px" viewBox="0 0 24 23" version="1.1" xmlns="http://www.w3.org/2000/svg" xmlns:xlink="http://www.w3.org/1999/xlink">
    <!-- Generator: Sketch 55.1 (78136) - https://sketchapp.com -->
    <title></title>
    <desc>Created with Sketch.</desc>
    <g id="Diseño" stroke="none" stroke-width="1" fill="none" fill-rule="evenodd">
        <g id="1-Quienes-Somos_desplegable-bio_desktop" transform="translate(-511.000000, -1918.000000)" fill="#000000" fill-rule="nonzero">
            <g id="consejo-administrativo" transform="translate(65.000000, 1316.000000)">
                <g id="desplegable-bio" transform="translate(0.000000, 88.000000)">
                    <g id="icon-linkedin" transform="translate(446.000000, 514.000000)">
                        <path d="M5.453125,7.453125 L5.453125,22.9375 L0.296875,22.9375 L0.296875,7.453125 L5.453125,7.453125 Z M5.78125,2.671875 C5.796875,4.15625 4.671875,5.34375 2.875,5.34375 L2.84375,5.34375 C1.109375,5.34375 0,4.15625 0,2.671875 C0,1.15625 1.15625,0 2.90625,0 C4.671875,0 5.765625,1.15625 5.78125,2.671875 Z M13.4375,9.65398701 C14.1158122,8.59361846 15.3394512,7.09375 18.078125,7.09375 C21.46875,7.09375 24,9.3125 24,14.0625 L24,22.9375 L18.859375,22.9375 L18.859375,14.65625 C18.859375,12.578125 18.109375,11.15625 16.25,11.15625 C14.828125,11.15625 13.984375,12.109375 13.609375,13.03125 C13.484375,13.375 13.4375,13.828125 13.4375,14.296875 L13.4375,22.9375 L8.296875,22.9375 C8.359375,8.90625 8.296875,7.453125 8.296875,7.453125 L13.4375,7.453125 L13.4375,9.65398701 Z" id=""></path>
                    </g>
                </g>
            </g>
        </g>
    </g>
</svg>