<?xml version="1.0" encoding="UTF-8"?>
<svg width="18px" height="24px" viewBox="0 0 18 24" version="1.1" xmlns="http://www.w3.org/2000/svg" xmlns:xlink="http://www.w3.org/1999/xlink">
    <!-- Generator: Sketch 55.2 (78181) - https://sketchapp.com -->
    <title></title>
    <desc>Created with Sketch.</desc>
    <g id="Diseño" stroke="none" stroke-width="1" fill="none" fill-rule="evenodd">
        <g id="6-Trabaja-con-nosotros_desktop" transform="translate(-100.000000, -1068.000000)" fill="#C63527">
            <g id="ofertas" transform="translate(65.000000, 816.000000)">
                <g transform="translate(0.000000, 140.000000)" id="Group-2">
                    <g>
                        <g id="Group-4" transform="translate(32.000000, 112.000000)">
                            <g id="Icon">
                                <path d="M12.09375,0 C13.5,0 14.757807,0.242185078 15.8671875,0.7265625 C16.976568,1.21093992 17.9101525,1.87108957 18.6679688,2.70703125 C19.425785,3.54297293 20.0039043,4.51561945 20.4023438,5.625 C20.8007832,6.73438055 21,7.90624383 21,9.140625 C21,10.3906313 20.7539087,11.6679622 20.2617188,12.9726562 C19.7695288,14.2773503 19.1484412,15.5585875 18.3984375,16.8164062 C17.6484338,18.074225 16.8359419,19.2656194 15.9609375,20.390625 C15.0859331,21.5156306 14.2656288,22.5156206 13.5,23.390625 C13.5,23.4062501 13.3828137,23.5117178 13.1484375,23.7070312 C12.9140613,23.9023447 12.6406266,24 12.328125,24 L12.2578125,24 C11.9296859,24 11.6523449,23.9023447 11.4257812,23.7070312 C11.1992176,23.5117178 11.0859375,23.4062501 11.0859375,23.390625 C10.2734334,22.4531203 9.39453598,21.429693 8.44921875,20.3203125 C7.50390152,19.210932 6.62891027,18.0429749 5.82421875,16.8164062 C5.01952723,15.5898376 4.34765895,14.3281315 3.80859375,13.03125 C3.26952855,11.7343685 3,10.4375065 3,9.140625 C3,7.90624383 3.24218508,6.73438055 3.7265625,5.625 C4.21093992,4.51561945 4.86718336,3.54297293 5.6953125,2.70703125 C6.52344164,1.87108957 7.48827574,1.21093992 8.58984375,0.7265625 C9.69141176,0.242185078 10.8593688,0 12.09375,0 Z M12.375,22.3828125 C13.5625059,21.0234307 14.601558,19.7265687 15.4921875,18.4921875 C16.382817,17.2578063 17.124997,16.0898493 17.71875,14.9882812 C18.312503,13.8867132 18.757811,12.8476611 19.0546875,11.8710938 C19.351564,10.8945264 19.5,9.98437922 19.5,9.140625 C19.5,8.18749523 19.3554702,7.25391082 19.0664062,6.33984375 C18.7773423,5.42577668 18.328128,4.60937859 17.71875,3.890625 C17.109372,3.17187141 16.3398484,2.59375219 15.4101562,2.15625 C14.4804641,1.71874781 13.3750064,1.5 12.09375,1.5 C11.0624948,1.5 10.0859421,1.70312297 9.1640625,2.109375 C8.24218289,2.51562703 7.43750344,3.06640277 6.75,3.76171875 C6.06249656,4.45703473 5.51562703,5.2695266 5.109375,6.19921875 C4.70312297,7.1289109 4.5,8.10936984 4.5,9.140625 C4.5,10.2500055 4.73437266,11.3749943 5.203125,12.515625 C5.67187734,13.6562557 6.26562141,14.7773382 6.984375,15.8789062 C7.70312859,16.9804743 8.4921832,18.0429636 9.3515625,19.0664062 C10.2109418,20.0898489 11.0234337,21.0468705 11.7890625,21.9375 L12.1875,22.3828125 L12.28125,22.4765625 C12.2968751,22.4609374 12.3164061,22.4453126 12.3398438,22.4296875 C12.3632814,22.4140624 12.375,22.3984376 12.375,22.3828125 Z M12.0234375,4.5234375 C13.2734438,4.5234375 14.3359331,4.96483934 15.2109375,5.84765625 C16.0859419,6.73047316 16.5234375,7.78905633 16.5234375,9.0234375 C16.5234375,10.2734438 16.0859419,11.3359331 15.2109375,12.2109375 C14.3359331,13.0859419 13.2734438,13.5234375 12.0234375,13.5234375 C10.7890563,13.5234375 9.73047316,13.0859419 8.84765625,12.2109375 C7.96483934,11.3359331 7.5234375,10.2734438 7.5234375,9.0234375 C7.5234375,7.78905633 7.96483934,6.73047316 8.84765625,5.84765625 C9.73047316,4.96483934 10.7890563,4.5234375 12.0234375,4.5234375 Z M12.0234375,12.0234375 C12.8515666,12.0234375 13.5546846,11.7265655 14.1328125,11.1328125 C14.7109404,10.5390595 15,9.82812914 15,9 C15,8.17187086 14.7070342,7.46484668 14.1210938,6.87890625 C13.5351533,6.29296582 12.8281291,6 12,6 C11.1718709,6 10.4648467,6.29296582 9.87890625,6.87890625 C9.29296582,7.46484668 9,8.17187086 9,9 C9,9.82812914 9.29687203,10.5390595 9.890625,11.1328125 C10.484378,11.7265655 11.1953084,12.0234375 12.0234375,12.0234375 Z" id=""></path>
                            </g>
                        </g>
                    </g>
                </g>
            </g>
        </g>
    </g>
</svg>