<?xml version="1.0" encoding="utf-8"?>
<!-- Generator: Adobe Illustrator 23.1.0, SVG Export Plug-In . SVG Version: 6.00 Build 0)  -->
<svg version="1.1" id="Capa_1" xmlns="http://www.w3.org/2000/svg" xmlns:xlink="http://www.w3.org/1999/xlink" x="0px" y="0px"
	 viewBox="0 0 36 43" style="enable-background:new 0 0 36 43;" xml:space="preserve">
<style type="text/css">
	.st0{fill-rule:evenodd;clip-rule:evenodd;fill:#1A171B;}
</style>
<g>
	<g transform="translate(-735 -824)">
		<path class="st0" d="M753,832.7l-0.9,5.4l-6.9,0c-5.3,0-7.3,2.7-7.6,4h13.8l-1.2,6.9h-3.1c-3.3,0-6.1,0.7-8.3,2.4
			c-2.1,1.6-3.4,3.8-3.8,6.3c-0.1,0.5-0.1,1-0.1,1.4v0.1c0,2,0.6,3.9,1.8,5.2c1.5,1.7,3.6,2.6,6.2,2.6h0.3c4.7-0.1,8.7-3.4,9.6-8.7
			l0.9-5.4h6.9c5.9,0,7.4-2.8,7.6-4h-13.8l1.2-6.9h3.2c3.3,0,6.1-0.8,8.3-2.4c2.1-1.6,3.4-3.8,3.8-6.3c0.4-2.6-0.2-5-1.7-6.7
			c-1.5-1.7-3.7-2.6-6.4-2.6C758,824,753.9,827.3,753,832.7L753,832.7z M757.1,833.5c0.6-3.4,3-5.5,5.8-5.5c2.7,0,4.2,1.9,3.8,4.8
			c-0.2,1.5-1.1,2.8-2.4,3.7c0,0-0.1,0.1-0.1,0.1c0,0,0,0,0,0c-1.3,0.9-3.2,1.5-5.3,1.5h0h-2.4L757.1,833.5L757.1,833.5z
			 M739.2,859.5c0-0.4,0-0.8,0.1-1.3c0-0.2,0.1-0.4,0.1-0.6c0-0.1,0-0.2,0.1-0.2l0,0c0.8-2.6,3.7-4.4,7.6-4.4h0.1h0h2.4h0l-0.1,0.5
			l-0.7,4c-0.1,0.8-0.4,1.6-0.7,2.2c-1.1,2.1-3,3.3-5.1,3.3C740.7,863,739.4,861.6,739.2,859.5L739.2,859.5z"/>
	</g>
</g>
</svg>
