<?xml version="1.0" encoding="UTF-8"?>
<svg version="1.1" viewBox="0 0 36 43" xmlns="http://www.w3.org/2000/svg">
<g fill="none" fill-rule="evenodd">
<g transform="translate(-735 -824)" fill="#CA3525">
<path d="m753 832.66-0.92599 5.4386-6.9165 0.006231c-5.291 0-7.3464 2.7027-7.5972 3.9765h13.838l-1.1592 6.8772h-3.0997c-3.2795 0-6.1291 0.73521-8.2771 2.3552-2.0764 1.5639-3.4106 3.8048-3.7601 6.3088-0.068267 0.48668-0.10206 0.96436-0.10341 1.4316v0.069921c0.006759 2.0326 0.63603 3.8512 1.827 5.2295 1.4674 1.694 3.6107 2.6085 6.2082 2.6445h0.31294c4.6935-0.070613 8.7219-3.4393 9.6033-8.6591l0.92396-5.4068h6.8868c5.9351 0 7.4079-2.819 7.6141-3.9737h-13.843l1.1659-6.8772h3.1538c3.2781 0 6.1352-0.77674 8.2853-2.3967 2.0737-1.5653 3.4093-3.8041 3.7574-6.3109 0.36702-2.6279-0.24468-5.0191-1.7236-6.7283-1.4958-1.7314-3.6986-2.6473-6.3684-2.6473-4.7564 0-8.9314 3.2911-9.8027 8.6619zm4.1365 0.83628c0.59953-3.3756 3.0341-5.5251 5.7871-5.5251 2.7232 0 4.2156 1.8851 3.7797 4.8121-0.21021 1.5064-1.0544 2.7996-2.3603 3.7342-0.037175 0.026306-0.075026 0.053998-0.11355 0.081689-0.013518 0.008308-0.028388 0.018-0.042582 0.028384-1.3478 0.91797-3.17 1.4711-5.3417 1.4711h-0.045961-2.4387l0.77594-4.6023zm-17.893 25.989c-0.029064-0.39391-0.012166-0.81759 0.050693-1.269 0.028388-0.2063 0.068943-0.4043 0.12031-0.60021 0.019602-0.077536 0.041907-0.15507 0.066239-0.23261l0.004056-0.020076c0.81785-2.6252 3.7182-4.4313 7.5958-4.4313h0.062859 0.013519 2.4083 0.001351l-0.092599 0.54137-0.66982 4.0298c-0.13991 0.83074-0.39473 1.5756-0.74147 2.2257-1.0585 2.0596-2.9672 3.2683-5.0605 3.2683-2.2839 0-3.633-1.3493-3.7587-3.512z"/>
</g>
</g>
</svg>
