<svg xmlns="http://www.w3.org/2000/svg" xmlns:xlink="http://www.w3.org/1999/xlink" width="24" height="24" viewBox="0 0 24 24"><defs><path id="nvw5a" d="M144.5 1159.71v-17.81l6 2.58v17.48zm-9-15.5v17.87l-6-2.44v-17.62zm7.5-2.34v17.83l-6 2.4v-17.88zm.75-1.85l-7.48 2.96-7.54-2.96a.2.2 0 0 0-.1-.02h-.1a.52.52 0 0 0-.38.15c-.1.1-.15.24-.15.41v19.46a1.03 1.03 0 0 0 .73.96l7.54 2.97 7.48-3.02 7.52 2.95.1.01.1.02a.5.5 0 0 0 .38-.17.6.6 0 0 0 .15-.42v-19.22a.95.95 0 0 0-.21-.6c-.14-.18-.31-.3-.52-.36z"/></defs><g><g transform="translate(-128 -1140)"><use fill="#c63527" xlink:href="#nvw5a"/></g></g></svg>