<?xml version="1.0" encoding="UTF-8"?>
<svg width="120px" height="120px" viewBox="0 0 120 120" version="1.1" xmlns="http://www.w3.org/2000/svg" xmlns:xlink="http://www.w3.org/1999/xlink">
    <!-- Generator: Sketch 55.1 (78136) - https://sketchapp.com -->
    <title>Clip 2</title>
    <desc>Created with Sketch.</desc>
    <defs>
        <path d="M12.7626045,0.969996007 L10.7297405,1.70678021 L20.3275414,11.3014854 L19.5886934,19.2337825 L11.8400764,19.9695348 L2.0606592,10.1932134 L1.32077926,12.0382696 C-1.44680509,19.0490705 0.213539141,27.1640158 5.56502775,32.5165364 L5.56502775,32.5165364 C9.25410831,36.204585 14.0535247,38.0496412 19.2182375,38.0496412 L19.2182375,38.0496412 C20.8796136,38.0496412 22.3562778,37.8659611 24.0176539,37.4965371 L24.0176539,37.4965371 L32.874543,46.3513624 L26.2300703,52.9927393 C24.7534062,54.4673396 24.2033978,56.4991717 24.5717899,58.3411322 L24.5717899,58.3411322 L26.2300703,68.3042295 L17.9273173,76.6049187 L19.9570855,78.6357189 L29.1833986,69.4094058 L27.1546623,58.1574521 C26.9709822,57.0491801 27.3393743,55.9440037 28.0771904,55.2041238 L28.0771904,55.2041238 L34.7185673,48.5648107 L43.5775202,39.7079216 L51.3282011,31.9624003 C54.0957854,35.650449 53.7263614,40.9998738 50.4036091,44.3205622 L50.4036091,44.3205622 L37.8566076,56.864468 L39.8863758,58.8963001 L48.0064807,50.7803229 C48.1901608,52.0702112 48.7432649,53.3611314 49.8515369,54.4673396 L49.8515369,54.4673396 C51.1424572,55.7603237 52.9875134,56.4991717 54.8325696,56.4991717 L54.8325696,56.4991717 C55.2030255,56.4991717 55.5714176,56.4991717 55.7571616,56.3134278 L55.7571616,56.3134278 C55.3887695,58.3411322 56.1245218,60.5566443 57.600154,62.2149247 L57.600154,62.2149247 C58.8921061,63.5079088 60.5534822,64.244693 62.4006023,64.244693 L62.4006023,64.244693 C62.7689944,64.244693 63.1353227,64.244693 63.3210666,64.059981 L63.3210666,64.059981 C62.9526745,66.0897492 63.6915225,68.3042295 65.1681866,69.7788298 L65.1681866,69.7788298 C66.6438189,71.06975 68.3041631,71.808598 70.1471555,71.808598 L70.1471555,71.808598 C70.5176114,71.808598 70.8880674,71.808598 71.0717475,71.6249179 L71.0717475,71.6249179 C70.7033554,73.6526223 71.4401396,75.8681345 72.9168037,77.3437667 L72.9168037,77.3437667 C74.0250757,78.4499749 75.3159959,79.004111 76.7926601,79.187791 L76.7926601,79.187791 L71.2574914,84.7229597 L64.2435947,92.100089 C63.5057786,92.838937 62.7689944,93.3910092 61.8444025,93.5757212 L61.8444025,93.5757212 L57.7858979,95.0523853 C56.3092338,95.6065213 54.8325696,96.5290494 53.5416494,97.6352577 L53.5416494,97.6352577 L44.3163682,106.858475 L46.3451046,108.887211 L55.3887695,99.8507698 C56.3092338,98.9282417 57.415442,98.1883618 58.5247459,97.8189378 L58.5247459,97.8189378 L62.5832505,96.3433055 C63.8762345,95.7912333 64.9824427,95.0523853 66.0886509,94.1298572 L66.0886509,94.1298572 L73.2851958,86.9364081 L82.1441487,95.7912333 C80.4827725,102.431578 82.3288607,109.256635 87.1241495,114.053988 L87.1241495,114.053988 C90.8173577,117.743069 95.6136783,119.589157 100.596775,119.589157 L100.596775,119.589157 C102.809191,119.589157 105.024703,119.218701 107.05344,118.481917 L107.05344,118.481917 L109.085272,117.743069 L99.6721829,108.335139 L100.412063,100.400778 L108.16068,99.6650259 L117.942161,109.441347 L118.678945,107.410547 C121.447561,100.400778 119.785153,92.469513 114.435729,86.9364081 L114.435729,86.9364081 C110.744584,83.2483594 105.947232,81.4012394 100.780455,81.4012394 L100.780455,81.4012394 C99.1201107,81.4012394 97.6444785,81.5869833 95.9820704,81.9564073 L95.9820704,81.9564073 L87.1241495,73.0995182 L88.5997817,71.6249179 C91.1847179,69.0430775 91.1847179,64.6151489 88.5997817,62.0322766 L88.5997817,62.0322766 C87.4946054,60.9229726 86.2026533,60.3719323 84.727021,60.1861884 L84.727021,60.1861884 L85.282189,59.6320524 C86.5731092,58.3411322 87.3088615,56.680788 87.3088615,54.8377955 L87.3088615,54.8377955 C87.3088615,52.9927393 86.5731092,51.3303313 85.282189,50.039411 L85.282189,50.039411 C83.8055248,48.5648107 81.5889808,47.8280265 79.5602444,48.1943548 L79.5602444,48.1943548 C79.9286365,46.1656185 79.1908204,43.9521701 77.7151882,42.2938897 L77.7151882,42.2938897 C76.2385241,40.8172256 74.0250757,40.0783776 71.8095636,40.4467697 L71.8095636,40.4467697 C71.8095636,40.0783776 71.9942756,39.7079216 71.9942756,39.3415934 L71.9942756,39.3415934 C71.9942756,37.4965371 71.2574914,35.650449 69.9645073,34.3595288 L69.9645073,34.3595288 C67.3795712,31.7776883 63.1353227,31.7776883 60.5534822,34.3595288 L60.5534822,34.3595288 L56.1245218,38.7874574 C56.4939458,35.2841207 55.3887695,31.5919444 52.6211851,28.8264239 L52.6211851,28.8264239 L51.6945293,27.9038958 L46.8982087,32.6981526 L37.8566076,23.8464231 C39.5179837,17.2040143 37.6708637,10.3768935 32.874543,5.58263659 L32.874543,5.58263659 C29.1833986,1.89252412 24.3870779,0.0454040684 19.4039814,0.0454040684 L19.4039814,0.0454040684 C18.9953448,0.014446749 18.5918677,0 18.1935502,0 L18.1935502,0 C16.255622,0 14.4446189,0.357041083 12.7626045,0.969996007 L12.7626045,0.969996007 Z M22.1715658,21.8145911 L23.0951258,10.3768935 L15.713869,2.99770043 C16.8211091,2.81608415 17.9273173,2.63137215 19.0335255,2.63137215 L19.0335255,2.63137215 C23.462486,2.63137215 27.5209906,4.28965255 30.6590308,7.42562901 L30.6590308,7.42562901 C34.9032793,11.6678137 36.5656874,17.9418304 34.7185673,23.8464231 L34.7185673,23.8464231 L34.536951,24.5821754 L44.6826965,34.7279209 L34.7185673,44.6910182 L24.7534062,34.5452727 L24.0176539,34.7279209 C22.5420217,35.0983768 20.8796136,35.465737 19.2182375,35.465737 L19.2182375,35.465737 C14.7913408,35.465737 10.7297405,33.8074566 7.5958279,30.6714801 L7.5958279,30.6714801 C3.53319569,26.6119436 1.87491528,20.7083828 3.16686741,15.175278 L3.16686741,15.175278 L10.7297405,22.7371192 L22.1715658,21.8145911 Z M51.6945293,52.4375714 C50.2178652,50.9619392 50.2178652,48.3790668 51.6945293,46.9034346 L51.6945293,46.9034346 L62.2148584,36.3903289 C62.9526745,35.650449 63.8762345,35.2841207 64.9824427,35.2841207 L64.9824427,35.2841207 C66.0886509,35.2841207 67.0132429,35.650449 67.7500271,36.3903289 L67.7500271,36.3903289 C68.4888751,37.1271131 69.0419792,38.2312575 69.0419792,39.3415934 L69.0419792,39.3415934 C69.0419792,40.4467697 68.6725552,41.5529779 67.7500271,42.2938897 L67.7500271,42.2938897 L57.7858979,52.2549232 C56.9335397,53.2001533 55.7901827,53.6603855 54.6540491,53.6624493 L54.6540491,53.6624493 C53.5757025,53.6624493 52.5045792,53.2465893 51.6945293,52.4375714 L51.6945293,52.4375714 Z M59.631986,60.1861884 C57.9706099,58.5258442 57.9706099,55.9440037 59.631986,54.4673396 L59.631986,54.4673396 L59.8156661,54.2836595 L69.7808272,44.3205622 L69.9645073,44.1358502 C70.7033554,43.4000979 71.8095636,43.029642 72.9168037,43.029642 L72.9168037,43.029642 C74.0250757,43.029642 74.9476038,43.4000979 75.8680681,44.1358502 L75.8680681,44.1358502 C77.5294443,45.7972264 77.5294443,48.3790668 75.8680681,49.8567629 L75.8680681,49.8567629 L65.7202588,60.0025083 C64.7750287,60.9498023 63.5862676,61.4100344 62.4521978,61.4110664 L62.4521978,61.4110664 C61.375915,61.4110664 60.3512278,60.9962383 59.631986,60.1861884 L59.631986,60.1861884 Z M67.196923,67.9337735 C65.5365788,66.2754931 65.5365788,63.690557 67.196923,62.2149247 L67.196923,62.2149247 L77.3447323,52.0702112 C78.0856441,51.3303313 79.1908204,50.9619392 80.2970286,50.9619392 L80.2970286,50.9619392 C81.4032368,50.9619392 82.3288607,51.3303313 83.2503569,52.0702112 L83.2503569,52.0702112 C83.9892049,52.8069954 84.3565651,53.9132036 84.3565651,55.0225075 L84.3565651,55.0225075 C84.3565651,56.1287158 83.9892049,57.0491801 83.2503569,57.9717082 L83.2503569,57.9717082 L73.1004838,68.1184855 C72.2986892,68.7438234 71.2791615,69.0657795 70.2544742,69.0657795 L70.2544742,69.0657795 C69.159617,69.0657795 68.0544407,68.6963555 67.196923,67.9337735 L67.196923,67.9337735 Z M74.9476038,75.6823906 C73.2851958,74.0230783 73.2851958,71.4402059 74.9476038,69.9635418 L74.9476038,69.9635418 L80.8511646,64.059981 C81.5889808,63.3242287 82.6962209,62.9537728 83.8055248,62.9537728 L83.8055248,62.9537728 C84.911733,62.9537728 85.8321973,63.3242287 86.7567893,64.059981 L86.7567893,64.059981 C88.4171335,65.7213571 88.4171335,68.3042295 86.7567893,69.7788298 L86.7567893,69.7788298 L82.6962209,73.6526223 L80.6674845,75.6823906 C79.9286365,76.4212386 78.8678324,76.7906626 77.8070282,76.7906626 L77.8070282,76.7906626 C76.7451922,76.7906626 75.684388,76.4212386 74.9476038,75.6823906 L74.9476038,75.6823906 Z M89.3406935,112.394676 C85.097477,108.150427 83.4350689,101.877442 85.282189,95.9769773 L85.282189,95.9769773 L85.4638052,95.2381292 L75.3159959,85.0903199 L79.3745005,81.0328473 L85.282189,75.1282546 L95.4289663,85.2750319 L96.1678144,85.0903199 C97.6444785,84.7229597 99.3058546,84.3545676 100.966199,84.3545676 L100.966199,84.3545676 C105.393096,84.3545676 109.455728,86.01388 112.588608,89.1488245 L112.588608,89.1488245 C116.467561,93.0246809 118.125841,98.9282417 116.832857,104.461347 L116.832857,104.461347 L109.269984,96.8984735 L97.8291905,98.0036498 L96.9045986,109.441347 L104.285855,116.821572 C103.179647,117.007316 102.073439,117.190996 100.966199,117.190996 L100.966199,117.190996 C96.5362065,117.190996 92.4777019,115.530652 89.3406935,112.394676 L89.3406935,112.394676 Z" id="path-1"></path>
    </defs>
    <g id="Diseño" stroke="none" stroke-width="1" fill="none" fill-rule="evenodd">
        <g id="0-Home_desktop" transform="translate(-400.000000, -1374.000000)">
            <g id="Group-6" transform="translate(65.000000, 1374.000000)">
                <g id="Group-3" transform="translate(335.000000, 0.000000)">
                    <g id="Icon">
                        <mask id="mask-2" fill="white">
                            <use xlink:href="#path-1"></use>
                        </mask>
                        <use id="Clip-2" fill="#D34A46" xlink:href="#path-1"></use>
                    </g>
                </g>
            </g>
        </g>
    </g>
</svg>