<?xml version="1.0" encoding="UTF-8"?>
<svg width="60px" height="72px" viewBox="0 0 60 72" version="1.1" xmlns="http://www.w3.org/2000/svg" xmlns:xlink="http://www.w3.org/1999/xlink">
    <!-- Generator: Sketch 55.1 (78136) - https://sketchapp.com -->
    <title>Combined Shape</title>
    <desc>Created with Sketch.</desc>
    <g id="Diseño" stroke="none" stroke-width="1" fill="none" fill-rule="evenodd">
        <g id="1-Quienes-Somos_desplegable-bio_desktop" transform="translate(-1080.000000, -4420.000000)" fill="#D34A46" fill-rule="nonzero">
            <g id="gobierno" transform="translate(0.000000, 4070.000000)">
                <g id="link-pdf" transform="translate(1074.000000, 350.000000)">
                    <g id="Icono-pdf">
                        <path d="M14.0545259,72 C9.62147544,72 6,68.3772153 6,63.9454741 L6,8.05327399 C6,3.62172253 9.62128612,0 14.0545259,0 L44.5401571,0 L65.1019926,20.5618354 L65.1019926,63.9454741 C65.1019926,68.3772153 61.4805171,72 57.0474667,72 L14.0545259,72 Z M63.3243384,21.2981639 L43.8038287,1.77765414 L14.0545259,1.77765414 C10.6031054,1.77765414 7.77765414,4.60344585 7.77765414,8.05327399 L7.77765414,63.9454741 C7.77765414,67.3955878 10.6033906,70.2223459 14.0545259,70.2223459 L57.0474667,70.2223459 C60.498602,70.2223459 63.3243384,67.3955878 63.3243384,63.9454741 L63.3243384,21.2981639 Z M43.283291,5.90795637 L59.1934103,21.8180756 L43.283291,21.8180756 L43.283291,5.90795637 Z M21.3513254,40.1954592 C24.7855729,40.1954592 26.4801029,42.590395 26.4801029,45.1434869 C26.4801029,47.7417662 24.695198,50.3400456 21.125388,50.3400456 L18.5497024,50.3400456 L18.5497024,56.0110728 L15.6351108,56.0110728 L15.6351108,40.1954592 L21.3513254,40.1954592 Z M21.0802006,47.6513913 C22.7069494,47.6513913 23.5203238,46.4539234 23.5203238,45.2112681 C23.5203238,44.0363939 22.7973243,42.9744884 21.2835442,42.9744884 L18.5497024,42.9744884 L18.5497024,47.6513913 L21.0802006,47.6513913 Z M34.4330972,40.1954592 C39.4263123,40.1954592 42.3183103,43.6297067 42.3183103,47.8321412 C42.3183103,52.2153255 39.200375,56.0110728 33.8682539,56.0110728 L29.0783823,56.0110728 L29.0783823,40.1954592 L34.4330972,40.1954592 Z M33.8682539,53.2320435 C37.2799076,53.2320435 39.3811249,50.7241391 39.3811249,47.8321412 C39.3811249,45.1434869 37.5736262,42.9744884 34.365316,42.9744884 L31.992974,42.9744884 L31.992974,53.2320435 L33.8682539,53.2320435 Z M54.1122392,49.3911088 L48.1700873,49.3911088 L48.1700873,56.0110728 L45.2554956,56.0110728 L45.2554956,40.1954592 L55.7163943,40.1954592 L55.7163943,42.9744884 L48.1700873,42.9744884 L48.1700873,46.6120796 L54.1122392,46.6120796 L54.1122392,49.3911088 Z" id="Combined-Shape"></path>
                    </g>
                </g>
            </g>
        </g>
    </g>
</svg>