<svg xmlns="http://www.w3.org/2000/svg" xmlns:xlink="http://www.w3.org/1999/xlink" width="24" height="24" viewBox="0 0 24 24"><defs><path id="rusxa" d="M132.39 997.54a11.45 11.45 0 0 0-1.83 1.57 9.9 9.9 0 0 0-.7.75c-.16.2-.27.38-.32.53.04.72.2 1.5.51 2.31.3.82.75 1.7 1.33 2.62.58.93 1.3 1.9 2.14 2.92a49 49 0 0 0 2.97 3.22 49 49 0 0 0 3.22 2.96c1.02.86 2 1.57 2.92 2.15.93.58 1.8 1.02 2.63 1.33.83.3 1.6.48 2.33.53.11-.05.27-.16.48-.34a12.7 12.7 0 0 0 1.57-1.6l.75-.96a.57.57 0 0 0 .1-.18.26.26 0 0 0 0-.15 97.75 97.75 0 0 0-4.68-3.14.76.76 0 0 0-.22.04l-.27.1c-.13.09-.37.22-.72.42l-1.38.74-.8.49-.79-.53c-.51-.36-1.08-.81-1.7-1.37a51.94 51.94 0 0 1-3.94-3.98c-.55-.62-1-1.18-1.36-1.7l-.57-.74.48-.85a138.16 138.16 0 0 1 1.16-2.1c.04-.1.08-.18.1-.26a.76.76 0 0 0 .04-.22 211.19 211.19 0 0 0-3.06-4.65h-.05c-.07 0-.13 0-.18.02a.56.56 0 0 0-.16.07zm1.54-.99a150.01 150.01 0 0 1 3.23 4.82c.16.27.23.55.2.88-.02.32-.13.66-.34 1.03l-.41.77-.75 1.38c.34.48.77 1.02 1.3 1.62a46.75 46.75 0 0 0 3.76 3.77c.58.52 1.1.95 1.57 1.29a66.1 66.1 0 0 1 2.15-1.2 2.52 2.52 0 0 1 1.16-.34 1.54 1.54 0 0 1 .75.19c.72.43 1.48.92 2.29 1.46l2.58 1.77c.16.11.29.26.38.43.1.18.16.37.2.58.01.23-.01.46-.08.7a3.36 3.36 0 0 1-.63 1.12 26.55 26.55 0 0 1-1.08 1.26c-.26.26-.56.56-.92.88-.33.32-.64.56-.92.72-.29.16-.53.24-.74.24h-.05a8.77 8.77 0 0 1-2.63-.54 16.4 16.4 0 0 1-2.9-1.41 26.73 26.73 0 0 1-3.17-2.3 53.46 53.46 0 0 1-6.65-6.62c-.9-1.11-1.67-2.17-2.29-3.19a15.2 15.2 0 0 1-1.4-2.9c-.33-.93-.5-1.8-.54-2.62 0-.22.08-.48.24-.76.16-.28.4-.6.72-.95.33-.36.62-.66.87-.9a8.32 8.32 0 0 1 1.26-1.03l.46-.34c.17-.13.36-.22.55-.28.2-.05.4-.08.63-.08.25 0 .48.04.68.13.2.1.38.23.52.42z"/></defs><g><g transform="translate(-128 -996)"><use fill="#c63527" xlink:href="#rusxa"/></g></g></svg>