<?xml version="1.0" encoding="UTF-8"?>
<svg width="119px" height="121px" viewBox="0 0 119 121" version="1.1" xmlns="http://www.w3.org/2000/svg" xmlns:xlink="http://www.w3.org/1999/xlink">
    <!-- Generator: Sketch 55.2 (78181) - https://sketchapp.com -->
    <title>prioridad-cliente</title>
    <desc>Created with Sketch.</desc>
    <g id="Page-1" stroke="none" stroke-width="1" fill="none" fill-rule="evenodd">
        <g id="prioridad-cliente" transform="translate(0.000000, -1.000000)" fill="#CA3625" fill-rule="nonzero">
            <path d="M81.6738462,74.9723077 C81.5261538,72.72 81.3230769,70.7261538 81.0646154,69.2307692 L81.0646154,68.8984615 C80.9235291,67.7124448 80.5536136,66.56508 79.9753846,65.52 L79.9753846,65.3723077 L79.7907692,65.0953846 C79.1375008,64.0758906 78.2435642,63.2326738 77.1876923,62.64 L77.0215385,62.64 L76.8369231,62.64 L76.8369231,62.64 C76.5991926,62.5266237 76.3521224,62.4339723 76.0984615,62.3630769 L70.4123077,60.3138462 L70.2276923,60.3138462 L64.4676923,70.9107692 L61.68,70.9107692 L56.1415385,60.4984615 L56.1415385,60.3138462 L50.1969231,62.4553846 C48.6522453,63.091224 47.3562869,64.2122281 46.5046154,65.6492308 C45.7385481,66.9231868 45.312626,68.3725935 45.2676923,69.8584615 L45.2676923,69.8584615 C44.9463466,71.6050744 44.7183308,73.3675748 44.5846154,75.1384615 C44.4786213,75.9949796 44.7177436,76.8584768 45.2492308,77.5384615 L45.4153846,77.6861538 C46.0755237,78.2555909 46.907602,78.5871221 47.7784615,78.6276923 L78.4061538,78.6276923 C79.3613652,78.6733599 80.2831408,78.2705098 80.8984615,77.5384615 C81.5974594,76.8834305 81.8931567,75.9048132 81.6738462,74.9723077 L81.6738462,74.9723077 Z M54.9969231,62.7692308 L60.3323077,72.7384615 L60.3323077,72.8492308 L65.6307692,72.8492308 L71.1692308,62.7692308 L75.4338462,64.3015385 C75.5812225,64.3406569 75.7236752,64.3963993 75.8584615,64.4676923 L76.2276923,64.6153846 C76.8659721,64.9972643 77.4189514,65.5062566 77.8523077,66.1107692 L77.9630769,66.3692308 C78.4485386,67.2082211 78.7799172,68.1273278 78.9415385,69.0830769 L78.9415385,69.5630769 C79.2452426,71.4587115 79.4486028,73.3690652 79.5507692,75.2861538 L79.5507692,75.5446154 C79.5507692,75.5446154 79.5507692,75.8215385 79.3107692,76.1538462 L79.3107692,76.1538462 C79.3107692,76.1538462 79.0707692,76.4492308 78.4430769,76.4492308 L47.7784615,76.4492308 C47.4344779,76.4108162 47.1082211,76.2764752 46.8369231,76.0615385 C46.6275277,75.8227868 46.5213085,75.5107681 46.5415385,75.1938462 C46.6661125,73.446484 46.8942052,71.7080476 47.2246154,69.9876923 L47.2246154,69.6 C47.2911468,68.4899259 47.6269734,67.412746 48.2030769,66.4615385 C48.8164443,65.4422513 49.7518176,64.6562779 50.8615385,64.2276923 L54.9969231,62.7692308 Z" id="Shape"></path>
            <path d="M63.0646154,61.8461726 C66.7566604,61.8536201 70.0889708,59.6343446 71.5053064,56.2247631 C72.921642,52.8151816 72.1425475,48.8880341 69.5318721,46.2773586 C66.9211967,43.6666832 62.9940491,42.8875888 59.5844676,44.3039244 C56.1748862,45.72026 53.9556107,49.0525703 53.9630581,52.7446154 C53.9732335,57.7670433 58.0421875,61.8359972 63.0646154,61.8461726 Z M56.0861538,52.7446154 C56.0861538,48.8905175 59.2105175,45.7661538 63.0646154,45.7661538 C66.9187133,45.7661538 70.0430769,48.8905175 70.0430769,52.7446154 C70.0430769,56.5987133 66.9187133,59.7230769 63.0646154,59.7230769 C59.2105175,59.7230769 56.0861538,56.5987133 56.0861538,52.7446154 L56.0861538,52.7446154 Z" id="Shape"></path>
            <path d="M90.1292308,3.17538462 C90.5570097,3.17065505 90.9689997,3.33678003 91.2738462,3.63692308 L96,8.34461538 C96.6982808,9.04709648 97.6495238,9.43956735 98.64,9.43384615 L118.947692,9.43384615 L118.947692,7.38461538 L98.64,7.38461538 C98.2082769,7.39093557 97.7934648,7.21698211 97.4953846,6.90461538 L92.7692308,2.16 C92.0740185,1.45074094 91.1223912,1.05145675 90.1292308,1.05230633 L70.8553846,1.05230633 C68.5408867,1.05230633 66.6646154,2.92857899 66.6646154,5.24307692 C66.6688245,5.78131798 66.7753311,6.31385089 66.9784615,6.81230769 L67.2,7.38461538 L66.6461538,7.53230769 C64.8241921,8.02268301 63.5545846,9.67014981 63.5446154,11.5569231 C63.5407028,12.0881902 63.6410597,12.6150638 63.84,13.1076923 L64.0615385,13.6430769 L63.5076923,13.8092308 C61.6819983,14.2940043 60.4097552,15.9448911 60.4061538,17.8338462 C60.4070405,18.3072945 60.4946398,18.7765764 60.6646154,19.2184615 L60.9046154,19.9015385 L55.1815385,19.9015385 C52.8670405,19.9015385 50.9907692,21.7778098 50.9907692,24.0923077 C50.9907692,26.4068056 52.8670405,28.2830769 55.1815385,28.2830769 L79.8276923,28.2830769 L83.9076923,32.3630769 L83.9076923,39.7476923 C83.9076924,42.0621901 85.7839637,43.9384613 88.0984615,43.9384613 C90.4129594,43.9384613 92.2892306,42.0621901 92.2892308,39.7476923 L92.2892308,34.5784615 C92.2829106,34.1467384 92.456864,33.7319264 92.7692308,33.4338462 L97.4769231,28.7261538 C97.7750033,28.4137871 98.1898154,28.2398337 98.6215385,28.2461538 L118.929231,28.2461538 L118.929231,26.1415385 L98.6215385,26.1415385 C97.6310623,26.1358173 96.6798193,26.5282881 95.9815385,27.2307692 L91.2738462,31.9384615 C90.5713651,32.6367424 90.1788942,33.5879853 90.1846154,34.5784615 L90.1846154,39.7292308 C90.2590635,40.5179966 89.8802852,41.2808606 89.2069199,41.698321 C88.5335545,42.1157813 87.6818301,42.1157813 87.0084648,41.698321 C86.3350995,41.2808606 85.9563211,40.5179966 86.0307692,39.7292308 L86.0307692,31.9015385 C86.0365349,31.6218365 85.9222981,31.3530441 85.7169231,31.1630769 L81.0092308,26.4553846 C80.8153678,26.2556178 80.5491373,26.1424698 80.2707692,26.1415385 L55.1815385,26.1415385 C54.1100917,26.0404093 53.2914163,25.1408242 53.2914163,24.0646154 C53.2914163,22.9884066 54.1100917,22.0888215 55.1815385,21.9876923 L79.7538462,21.9876923 L79.7538462,19.8646154 L64.6153846,19.8646154 C63.8266188,19.9390635 63.0637548,19.5602852 62.6462944,18.8869199 C62.228834,18.2135545 62.228834,17.3618301 62.6462944,16.6884648 C63.0637548,16.0150995 63.8266188,15.6363211 64.6153846,15.7107692 L79.7538462,15.7107692 L79.7538462,13.6061538 L67.7169231,13.6061538 C66.5647721,13.6061538 65.6307693,12.6721509 65.6307693,11.52 C65.6307693,10.3678491 66.5647721,9.43384619 67.7169231,9.43384615 L79.7538462,9.43384615 L79.7538462,7.38461538 L70.8553846,7.38461538 C70.0666188,7.45906352 69.3037548,7.08028516 68.8862944,6.40691985 C68.468834,5.73355454 68.468834,4.88183007 68.8862944,4.20846476 C69.3037548,3.53509946 70.0666188,3.1563211 70.8553846,3.23076923 L90.1292308,3.17538462 Z" id="Path"></path>
            <path d="M64.5046154,93.9138462 L39.8584615,93.9138462 L35.7784615,89.8153846 L35.7784615,82.4307692 C35.7784615,80.1162713 33.9021902,78.24 31.5876923,78.24 C29.2731944,78.24 27.3969231,80.1162713 27.3969231,82.4307692 L27.3969231,87.6 C27.4010234,88.0312904 27.2274253,88.4452551 26.9169231,88.7446154 L22.1538462,93.4338462 C21.852041,93.7407586 21.4396743,93.9136866 21.0092308,93.9138462 L0.701538462,93.9138462 L0.701538462,96 L21.0092308,96 C21.9933131,96.0007798 22.9369913,95.6086881 23.6307692,94.9107692 L28.3384615,90.2030769 C29.0772015,89.5279632 29.5102593,88.5818984 29.5384615,87.5815385 L29.5384615,82.4123077 C29.5384615,81.2601567 30.4724644,80.3261538 31.6246154,80.3261538 C32.7767663,80.3261538 33.7107692,81.2601567 33.7107692,82.4123077 L33.7107692,90.2584615 C33.7107692,90.53341 33.8165342,90.7978225 34.0061538,90.9969231 L38.7692308,95.7046154 C38.9687715,95.9072019 39.2418054,96.0204111 39.5261538,96.0184615 L64.5046154,96.0184615 C65.2933812,95.9440134 66.0562452,96.3227918 66.4737056,96.9961571 C66.891166,97.6695224 66.891166,98.5212469 66.4737056,99.1946122 C66.0562452,99.8679775 65.2933812,100.246756 64.5046154,100.172308 L39.9323077,100.172308 L39.9323077,102.276923 L55.1076923,102.276923 C56.2598433,102.276923 57.1938462,103.210926 57.1938462,104.363077 C57.1938462,105.515228 56.2598433,106.449231 55.1076923,106.449231 L39.9323077,106.449231 L39.9323077,108.553846 L51.9692308,108.553846 C52.7579966,108.479398 53.5208606,108.858176 53.938321,109.531542 C54.3557813,110.204907 54.3557813,111.056631 53.938321,111.729997 C53.5208606,112.403362 52.7579966,112.78214 51.9692308,112.707692 L39.9323077,112.707692 L39.9323077,114.830769 L48.8307692,114.830769 C49.619535,114.756321 50.3823991,115.135099 50.7998594,115.808465 C51.2173198,116.48183 51.2173198,117.333555 50.7998594,118.00692 C50.3823991,118.680285 49.619535,119.059064 48.8307692,118.984615 L29.5384615,118.984615 C29.1080181,118.984456 28.6956513,118.811528 28.3938462,118.504615 L23.6861538,113.815385 C22.9954285,113.110687 22.0513695,112.711789 21.0646154,112.707692 L0.756923077,112.707692 L0.756923077,114.830769 L21.0646154,114.830769 C21.4912596,114.831954 21.9010993,114.997212 22.2092308,115.292308 L26.9169231,120 C27.6152039,120.702481 28.5664469,121.094952 29.5569231,121.089292 L48.8307692,121.089292 C51.1452672,121.089292 53.0215385,119.212959 53.0215385,116.898462 C53.0172472,116.366205 52.9106993,115.839733 52.7076923,115.347692 L52.4861538,114.812308 L53.0584615,114.664615 C54.8804233,114.17424 56.1500308,112.526773 56.16,110.64 C56.1557908,110.101759 56.0492843,109.569226 55.8461538,109.070769 L55.6246154,108.535385 L56.1969231,108.387692 C58.0151918,107.891794 59.2822108,106.247686 59.2984615,104.363077 C59.2921106,103.888434 59.1982312,103.419037 59.0215385,102.978462 L58.7815385,102.276923 L64.5046154,102.276923 C66.0648499,102.380651 67.553063,101.607114 68.3646741,100.27056 C69.1762853,98.934005 69.1762853,97.2567642 68.3646741,95.9202095 C67.553063,94.5836547 66.0648499,93.8101183 64.5046154,93.9138462 Z" id="Path"></path>
        </g>
    </g>
</svg>