<?xml version="1.0" encoding="UTF-8"?>
<svg width="118px" height="118px" viewBox="0 0 118 118" version="1.1" xmlns="http://www.w3.org/2000/svg" xmlns:xlink="http://www.w3.org/1999/xlink">
    <!-- Generator: Sketch 55.2 (78181) - https://sketchapp.com -->
    <title>proactividad</title>
    <desc>Created with Sketch.</desc>
    <g id="Page-1" stroke="none" stroke-width="1" fill="none" fill-rule="evenodd">
        <g id="proactividad" transform="translate(-1.000000, -1.000000)" fill="#CA3625" fill-rule="nonzero">
            <path d="M30.9904762,45.447619 L3.33333333,17.7904762 C2.79104637,17.30544 1.97085839,17.30544 1.42857143,17.7904762 C0.934672426,18.3293469 0.934672426,19.1563673 1.42857143,19.6952381 L28.5714286,47.0095238 L28.5714286,50.6285714 C28.5736207,50.9976499 28.7167047,51.3519532 28.9714286,51.6190476 C29.2320173,51.8859262 29.5889044,52.0369169 29.9619048,52.0380952 C30.7298436,52.0380952 31.352381,51.4155578 31.352381,50.647619 L31.352381,46.4380952 C31.3652798,46.0661973 31.2199216,45.7062626 30.952381,45.447619 L30.9904762,45.447619 Z" id="Path"></path>
            <path d="M45.447619,30.9904762 C45.7094181,31.2555757 46.0655289,31.4062379 46.4380952,31.4095238 L52.9333333,31.4095238 C53.3024118,31.4073317 53.6567151,31.2642477 53.9238095,31.0095238 C54.3496816,30.6107087 54.4858201,29.9907333 54.2662208,29.4501811 C54.0466214,28.909629 53.5166819,28.5602478 52.9333333,28.5714286 L47.0095238,28.5714286 L19.752381,1.37142857 C19.2059927,1.04812854 18.5100076,1.13597189 18.061085,1.58489448 C17.6121624,2.03381707 17.524319,2.72980227 17.847619,3.27619048 L45.447619,30.9904762 Z" id="Path"></path>
            <path d="M102.209524,3.33333333 C102.474623,3.07153426 102.625286,2.71542349 102.628572,2.34285714 C102.628829,1.97511504 102.477193,1.62359456 102.209524,1.37142857 L102.209524,1.37142857 C101.663136,1.04812854 100.96715,1.13597189 100.518228,1.58489448 C100.069305,2.03381707 99.9814619,2.72980227 100.304762,3.27619048 C100.835855,3.76937425 101.649821,3.79379323 102.209524,3.33333333 L102.209524,3.33333333 Z" id="Path"></path>
            <path d="M51.0857143,38.2285714 C51.078206,38.5939074 51.2231346,38.9458767 51.4857143,39.2 C52.024585,39.693899 52.8516054,39.693899 53.3904762,39.2 L55.5047619,37.1047619 C59.1489912,33.4389218 64.1071759,31.3815837 69.2761905,31.3904762 L73.5047619,31.3904762 C73.8777623,31.3892978 74.2346493,31.2383072 74.4952381,30.9714286 L95.352381,10.1904762 C95.8523377,9.89464985 96.1156976,9.31919252 96.0127821,8.74745977 C95.9098666,8.17572702 95.4623682,7.72822865 94.8906355,7.62531316 C94.3189027,7.52239767 93.7434454,7.78575757 93.447619,8.28571429 L72.9904762,28.5714286 L69.3714286,28.5714286 C63.4504005,28.5531263 57.7667609,30.8978848 53.5809524,35.0857143 L51.4285714,37.2380952 C51.1876524,37.5098364 51.064351,37.8660402 51.0857143,38.2285714 Z" id="Path"></path>
            <path d="M90,54.3239439 C90.370341,54.3289899 90.7270319,54.1841578 90.9889282,53.9222615 C91.2508245,53.6603653 91.3956565,53.3036744 91.3904762,52.9333333 L91.3904762,47.0095238 L118.647619,19.752381 C119.141518,19.2135102 119.141518,18.3864898 118.647619,17.847619 C118.105332,17.3625828 117.285144,17.3625828 116.742857,17.847619 L89.0095238,45.447619 C88.7419832,45.7062626 88.596625,46.0661973 88.6095238,46.4380952 L88.6095238,52.9333333 C88.6095238,53.3021105 88.75602,53.6557836 89.0167849,53.9165485 C89.2775497,54.1773133 89.6312228,54.3239439 90,54.3239439 Z" id="Path"></path>
            <path d="M88.6095238,69.3714286 L88.6095238,73.5619048 C88.596625,73.9338027 88.7419832,74.2937374 89.0095238,74.552381 L116.666667,102.209524 C117.208954,102.69456 118.029142,102.69456 118.571429,102.209524 C119.065328,101.670653 119.065328,100.843633 118.571429,100.304762 L91.4285714,72.9904762 L91.4285714,69.3714286 C91.4296264,66.430901 90.8536661,63.518742 89.7333333,60.8 C89.5121424,60.280728 89.002514,59.9434738 88.4380952,59.9428571 C88.2544006,59.9443343 88.0729326,59.9832203 87.9047619,60.0571429 C87.203022,60.354748 86.8716903,61.1618382 87.1619048,61.8666667 C88.1341698,64.2484488 88.6261348,66.7988988 88.6095238,69.3714286 L88.6095238,69.3714286 Z" id="Path"></path>
            <path d="M67.0666667,91.4285714 L72.9904762,91.4285714 L100.247619,118.647619 C100.793124,119.124156 101.606876,119.124156 102.152381,118.647619 C102.41926,118.38703 102.57025,118.030143 102.571429,117.657143 C102.568143,117.284577 102.41748,116.928466 102.152381,116.666667 L74.552381,89.0095238 C74.2886488,88.7496325 73.9321523,88.6056628 73.5619048,88.6094481 L67.0666667,88.6094481 C66.2987279,88.6094481 65.6761905,89.2320612 65.6761905,90 C65.6761905,90.7679388 66.2987279,91.3904762 67.0666667,91.3904762 L67.0666667,91.4285714 Z" id="Path"></path>
            <path d="M19.752381,116.666667 C19.4565546,116.16671 18.8810973,115.90335 18.3093645,116.006266 C17.7376318,116.109181 17.2901334,116.556679 17.1872179,117.128412 C17.0843024,117.700145 17.3476623,118.275602 17.847619,118.571429 C18.3931239,119.047966 19.2068761,119.047966 19.752381,118.571429 C20.2374172,118.029142 20.2374172,117.208954 19.752381,116.666667 L19.752381,116.666667 Z" id="Path"></path>
            <path d="M81.6380952,59.047619 L80.7238095,58.6095238 L81.2190476,57.7142857 C82.459677,55.5125249 82.0777658,52.7534116 80.2857143,50.9714286 C79.8138019,50.5025426 79.2665114,50.1162199 78.6666667,49.8285714 L77.7904762,49.5238095 L78.2095238,48.647619 C79.2531546,46.462427 78.806082,43.856697 77.0937401,42.1443551 C75.3813982,40.4320132 72.7756682,39.9849407 70.5904762,41.0285714 L69.7142857,41.447619 L69.3142857,40.5714286 C69.0266373,39.9715838 68.6403146,39.4242933 68.1714286,38.952381 C65.9518075,36.7868396 62.4100972,36.7868396 60.1904762,38.952381 L49.5238095,49.752381 L49.3333333,47.7333333 C49.194763,46.1221885 48.3800416,44.6451922 47.0911755,43.6685584 C45.8023094,42.6919247 44.1599922,42.3071087 42.5714286,42.6095238 C41.0519824,42.8925527 39.711989,43.7790099 38.8571429,45.0666667 L32.4380952,54.5904762 C29.9584875,58.2648844 28.6320291,62.5957712 28.6285714,67.0285714 L28.6285714,72.952381 L1.35238095,100.247619 C0.85848195,100.78649 0.85848195,101.61351 1.35238095,102.152381 C1.89466792,102.637417 2.71485589,102.637417 3.25714286,102.152381 L30.9904762,74.552381 C31.2580168,74.2937374 31.403375,73.9338027 31.3904762,73.5619048 L31.3904762,67.0666667 C31.3861091,63.1947214 32.5331231,59.4089122 34.6857143,56.1904762 L41.1047619,46.6666667 C41.9831577,45.2885848 43.8123942,44.8835091 45.1904761,45.7619049 C46.568558,46.6403006 46.9736338,48.4695371 46.0952381,49.847619 L43.6,54 C43.0163441,54.8704856 43.2036582,56.0438988 44.029316,56.6894131 C44.8549738,57.3349273 46.0389142,57.2335859 46.7428571,56.4571429 L62.2285714,40.9904762 C63.362916,39.9044409 65.1513697,39.9044409 66.2857143,40.9904762 C67.3231504,42.0158092 67.4216804,43.6579772 66.5142857,44.8 L57.2761905,54.0761905 C56.9528904,54.6225787 57.0407338,55.3185639 57.4896564,55.7674865 C57.938579,56.2164091 58.6345642,56.3042524 59.1809524,55.9809524 L71.0285714,44.1142857 C72.162916,43.0282504 73.9513697,43.0282504 75.0857143,44.1142857 C76.2020178,45.2363075 76.2020178,47.0494068 75.0857143,48.1714286 L63.2952381,60 C63.0305457,60.2481456 62.8733285,60.5899222 62.8571429,60.952381 C62.8604288,61.3249473 63.011091,61.6810581 63.2761905,61.9428571 C63.8216954,62.4193942 64.6354475,62.4193942 65.1809524,61.9428571 L74.3619048,52.7619048 C75.4849253,51.8341581 77.1260971,51.899805 78.1714286,52.9142857 C78.7170984,53.4481984 79.0246605,54.1794317 79.0246605,54.9428571 C79.0246605,55.7062825 78.7170984,56.4375159 78.1714286,56.9714286 L69.1619048,65.9809524 C68.6680058,66.5198231 68.6680058,67.3468435 69.1619048,67.8857143 C69.7041917,68.3707505 70.5243797,68.3707505 71.0666667,67.8857143 L77.0857143,61.8666667 C78.2145074,60.9562052 79.8427719,61.0213358 80.8952381,62.0190476 C81.4312095,62.5543518 81.7326665,63.2805891 81.7333333,64.0380952 C81.7335445,64.8013752 81.4323359,65.53386 80.8952381,66.0761905 L64.152381,82.8 C60.5129923,86.4730502 55.551653,88.5316972 50.3809524,88.5142857 L46.4380952,88.5142857 C46.0674451,88.5082758 45.7101487,88.6525686 45.447619,88.9142857 L23.6761905,110.780952 C23.1911543,111.323239 23.1911543,112.143427 23.6761905,112.685714 C24.2216954,113.162251 25.0354475,113.162251 25.5809524,112.685714 L47.0095238,91.4285714 L50.6285714,91.4285714 C56.5495995,91.4468737 62.2332391,89.1021152 66.4190476,84.9142857 L83.1428571,68.1714286 C85.3083985,65.9518075 85.3083985,62.4100972 83.1428571,60.1904762 C82.7149843,59.7211407 82.2050409,59.333842 81.6380952,59.047619 Z" id="Path"></path>
        </g>
    </g>
</svg>