<?xml version="1.0" encoding="UTF-8"?>
<svg width="115px" height="120px" viewBox="0 0 115 120" version="1.1" xmlns="http://www.w3.org/2000/svg" xmlns:xlink="http://www.w3.org/1999/xlink">
    <!-- Generator: Sketch 55.2 (78181) - https://sketchapp.com -->
    <title>productos-transaccionales</title>
    <desc>Created with Sketch.</desc>
    <g id="Page-1" stroke="none" stroke-width="1" fill="none" fill-rule="evenodd">
        <g id="productos-transaccionales" transform="translate(-1.000000, 0.000000)" fill="#CA3625" fill-rule="nonzero">
            <path d="M110.8,94.62 L70,116 C66.9648788,117.605036 63.3964269,117.866142 60.16,116.72 L36.58,108.84 L28.58,108.84 L28.58,83.1196645 L38.4,83.1196645 C40.9286937,83.1038368 43.4269529,83.6719341 45.7,84.78 L59,90.98 L76.52,90.98 C78.4123542,91.0318388 79.9372552,92.547976 80,94.44 C80.0271488,95.378331 79.6718717,96.2874202 79.0156792,96.9586976 C78.3594866,97.6299751 77.4587056,98.0058188 76.52,98 L55.72,98 C53.9,98.36 50.26,100 50.26,103.66 L52.98,103.66 C52.98,101.46 55.54,100.92 56.08,100.74 L76.52,100.74 C77.5274001,100.696269 78.5148161,100.444308 79.42,100 L107.88,87.42 C108.845245,87.0042715 109.93913,87.004583 110.904138,87.4208611 C111.869147,87.8371392 112.620023,88.632607 112.98,89.62 C113.687886,91.6281662 112.740731,93.8439876 110.8,94.72 M115.54,88.52 C114.088177,85.1339795 110.203924,83.5199748 106.78,84.88 L82.52,95.52 C82.52,95.16 82.72,94.8 82.72,94.44 C82.7646285,91.075261 80.0843938,88.3056851 76.72,88.24 L59.74,88.24 L46.96,82.24 C44.2760099,81.0088551 41.3527025,80.3873108 38.4,80.42 L28.56,80.42 L28.56,75.84 L1.38,75.84 L1.38,78.56 L25.82,78.56 L25.82,113.22 L6.3,113.22 L6.3,116 L28.56,116 L28.56,111.4 L35.84,111.4 L59.18,119.24 C60.7351718,119.751594 62.3628625,120.008242 64,120.000192 C66.4674933,120.004776 68.9032314,119.443736 71.12,118.36 L111.7,96.98 C115.121696,95.6739925 116.839797,91.8440604 115.54,88.42" id="Shape"></path>
            <rect id="Rectangle" x="18.52" y="105.56" width="2.74" height="2.74"></rect>
            <rect id="Rectangle" x="12.68" y="105.56" width="2.74" height="2.74"></rect>
            <path d="M46.6,67.08 L46.6,10.74 L52.6,10.74 L52.6,61.06 L102,61.06 L102,67.06 L46.6,67.08 Z M55.36,3.44 L96,3.44 L96,17.66 L110.22,17.66 L110.22,58.32 L55.36,58.32 L55.36,3.44 Z M98.76,5.26 L108.42,14.92 L98.76,14.92 L98.76,5.26 Z M104.76,61.06 L112.96,61.06 L112.96,15.66 L97.84,0.52 L52.62,0.52 L52.62,7.82 L43.86,7.82 L43.86,69.64 L104.78,69.64 L104.76,61.06 Z" id="Shape"></path>
            <rect id="Rectangle" x="62.28" y="23.86" width="27.72" height="2.74"></rect>
            <rect id="Rectangle" x="62.28" y="34.98" width="41.22" height="2.74"></rect>
            <rect id="Rectangle" x="62.28" y="46.1" width="41.22" height="2.74"></rect>
        </g>
    </g>
</svg>