<?xml version="1.0" encoding="UTF-8"?>
<svg width="172px" height="169px" viewBox="0 0 172 169" version="1.1" xmlns="http://www.w3.org/2000/svg" xmlns:xlink="http://www.w3.org/1999/xlink">
    <!-- Generator: Sketch 55.2 (78181) - https://sketchapp.com -->
    <title>Combined Shape</title>
    <desc>Created with Sketch.</desc>
    <g id="Diseño" stroke="none" stroke-width="1" fill="none" fill-rule="evenodd">
        <g id="4-Su-Banquero_desktop" transform="translate(-97.000000, -2532.000000)" fill="#D34A46" fill-rule="nonzero">
            <g id="Group-2" transform="translate(65.000000, 2318.000000)">
                <g id="Icon" transform="translate(32.000000, 212.000000)">
                    <path d="M4.03097616,166.441919 L89.3124108,166.441919 C88.5062156,153.577847 87.2092928,140.959139 87.2092928,140.713775 C87.200241,137.468203 86.2901334,134.288894 84.5803954,131.53016 L84.5803954,131.249744 C82.7972927,128.439938 80.1168106,126.315316 76.9741186,125.220806 L64.9162421,121.01457 L51.5263909,145.550946 L41.8169961,145.550946 L28.4271449,121.01457 L16.3342164,125.220806 C13.1740448,126.430414 10.5006924,128.647941 8.72793968,131.53016 C7.10279527,134.221391 6.20867745,137.29039 6.13409415,140.433359 C6.13409415,140.959139 4.55675566,153.577847 4.03097616,166.441919 Z M88.1556959,130.513653 L88.2959038,130.478601 C88.0154881,130.478601 88.0154881,130.198185 88.0154881,129.952821 C89.8399219,133.163501 90.8395356,136.776562 90.9248013,140.468411 C90.9248013,140.468411 92.5021398,153.087119 93.0279193,166.196555 L93.0279193,166.476971 L168.004076,166.476971 C167.197881,153.612899 165.900958,140.994191 165.900958,140.748827 C165.891906,137.503255 164.981798,134.323946 163.27206,131.565212 C161.569314,128.623043 158.871936,126.385587 155.665784,125.255858 L143.607907,121.049622 L130.218056,145.585998 L120.613817,145.585998 L107.223966,121.049622 L95.1660893,125.255858 C92.320482,126.200958 89.8597618,128.046498 88.1556959,130.513653 Z M172,170.367739 L0,170.507947 L0,168.404829 C0.525779499,154.384042 2.10311799,140.608619 2.10311799,140.363255 C2.24049033,136.646351 3.32647927,133.026387 5.25779499,129.847665 C7.45327744,126.093032 10.8856056,123.218302 14.9671897,121.715609 L30.1797432,116.492866 L43.8500102,142.185958 L48.8273894,142.185958 L62.8481761,116.492866 L78.2359894,121.715609 C82.3029439,123.114177 85.7428995,125.908365 87.9453841,129.602302 L87.9453841,129.847665 C87.5698667,128.841281 86.9422659,127.948157 86.1226819,127.25382 C88.1986285,124.739997 90.9096799,122.827737 93.9743224,121.715609 L109.186876,116.492866 L122.927247,142.185958 L127.904626,142.185958 L141.574893,116.492866 L157.03281,121.540349 C161.124449,123.041189 164.568497,125.915359 166.777257,129.672406 C168.719121,132.934084 169.793129,136.638808 169.896882,140.433359 C169.896882,140.433359 171.474221,154.629406 172,168.264621 L172,170.367739 Z M125.310781,72.4675962 C115.631447,72.4675962 107.784797,80.3142462 107.784797,89.9935795 C107.784797,99.6729128 115.631447,107.519563 125.310781,107.519563 C134.990114,107.519563 142.836764,99.6729128 142.836764,89.9935795 C142.836764,80.3142462 134.990114,72.4675962 125.310781,72.4675962 Z M125.310781,111.305175 C113.448474,111.247637 103.846412,101.645574 103.788873,89.7832677 C103.788873,77.8970464 113.424559,68.2613602 125.310781,68.2613602 C137.197002,68.2613602 146.832688,77.8970464 146.832688,89.7832677 C146.832688,101.669489 137.197002,111.305175 125.310781,111.305175 Z M46.5490116,107.379355 C56.2283449,107.379355 64.0749949,99.5327049 64.0749949,89.8533716 C64.0749949,80.1740383 56.2283449,72.3273883 46.5490116,72.3273883 C36.8696783,72.3273883 29.0230283,80.1740383 29.0230283,89.8533716 C29.0230283,99.5327049 36.8696783,107.379355 46.5490116,107.379355 Z M46.5490116,68.5417759 C58.4113179,68.5993144 68.0133806,78.2013771 68.0709191,90.0636834 C68.0709191,101.949905 58.4352329,111.585591 46.5490116,111.585591 C34.6627903,111.585591 25.0271041,101.949905 25.0271041,90.0636834 C25.0271041,78.1774621 34.6627903,68.5417759 46.5490116,68.5417759 Z M121.630324,46.7745047 L121.595272,46.9497645 C117.912342,31.4646977 103.408891,21.0399233 87.5575364,22.4841579 C71.7061814,23.9283924 59.3255277,36.8026075 58.5017322,52.698287 L54.575912,52.4529233 C55.6574662,34.7711226 69.4656809,20.5165216 87.1041369,18.8731393 C104.851164,17.0751037 121.16401,28.7614707 125.170573,46.1435693 L131.199511,37.4857335 L134.354188,39.8342153 L124.364377,53.8550019 L110.343591,43.8651915 L112.692073,40.7105145 L121.630324,46.7745047 Z M48.1263501,47.0198684 L34.2457713,57.8859781 L23.7301814,43.8651915 L26.8848584,41.5167097 L33.1942123,49.8941297 C38.4306957,20.9276301 64.4526774,0.418571062 93.840865,2.09585681 C123.229053,3.77314256 146.748612,27.1097092 148.65539,56.4838994 L144.72957,56.7292632 C143.08676,29.348433 121.231325,7.51982646 93.8484981,5.91064954 C66.4656707,4.30147261 42.2039423,23.4199618 37.3653964,50.4199092 L45.7778684,43.8651915 L48.1263501,47.0198684 Z" id="Combined-Shape"></path>
                </g>
            </g>
        </g>
    </g>
</svg>