<svg id="Capa_1" data-name="Capa 1" xmlns="http://www.w3.org/2000/svg" viewBox="0 0 72 72"><defs><style>.cls-1{fill:#ca3625;}</style></defs><title>productos de inversión</title><path class="cls-1" d="M62.23,39.34H12.39V7.88H62.23ZM66.41,7.88V6.51H8.21V7.88H11V39.34H8.21v1.37H36.49V51.44l-11,12.46H23.94v1.36H28V63.9h-.81L36.4,53.53V63.9H34.85v1.36H39.4V63.9H37.86V53.53L47,63.9H46.5v1.36h4.09V63.9H48.86l-11-12.37V40.71H66.41V39.34H63.59V7.88Z"/><path class="cls-1" d="M21.49,32.25a1.55,1.55,0,0,1,0,3.09,1.54,1.54,0,0,1-1.55-1.55,1.6,1.6,0,0,1,1.55-1.54M32.4,21.34a1.5,1.5,0,1,1,0,3,1.91,1.91,0,0,1-1.09-.46,1.48,1.48,0,0,1-.46-1.09,1.65,1.65,0,0,1,1.55-1.45m11.73,0a1.69,1.69,0,0,1,1.09.45,1.48,1.48,0,0,1,.46,1.09,1.54,1.54,0,0,1-1.55,1.55,1.55,1.55,0,0,1,0-3.09M21.49,36.7a2.93,2.93,0,0,0,2.91-2.91A3.83,3.83,0,0,0,24,32.34l7-7a2.71,2.71,0,0,0,1.46.36,2.82,2.82,0,0,0,2.73-2.18H41.4a3,3,0,0,0,2.73,2.18A2.93,2.93,0,0,0,47,22.79a2.73,2.73,0,0,0-.45-1.45l8.09-8.1V17H56V11H50v1.36h3.73l-8.09,8.1A2.71,2.71,0,0,0,44.22,20a2.91,2.91,0,0,0-2.82,2.27H35.31a2.9,2.9,0,0,0-5.73.64A3,3,0,0,0,30,24.43l-7,7A3.08,3.08,0,0,0,21.49,31a2.87,2.87,0,1,0,0,5.73"/></svg>