<?xml version="1.0" encoding="UTF-8"?>
<svg width="182px" height="118px" viewBox="0 0 182 118" version="1.1" xmlns="http://www.w3.org/2000/svg" xmlns:xlink="http://www.w3.org/1999/xlink">
    <!-- Generator: Sketch 55.2 (78181) - https://sketchapp.com -->
    <title>respeto</title>
    <desc>Created with Sketch.</desc>
    <g id="Page-1" stroke="none" stroke-width="1" fill="none" fill-rule="evenodd">
        <g id="respeto" transform="translate(0.000000, -1.000000)" fill="#CA3625" fill-rule="nonzero">
            <path d="M62.9785361,13.736929 L65.303247,12.6009906 C68.4879273,11.0618875 72.1494693,10.8342268 75.5002751,11.9669785 L119.881123,27.2625207 L119.881123,27.5531095 C119.551181,30.2860167 118.19056,32.7899368 116.07705,34.5536599 C113.123941,36.1360949 109.595361,36.2243093 106.566868,34.7914144 L87.1766648,28.2135387 C86.6770056,28.0568499 86.1356353,28.1043386 85.6708861,28.3456247 C85.194639,28.6024308 84.8422059,29.040591 84.6934507,29.5608146 C82.7780203,36.0542256 78.5238369,41.6072526 72.7528894,45.1469455 C67.0467804,48.2377545 59.9669786,48.3698405 51.7512383,45.5432031 C51.114177,45.3214113 50.4071834,45.4563355 49.8965754,45.897151 C49.3859675,46.3379664 49.1493185,47.0177028 49.2757719,47.68031 C49.4022254,48.3429173 49.8725699,48.8877295 50.5096312,49.1095212 C59.6763896,52.2267474 67.8921299,52.0154101 74.5492571,48.4226748 C80.6305296,44.841387 85.2521637,39.2280661 87.5993395,32.5723721 L87.7314254,32.2817831 L88.0220143,32.2817831 L105.113924,38.1463952 C110.397358,39.9427628 114.729774,39.7050082 118.031921,37.4331316 C122.760594,34.1838194 123.553109,27.7644469 123.6852,25.8888278 L123.6852,25.7567418 C123.686515,24.9495498 123.1782,24.2294376 122.417171,23.9603742 L122.417171,23.9603742 L76.6097964,8.37424326 C72.2750286,6.88381932 67.5266708,7.16872078 63.4012107,9.16675839 L61.102917,10.2762796 C57.8766811,11.8455966 54.1557166,12.0549603 50.773803,10.8574574 L46.758393,9.40451294 C46.6117736,9.29658545 46.4519796,9.20781108 46.2828838,9.14034122 L22.8508531,1.21518987 C22.6491017,1.19004916 22.4450096,1.19004916 22.2432582,1.21518987 C21.9485332,1.21625724 21.6584623,1.28877497 21.3979086,1.42652724 C20.9545264,1.64031852 20.6129576,2.01983926 20.4468905,2.48321409 L0.92460099,59.8084754 C0.589927205,60.7927994 1.1076112,61.8634641 2.08695652,62.212438 L25.5718217,70.1375894 C25.7802679,70.1870268 25.9973875,70.1870268 26.2058338,70.1375894 C26.4900172,70.145784 26.7716783,70.0821831 27.024766,69.9526692 C27.4755135,69.7488222 27.8203794,69.3656377 27.9757843,68.8959823 L47.0489818,13.419923 L49.690699,14.3973583 C54.0314316,15.9539133 58.8135419,15.7162338 62.9785361,13.736929 Z M43.4034122,12.5745735 L25.0434782,66.0429279 L24.7264723,66.0429279 L5.1249312,59.2272977 L5.1249312,58.9102917 L23.616951,5.36268574 L42.901486,11.9933957 L43.5354981,12.3104018 L43.4034122,12.5745735 Z" id="Shape"></path>
            <path d="M154.381949,2.48321409 C154.157406,2.03812958 153.76923,1.69729145 153.298844,1.53219592 C152.832003,1.34820662 152.31274,1.34820662 151.8459,1.53219592 L129.444139,12.5481563 C128.510619,12.9999339 128.111088,14.1162718 128.545955,15.0577876 L154.646121,68.3412217 L154.461201,68.4997249 L145.743533,76.4248762 C138.323587,83.2413571 129.960301,88.9533038 120.911392,93.3847001 L78.1948267,114.254265 C76.9372879,114.884904 75.4758026,114.970874 74.1529994,114.49202 C72.8398773,114.032175 71.7527532,113.08685 71.1150248,111.850303 C70.4843859,110.592764 70.3984161,109.131279 70.8772703,107.808475 C71.3371147,106.495353 72.2824401,105.408229 73.5189873,104.770501 L97.2944414,93.0941111 C97.8680831,92.5463915 98.0416369,91.7002083 97.7299159,90.9708992 C97.4181951,90.2415901 96.6866427,89.7822668 95.8943313,89.818382 L60.7594937,106.857457 C59.4972395,107.470269 58.0430623,107.555808 56.7176664,107.095212 C55.3960531,106.650085 54.3040247,105.700495 53.6796917,104.453495 C53.0521296,103.190074 52.9558836,101.728153 53.4123917,100.393363 C53.8689,99.0585723 54.8402467,97.9617755 56.1100715,97.3472757 L90.4523941,80.5987893 C90.9360208,80.3830343 91.3078024,79.975421 91.4782726,79.4740381 C91.6487427,78.9726551 91.6024659,78.422902 91.3505778,77.9570721 C91.1231004,77.4841619 90.7150381,77.122569 90.2181943,76.9536421 C89.7213504,76.7847152 89.1774516,76.8226414 88.7088608,77.0588883 L50.1926253,95.9735828 C48.9351539,96.5945878 47.4823729,96.6901587 46.1543851,96.2392375 C44.8263975,95.7883164 43.7321774,94.8279055 43.1128233,93.5696203 C42.4913237,92.310936 42.3962733,90.8566654 42.8486517,89.527793 C43.2937789,88.2061797 44.2433689,87.1141513 45.4903688,86.4898183 L80.413869,69.3714914 C81.0571405,68.821589 81.2597199,67.9128179 80.9109102,67.1417649 C80.5621006,66.3707119 79.7458098,65.9228582 78.9080903,66.0429279 L48.2113373,80.9950467 C46.9537985,81.6256858 45.4923132,81.7116554 44.1695102,81.2328014 C42.8563879,80.7729568 41.7692638,79.8276316 41.1315355,78.5910842 C40.5008965,77.3335454 40.4149268,75.8720601 40.8937809,74.5492571 C41.3536255,73.2361347 42.2989507,72.1490107 43.5354981,71.5112824 L59.8348926,63.586131 C60.4625162,63.2793978 60.8788239,62.6611314 60.9269968,61.964227 C60.9751698,61.2673224 60.6478893,60.5976562 60.0684387,60.207485 C59.4889882,59.8173138 58.7454,59.7659139 58.1177766,60.0726472 L41.8447991,67.9977986 C37.3240843,70.2027386 35.4442399,75.6531049 37.6444689,80.1761145 C38.4730083,81.8667928 39.8133296,83.2533319 41.4749587,84.1386901 L41.8712163,84.3500275 L41.5542102,84.6670335 C38.765018,87.2374018 37.8719043,91.2729968 39.316065,94.7802444 C40.7602258,98.2874919 44.2360214,100.524124 48.0264172,100.38525 L49.1623555,100.38525 L49.5850303,100.38525 L49.5850303,100.807925 C49.2873398,102.668893 49.5637888,104.576391 50.3775454,106.27628 C51.8865544,109.408701 55.0635507,111.393038 58.5404512,111.374794 C59.9184914,111.380393 61.2776326,111.054199 62.503027,110.423775 L67.0996147,108.151899 L67.0996147,108.759494 C66.9107382,110.441473 67.2232229,112.141757 67.9977986,113.64667 C69.045888,115.82778 70.9228668,117.499043 73.2104862,118.288048 C75.4981057,119.077053 78.0062815,118.918242 80.1761145,117.847001 L122.89268,96.9774354 C132.243915,92.3346919 140.874752,86.3642882 148.517336,79.2515134 L158.265272,70.2960925 L180.270776,59.5443038 C180.74894,59.3225212 181.115485,58.9146819 181.285157,58.4156436 C181.45483,57.9166056 181.412842,57.3698651 181.168959,56.9025867 L154.381949,2.48321409 Z M157.921849,66.2542653 L157.789764,66.0429279 L132.904788,15.0842047 L151.819483,5.86461201 L151.951569,6.15520088 L176.810127,57.0346726 L157.921849,66.2542653 Z" id="Shape"></path>
        </g>
    </g>
</svg>