<?xml version="1.0" encoding="UTF-8"?>
<svg width="120px" height="112px" viewBox="0 0 120 112" version="1.1" xmlns="http://www.w3.org/2000/svg" xmlns:xlink="http://www.w3.org/1999/xlink">
    <!-- Generator: Sketch 55.2 (78181) - https://sketchapp.com -->
    <title>rigor</title>
    <desc>Created with Sketch.</desc>
    <g id="Page-1" stroke="none" stroke-width="1" fill="none" fill-rule="evenodd">
        <g id="rigor" fill="#CA3625" fill-rule="nonzero">
            <path d="M105.886127,0.404170008 L13.5044106,0.404170008 C6.19891596,0.414788471 0.28227747,6.34004698 0.28227747,13.6455493 L0.28227747,75.9647153 C0.292843433,83.265838 6.20331107,89.1849088 13.5044106,89.2060946 L44.0866078,89.2060946 L56.6928629,110.011227 C57.3047027,110.816932 58.2601846,111.287542 59.2718525,111.281591 L59.2718525,111.281591 C60.2788174,111.286172 61.2311755,110.824207 61.850842,110.030473 L61.850842,109.914996 L62.0817963,109.664795 L74.4763433,89.2060946 L105.886127,89.2060946 C113.185999,89.1744702 119.095882,83.2645878 119.127506,75.9647153 L119.127506,13.6455493 C119.106365,6.34131235 113.190364,0.425311203 105.886127,0.404170008 Z M115.759422,75.9647153 C115.727887,81.40447 111.325882,85.8064756 105.886127,85.8380113 L73.5140337,85.8380113 C72.9260278,85.8418363 72.3810834,86.1470051 72.0705694,86.6463513 L59.2718525,107.778669 L46.4538893,86.6078589 C46.1387932,86.1158712 45.5946659,85.8184149 45.010425,85.818765 L13.5044106,85.818765 C8.06344993,85.797604 3.66090532,81.3864607 3.65036087,75.9454691 L3.65036087,13.6455493 C3.70295874,8.23463382 8.09327943,3.87003767 13.5044106,3.84923817 L105.886127,3.84923817 C111.318435,3.88065937 115.717402,8.27105067 115.759422,13.7032879 L115.759422,75.9647153 Z" id="Shape"></path>
            <path d="M80.192462,31.0441059 L80.192462,31.0441059 L53.7674419,56.3143544 L39.2365677,41.8027265 C38.7580943,41.3321233 38.0448576,41.1926747 37.424373,41.448415 C36.8038884,41.7041553 36.3960484,42.3056693 36.3881264,42.9767442 C36.3873648,43.4219105 36.5599367,43.8498886 36.8692863,44.170008 L52.5549318,59.8364073 C52.8660528,60.1499084 53.2873327,60.3294703 53.7289495,60.3368084 L53.7289495,60.3368084 C54.1589009,60.3368084 54.5723768,60.171418 54.8837209,59.8748997 L82.5404972,33.4691259 C82.8557408,33.15919 83.0356219,32.7371614 83.0408981,32.2951083 C83.0583648,31.8449178 82.8915618,31.4070596 82.5789896,31.0825982 C81.9248236,30.426409 80.8674495,30.4093546 80.192462,31.0441059 L80.192462,31.0441059 Z" id="Path"></path>
        </g>
    </g>
</svg>