<?xml version="1.0" encoding="UTF-8"?>
<svg width="120px" height="115px" viewBox="0 0 120 115" version="1.1" xmlns="http://www.w3.org/2000/svg" xmlns:xlink="http://www.w3.org/1999/xlink">
    <!-- Generator: Sketch 55.1 (78136) - https://sketchapp.com -->
    <title>Combined Shape</title>
    <desc>Created with Sketch.</desc>
    <g id="Diseño" stroke="none" stroke-width="1" fill="none" fill-rule="evenodd">
        <g id="0-Home_desktop" transform="translate(-1070.000000, -1376.000000)" fill="#D34A46">
            <g id="Group-6" transform="translate(65.000000, 1374.000000)">
                <g id="Group-5" transform="translate(1005.000000, 0.000000)">
                    <g id="Icon">
                        <path d="M9.89434453,2.8125 L66.8702925,2.8125 C71.6318093,2.99451517 75.6631853,7.02381094 75.6631853,11.9725433 L75.6631853,13.4369854 L93.8022969,13.4369854 C94.7175731,13.4369854 95.6328494,13.8020558 96.1851354,14.5394772 C96.9142362,15.268578 97.2813868,16.1848944 97.2813868,17.1001706 L97.2813868,23.8794556 C97.2813868,25.8982638 95.6328494,27.5457611 93.6202817,27.5457611 L76.0313759,27.5457611 L75.6631853,27.5457611 L75.6631853,33.77276 L97.6506176,33.77276 C102.411094,33.9589355 106.44455,37.9882313 106.44455,42.9369637 L106.44455,104.309358 L119.816945,104.309358 L119.816945,105.589705 C119.816945,105.589705 120,107.605393 120,108.520669 C120,113.287386 116.700845,116.949531 112.121343,116.949531 L55.3305309,116.949531 C50.1997833,116.949531 46.1694475,112.73406 46.1694475,107.787408 L46.1694475,85.9871912 L24.5502059,85.9871912 C19.4225785,85.9871912 15.3891224,81.7758803 15.3891224,76.8240276 L15.3891224,15.4547535 L0,15.4547535 L0,12.1555986 C0,7.02381094 4.21235103,2.99451517 9.16108342,2.99451517 L9.89434453,2.99451517 L9.89434453,2.8125 Z M18.1401517,76.6440926 C18.1401517,80.3062378 20.8880607,83.0541468 24.3671506,83.2382421 C28.0303359,83.2382421 30.7772048,80.3062378 30.7772048,76.8240276 L30.7772048,42.9369637 C30.7772048,37.8020558 34.9926761,33.77276 39.9382882,33.77276 L40.6725894,33.77276 L40.6725894,33.5886647 L72.9152763,33.5886647 L72.9152763,27.3606257 L50.9320043,27.3606257 C50.7489491,27.3606257 50.3838787,27.3606257 50.1997833,27.1806907 L39.7573131,20.4014057 L50.3838787,13.6231609 C50.5638137,13.6231609 50.7489491,13.4369854 51.1160997,13.4369854 L73.0993716,13.4369854 L73.0993716,11.9725433 C73.0993716,8.30623781 70.1684074,5.56040899 66.6882774,5.56040899 L15.5721777,5.56040899 C17.2217551,7.20790628 18.1401517,9.59178494 18.1401517,11.9725433 L18.1401517,76.6440926 Z M2.74894908,11.9725433 L2.74894908,12.520669 L15.3891224,12.520669 L15.5721777,12.520669 L15.5721777,11.9725433 C15.5721777,8.30623781 12.6401733,5.56040899 9.16108342,5.56040899 C5.49581798,5.56040899 2.74894908,8.48929307 2.74894908,11.9725433 Z M52.2154713,19.2968337 L88.1234236,19.2968337 L88.1234236,16.1828142 L52.2154713,16.1828142 L52.2154713,19.2968337 Z M90.8713326,16.1848944 L90.8713326,24.6127167 L93.6202817,24.6127167 C94.1694475,24.6127167 94.5345179,24.2455661 94.5345179,23.6953602 L94.5345179,16.9171154 C94.5345179,16.73302 94.5345179,16.5499648 94.3504225,16.37211 C94.1694475,16.1848944 93.984312,16.1848944 93.8022969,16.1848944 L90.8713326,16.1848944 Z M44.7050054,20.4014057 L49.4665222,23.512305 L49.4665222,17.2873862 L44.7050054,20.4014057 Z M52.212351,22.048903 L52.212351,24.7957719 L76.0313759,24.7957719 L88.1234236,24.7957719 L88.1234236,22.048903 L52.212351,22.048903 Z M33.3472589,76.6440926 C33.3472589,79.2099865 32.4278223,81.4056094 30.7772048,83.0541468 L46.1694475,83.0541468 L46.1694475,42.7497481 C46.1694475,39.0855228 43.2384832,36.3365737 39.7573131,36.3365737 C36.0920477,36.3365737 33.3472589,39.268578 33.3472589,42.7497481 L33.3472589,76.6440926 Z M48.7332611,107.605393 C48.7332611,111.267538 51.6652654,114.017527 55.1453954,114.017527 C58.6276056,114.017527 61.5585699,111.084483 61.5585699,107.787408 C61.5585699,107.422337 61.5585699,106.688036 61.3755146,106.141991 L61.0073239,104.674428 L62.8409967,104.309358 L103.693521,104.309358 L103.693521,42.9369637 C103.693521,39.268578 100.764637,36.5196289 97.2813868,36.5196289 L46.1694475,36.5196289 C47.8179848,38.1702465 48.7332611,40.5510049 48.7332611,42.9369637 L48.7332611,107.605393 Z M64.3064789,107.605393 C64.3064789,110.169206 63.3891224,112.37003 61.740585,114.017527 L111.939328,114.017527 C115.052308,114.017527 117.253131,111.637809 117.253131,108.336574 L117.253131,107.057267 L64.3064789,107.057267 L64.3064789,107.605393 Z M65.5701842,84.8046127 L65.5701842,82.5944285 L87.9611701,82.5944285 L87.9611701,84.8046127 L65.5701842,84.8046127 Z M59.5335211,91.5755769 L59.5335211,89.3674729 L94.2952979,89.3674729 L94.2952979,91.5755769 L59.5335211,91.5755769 Z M75.7359913,53.2816658 L77.9472156,53.2816658 L77.9472156,55.3451977 C78.6825569,55.4908099 79.4168581,55.7830742 80.0065872,56.2261511 C80.8906609,57.1091847 81.3347779,58.1388705 81.3347779,59.1706365 L79.1235536,59.1706365 C79.1235536,58.7306798 78.9758613,58.288643 78.5338245,57.9922183 C77.7974431,57.2579171 76.175948,57.2579171 75.2949946,57.9922183 C74.8519177,58.288643 74.7052654,58.7306798 74.7052654,59.1706365 C74.7052654,59.6137134 74.8519177,60.0567904 75.2949946,60.352175 C75.7359913,60.7921316 76.3257205,60.9419041 76.9123294,60.9419041 C78.0928277,60.9419041 79.1235536,61.3808207 80.0065872,62.1192822 C80.8906609,63.0012757 81.3347779,64.0330417 81.3347779,65.0648077 C81.3347779,66.2421858 80.8906609,67.2739518 80.0065872,68.0103332 C79.4168581,68.5979821 78.6825569,68.8944068 77.9472156,69.041059 L77.9472156,71.2512432 L75.7359913,71.2512432 L75.7359913,69.1877113 C74.8519177,69.041059 74.2632286,68.5979821 73.6734995,68.1549052 C72.7883857,67.2739518 72.3473889,66.2421858 72.3473889,65.2104198 L74.556533,65.2104198 C74.556533,65.6534967 74.7052654,66.0955336 75.1462622,66.388838 C76.0292958,67.1252194 77.6507909,67.1252194 78.3861322,66.2421858 C78.8292091,65.9478413 78.9758613,65.5068445 78.9758613,65.0648077 C78.9758613,64.6227709 78.8292091,64.1786538 78.3861322,63.8863895 C77.9472156,63.4443527 77.3564464,63.2977004 76.7656771,63.2977004 C75.588299,63.2977004 74.556533,62.8546235 73.6734995,62.1192822 C72.7883857,61.2352086 72.3473889,60.2024025 72.3473889,59.1706365 C72.3473889,57.9922183 72.7883857,56.9604523 73.6734995,56.2261511 C74.2632286,55.7830742 74.9985699,55.4908099 75.7359913,55.3451977 L75.7359913,53.2816658 Z M62.6256988,62.2669745 C62.6256988,54.4580038 68.9577465,48.1269962 76.7646371,48.1269962 C84.5725677,48.1269962 90.9046154,54.4580038 90.9046154,62.2669745 C90.9046154,70.072825 84.5725677,76.4059128 76.7646371,76.4059128 C68.9577465,76.4059128 62.6256988,70.072825 62.6256988,62.2669745 Z M64.835883,62.1192822 C64.835883,68.6011024 70.1382449,74.0490764 76.7646371,74.0490764 C83.2464572,74.0490764 88.6965114,68.7487947 88.6965114,62.1192822 C88.6965114,55.636422 83.3931094,50.1863678 76.7646371,50.1863678 C70.1382449,50.1863678 64.835883,55.636422 64.835883,62.1192822 Z" id="Combined-Shape"></path>
                    </g>
                </g>
            </g>
        </g>
    </g>
</svg>