<?xml version="1.0" encoding="UTF-8"?>
<svg width="120px" height="115px" viewBox="0 0 120 115" version="1.1" xmlns="http://www.w3.org/2000/svg" xmlns:xlink="http://www.w3.org/1999/xlink">
    <!-- Generator: Sketch 55.2 (78181) - https://sketchapp.com -->
    <title>sin-objetivo-de-producto</title>
    <desc>Created with Sketch.</desc>
    <g id="Page-1" stroke="none" stroke-width="1" fill="none" fill-rule="evenodd">
        <g id="sin-objetivo-de-producto">
            <path d="M104.86875,109.33125 C110.131016,109.290057 114.375,105.012427 114.375,99.75 L114.375,5.30625 L32.34375,5.30625 L32.34375,99.75 C32.3448905,103.18078 31.2838099,106.527769 29.30625,109.33125 L104.86875,109.33125 Z M69.76875,23.08125 L102.95625,23.08125 C104.903054,23.08125 106.48125,24.6594463 106.48125,26.60625 C106.48125,28.5530537 104.903054,30.13125 102.95625,30.13125 L69.76875,30.13125 C67.8219463,30.13125 66.24375,28.5530537 66.24375,26.60625 C66.24375,24.6594463 67.8219463,23.08125 69.76875,23.08125 L69.76875,23.08125 Z M69.76875,51.525 L102.95625,51.525 C104.215611,51.525 105.379309,52.1968611 106.00899,53.2874999 C106.63867,54.3781388 106.63867,55.7218612 106.00899,56.8125001 C105.379309,57.9031389 104.215611,58.575 102.95625,58.575 L69.76875,58.575 C67.8219463,58.575 66.2437502,56.9968037 66.2437502,55.05 C66.2437502,53.1031963 67.8219463,51.525 69.76875,51.525 Z M69.76875,79.96875 L102.95625,79.96875 C104.80855,80.103753 106.242401,81.6459115 106.242401,83.503125 C106.242401,85.3603385 104.80855,86.902497 102.95625,87.0375 L69.76875,87.0375 C67.9164498,86.902497 66.4825993,85.3603385 66.4825993,83.503125 C66.4825993,81.6459115 67.9164498,80.103753 69.76875,79.96875 L69.76875,79.96875 Z M39.5625,21.5625 C40.2433706,20.9201879 41.1517514,20.5750522 42.087357,20.6031907 C43.0229627,20.6313293 43.9089604,21.0304312 44.55,21.7125 L47.7,25.05 L59.3625,12.28125 C60.2006611,11.3141977 61.4971,10.8773648 62.7495936,11.1399747 C64.0020872,11.4025845 65.0138724,12.3233818 65.392997,13.5456619 C65.7721216,14.767942 65.4590263,16.0996884 64.575,17.025 L50.34375,32.60625 C49.6799157,33.3264488 48.7450954,33.7361455 47.765625,33.7361455 C46.7861546,33.7361455 45.8513343,33.3264488 45.1875,32.60625 L39.375,26.55 C38.737433,25.8642592 38.3988927,24.953031 38.4340686,24.0173522 C38.4692445,23.0816734 38.8752459,22.1984355 39.5625,21.5625 L39.5625,21.5625 Z M39.5625,51.2625 C40.2550298,50.6330347 41.1578979,50.2852633 42.09375,50.2875 C43.0257345,50.320545 43.9076031,50.7177224 44.55,51.39375 L47.7,54.73125 L59.3625,41.9625 C60.6810109,40.5303529 62.9078911,40.4298921 64.35,41.7375 C65.0424853,42.3682998 65.4554212,43.2487839 65.4976363,44.1845521 C65.5398514,45.1203203 65.2078737,46.0344096 64.575,46.725 L50.34375,62.30625 C49.6770223,63.0212895 48.743279,63.4273165 47.765625,63.4273165 C46.787971,63.4273165 45.8542277,63.0212895 45.1875,62.30625 L39.375,56.25 C38.737433,55.5642592 38.3988927,54.653031 38.4340686,53.7173522 C38.4692445,52.7816734 38.8752459,51.8984355 39.5625,51.2625 L39.5625,51.2625 Z M39.5625,80.94375 C40.2476514,80.3045047 41.157074,79.960945 42.09375,79.9875 C43.0295621,80.003806 43.9176016,80.4037627 44.55,81.09375 L47.7,84.375 L59.3625,71.5875 C60.6810109,70.1553529 62.9078911,70.0548921 64.35,71.3625 C65.0424853,71.9932998 65.4554212,72.8737839 65.4976363,73.8095521 C65.5398514,74.7453203 65.2078737,75.6594096 64.575,76.35 L50.34375,91.93125 C49.6770223,92.6462895 48.743279,93.0523165 47.765625,93.0523165 C46.787971,93.0523165 45.8542277,92.6462895 45.1875,91.93125 L39.375,85.93125 C38.737433,85.2455092 38.3988927,84.334281 38.4340686,83.3986022 C38.4692445,82.4629234 38.8752459,81.5796855 39.5625,80.94375 L39.5625,80.94375 Z" id="Shape"></path>
            <path d="M15.7125,109.33125 C20.999799,109.320933 25.2834333,105.037299 25.29375,99.75 L25.29375,59.38125 L6.1125,59.38125 L6.1125,99.75 C6.12284105,105.04461 10.4178801,109.33125 15.7125,109.33125 Z" id="Path"></path>
            <path d="M117.975,0.1125 L28.81875,0.1125 C27.9074802,0.1125 27.16875,0.851230163 27.16875,1.7625 L27.16875,54.2625 L2.5875,54.2625 C1.67320549,54.2727736 0.9375,55.0168978 0.9375,55.93125 L0.9375,99.75 C0.947846054,107.902684 7.55980955,114.50625 15.7125,114.50625 L104.86875,114.50625 C113.014119,114.49592 119.61467,107.895369 119.625,99.75 L119.625,1.7625 C119.625,1.32489279 119.451161,0.905208835 119.141726,0.595773811 C118.832291,0.286338787 118.412607,0.1125 117.975,0.1125 L117.975,0.1125 Z M15.7125,111.20625 C9.38234761,111.20625 4.24784339,106.080144 4.2375,99.75 L4.2375,57.50625 L27.16875,57.50625 L27.16875,99.75 C27.158427,106.072831 22.0353313,111.195927 15.7125,111.20625 Z M116.25,99.75 C116.239677,106.072831 111.116581,111.195927 104.79375,111.20625 L25.2375,111.20625 L26.6625,109.65 C29.0908715,106.925535 30.4264571,103.399589 30.4125,99.75 L30.4125,3.43125 L116.25,3.43125 L116.25,99.75 Z" id="Shape" fill="#CA3625" fill-rule="nonzero"></path>
            <path d="M69.76875,28.125 L102.95625,28.125 C103.86752,28.125 104.60625,27.3862698 104.60625,26.475 C104.60625,25.5637302 103.86752,24.825 102.95625,24.825 L69.76875,24.825 C68.8574802,24.825 68.11875,25.5637302 68.11875,26.475 C68.11875,27.3862698 68.8574802,28.125 69.76875,28.125 Z" id="Path" fill="#CA3625" fill-rule="nonzero"></path>
            <path d="M69.76875,56.60625 L102.95625,56.60625 C103.86752,56.60625 104.60625,55.8675198 104.60625,54.95625 C104.60625,54.0449802 103.86752,53.30625 102.95625,53.30625 L69.76875,53.30625 C68.8574802,53.30625 68.11875,54.0449802 68.11875,54.95625 C68.11875,55.8675198 68.8574802,56.60625 69.76875,56.60625 L69.76875,56.60625 Z" id="Path" fill="#CA3625" fill-rule="nonzero"></path>
            <path d="M69.76875,85.06875 L102.95625,85.06875 C103.804705,84.9784329 104.448361,84.2626239 104.448361,83.409375 C104.448361,82.5561261 103.804705,81.8403171 102.95625,81.75 L69.76875,81.75 C68.9202946,81.8403171 68.2766385,82.5561261 68.2766385,83.409375 C68.2766385,84.2626239 68.9202946,84.9784329 69.76875,85.06875 L69.76875,85.06875 Z" id="Path" fill="#CA3625" fill-rule="nonzero"></path>
            <path d="M46.5375,31.36875 C46.8574921,31.6992615 47.2962471,31.8882637 47.75625,31.89375 C48.2138959,31.8847495 48.6477535,31.6881578 48.95625,31.35 L63.1875,15.76875 C63.4880382,15.4465643 63.6472355,15.0175612 63.6296256,14.577315 C63.6120158,14.1370688 63.4190617,13.7221517 63.09375,13.425 C62.7625389,13.1349079 62.3338497,12.9808477 61.89375,12.99375 C61.4563667,13.019643 61.046202,13.2146393 60.75,13.5375 L47.71875,27.80625 L43.125,23.00625 C42.8268776,22.6886875 42.4164063,22.5002744 41.98125,22.48125 C41.5472828,22.4900008 41.1297939,22.6490442 40.8,22.93125 C40.487403,23.241094 40.3115546,23.6629884 40.3115546,24.103125 C40.3115546,24.5432616 40.487403,24.965156 40.8,25.275 L46.5375,31.36875 Z" id="Path" fill="#CA3625" fill-rule="nonzero"></path>
            <path d="M46.5375,61.05 C46.8523741,61.3878512 47.2944293,61.578275 47.75625,61.5750416 C48.2154246,61.5728749 48.651915,61.3750902 48.95625,61.03125 L63.1875,45.45 C63.4869585,45.1309827 63.6457034,44.7050366 63.6280747,44.2678448 C63.610446,43.830653 63.4179218,43.4188709 63.09375,43.125 C62.7711902,42.8205239 62.3363334,42.6642472 61.89375,42.69375 C61.4585937,42.7127744 61.0481224,42.9011875 60.75,43.21875 L47.71875,57.4875 L43.125,52.6875 C42.8268776,52.3699375 42.4164063,52.1815244 41.98125,52.1625 L41.98125,52.1625 C41.5593681,52.1655615 41.1554886,52.3338446 40.85625,52.63125 C40.5447678,52.937873 40.3693646,53.3566701 40.3693646,53.79375 C40.3693646,54.2308299 40.5447678,54.649627 40.85625,54.95625 L46.5375,61.05 Z" id="Path" fill="#CA3625" fill-rule="nonzero"></path>
            <path d="M46.5375,90.75 C46.8594037,91.0753874 47.2985421,91.2577987 47.75625,91.2563476 C48.213002,91.2613002 48.6499667,91.0701282 48.95625,90.73125 L63.1875,75.15 C63.4880382,74.8278143 63.6472355,74.3988112 63.6296256,73.958565 C63.6120158,73.5183188 63.4190617,73.1034017 63.09375,72.80625 C62.7666613,72.4967878 62.3239297,72.3401289 61.875,72.375 C61.4355502,72.392688 61.0223933,72.5891068 60.73125,72.91875 L47.71875,87.1875 L43.125,82.3875 C42.8319112,82.0630114 42.4183765,81.8731922 41.98125,81.8625 L41.98125,81.8625 C41.5616309,81.858543 41.1573831,82.0202421 40.85625,82.3125 C40.543653,82.622344 40.3678046,83.0442384 40.3678046,83.484375 C40.3678046,83.9245116 40.543653,84.346406 40.85625,84.65625 L46.5375,90.75 Z" id="Path" fill="#CA3625" fill-rule="nonzero"></path>
        </g>
    </g>
</svg>