<?xml version="1.0" encoding="UTF-8"?>
<svg width="124px" height="118px" viewBox="0 0 124 118" version="1.1" xmlns="http://www.w3.org/2000/svg" xmlns:xlink="http://www.w3.org/1999/xlink">
    <!-- Generator: Sketch 55.2 (78181) - https://sketchapp.com -->
    <title>solvencia</title>
    <desc>Created with Sketch.</desc>
    <g id="Page-1" stroke="none" stroke-width="1" fill="none" fill-rule="evenodd">
        <g id="solvencia" transform="translate(0.000000, -1.000000)" fill="#CA3625" fill-rule="nonzero">
            <path d="M114.845902,115.337705 L63.4819672,115.337705 C65.213443,113.602448 66.1649884,111.237787 66.1180328,108.786885 L66.1180328,108.196721 L120.295082,108.196721 L120.295082,109.514754 C120.3991,111.021767 119.870588,112.503987 118.836559,113.605209 C117.80253,114.706431 116.356473,115.327091 114.845902,115.318033 L114.845902,115.337705 Z M56.7344262,115.318033 C54.9938282,115.328582 53.3214652,114.641797 52.090654,113.410985 C50.8598427,112.180174 50.1730572,110.507811 50.1836066,108.767213 L50.1836066,42.6098361 C50.1965089,40.1594985 49.2504124,37.8013175 47.547541,36.0392236 L99.8557377,36.0392236 C101.599772,36.0287342 103.275166,36.7182099 104.506557,37.9532989 C105.737948,39.1883879 106.422397,40.8658412 106.406826,42.6098361 L106.406826,105.403279 L64.6032787,105.403279 L62.6360656,105.777049 L63.0098361,107.291803 C63.1625931,107.835435 63.2289765,108.399694 63.2065574,108.963934 C63.079998,112.506739 60.1810794,115.318863 56.6360656,115.337705 L56.7344262,115.318033 Z M31.8098361,83.6655738 C33.5313767,81.917229 34.4747104,79.5482556 34.4262295,77.095082 L34.4262295,42.4131148 C34.6170756,38.9291923 37.4977396,36.2020097 40.9868852,36.2020097 C44.4760309,36.2020097 47.3566949,38.9291923 47.547541,42.4131148 L47.547541,83.7245902 L31.8098361,83.6655738 Z M18.8655738,77.095082 L18.8655738,10.9180328 C18.8848972,8.47606373 17.9454711,6.12396687 16.2491803,4.36709335 L68.557377,4.36709335 C70.297975,4.35666374 71.9703381,5.04344927 73.2011493,6.27426052 C74.4319606,7.50507177 75.1187461,9.17743479 75.1083165,10.9180328 L75.1083165,12.4327869 L52.6229508,12.4327869 C52.2295082,12.4327869 52.052459,12.6098361 51.8557377,12.6098361 L40.9967213,19.5540984 L51.6786885,26.4786885 C51.8943227,26.635812 52.1611866,26.7060393 52.4262295,26.6754098 L74.9311475,26.6754098 L74.9311475,33.0491803 L41.9213115,33.0491803 L41.9213115,33.2262295 L41.1737705,33.2262295 C36.0035207,33.2478513 31.8206074,37.4395523 31.8098361,42.6098361 L31.8098361,77.2918033 C31.8204462,79.0358378 31.1309704,80.7112312 29.8958814,81.9426223 C28.6607924,83.1740135 26.9833391,83.8584625 25.2393443,83.8428919 C21.6319697,83.703984 18.798637,80.704499 18.8655738,77.095082 L18.8655738,77.095082 Z M16.052459,11.4885246 L3.12786885,11.4885246 L3.12786885,10.9180328 C3.31871495,7.43411037 6.1993789,4.70692772 9.68852459,4.70692772 C13.1776703,4.70692772 16.0583342,7.43411037 16.2491803,10.9180328 L16.2491803,11.4885246 L16.052459,11.4885246 Z M96.8655738,15.4229508 C97.0058239,15.5777054 97.0706145,15.7864751 97.042623,15.9934426 L97.042623,22.9180328 C97.0603046,23.1734782 96.9665129,23.4240663 96.7854536,23.6051257 C96.6043942,23.7861851 96.3538061,23.8799767 96.0983607,23.8622951 L93.304918,23.8622951 L93.304918,15.2459016 L96.3934426,15.2459016 C96.5999474,15.223076 96.8066365,15.2872209 96.9639344,15.4229508 L96.8655738,15.4229508 Z M90.4918033,18.4131148 L53.7442623,18.4131148 L53.7442623,15.2262295 L90.4918033,15.2262295 L90.4918033,18.4131148 Z M46.052459,19.5540984 L50.9311475,16.3672131 L50.9311475,22.7409836 L46.052459,19.5540984 Z M78.1180328,24.0393443 L53.7442623,24.0393443 L53.7442623,21.2262295 L90.4918033,21.2262295 L90.4918033,24.0393443 L78.1180328,24.0393443 Z M122.911475,106.662295 L122.911475,105.344262 L109.140984,105.344262 L109.140984,42.6098361 C109.111463,37.6576425 105.268488,33.565903 100.327869,33.2262295 L77.7245902,33.2262295 L77.7245902,26.852459 L96.0983607,26.852459 C98.1658445,26.8524874 99.8449132,25.1822096 99.8557377,23.1147541 L99.8557377,16.1704918 C99.8460097,15.1836874 99.4422998,14.2416976 98.7344262,13.5540984 C98.161852,12.8480355 97.3024822,12.4364045 96.3934426,12.4327869 L77.7245902,12.4327869 L77.7245902,10.9180328 C77.6885673,5.90517311 73.7416633,1.79417466 68.7344262,1.55409836 L10.4262295,1.55409836 L10.4262295,1.73114754 L9.67868852,1.73114754 C4.50843872,1.75276935 0.325525404,5.94447031 0.314754098,11.1147541 L0.314754098,14.4786885 L16.052459,14.4786885 L16.052459,77.2918033 C16.0740808,82.4620531 20.2657818,86.6449664 25.4360656,86.6557377 L47.547541,86.6557377 L47.547541,108.963934 C47.5583622,114.141868 51.7532137,118.33672 56.9311475,118.347541 L115.042623,118.347541 C117.275047,118.324386 119.400595,117.388002 120.92443,115.756384 C122.448265,114.124765 123.237428,111.940276 123.108197,109.711475 C123.108197,108.786885 122.911475,106.721311 122.911475,106.721311 L122.911475,106.662295 Z" id="Shape"></path>
            <rect id="Rectangle" x="64.052459" y="87.4032787" width="28.4852459" height="2.81311475"></rect>
            <rect id="Rectangle" x="56.3606557" y="96.0393443" width="44.242623" height="2.81311475"></rect>
            <path d="M76.2295082,66.8852459 C75.7373553,66.5507335 75.4542854,65.9845936 75.4819672,65.3901639 L72.6688525,65.3901639 C72.7072136,66.8128777 73.3170387,68.1601657 74.3606557,69.1278689 C75.1000188,69.7921247 76.003203,70.2471122 76.9770492,70.4459016 L76.9770492,72.9836066 L79.7901639,72.9836066 L79.7901639,70.1704918 C80.7795081,70.0004253 81.6965698,69.5418945 82.4262295,68.852459 C83.533433,67.9233687 84.1563339,66.5399492 84.1180328,65.095082 C84.0774692,63.6728755 83.468012,62.3264002 82.4262295,61.357377 C81.3383096,60.4002843 79.9407851,59.869225 78.4918033,59.8622951 C77.7609437,59.8737836 77.0546959,59.5983469 76.5245902,59.095082 C76.0263219,58.7659554 75.7413895,58.1960905 75.7770492,57.6 C75.7454389,57.0047456 76.0294205,56.4367825 76.5245902,56.104918 C77.7332334,55.1629794 79.4274223,55.1629794 80.6360656,56.104918 C81.135703,56.4347817 81.4266479,57.0017513 81.4032787,57.6 L84.2163934,57.6 C84.1780323,56.1772862 83.5682072,54.8299982 82.5245902,53.8622951 C81.7401626,53.2933337 80.8402274,52.9038095 79.8885246,52.7213115 L79.8885246,50.104918 L76.9770492,50.104918 L76.9770492,52.7213115 C76.0326051,52.9077538 75.1399078,53.2970503 74.3606557,53.8622951 C73.2541924,54.7834528 72.6307688,56.1607842 72.6688525,57.6 C72.7063861,59.0285895 73.315909,60.3822971 74.3606557,61.357377 C75.4540385,62.3053674 76.8480609,62.8350959 78.295082,62.852459 C79.0551303,62.8202501 79.7972588,63.0888299 80.3606557,63.6 C80.8558254,63.9318644 81.139807,64.4998276 81.1081967,65.095082 C81.1428997,65.6963601 80.8590041,66.2716222 80.3606557,66.6098361 C79.2209231,67.6919423 77.4576436,67.7675114 76.2295082,66.7868852" id="Path"></path>
            <path d="M78.295082,46.1704918 C86.6825671,46.1704918 93.4819672,52.9698919 93.4819672,61.357377 C93.4819672,69.7448622 86.6825671,76.5442623 78.295082,76.5442623 C69.9075968,76.5442623 63.1081967,69.7448622 63.1081967,61.357377 C63.1298188,52.9788644 69.9165693,46.1921139 78.295082,46.1704918 M78.295082,79.6131148 C88.2362075,79.6131148 96.295082,71.5542403 96.295082,61.6131148 C96.295082,51.6719893 88.2362075,43.6131148 78.295082,43.6131148 C68.3539565,43.6131148 60.295082,51.6719893 60.295082,61.6131148 C60.295082,71.5542403 68.3539565,79.6131148 78.295082,79.6131148" id="Shape"></path>
        </g>
    </g>
</svg>