<?xml version="1.0" encoding="UTF-8"?>
<svg width="116px" height="118px" viewBox="0 0 116 118" version="1.1" xmlns="http://www.w3.org/2000/svg" xmlns:xlink="http://www.w3.org/1999/xlink">
    <!-- Generator: Sketch 55.2 (78181) - https://sketchapp.com -->
    <title>sostenibilidad</title>
    <desc>Created with Sketch.</desc>
    <g id="Page-1" stroke="none" stroke-width="1" fill="none" fill-rule="evenodd">
        <g id="sostenibilidad" transform="translate(0.000000, -1.000000)" fill="#CA3625" fill-rule="nonzero">
            <path d="M97.5934426,38.8721311 C97.015367,25.437575 89.6592129,13.2143582 78.0590164,6.41311475 L77.8229508,6.27540984 C62.9469228,-2.30447808 44.2388907,-0.335211546 31.4754098,11.1540984 C31.0252975,11.5446721 30.8501253,12.1652582 31.0295827,12.7335399 C31.2090401,13.3018216 31.7088501,13.7092554 32.3016393,13.7704918 C32.7194404,13.7984119 33.1308302,13.6565533 33.442623,13.3770492 C41.9985586,5.71518744 53.6298714,2.46568944 64.9180328,4.58360656 L65.1344262,4.58360656 L65.1344262,4.8 C64.7865146,6.8992016 63.7397853,8.81936075 62.1639344,10.2491803 C60.5487541,11.2521946 58.7105663,11.8401444 56.8131148,11.9606557 C52.1114754,12.7672131 46.2491803,13.7704918 43.495082,19.8295082 C43.2983607,20.242623 43.0819672,20.7737705 42.8655738,21.3245902 C42.4379954,22.4602197 41.9182291,23.5589662 41.3114754,24.6098361 L41.0163934,25.0622951 L40.8786885,24.5508197 L40.7016393,23.9213115 C40.4557491,22.4212907 39.7311406,21.041084 38.6360656,19.9868852 C37.8437498,19.2514089 36.7837146,18.8743493 35.704918,18.9442623 C34.0732976,19.3373327 32.6607775,20.3543472 31.7704918,21.7770492 C30.5832908,23.27911 30.435064,25.3542853 31.3967213,27.0098361 C32.123761,28.403155 32.1529097,30.0573413 31.4754098,31.4754098 C30.747541,33.1278689 32.3213115,34.9967213 32.8327869,35.6262295 C34.8983607,38.0852459 40.4262295,42.5508197 43.7901639,41.7245902 C48.8852459,40.4655738 51.8360656,44.8918033 54.4327869,48.8065574 C56.2229508,51.5016393 57.9147541,54.0393443 60.0786885,54.5901639 C64.2688525,55.6721311 68.4196721,58.1114754 67.947541,60.4918033 C66.7672131,65.6065574 62.8327869,66.5901639 59.3508197,67.4360656 C58.1756046,67.6933202 57.0240295,68.0486633 55.9081967,68.4983607 C52.523272,70.1977922 49.5390565,72.5985769 47.1540984,75.5409836 L47.0360656,75.6786885 L46.8786885,75.6786885 C44.7736147,75.0100413 42.7326713,74.1541618 40.7803279,73.1213115 L40.5836066,73.0032787 L40.5836066,72.8065574 C40.8590164,72.1967213 41.1344262,71.547541 41.4688525,70.8393443 C44.3016393,64.9377049 44.104918,61.8098361 37.3967213,56.2622951 C33.9737705,53.4491803 35.1344262,49.6721311 36.7081967,46.9967213 C37.6218085,45.443326 37.174493,43.4476104 35.6852459,42.4327869 L34.4852459,41.6262295 C31.3377049,39.6590164 25.5147541,35.7245902 22.5639344,31.3967213 L22.5639344,31.2983607 L22.5639344,31.1803279 C23.802213,26.514498 25.9553918,22.1412716 28.8983607,18.3147541 C29.3936776,17.6616914 29.2708331,16.7315824 28.6229508,16.2295082 C28.3115928,15.9999102 27.9257956,15.8946928 27.5409836,15.9344262 C27.0813651,15.935669 26.6471706,16.1455297 26.3606557,16.504918 C16.334186,29.6836148 15.4811725,47.6829819 24.2163934,61.7508197 C29.9909411,70.9838009 39.3080802,77.4360159 49.9822007,79.5939072 C60.6563212,81.7517984 71.748138,79.4254789 80.6557377,73.1606557 C80.7922915,73.0943667 80.9182533,73.0081823 81.0295082,72.904918 L81.0295082,72.904918 C92.0032274,65.1361083 98.2499345,52.3014251 97.5934426,38.8721311 Z M38.7147541,69.5606557 C38.4983607,70.052459 38.242623,70.5836066 37.9868852,71.1737705 L37.8688525,71.4491803 L37.6327869,71.2721311 C25.9219233,63.4369528 19.7118373,49.6036616 21.6393443,35.6459016 L21.6393443,35.1344262 L21.9934426,35.5081967 C25.1376414,38.7337277 28.6656251,41.5614001 32.4983607,43.9278689 C33.0491803,44.2819672 33.5409836,44.5967213 33.9540984,44.8918033 C34.153053,45.0182017 34.2142723,45.2805699 34.0918033,45.4819672 C31.0819672,50.5967213 31.5737705,55.3180328 35.4491803,58.5442623 C41.4885246,63.5409836 40.7803279,65.0557377 38.7147541,69.5606557 Z M77.8819672,71.5278689 C71.9630311,75.3777837 65.0542958,77.4278535 57.9934426,77.4295082 C55.4776145,77.4462947 52.9665194,77.2090259 50.4983607,76.7213115 L50.0655738,76.6229508 L50.3606557,76.3081967 C52.2768145,74.2389462 54.5405064,72.5212035 57.0491803,71.2327869 C57.9545739,70.8718818 58.8891111,70.5888882 59.842623,70.3868852 C63.7770492,69.4032787 69.2065574,68.0459016 70.7803279,61.1803279 C71.8229508,56.6754098 66.5311475,53.1737705 60.8262295,51.7180328 C59.7442623,51.442623 58.6622951,49.7508197 57.2852459,47.7836066 C54.3540984,43.2786885 50.3409836,37.1409836 43.1016393,38.9311475 C41.8319655,38.8344028 40.6198324,38.3618763 39.6196721,37.5737705 C37.5049125,36.349389 35.6955509,34.6610999 34.3278689,32.6360656 L34.3278689,32.6360656 L34.3278689,32.5377049 C35.2000397,30.4463783 35.1283489,28.0805806 34.1311475,26.0459016 C33.6,24.7081967 33.5409836,24.3737705 34.1311475,23.7442623 C35.0557377,22.6032787 35.6459016,22.0721311 36.0983607,22.0327869 C36.5508197,21.9934426 36.5311475,22.0327869 36.8262295,22.3672131 C37.4115104,23.0479028 37.7932926,23.8796426 37.9278689,24.7672131 C38.3213115,26.3016393 38.7540984,27.895082 40.5639344,28.2491803 C43.1803279,28.7409836 44.4983607,25.4163934 45.6393443,22.7409836 L46.2688525,21.2459016 C48.3737705,16.642623 53.0360656,15.8360656 57.1278689,15.1278689 C59.7054887,14.9701362 62.1868118,14.0907662 64.2885246,12.5901639 C66.3204747,10.8056703 67.7040175,8.3983058 68.2229508,5.7442623 L68.2229508,5.46885246 L68.4786885,5.46885246 C70.9123453,6.17329861 73.2660237,7.1292744 75.5016393,8.32131148 L75.6786885,8.32131148 L75.6786885,8.49836066 C74.852459,12.4327869 77.4098361,14.9901639 79.0819672,16.6622951 C79.495082,17.0754098 79.8491803,17.4295082 80.0852459,17.7245902 L80.0852459,17.8229508 L80.0852459,17.9409836 C79.8300166,19.0998884 79.9399719,20.3093973 80.4,21.4032787 C80.6426091,22.2396258 80.306485,23.1359567 79.5737705,23.6065574 C77.3114754,25.4360656 74.4983607,28.2688525 73.9081967,31.4754098 C72.5114754,38.7540984 75.1278689,42.0393443 77.842623,44.3016393 C79.4596735,45.5929675 81.3293496,46.5311562 83.3311475,47.0557377 C84.6491803,47.4688525 85.5934426,47.7639344 85.9278689,48.6295082 C86.4,49.8295082 85.4754098,52.0131148 82.2885246,57.304918 C79.4557377,61.9868852 76.2491803,67.2786885 77.9409836,71.3311475 L77.9409836,71.5081967 L77.8819672,71.5278689 Z M80.9114754,69.3442623 L80.5770492,69.6196721 L80.5770492,69.1868852 C80.2819672,66.4327869 82.7409836,62.3409836 84.9245902,58.7409836 C87.7377049,54.0590164 90.4131148,49.652459 88.347541,46.5836066 C87.3920089,45.3090541 85.9836508,44.4499557 84.4131148,44.1836066 C82.7162139,43.7852072 81.1299351,43.0122324 79.7704918,41.9213115 C77.6459016,40.1704918 75.6786885,37.9868852 76.8196721,31.9278689 C77.6981216,29.5214655 79.3165786,27.4553502 81.442623,26.0262295 C83.0643764,24.6967024 83.6646763,22.4850709 82.9377049,20.5180328 C82.6891021,19.9701817 82.6070114,19.3613425 82.7016393,18.7672131 C83.3311475,17.1540984 82.1508197,15.9540984 80.7344262,14.557377 C79.4828133,13.5534424 78.586405,12.1743526 78.1770492,10.6229508 L78.1770492,10.0918033 L78.6295082,10.3868852 C88.2502341,16.94737 94.1921578,27.6794987 94.6459549,39.3153225 C95.0997521,50.9511463 90.0117109,62.1134436 80.9311475,69.4032787 L80.9114754,69.3442623 Z" id="Shape"></path>
            <path d="M27.5409836,100.780328 C27.8236933,101.172887 28.2769013,101.406801 28.7606557,101.409836 C29.3212965,101.407218 29.83201,101.087069 30.0786885,100.583607 C30.3398585,100.092441 30.2938726,99.4946236 29.9606557,99.0491803 C27.7020514,96.7625524 25.1561928,94.7787665 22.3868852,93.147541 C18.8080705,90.855013 15.4259423,88.2690667 12.2754098,85.4163934 C9.41383593,81.7066938 7.13819626,77.5800236 5.52786885,73.1803279 L3.16721311,64.6622951 C2.9770823,64.081038 3.29415277,63.4557046 3.87540984,63.2655738 C4.4566669,63.075443 5.08200033,63.3925134 5.27213115,63.9737705 C6.19672131,65.9409836 6.82622951,67.357377 7.23934426,68.4983607 C7.81934999,70.0245587 8.59997928,71.4667383 9.56065574,72.7868852 C12.721035,76.8609656 16.7542999,80.174965 21.3639344,82.4852459 L21.3639344,82.4852459 L28.7213115,89.8819672 C29.0727851,90.2272865 29.5718333,90.3772598 30.0554394,90.2828977 C30.5390456,90.1885355 30.9451077,89.8619553 31.1409836,89.4098361 C31.3786625,88.8586623 31.2536775,88.2181143 30.8262295,87.7967213 L23.6065574,80.3409836 L20.5377049,75.7377049 C20.2493954,75.172706 20.4264226,74.4814569 20.9508197,74.1245902 C21.4809426,73.7709116 22.1893847,73.8542577 22.6229508,74.3213115 L30.2754098,82.4262295 C32.3606557,84.5901639 32.3803279,84.5901639 32.6163934,84.7672131 L43.4360656,90.0196721 C46.996655,91.761578 49.2336047,95.4004518 49.1803279,99.3639344 C49.1734686,99.4818676 49.1734686,99.6000997 49.1803279,99.7180328 C49.2432401,100.547591 49.963417,101.171158 50.7934426,101.114754 C51.1834725,101.072472 51.5424928,100.882402 51.7967213,100.583607 C52.0496613,100.282871 52.1702751,99.8926501 52.1311475,99.5016393 L51.9934426,97.8491803 C51.5639453,93.3287851 48.8143331,89.3571231 44.7344262,87.3639344 L34.1508197,82.1901639 L24.7672131,72.3540984 C23.4825677,70.9576525 21.4251385,70.5876542 19.7344569,71.4490312 C18.0437753,72.3104083 17.1336631,74.1923248 17.5081967,76.052459 L17.704918,76.7213115 L17.1737705,76.3081967 C15.2338973,74.7555327 13.4840854,72.9793086 11.9606557,71.0163934 C11.211725,69.965635 10.6032966,68.8215249 10.1508197,67.6131148 C9.67868852,66.5114754 9.00983607,65.0163934 7.98688525,62.8131148 C7.37905333,61.4064541 6.03620577,60.4573133 4.50734191,60.3537318 C2.97847805,60.2501502 1.5198797,61.0094911 0.727868852,62.3213115 C0.159049736,63.2815351 0.00294238419,64.4310528 0.295081967,65.5081967 C2.04590164,71.7639344 2.53770492,73.5540984 2.6557377,73.9868852 C2.6557377,73.9868852 2.6557377,73.9868852 2.6557377,74.104918 C4.38854437,78.9877464 6.9214699,83.548342 10.1508197,87.6 C13.466294,90.6052833 17.0261196,93.3294382 20.7934426,95.7442623 L21.2655738,96.0590164 C23.5143981,97.4124594 25.6173666,98.9946301 27.5409836,100.780328 L27.5409836,100.780328 Z" id="Path"></path>
            <path d="M113.055738,60.452459 C111.070849,59.7813689 108.900684,60.7260287 108.039344,62.6360656 C106.996721,64.8786885 106.327869,66.3934426 105.836066,67.495082 C105.395336,68.7148699 104.786156,69.8670157 104.02623,70.9180328 C102.5028,72.8809479 100.752988,74.657172 98.8131148,76.2098361 L98.3606557,76.7213115 L98.4983607,76.0721311 C98.8604829,74.2157541 97.9461044,72.3446159 96.2590113,71.4896392 C94.5719182,70.6346625 92.5222713,71.0037064 91.2393443,72.3934426 L81.7967213,82.347541 L71.2721311,87.4622951 C66.7346752,89.6330484 63.8656042,94.2358362 63.9147541,99.2655738 C63.9298612,99.4357309 63.9298612,99.606892 63.9147541,99.7770492 C63.8690252,100.581765 64.4694246,101.27788 65.2721311,101.35082 C65.6645926,101.373888 66.0512128,101.247357 66.3540984,100.996721 C66.6528942,100.742493 66.8429638,100.383472 66.8852459,99.9934426 C66.8852459,99.9934426 66.8852459,99.7770492 66.8852459,99.6 C66.7988222,95.6185172 69.0222208,91.946076 72.5901639,90.1770492 L81.2655738,85.9672131 C83.6065574,84.8459016 83.6065574,84.8459016 83.8032787,84.6491803 L93.4032787,74.4983607 C93.8274232,74.0169217 94.5426827,73.9243587 95.0754098,74.2819672 C95.5969076,74.6317575 95.7743829,75.316305 95.4885246,75.8754098 L92.4590164,80.3016393 L84.9836066,87.8163934 C84.5561585,88.2377864 84.4311736,88.8783344 84.6688525,89.4295082 C84.900979,89.9832453 85.4455158,90.3410837 86.0459016,90.3344262 C86.7147541,90.3344262 86.9901639,90.0983607 88.8590164,88.1311475 C90,86.9508197 91.7114754,85.1606557 94.4655738,82.4852459 L94.4655738,82.4852459 C101.390164,79.0229508 106.367213,73.3967213 107.685246,70.504918 L110.67541,63.895082 C110.849168,63.4968844 111.244256,63.2412388 111.678689,63.2459016 C111.809051,63.2256043 111.941769,63.2256043 112.072131,63.2459016 C112.349648,63.3436943 112.57651,63.5484425 112.702154,63.8145113 C112.827797,64.08058 112.841779,64.385855 112.740984,64.6622951 L110.4,73.0819672 C108.794061,77.4897187 106.518146,81.6235224 103.652459,85.3377049 C100.508192,88.1836052 97.1326168,90.7629923 93.5606557,93.0491803 C90.7993306,94.6921181 88.2548957,96.6747947 85.9868852,98.9508197 C85.6536684,99.3962629 85.6076825,99.9940806 85.8688525,100.485246 C86.115531,100.988709 86.6262445,101.308857 87.1868852,101.311475 C87.6601966,101.306851 88.1041369,101.081242 88.3868852,100.701639 C90.332893,98.7845151 92.5064639,97.1130456 94.8590164,95.7245902 C98.7039892,93.256421 102.342176,90.4800831 105.737705,87.4229508 C108.967055,83.3712929 111.49998,78.8106973 113.232787,73.9278689 L113.232787,73.7901639 L113.232787,73.7901639 C113.232787,73.4754098 113.72459,71.9606557 115.554098,65.4098361 C116.121084,63.3606761 115.040136,61.2158022 113.055738,60.452459 Z" id="Path"></path>
            <path d="M51.8557377,105.147541 L30.6688525,105.147541 C29.6689163,105.147541 28.7102194,105.546092 28.0050063,106.254997 C27.2997931,106.963903 26.9062401,107.924668 26.9114238,108.92459 L26.9114238,114.82623 C26.9062401,115.826152 27.2997931,116.786917 28.0050063,117.495822 C28.7102194,118.204728 29.6689163,118.603279 30.6688525,118.603279 L51.8557377,118.603279 C53.9340578,118.592454 55.6131148,116.904578 55.6131148,114.82623 L55.6131148,108.92459 C55.6131148,106.846242 53.9340578,105.158366 51.8557377,105.147541 L51.8557377,105.147541 Z M52.642623,114.786885 C52.6479267,114.998967 52.5673703,115.204206 52.4192219,115.356058 C52.2710735,115.50791 52.0678862,115.593443 51.8557377,115.593443 L30.6688525,115.593443 C30.2234031,115.593443 29.8622951,115.232335 29.8622951,114.786885 L29.8622951,108.885246 C29.8622951,108.439797 30.2234031,108.078688 30.6688525,108.078688 L51.8557377,108.078688 C52.0678862,108.078688 52.2710735,108.164221 52.4192219,108.316073 C52.5673703,108.467925 52.6479267,108.673164 52.642623,108.885246 L52.642623,114.786885 Z" id="Shape"></path>
            <path d="M85.2590164,105.147541 L64.0721311,105.147541 C61.993811,105.158366 60.3147541,106.846242 60.3147541,108.92459 L60.3147541,114.82623 C60.3147541,116.904578 61.993811,118.592454 64.0721311,118.603279 L85.2590164,118.603279 C86.2589525,118.603279 87.2176495,118.204728 87.9228626,117.495822 C88.6280757,116.786917 89.0216287,115.826152 89.016445,114.82623 L89.016445,108.92459 C89.0216287,107.924668 88.6280757,106.963903 87.9228626,106.254997 C87.2176495,105.546092 86.2589525,105.147541 85.2590164,105.147541 L85.2590164,105.147541 Z M86.0655738,114.786885 C86.0655738,115.232335 85.7044657,115.593443 85.2590164,115.593443 L64.0721311,115.593443 C63.8599826,115.593443 63.6567953,115.50791 63.508647,115.356058 C63.3604986,115.204206 63.2799422,114.998967 63.2852459,114.786885 L63.2852459,108.885246 C63.2799422,108.673164 63.3604986,108.467925 63.508647,108.316073 C63.6567953,108.164221 63.8599826,108.078688 64.0721311,108.078688 L85.2590164,108.078688 C85.7044657,108.078688 86.0655738,108.439797 86.0655738,108.885246 L86.0655738,114.786885 Z" id="Shape"></path>
        </g>
    </g>
</svg>