<?xml version="1.0" encoding="UTF-8"?>
<svg width="72px" height="52px" viewBox="0 0 72 52" version="1.1" xmlns="http://www.w3.org/2000/svg" xmlns:xlink="http://www.w3.org/1999/xlink">
    <!-- Generator: Sketch 55.1 (78136) - https://sketchapp.com -->
    <title>Icon</title>
    <desc>Created with Sketch.</desc>
    <g id="Symbols" stroke="none" stroke-width="1" fill="none" fill-rule="evenodd">
        <g id="hablamos-snippet" transform="translate(-32.000000, -32.000000)" fill="#D34A46">
            <g id="hablamos">
                <g id="Icon" transform="translate(32.000000, 22.000000)">
                    <path d="M0.876839375,10.5 L59.3961571,10.5 C59.9449048,10.5 60.2746493,10.9352497 60.2746493,11.3672268 L60.2746493,21.6757713 L71.0132458,21.6757713 C71.4504258,21.6757713 71.8876059,21.998936 72,22.430095 L72,51.774267 C71.9752072,52.2872398 71.5479443,52.5948599 71.1223342,52.5948599 L64.3291017,52.5948599 L64.3291017,61.0585022 C64.3291017,61.3824851 64.1076192,61.707286 63.7820068,61.8169166 L63.4514359,61.8169166 C63.2324327,61.8169166 62.904341,61.707286 62.7944262,61.4904793 L55.0127867,52.5948599 L24.0002755,52.5948599 C23.4515277,52.5948599 23.1217832,52.1604284 23.1217832,51.7276331 L23.1217832,44.2416663 L18.6293244,44.2416663 L9.86340993,54.0045125 C9.64192741,54.2229554 9.4237506,54.3301316 9.20392094,54.3301316 L8.8758293,54.3301316 C8.5460848,54.2229554 8.32873442,53.8957 8.32873442,53.5725354 L8.32873442,44.3496605 L0.876839375,44.3496605 C0.346273042,44.3496605 0.02148711,43.944682 2.84217094e-14,43.524977 L2.84217094e-14,11.3197747 C0.023966392,10.8068019 0.447923601,10.5 0.876839375,10.5 Z M1.75202589,12.1264593 L1.75202589,42.7223831 L9.20392094,42.7223831 C9.75184224,42.7223831 10.0824132,43.0471841 10.0824132,43.4824338 L10.0824132,51.4003778 L17.644223,42.9383717 C17.860747,42.7223831 18.0822295,42.6143889 18.3004063,42.6143889 L58.630059,42.6143889 L58.630059,12.1264593 L1.75202589,12.1264593 Z M24.7655472,44.2416663 L24.7655472,50.7499577 L55.3425312,50.7499577 C55.6706228,50.7499577 55.8904525,50.8595882 55.9987144,51.0763949 L62.5729437,58.6687198 L62.5729437,51.6188207 C62.6845114,51.1843892 63.0109502,50.8595882 63.4514359,50.8595882 L70.2463213,50.8595882 L70.3562361,50.8595882 L70.3562361,23.3022306 L60.3820849,23.3022306 L60.3820849,43.3736213 C60.3820849,43.9160471 59.9449048,44.2416663 59.5068984,44.2416663 L24.7655472,44.2416663 Z M8.57052868,19.3952558 L51.860848,19.3952558 L51.860848,21.3248505 L8.57052868,21.3248505 L8.57052868,19.3952558 Z M8.57085535,27.4287694 L47.3116294,27.4287694 L47.3116294,29.3583642 L8.57085535,29.3583642 L8.57085535,27.4287694 Z M8.57110962,35.4593741 L39.2660839,35.4593741 L39.2660839,37.3870295 L8.57110962,37.3870295 L8.57110962,35.4593741 Z" id="Combined-Shape"></path>
                </g>
            </g>
        </g>
    </g>
</svg>