<?xml version="1.0" encoding="UTF-8"?>
<svg width="120px" height="103px" viewBox="0 0 120 103" version="1.1" xmlns="http://www.w3.org/2000/svg" xmlns:xlink="http://www.w3.org/1999/xlink">
    <!-- Generator: Sketch 55.2 (78181) - https://sketchapp.com -->
    <title>tecnologia</title>
    <desc>Created with Sketch.</desc>
    <g id="Page-1" stroke="none" stroke-width="1" fill="none" fill-rule="evenodd">
        <g id="tecnologia">
            <path d="M107.30625,9.50625 C107.30625,6.57568905 104.930561,4.2 102,4.2 L18,4.2 C15.069439,4.2 12.69375,6.57568905 12.69375,9.50625 L12.69375,38.79375 L42,38.79375 C42.7743474,38.7997266 43.5418571,38.9392738 44.26875,39.20625 L63.88125,19.59375 C64.9530951,18.8669458 66.3900283,19.0035264 67.3057509,19.9192491 C68.2214736,20.8349717 68.3580542,22.2719049 67.63125,23.34375 L48.16875,42.9375 C48.5194303,43.7439448 48.7165537,44.6087445 48.75,45.4875 L48.75,58.8 L91.29375,58.8 L91.29375,57.50625 C91.3040503,53.8033136 94.3033136,50.8040503 98.00625,50.79375 L107.38125,50.79375 L107.30625,9.50625 Z M63.99375,12.20625 L56.00625,12.20625 C54.5150812,12.20625 53.30625,10.9974188 53.30625,9.50625 C53.30625,8.01508117 54.5150812,6.80625 56.00625,6.80625 L63.99375,6.80625 C65.4849187,6.80625 66.69375,8.01508117 66.69375,9.50625 C66.69375,10.9974188 65.4849187,12.20625 63.99375,12.20625 L63.99375,12.20625 Z M79.9125,23.45625 L60.1125,43.21875 C59.6074667,43.7082611 58.9402026,43.9951847 58.2375,44.025 C57.4768554,44.0226771 56.7535241,43.6951307 56.25,43.125 C55.2500001,42.075 55.2500001,40.425 56.25,39.375 L76.0875,19.59375 C77.1336281,18.5841168 78.7913719,18.5841168 79.8375,19.59375 L79.8375,19.59375 C80.3481202,20.0861145 80.6444734,20.7596443 80.6625,21.46875 C80.6834844,22.1873546 80.4129791,22.8839055 79.9125,23.4 L79.9125,23.45625 Z" id="Shape"></path>
            <path d="M42,44.19375 L6,44.19375 C5.28245914,44.2040016 4.70625,44.7886359 4.70625,45.50625 L4.70625,90.80625 L43.29375,90.80625 L43.29375,45.50625 C43.29375,44.7886359 42.7175409,44.2040016 42,44.19375 Z M13.96875,76.4625 L13.96875,76.4625 C13.2563931,76.4593832 12.5773186,76.1605903 12.09375,75.6375 C11.0841168,74.5913719 11.0841168,72.9336281 12.09375,71.8875 L20.625,63.3375 C21.675,62.3375001 23.325,62.3375001 24.375,63.3375 L24.69375,63.65625 L24.54375,64.06875 C24.4419638,64.4876556 24.4419638,64.9248444 24.54375,65.34375 C24.7114747,65.8998251 24.6782886,66.4971756 24.45,67.03125 L24.3375,67.1625 L15.8625,75.65625 C15.3590416,76.1594533 14.680427,76.4483685 13.96875,76.4625 Z M36.46875,67.0875 L27.975,75.58125 C27.4740491,76.0768517 26.8043147,76.3648374 26.1,76.3875 L26.1,76.3875 C25.3876431,76.3843832 24.7085685,76.0855903 24.225,75.5625 C23.2055087,74.5203726 23.2055087,72.8546274 24.225,71.8125 L32.7,63.31875 C33.75,62.3187501 35.4,62.3187501 36.45,63.31875 L36.45,63.31875 C37.5006906,64.3906793 37.4839042,66.1112741 36.4125,67.1625 L36.46875,67.0875 Z" id="Shape"></path>
            <path d="M6,98.79375 L42,98.79375 C42.7145184,98.79375 43.29375,98.2145184 43.29375,97.5 L43.29375,96.20625 L4.70625,96.20625 L4.70625,97.5 C4.70625,98.2145184 5.2854816,98.79375 6,98.79375 Z" id="Path"></path>
            <path d="M48.75,74.79375 L91.29375,74.79375 L91.29375,64.2 L48.75,64.2 L48.75,74.79375 Z M58.125,67.59375 C58.6223379,67.0952149 59.2958374,66.8123452 60,66.80625 L60,66.80625 C61.4911687,66.80625 62.7,68.0150812 62.7,69.50625 C62.7,70.9974187 61.4911687,72.20625 60,72.20625 L60,72.20625 C58.5130849,72.1960303 57.3102197,70.9931651 57.3,69.50625 C57.3122595,68.7849482 57.6087444,68.0976418 58.125,67.59375 L58.125,67.59375 Z" id="Shape"></path>
            <rect id="Rectangle" x="48.7125" y="80.2125" width="2.5875" height="10.59375"></rect>
            <path d="M74.00625,96.2062451 L48.75,96.2062451 L48.75,97.5 C48.7392904,97.9349032 48.6890841,98.3679337 48.6,98.79375 L78.6,98.79375 C77.6277555,97.1860734 75.8850474,96.2044665 74.00625,96.2062451 Z" id="Path"></path>
            <path d="M98.00625,98.79375 L114,98.79375 C114.714518,98.79375 115.29375,98.2145184 115.29375,97.5 L115.29375,96.20625 L96.7125,96.20625 L96.7125,97.5 C96.7125,98.2145184 97.2917316,98.79375 98.00625,98.79375 Z" id="Path"></path>
            <path d="M114,56.25 L98.00625,56.25 C97.2887091,56.2602516 96.7125,56.8448859 96.7125,57.5625 L96.7125,90.80625 L115.29375,90.80625 L115.29375,57.50625 C115.263973,56.8106303 114.696195,56.2593096 114,56.25 Z M110.75625,72.6375 L105.13125,78.2625 C104.632447,78.7612796 103.961394,79.0498326 103.25625,79.06875 C101.762059,79.0481751 100.564553,77.8255466 100.574865,76.33125 C100.595019,75.6225913 100.891055,74.9497817 101.4,74.45625 L107.025,68.83125 C108.075,67.8312501 109.725,67.8312501 110.775,68.83125 C111.289048,69.3212164 111.586057,69.9962374 111.6,70.70625 C111.571122,71.4166843 111.268816,72.0884751 110.75625,72.58125 L110.75625,72.6375 Z" id="Shape"></path>
            <rect id="Rectangle" x="56.7" y="80.2125" width="6.6" height="10.59375"></rect>
            <path d="M114,52.2 L111.3,52.2 L111.3,9.50625 C111.3,4.32858047 107.102669,0.13125 101.925,0.13125 L18,0.13125 C12.8223305,0.13125 8.625,4.32858047 8.625,9.50625 L8.625,40.2 L6,40.2 C3.07676404,40.2103296 0.7125,42.5829958 0.7125,45.50625 L0.7125,97.5 C0.7125,100.420206 3.07979439,102.7875 6,102.7875 L81.99375,102.7875 C82.7082684,102.7875 83.2875,102.208268 83.2875,101.49375 C83.2875,96.3160806 79.0901694,92.11875 73.9125,92.11875 L67.29375,92.11875 L67.29375,78.75 L92.7,78.75 L92.7,97.5 C92.7103296,100.423236 95.0829958,102.7875 98.00625,102.7875 L114,102.7875 C116.923254,102.7875 119.29592,100.423236 119.30625,97.5 L119.30625,57.50625 C119.30625,54.5756891 116.930561,52.2 114,52.2 Z M44.7,97.5 C44.7,98.9911688 43.4911688,100.2 42,100.2 L6,100.2 C4.50883118,100.2 3.3,98.9911688 3.3,97.5 L3.3,94.8 L44.7,94.8 L44.7,97.5 Z M44.7,92.2125 L3.3,92.2125 L3.3,45.50625 C3.3,44.0120179 4.50580333,42.797805 6,42.7875 L42,42.7875 C43.4941967,42.797805 44.7,44.0120179 44.7,45.50625 L44.7,92.2125 Z M74.00625,94.8 C76.8422647,94.807857 79.3691361,96.592413 80.325,99.2625 L80.6625,100.2 L46.63125,100.2 L46.96875,99.2625 C47.1748429,98.6968463 47.2887926,98.1017754 47.30625,97.5 L47.30625,94.8 L74.00625,94.8 Z M47.30625,92.2125 L47.30625,78.75 L52.70625,78.75 L52.70625,92.15625 L47.30625,92.2125 Z M55.29375,92.2125 L55.29375,78.75 L64.66875,78.75 L64.66875,92.15625 L55.29375,92.2125 Z M92.7,76.2 L47.30625,76.2 L47.30625,62.79375 L92.7,62.79375 L92.7,76.2 Z M92.7,57.45 L92.7,60.15 L47.30625,60.15 L47.30625,45.50625 C47.2894071,44.674986 47.0774603,43.8593122 46.6875,43.125 L46.44375,42.65625 L47.025,42.15 L66.7125,22.5 C66.9503977,22.2620409 67.079331,21.9363152 67.06875,21.6 C67.0876937,21.0721886 66.7839049,20.5858545 66.3012741,20.3713519 C65.8186434,20.1568494 65.2540832,20.2572506 64.875,20.625 L45,40.3875 L45,40.3875 C45,40.3875 45,40.3875 45,40.5 L44.6625,40.9125 L44.15625,40.6875 C43.4758618,40.3672056 42.7332579,40.2007597 41.98125,40.2 L11.25,40.2 L11.25,9.50625 C11.2603003,5.80331353 14.2595635,2.80405029 17.9625,2.79369782 L102,2.79369782 C103.785241,2.78877026 105.49934,3.49318211 106.765212,4.75202156 C108.031084,6.01086099 108.745034,7.72100936 108.75,9.50625 L108.75,52.2 L98.00625,52.2 C96.5989449,52.2 95.2492796,52.7590498 94.2541646,53.7541646 C93.2590498,54.7492796 92.7,56.0989449 92.7,57.50625 L92.7,57.45 Z M116.7,97.5 C116.7,98.9911688 115.491169,100.2 114,100.2 L98.00625,100.2 C97.2886335,100.205036 96.5989479,99.9221901 96.0915039,99.4147461 C95.5840599,98.9073021 95.3012139,98.2176165 95.3061194,97.5 L95.3061194,94.8 L116.7,94.8 L116.7,97.5 Z M116.7,92.2125 L95.3061212,92.2125 L95.3061212,57.50625 C95.3012546,56.7869224 95.5835111,56.0953401 96.0904018,55.5849293 C96.5972925,55.0745184 97.2869049,54.7875 98.00625,54.7875 L114,54.7875 C115.494197,54.797805 116.7,56.0120179 116.7,57.50625 L116.7,92.2125 Z" id="Shape" fill="#CA3625" fill-rule="nonzero"></path>
            <path d="M23.11875,64.125 C22.9243942,64.0146268 22.7047592,63.9564881 22.48125,63.95625 C22.1341723,63.9569788 21.8023916,64.0991706 21.5625,64.35 L13.125,72.825 C12.8741394,73.0665778 12.7263446,73.3957569 12.7125,73.74375 C12.7125,74.087274 12.8470833,74.4171257 13.0875,74.6625 C13.3317245,74.9193083 13.6706047,75.0646881 14.025,75.0646881 C14.3793953,75.0646881 14.7182755,74.9193083 14.9625,74.6625 L23.4,66.24375 C23.3823214,66.0108681 23.3510177,65.7792214 23.30625,65.55 C23.1696729,65.0877156 23.106405,64.6068793 23.11875,64.125 L23.11875,64.125 Z" id="Path" fill="#CA3625" fill-rule="nonzero"></path>
            <path d="M34.4625,63.975 C34.1250758,63.9778477 33.8021166,64.1124141 33.5625,64.35 L25.0875,72.825 C24.8306918,73.0692246 24.6853119,73.4081047 24.6853119,73.7625 C24.6853119,74.1168952 24.8306918,74.4557754 25.0875,74.7 C25.3161094,74.9556861 25.6445629,75.0993846 25.9875,75.09375 C26.3318258,75.1197778 26.6694793,74.9888509 26.90625,74.7375 L35.4375,66.20625 C35.6943082,65.9620254 35.8396881,65.6231453 35.8396881,65.26875 C35.8396881,64.9143548 35.6943082,64.5754746 35.4375,64.33125 C35.174094,64.0854622 34.8223163,63.9569282 34.4625,63.975 Z" id="Path" fill="#CA3625" fill-rule="nonzero"></path>
            <path d="M78.88125,20.625 C78.6375932,20.3959247 78.315681,20.2683657 77.98125,20.26875 C77.6453246,20.2603822 77.3204396,20.3889825 77.08125,20.625 L57.28125,40.3875 C57.0244418,40.6317246 56.8790619,40.9706048 56.8790619,41.325 C56.8790619,41.6793952 57.0244418,42.0182754 57.28125,42.2625 C57.5281168,42.5144572 57.8660098,42.6564414 58.21875,42.6564414 C58.5714902,42.6564414 58.9093832,42.5144572 59.15625,42.2625 L78.91875,22.5 C79.1474438,22.2485987 79.2744302,21.9211076 79.275,21.58125 C79.2721343,21.2346167 79.1302839,20.9036325 78.88125,20.6625 L78.88125,20.625 Z" id="Path" fill="#CA3625" fill-rule="nonzero"></path>
            <path d="M109.70625,69.76875 C109.453586,69.5139983 109.108788,69.3720223 108.75,69.3749095 C108.412576,69.3778478 108.089617,69.5124141 107.85,69.75 L102.225,75.375 C101.963466,75.6089201 101.81353,75.9428691 101.8125,76.29375 C101.81307,76.6336076 101.940056,76.9610987 102.16875,77.2125 C102.412975,77.4693083 102.751855,77.6146881 103.10625,77.6146881 C103.460645,77.6146881 103.799525,77.4693083 104.04375,77.2125 L109.66875,71.5875 C109.900645,71.3380912 110.028138,71.0092941 110.025111,70.66875 C110.01923,70.3281997 109.877443,70.0041152 109.63125,69.76875 L109.70625,69.76875 Z" id="Path" fill="#CA3625" fill-rule="nonzero"></path>
            <path d="M60,70.8 C60.7145184,70.8 61.29375,70.2207684 61.29375,69.50625 C61.29375,68.7917316 60.7145184,68.2125 60,68.2125 L60,68.2125 C59.2854816,68.2125 58.70625,68.7917316 58.70625,69.50625 C58.70625,70.2207684 59.2854816,70.8 60,70.8 Z" id="Path" fill="#CA3625" fill-rule="nonzero"></path>
            <path d="M63.99375,8.2125 L56.00625,8.2125 C55.2917316,8.2125 54.7125,8.7917316 54.7125,9.50625 C54.7125,10.2207684 55.2917316,10.8 56.00625,10.8 L63.99375,10.8 C64.7082684,10.8 65.2875,10.2207684 65.2875,9.50625 C65.2875,8.7917316 64.7082684,8.2125 63.99375,8.2125 L63.99375,8.2125 Z" id="Path" fill="#CA3625" fill-rule="nonzero"></path>
        </g>
    </g>
</svg>