<?xml version="1.0" encoding="UTF-8"?>
<svg width="120px" height="120px" viewBox="0 0 120 120" version="1.1" xmlns="http://www.w3.org/2000/svg" xmlns:xlink="http://www.w3.org/1999/xlink">
    <!-- Generator: Sketch 55.2 (78181) - https://sketchapp.com -->
    <title>transparencia</title>
    <desc>Created with Sketch.</desc>
    <g id="Page-1" stroke="none" stroke-width="1" fill="none" fill-rule="evenodd">
        <g id="transparencia" fill="#CA3625" fill-rule="nonzero">
            <path d="M118.29375,80.83125 L100.10625,62.64375 L100.2375,62.475 C110.178727,49.3900452 110.802094,31.4626132 101.79375,17.71875 C101.571788,17.3784036 101.222702,17.1411922 100.824538,17.0601499 C100.426374,16.9791076 100.012339,17.0609935 99.675,17.2875 C98.9864573,17.7553312 98.7953009,18.6861794 99.24375,19.3875 C106.46496,30.3640218 107.077036,44.4188514 100.837392,55.9815821 C94.5977472,67.5443128 82.5138657,74.7479702 69.375,74.7375 C53.1997009,74.7416664 39.0383344,63.8808043 34.8481923,48.2576475 C30.6580502,32.6344908 37.4839835,16.1448195 51.4904908,8.05420323 C65.4969981,-0.0364130519 83.1914258,2.28949648 94.63125,13.725 L94.725,13.725 C95.0040215,14.0158618 95.3907115,14.1786786 95.79375,14.175 L95.79375,14.175 C96.192061,14.1733176 96.5745653,14.0189737 96.8625,13.74375 C97.1499031,13.4585941 97.3115547,13.0704885 97.3115547,12.665625 C97.3115547,12.2607615 97.1499031,11.8726559 96.8625,11.5875 L96.76875,11.475 C81.6103066,-3.65412711 57.0646934,-3.65412711 41.90625,11.475 C41.45625,11.94375 40.9875,12.43125 40.5375,12.9375 L40.5375,12.9375 L1.7625,12.9375 C0.923717536,12.9375 0.24375,13.6174675 0.24375,14.45625 L0.24375,22.5 C0.24375,23.3387825 0.923717536,24.01875 1.7625,24.01875 C2.60128246,24.01875 3.28125,23.3387825 3.28125,22.5 L3.28125,16.1625 L38.00625,16.1625 L37.74375,16.51875 C36.4247249,18.4101112 35.270488,20.4112067 34.29375,22.5 L34.29375,22.63125 L12.1875,22.63125 C11.3487175,22.63125 10.66875,23.3112175 10.66875,24.15 C10.6686874,24.991869 11.3456936,25.6772333 12.1875,25.6875 L32.9625,25.6875 L32.85,25.9875 C32.3549172,27.3889495 31.9355616,28.8160102 31.59375,30.2625 L31.59375,30.45 L12.1875,30.45 C11.3487175,30.45 10.66875,31.1299675 10.66875,31.96875 C10.66875,32.8075325 11.3487175,33.4875 12.1875,33.4875 L30.9375,33.4875 L30.9375,33.75 C30.7435898,35.1677365 30.6246743,36.594723 30.58125,38.025 L30.58125,38.25 L12.1875,38.25 C11.3456936,38.2602667 10.6686874,38.945631 10.66875,39.7875 C10.66875,40.6262825 11.3487175,41.30625 12.1875,41.30625 L30.65625,41.30625 L30.65625,41.53125 C30.9740776,46.648732 32.306148,51.6519628 34.575,56.25 L34.74375,56.5875 L31.40625,56.5875 C30.5674675,56.5875 29.8875,57.2674675 29.8875,58.10625 L29.8875,110.08125 C29.8874374,110.923119 30.5644436,111.608483 31.40625,111.61875 L45.46875,111.61875 C46.3105564,111.608483 46.9875626,110.923119 46.9875,110.08125 L46.9875,70.70625 L47.3625,70.96875 C48.9216288,72.04303 50.5572419,73.0018377 52.25625,73.8375 L52.3875,73.8375 L52.3875,110.025 C52.3874374,110.866869 53.0644436,111.552233 53.90625,111.5625 L67.96875,111.5625 C68.8105564,111.552233 69.4875626,110.866869 69.4875,110.025 L69.4875,77.79375 L69.73125,77.79375 C71.0909836,77.7884156 72.4493547,77.7070385 73.8,77.55 L74.0625,77.55 L74.0625,105 C74.1488946,105.778754 74.8070935,106.367971 75.590625,106.367971 C76.3741565,106.367971 77.0323554,105.778754 77.11875,105 L77.11875,77.00625 L77.30625,77.00625 C82.9459776,75.8444032 88.2520141,73.4284905 92.83125,69.9375 L92.98125,69.80625 L111.16875,87.99375 C113.160757,89.8061073 116.22519,89.7337933 118.129491,87.8294915 C120.033793,85.9251897 120.106107,82.860757 118.29375,80.86875 L118.29375,80.83125 Z M43.95,108.5625 L32.925,108.5625 L32.925,59.56875 L36.46875,59.56875 L36.46875,59.68125 C38.0172693,62.127143 39.8279791,64.3968174 41.86875,66.45 C42.46875,67.05 43.125,67.65 43.74375,68.325 L43.8375,68.325 L43.95,108.5625 Z M66.45,108.5625 L55.425,108.5625 L55.425,75.225 L55.74375,75.3375 C59.114962,76.5874037 62.6414847,77.3696734 66.225,77.6625 L66.45,77.6625 L66.45,108.5625 Z M116.1375,85.8 L116.1375,85.8 C115.764414,86.1726221 115.258545,86.3818786 114.73125,86.38125 C114.201417,86.3949623 113.69053,86.1837958 113.325,85.8 L95.34375,67.81875 L95.5125,67.65 C95.94375,67.25625 96.375,66.8625 96.7875,66.45 L97.9875,65.175 L98.15625,65.00625 L98.325,65.175 L116.1375,82.96875 C116.906867,83.7556985 116.906867,85.0130515 116.1375,85.8 Z" id="Shape"></path>
            <path d="M75.58125,110.98125 C74.7424675,110.98125 74.0625,111.661218 74.0625,112.5 L74.0625,116.71875 L3.28125,116.71875 L3.28125,30 C3.28125,29.1612175 2.60128246,28.48125 1.7625,28.48125 C0.923717536,28.48125 0.24375,29.1612175 0.24375,30 L0.24375,118.2375 C0.24375,119.076282 0.923717536,119.75625 1.7625,119.75625 L75.58125,119.75625 C76.423119,119.75625 77.1084833,119.079306 77.11875,118.2375 L77.11875,112.5 C77.1084833,111.658194 76.423119,110.981187 75.58125,110.98125 L75.58125,110.98125 Z" id="Path"></path>
            <path d="M7.85625,72.1125 L7.85625,110.08125 C7.85625,110.923119 8.53319356,111.608483 9.375,111.61875 L23.4375,111.61875 C24.2793064,111.608483 24.95625,110.923119 24.95625,110.08125 L24.95625,72.1125 C24.95625,71.7097025 24.7962393,71.3234025 24.5114184,71.0385816 C24.2265975,70.7537607 23.8402975,70.59375 23.4375,70.59375 L9.375,70.59375 C8.97220246,70.59375 8.58590245,70.7537607 8.30108158,71.0385816 C8.0162607,71.3234025 7.85625,71.7097025 7.85625,72.1125 Z M10.89375,73.63125 L21.91875,73.63125 L21.91875,108.5625 L10.89375,108.5625 L10.89375,73.63125 Z" id="Shape"></path>
            <path d="M25.33125,49.03125 C26.1100039,48.9448554 26.6992206,48.2866565 26.6992206,47.503125 C26.6992206,46.7195935 26.1100039,46.0613946 25.33125,45.975 L12.20625,45.975 C11.4274961,46.0613946 10.8382794,46.7195935 10.8382794,47.503125 C10.8382794,48.2866565 11.4274961,48.9448554 12.20625,49.03125 L25.33125,49.03125 Z" id="Path"></path>
            <path d="M69.375,7.25618793 C54.2493597,7.24880118 41.2220221,17.9206204 38.2519876,32.751802 C35.2819531,47.5829835 43.1953223,62.4483069 57.1574535,68.2658615 C71.1195847,74.0834162 87.2469796,69.2350779 95.6866701,56.6829196 C104.12636,44.1307614 102.530888,27.3661046 91.875,16.63125 C85.9345461,10.617075 77.8283433,7.23949048 69.375,7.25618793 L69.375,7.25618793 Z M89.6625,59.30625 C79.9757457,69.0341818 64.7644453,70.5603734 53.3381684,62.9507701 C41.9118915,55.3411668 37.4561515,40.7172378 42.6979356,28.0290715 C47.9397197,15.3409051 61.4176792,8.12581501 74.8830783,10.7995566 C88.3484773,13.4732982 98.0473188,25.2904634 98.0438784,39.01875 C98.066556,46.6282118 95.0493357,53.9316402 89.6625,59.30625 L89.6625,59.30625 Z" id="Shape"></path>
        </g>
    </g>
</svg>