<?xml version="1.0" encoding="UTF-8"?>
<svg width="24px" height="20px" viewBox="0 0 24 20" version="1.1" xmlns="http://www.w3.org/2000/svg" xmlns:xlink="http://www.w3.org/1999/xlink">
    <!-- Generator: Sketch 55.1 (78136) - https://sketchapp.com -->
    <title>Clip 215</title>
    <desc>Created with Sketch.</desc>
    <g id="Page-1" stroke="none" stroke-width="1" fill="none" fill-rule="evenodd">
        <g id="Artboard" transform="translate(0.000000, -2.000000)" fill="#FFFFFF">
            <path d="M13.2436772,3.35516283 C11.9645078,4.56960263 11.4241565,6.38352256 11.8196415,8.1144159 L11.8196415,8.1144159 C7.8589968,7.9103675 4.17070079,6.02045713 1.67030844,2.91047804 L1.67030844,2.91047804 C0.365063077,5.1845623 1.03289672,8.09612191 3.19719925,9.55823425 L3.19719925,9.55823425 C2.4120239,9.53431133 1.64423251,9.32322678 0.961912235,8.9348312 L0.961912235,8.9348312 L0.961912235,8.99815657 C0.961912235,11.3693397 2.61483672,13.411231 4.91241625,13.8798387 L4.91241625,13.8798387 C4.18663608,14.0796654 3.42319068,14.10781 2.68726987,13.967087 L2.68726987,13.967087 C3.33337357,15.9934987 5.18186757,17.3852495 7.28677491,17.4232447 L7.28677491,17.4232447 C5.54548198,18.8093666 3.38842277,19.5636421 1.17341703,19.5594204 L1.17341703,19.5594204 C0.779380697,19.5594204 0.391139011,19.5354975 0,19.4890589 L0,19.4890589 C2.25411964,20.949764 4.87330235,21.7251479 7.54898292,21.7237407 L7.54898292,21.7237407 L7.54898292,21.7251479 C16.6031267,21.7251479 21.5561055,14.1373618 21.5561055,7.55433822 L21.5561055,7.55433822 C21.5561055,7.33903198 21.5561055,7.12513296 21.5416189,6.90841949 L21.5416189,6.90841949 C22.5049798,6.20621154 23.337961,5.33232149 24,4.33318793 L24,4.33318793 C23.1032776,4.73706304 22.1486087,4.99880789 21.1722098,5.11701524 L21.1722098,5.11701524 C22.1993119,4.49361219 22.9685519,3.51417986 23.3365123,2.35884374 L23.3365123,2.35884374 C22.3702541,2.94002988 21.3127301,3.35234837 20.2117462,3.57046908 L20.2117462,3.57046908 C19.2396934,2.52771138 17.930102,2 16.6176133,2 L16.6176133,2 C15.4079797,2 14.1940001,2.44890648 13.2436772,3.35516283 L13.2436772,3.35516283 Z" id="Clip-215"></path>
        </g>
    </g>
</svg>