<svg xmlns="http://www.w3.org/2000/svg" xmlns:xlink="http://www.w3.org/1999/xlink" width="24" height="24" viewBox="0 0 24 24"><defs><path id="7xh3a" d="M151.55 1092c.22 0 .36.09.42.26s.03.4-.1.7l-9.57 22.38c-.1.22-.2.38-.33.49a.62.62 0 0 1-.4.15.71.71 0 0 1-.38-.13 1.04 1.04 0 0 1-.34-.39l-3.05-9.48-9.27-2.88c-.38-.24-.55-.5-.53-.79.03-.29.24-.52.65-.69l22.38-9.5a1.4 1.4 0 0 1 .52-.12zm-1.95 2.4l-18.77 7.9 8.1 2.46 2.79 8.07z"/></defs><g><g transform="translate(-128 -1092)"><use fill="#c63527" xlink:href="#7xh3a"/></g></g></svg>