<?xml version="1.0" encoding="UTF-8"?>
<svg width="119px" height="112px" viewBox="0 0 119 112" version="1.1" xmlns="http://www.w3.org/2000/svg" xmlns:xlink="http://www.w3.org/1999/xlink">
    <!-- Generator: Sketch 55.2 (78181) - https://sketchapp.com -->
    <title>unica-prioridad</title>
    <desc>Created with Sketch.</desc>
    <g id="Page-1" stroke="none" stroke-width="1" fill="none" fill-rule="evenodd">
        <g id="unica-prioridad" transform="translate(-1.000000, 0.000000)">
            <path d="M114.62069,85.8 L72.4137931,107.855172 C69.2769713,109.522377 65.5853715,109.799997 62.2344828,108.62069 L37.8413793,100.510345 L29.5655172,100.510345 L29.5655172,73.9032136 L39.7241379,73.9032136 C42.3373723,73.8898207 44.9195679,74.4699304 47.2758621,75.6 L61.0344828,82.0137931 L79.1586207,82.0137931 C81.1239696,82.0679655 82.7044483,83.6484442 82.7586207,85.6137931 C82.7586207,87.5905916 81.1561089,89.1931034 79.1793103,89.1931034 L57.6413793,89.1931034 C55.7586207,89.5655172 51.9931034,91.262069 51.9931034,95.0275862 L54.8068966,95.0275862 C54.8068966,92.7724138 57.4551724,92.2137931 58.0137931,92.0068966 L79.1586207,92.0068966 C80.1978974,91.9584994 81.2173924,91.7053834 82.1586207,91.262069 L111.6,78.2482759 C112.595856,77.8172273 113.725149,77.8146584 114.722955,78.2411719 C115.720762,78.6676855 116.499275,79.4857476 116.875862,80.5034483 C117.610152,82.5866055 116.631296,84.8855681 114.62069,85.8 M119.524138,79.3862069 C118.038522,75.8669446 114.009798,74.1837107 110.462069,75.6 L85.3655172,86.7310345 C85.3655172,86.3586207 85.5724138,85.9862069 85.5724138,85.6137931 C85.6300894,82.1250083 82.8541173,79.2472505 79.3655172,79.1793103 L61.8,79.1793103 L48.5793103,72.9724138 C45.8044005,71.6916912 42.7802184,71.0416334 39.7241379,71.0689655 L29.5448276,71.0689655 L29.5448276,66.3517241 L1.42758621,66.3517241 L1.42758621,69.1862069 L26.7103448,69.1862069 L26.7103448,105.041379 L6.51724138,105.041379 L6.51724138,107.855172 L29.5448276,107.855172 L29.5448276,103.158621 L37.0758621,103.158621 L61.2206897,111.268966 C62.8053986,111.775417 64.4605198,112.026828 66.1241379,112.013793 C68.6767172,112.018734 71.1964463,111.438347 73.4896552,110.317241 L115.551724,88.2413793 C119.082984,86.8814299 120.8565,82.9279682 119.524138,79.3862069" id="Shape" fill="#CA3625" fill-rule="nonzero"></path>
            <rect id="Rectangle" fill="#CA3625" fill-rule="nonzero" x="19.1586207" y="97.1172414" width="2.83448276" height="2.83448276"></rect>
            <rect id="Rectangle" fill="#CA3625" fill-rule="nonzero" x="13.1172414" y="97.1172414" width="2.83448276" height="2.83448276"></rect>
            <path d="M77.9172414,27.9103632 C82.6657571,27.9187123 86.9509703,25.0636088 88.772016,20.6781483 C90.5930616,16.2926878 89.5907197,11.2419474 86.2330069,7.88423452 C82.875294,4.52652167 77.8245536,3.52417976 73.4390931,5.34522542 C69.0536325,7.16627108 66.1985291,11.4514843 66.2068782,16.2 C66.2182846,22.6627219 71.4545195,27.8989567 77.9172414,27.9103632 Z" id="Path"></path>
            <path d="M105.931034,54.8275862 C105.62069,49.9034483 105.206897,46.7586207 104.917241,44.9586207 L104.917241,44.1310345 C104.652209,42.5339337 104.098332,40.9985039 103.282759,39.6 L103.075862,39.1241379 C102.370619,38.12921 101.460577,37.2967684 100.406897,36.6827586 C100.202115,36.612064 100.001756,36.5291567 99.8068966,36.4344828 C99.5840893,36.3117081 99.3481054,36.2145383 99.1034483,36.1448276 L91.9655172,33.5793103 L82.5517241,50.8551724 L73.1586207,50.8551724 L72.9724138,50.5034483 L63.9517241,33.6 L57.0413793,36.0827586 C55.1951829,36.8123845 53.6396448,38.1280499 52.6137931,39.8275862 C51.6382868,41.4365404 51.0833177,43.2650924 51,45.1448276 L51,45.8275862 C50.4333305,48.7883693 50.0395605,51.7796397 49.8206897,54.7862069 C49.7894079,55.2482731 49.946086,55.7033856 50.2551724,56.0482759 C50.6599578,56.3871415 51.1574285,56.5962234 51.6827586,56.6482759 L104.234483,56.6482759 C105.186207,56.6482759 105.455172,56.337931 105.537931,56.2344828 L105.662069,56.0896552 C106.137931,55.6137931 106.075862,55.3655172 106.055172,55.2827586 L105.931034,54.8275862 Z" id="Path"></path>
            <path d="M109.655172,54.3517241 C109.406897,50.5034483 109.055172,47.1103448 108.641379,44.5448276 L108.641379,43.9241379 C108.391658,41.9350282 107.766816,40.0113573 106.8,38.2551724 L106.8,38.1310345 L106.8,37.9448276 L106.531034,37.5517241 C105.437085,35.8353936 103.937906,34.4143704 102.165517,33.4137931 L101.917241,33.2896552 C101.728206,33.260385 101.545987,33.1973093 101.37931,33.1034483 L101.37931,33.1034483 C101.00587,32.9050083 100.609925,32.7521875 100.2,32.6482759 L90.2689655,29.0689655 L80.3586207,47.1724138 L75.3517241,47.1724138 L75.3517241,47.0482759 L65.7517241,29.0689655 L55.7586207,32.6689655 C53.1607,33.7305883 50.9810372,35.6123639 49.5517241,38.0275862 C48.2659016,40.1845227 47.5536379,42.6347099 47.4827586,45.1448276 L47.4827586,45.3103448 C46.9143014,48.2917065 46.520527,51.3037357 46.3034483,54.3310345 C46.1045702,55.8632357 46.5715365,57.407237 47.5862069,58.5724138 L47.8137931,58.8 C48.9078652,59.7222474 50.2742872,60.2600943 51.7034483,60.3310345 L104.255172,60.3310345 C105.827389,60.4387761 107.359159,59.8030916 108.393103,58.6137931 C109.523118,57.5591836 110.00428,55.9816037 109.655172,54.4758621 L109.655172,54.3517241 Z M106.096552,56.4206897 L105.993103,56.5655172 C105.544955,57.0063225 104.92071,57.2194796 104.296552,57.1448276 L51.7241379,57.1448276 C51.0765927,57.0934445 50.4614936,56.8401684 49.9655172,56.4206897 L49.9655172,56.4206897 C49.5612631,55.960069 49.3598656,55.3558766 49.4068966,54.7448276 C49.6338957,51.7390961 50.0276051,48.7482863 50.5862069,45.7862069 L50.5862069,45.1448276 C50.6752112,43.1794813 51.2510786,41.2670326 52.262069,39.5793103 C53.3557049,37.7939664 54.9952659,36.4083197 56.937931,35.6275862 L64.137931,32.9586207 L64.137931,33.1448276 L73.3034483,50.337931 L82.0758621,50.337931 L91.5310345,32.9586207 L91.737931,32.9586207 L99.3103448,35.6482759 C99.58232,35.7246168 99.845763,35.8286074 100.096552,35.9586207 C100.283062,36.0559867 100.476728,36.138986 100.675862,36.2068966 C101.772981,36.8887099 102.716954,37.7904158 103.448276,38.8551724 L103.675862,39.3724138 C104.522146,40.8273126 105.090431,42.4269309 105.351724,44.0896552 L105.351724,44.9172414 C105.641379,46.6758621 106.055172,49.862069 106.365517,54.7655172 L106.365517,55.137931 C106.572414,55.2827586 106.717241,55.737931 106.013793,56.4413793 L106.096552,56.4206897 Z" id="Shape" fill="#CA3625" fill-rule="nonzero"></path>
            <path d="M77.9172414,31.5724277 C84.1450521,31.5724277 89.7592407,27.8197564 92.1405833,22.0652074 C94.5219259,16.3106583 93.2011607,9.68818989 88.794473,5.28742516 C84.3877853,0.886660425 77.7635465,-0.425196352 72.0122055,1.96388388 C66.2608646,4.35296411 62.5157672,9.97219488 62.5241239,16.2 C62.5241239,20.2806049 64.146563,24.1937772 67.0339261,27.0772595 C69.9212893,29.9607418 73.8366402,31.5779059 77.9172414,31.5724277 L77.9172414,31.5724277 Z M77.9172414,3.95172414 C84.6817773,3.95172414 90.1655172,9.43546403 90.1655172,16.2 C90.1655172,22.964536 84.6817773,28.4482759 77.9172414,28.4482759 C71.1527054,28.4482759 65.6689655,22.964536 65.6689655,16.2 C65.6689655,9.43546403 71.1527054,3.95172414 77.9172414,3.95172414 Z" id="Shape" fill="#CA3625" fill-rule="nonzero"></path>
        </g>
    </g>
</svg>