<?xml version="1.0" encoding="UTF-8"?><svg id="Capa_1" xmlns="http://www.w3.org/2000/svg" viewBox="0 0 110 76.42"><path d="M55,6.5c.23,0,22.92,0,37.9,1.08l.66.06c2,.18,4.16.39,6.28,2.58,1,1,2.14,4.54,2.53,7.07.63,5.55.97,11.13,1,16.71v8.24c-.04,5.59-.37,11.17-1,16.72-.37,2.47-1.54,6.06-2.52,7-2.11,2.18-4.32,2.39-6.27,2.58l-.68.07c-14.72,1-36.89,1.1-37.89,1.1-1.15,0-28-.27-36.57-1-.51-.08-1-.15-1.58-.21-2.28-.27-4.87-.58-6.73-2.51-1-1-2.14-4.53-2.52-7.05-.63-5.55-.97-11.13-1-16.71v-8.16c.04-5.58.37-11.16,1-16.71.39-2.55,1.55-6.09,2.53-7.07,2.12-2.19,4.33-2.39,6.28-2.58l.66-.06c15-1.07,37.67-1.08,37.89-1.08h.03M55,.07S31.91.07,16.52,1.17c-2.15.25-6.83.27-11,4.59-3.29,3.3-4.37,10.79-4.37,10.79C.45,22.36.07,28.21,0,34.07v8.24c.05,5.88.41,11.75,1.1,17.59,0,0,1.07,7.49,4.37,10.78,4.19,4.32,9.68,4.19,12.13,4.65,8.8.83,37.4,1.09,37.4,1.09,0,0,23.11,0,38.51-1.13,2.15-.25,6.84-.28,11-4.6,3.29-3.29,4.37-10.78,4.37-10.78.69-5.84,1.07-11.71,1.12-17.59v-8.24c-.05-5.88-.41-11.75-1.1-17.59,0,0-1.07-7.49-4.37-10.79-4.18-4.32-8.87-4.35-11-4.59-15.42-1.11-38.53-1.11-38.53-1.11v.07Z" style="fill:#fff; stroke-width:0px;"/><path d="M45.13,21.82v32.78l27.99-16.39-27.99-16.39Z" style="fill:#fff; stroke-width:0px;"/></svg>