<svg viewBox="0 0 128 128" xmlns="http://www.w3.org/2000/svg"><g fill="#062b31"><path d="m64 32.29c.23 0 22.92 0 37.9 1.08l.66.06c2 .18 4.16.39 6.28 2.58 1 1 2.14 4.54 2.53 7.07a156 156 0 0 1 1 16.71v8.24a156.82 156.82 0 0 1 -1 16.72c-.37 2.47-1.54 6.06-2.52 7-2.11 2.18-4.32 2.39-6.27 2.58l-.68.07c-14.72 1-36.89 1.1-37.89 1.1-1.15 0-28-.27-36.57-1-.51-.08-1-.15-1.58-.21-2.28-.27-4.87-.58-6.73-2.51-1-1-2.14-4.53-2.52-7.05a156 156 0 0 1 -1-16.71v-8.16a156.79 156.79 0 0 1 1-16.71c.39-2.55 1.55-6.09 2.53-7.07 2.12-2.19 4.33-2.39 6.28-2.58l.66-.06c15-1.07 37.67-1.08 37.89-1.08h.03m0-6.5s-23.09 0-38.48 1.1c-2.15.25-6.83.27-11 4.59-3.29 3.3-4.37 10.79-4.37 10.79a162.25 162.25 0 0 0 -1.15 17.52v8.24a162.19 162.19 0 0 0 1.1 17.59s1.07 7.49 4.37 10.78c4.19 4.32 9.68 4.19 12.13 4.65 8.8.83 37.4 1.09 37.4 1.09s23.11 0 38.51-1.13c2.15-.25 6.84-.28 11-4.6 3.29-3.29 4.37-10.78 4.37-10.78a162.26 162.26 0 0 0 1.12-17.59v-8.24a162.27 162.27 0 0 0 -1.1-17.59s-1.07-7.49-4.37-10.79c-4.18-4.32-8.87-4.35-11-4.59-15.42-1.11-38.53-1.11-38.53-1.11z"/><path d="m54.13 47.61v32.78l27.99-16.39z"/></g></svg>